# Blender 3.3.0
# www.blender.org
o DesertIslandCol06
v 45.621632 -30.859222 -19.610430
v 28.331589 -27.727232 6.088953
v 39.696156 -29.188618 -4.188875
v 43.467381 -31.578863 -13.104227
v 18.248898 -28.633541 -15.900086
v 13.695345 -31.103186 -4.579136
v 32.516079 -31.716143 -14.488794
v 26.353771 -32.614975 -4.267514
v 56.655273 -7.818161 -1.264742
v 52.459820 -13.138148 -0.740811
v 46.440556 -20.586758 -1.216237
v 43.213268 -9.295540 5.729969
v 40.306301 -14.842198 6.054276
v 35.260098 -21.528500 6.157101
v 44.829903 -31.381641 -16.885160
v 43.177227 -30.215225 -21.484650
v 33.442863 -28.712618 1.140096
v 41.710548 -30.975161 -9.000634
v 20.083511 -26.555557 -21.207071
v 16.144474 -30.267523 -10.335420
v 10.867017 -30.813354 1.261492
v 35.162605 -30.182165 -19.461046
v 29.651915 -32.517433 -9.481355
v 22.604599 -32.053425 1.231894
v 25.645847 -30.487810 -15.319817
v 20.073517 -32.419548 -4.399086
v 38.374954 -32.064205 -13.573507
v 32.580910 -31.703575 -4.138309
v 43.224724 -24.838848 -2.153612
v 32.095741 -24.880514 6.073379
v 57.458584 -5.689929 -2.012842
v 54.908585 -10.240256 -0.877474
v 49.568764 -16.617737 -0.810984
v 43.487900 -7.075477 5.458566
v 42.095501 -11.889350 5.918830
v 38.001320 -18.105938 6.148216
v 40.785450 -21.334074 2.112860
v 46.412693 -14.075413 2.266881
v 49.989304 -8.674835 1.802722
v 52.027195 -19.610659 -3.706577
v 48.145756 -30.436514 -13.524499
v 27.968288 -28.502787 -20.570642
v 23.029716 -31.854061 -9.949988
v 16.776819 -32.011436 1.330684
v 12.405422 -24.670431 -21.398462
v 9.309012 -27.934334 -10.639792
v 4.964702 -28.521105 0.942552
v 40.601582 -31.210190 -17.895226
v 35.824390 -32.180389 -9.013378
v 28.278130 -30.984081 1.093349
v 37.461140 -25.261961 1.640316
v 43.779789 -17.514185 2.298873
v 48.554050 -11.167253 2.111506
v 48.722054 -30.787733 -17.124458
v 49.149784 -23.559105 -4.795448
v 62.810684 -7.389995 -3.570761
v 60.845875 -9.759438 -3.148168
v 58.208656 -12.565888 -3.032857
v 55.168427 -15.898097 -3.180712
v 47.287090 -27.064856 -6.786714
v 47.328552 -29.291624 -9.919453
v 7.329640 -28.729473 -4.877342
v 10.961739 -26.461916 -16.188030
v 18.777880 -30.590214 6.727531
v 13.437037 -30.501844 6.955373
v 7.959030 -29.390759 6.922605
v 2.498204 -27.360542 6.568995
v 44.906651 -28.284582 -27.188200
v 38.512375 -28.125492 -24.928852
v 48.444035 -30.544407 -20.491770
v 46.861568 -29.803370 -23.659315
v 23.827332 -29.661297 6.363401
v 13.649455 -22.668396 -26.186134
v 21.550802 -24.176592 -26.198523
v 29.773220 -26.041376 -25.722382
v 38.512375 -28.125492 -24.928852
v 63.884403 -5.272047 -4.410291
v 50.499809 -6.507253 1.265198
vn -0.1705 -0.8681 -0.4662
vn -0.1550 -0.8875 -0.4340
vn -0.1879 -0.8796 -0.4371
vn -0.1585 -0.8728 -0.4616
vn -0.1089 -0.9221 -0.3714
vn -0.0682 -0.9659 -0.2496
vn -0.1520 -0.9242 -0.3504
vn -0.2157 -0.9003 -0.3781
vn -0.1342 -0.9643 -0.2284
vn -0.2394 -0.9268 -0.2894
vn -0.0096 -0.9962 -0.0860
vn 0.0517 -0.9960 0.0727
vn -0.1117 -0.9911 -0.0731
vn -0.2601 -0.9529 -0.1561
vn -0.1024 -0.9890 0.1068
vn -0.2767 -0.9609 0.0107
vn 0.0866 -0.9689 0.2320
vn 0.0567 -0.9540 0.2945
vn -0.1368 -0.9741 0.1800
vn -0.3030 -0.9498 0.0778
vn -0.1909 -0.8781 -0.4388
vn -0.2206 -0.8864 -0.4070
vn -0.2642 -0.8959 -0.3570
vn -0.3060 -0.9088 -0.2835
vn -0.3411 -0.9251 -0.1670
vn -0.3574 -0.9338 -0.0165
vn -0.3504 -0.9358 0.0394
vn -0.1203 -0.9222 -0.3676
vn -0.0445 -0.9686 -0.2446
vn 0.0315 -0.9786 -0.2033
vn -0.0954 -0.9415 -0.3233
vn 0.1695 -0.9793 0.1108
vn 0.0397 -0.9960 -0.0802
vn 0.1356 -0.9823 0.1290
vn 0.2531 -0.9093 0.3302
vn 0.3632 -0.7821 0.5065
vn 0.2225 -0.9362 0.2721
vn 0.2644 -0.8858 0.3813
vn 0.4063 -0.7410 0.5347
vn 0.3974 -0.7380 0.5454
vn 0.2441 -0.8744 0.4194
vn 0.4887 -0.5813 0.6505
vn 0.4500 -0.5787 0.6801
vn 0.5116 -0.4787 0.7136
vn 0.5289 -0.4892 0.6935
vn 0.4909 -0.5919 0.6393
vn 0.4595 -0.4748 0.7506
vn 0.5083 -0.4101 0.7573
vn 0.4417 -0.4079 0.7991
vn 0.4936 -0.3470 0.7974
vn 0.5348 -0.3439 0.7718
vn 0.5391 -0.4147 0.7331
vn 0.4200 -0.3420 0.8406
vn 0.4802 -0.2431 0.8428
vn 0.4038 -0.2240 0.8870
vn 0.4666 -0.0302 0.8839
vn 0.5097 -0.0830 0.8563
vn 0.5229 -0.2505 0.8148
vn 0.3847 0.0234 0.9228
vn 0.4410 0.1202 0.8894
vn 0.4992 0.0520 0.8649
vn -0.0566 -0.9512 -0.3033
vn 0.0585 -0.9847 -0.1642
vn -0.1279 -0.9270 -0.3526
vn 0.3891 -0.6991 0.5999
vn 0.3023 -0.8519 0.4276
vn 0.3884 -0.3919 0.8340
vn 0.3691 -0.3186 0.8731
vn 0.4142 -0.4608 0.7849
vn 0.3595 -0.1719 0.9172
vn 0.3417 0.1100 0.9333
vn 0.3559 0.1873 0.9156
vn 0.3313 0.1977 0.9226
vn 0.4306 -0.5440 0.7201
vn 0.0882 -0.9937 -0.0687
vn 0.2229 -0.9550 0.1958
vn 0.1340 -0.9910 -0.0030
vn -0.1709 -0.8831 -0.4369
vt 0.250409 0.361398
vt 0.338109 0.214996
vt 0.276818 0.273390
vt 0.274201 0.269862
vt 0.261080 0.325752
vt 0.398740 0.337738
vt 0.417236 0.275130
vt 0.320429 0.330809
vt 0.351492 0.275392
vt 0.144625 0.188592
vt 0.178275 0.204086
vt 0.224945 0.230353
vt 0.222395 0.153696
vt 0.250937 0.174007
vt 0.291374 0.196598
vt 0.254413 0.346332
vt 0.263978 0.371868
vt 0.310317 0.242171
vt 0.269033 0.302728
vt 0.392150 0.369491
vt 0.406867 0.306089
vt 0.430312 0.244809
vt 0.307533 0.359678
vt 0.334738 0.303190
vt 0.370497 0.246709
vt 0.357897 0.334867
vt 0.383935 0.275246
vt 0.288693 0.326942
vt 0.318129 0.274818
vt 0.249469 0.247946
vt 0.314048 0.207382
vt 0.134239 0.181069
vt 0.159340 0.195528
vt 0.200667 0.215668
vt 0.214429 0.144022
vt 0.234757 0.163535
vt 0.270106 0.185168
vt 0.258710 0.215666
vt 0.214000 0.190424
vt 0.182498 0.172315
vt 0.192159 0.241329
vt 0.235277 0.328890
vt 0.347773 0.366106
vt 0.369868 0.304723
vt 0.399955 0.245789
vt 0.435552 0.369479
vt 0.444932 0.307109
vt 0.462765 0.244676
vt 0.277425 0.351147
vt 0.301568 0.301841
vt 0.340586 0.246317
vt 0.283438 0.230144
vt 0.235251 0.202135
vt 0.196158 0.180747
vt 0.233325 0.348475
vt 0.214201 0.258367
vt 0.111695 0.204002
vt 0.127098 0.210078
vt 0.146363 0.217505
vt 0.168667 0.227735
vt 0.232857 0.287248
vt 0.229049 0.277977
vt 0.237189 0.308021
vt 0.452342 0.275652
vt 0.439697 0.338675
vt 0.389684 0.217824
vt 0.416538 0.216482
vt 0.444780 0.215054
vt 0.474915 0.214465
vt 0.255169 0.405270
vt 0.290785 0.392781
vt 0.235182 0.366638
vt 0.243971 0.384276
vt 0.363512 0.217943
vt 0.432399 0.398911
vt 0.387554 0.400757
vt 0.340626 0.398319
vt 0.290785 0.392781
vt 0.100166 0.197222
vt 0.173357 0.163694
s 1
f 74/76/1 42/43/2 19/20/3
f 75/77/4 22/23/5 42/43/2
f 42/43/2 7/8/6 25/26/7
f 19/20/3 25/26/7 5/6/8
f 5/6/8 43/44/9 20/21/10
f 25/26/7 23/24/11 43/44/9
f 43/44/9 8/9/12 26/27/13
f 20/21/10 26/27/13 6/7/14
f 6/7/14 44/45/15 21/22/16
f 26/27/13 24/25/17 44/45/15
f 44/45/15 64/66/18 65/67/19
f 21/22/16 65/67/19 66/68/20
f 73/75/21 19/20/3 45/46/22
f 45/46/22 5/6/8 63/65/23
f 63/65/23 20/21/10 46/47/24
f 46/47/24 6/7/14 62/64/25
f 62/64/25 21/22/16 47/48/26
f 47/48/26 66/68/20 67/69/27
f 69/71/28 48/49/29 22/23/5
f 1/1/30 48/49/29 16/17/31
f 48/49/29 4/5/32 27/28/33
f 22/23/5 27/28/33 7/8/6
f 7/8/6 49/50/34 23/24/11
f 27/28/33 18/19/35 49/50/34
f 49/50/34 3/3/36 28/29/37
f 23/24/11 28/29/37 8/9/12
f 8/9/12 50/51/38 24/25/17
f 28/29/37 17/18/39 50/51/38
f 50/51/38 2/2/40 72/74/41
f 24/25/17 72/74/41 64/66/18
f 3/4/36 51/52/42 17/18/39
f 29/30/43 37/38/44 51/52/42
f 51/52/42 14/15/45 30/31/46
f 17/18/39 30/31/46 2/2/40
f 11/12/47 52/53/48 37/38/44
f 33/34/49 38/39/50 52/53/48
f 52/53/48 13/14/51 36/37/52
f 37/38/44 36/37/52 14/15/45
f 10/11/53 53/54/54 38/39/50
f 32/33/55 39/40/56 53/54/54
f 53/54/54 12/13/57 35/36/58
f 38/39/50 35/36/58 13/14/51
f 9/10/59 78/80/60 39/40/56
f 39/40/56 34/35/61 12/13/57
f 1/1/30 71/73/62 70/72/63
f 16/17/31 68/70/64 71/73/62
f 18/19/35 60/61/65 3/3/36
f 4/5/32 61/63/66 18/19/35
f 10/11/53 59/60/67 58/59/68
f 33/34/49 40/41/69 59/60/67
f 9/10/59 57/58/70 56/57/71
f 32/33/55 58/59/68 57/58/70
f 31/32/72 56/57/71 77/79/73
f 11/12/47 55/56/74 40/41/69
f 29/30/43 60/62/65 55/56/74
f 15/16/75 41/42/76 4/5/32
f 1/1/30 54/55/77 15/16/75
f 74/76/1 75/77/4 42/43/2
f 75/77/4 76/78/78 22/23/5
f 42/43/2 22/23/5 7/8/6
f 19/20/3 42/43/2 25/26/7
f 5/6/8 25/26/7 43/44/9
f 25/26/7 7/8/6 23/24/11
f 43/44/9 23/24/11 8/9/12
f 20/21/10 43/44/9 26/27/13
f 6/7/14 26/27/13 44/45/15
f 26/27/13 8/9/12 24/25/17
f 44/45/15 24/25/17 64/66/18
f 21/22/16 44/45/15 65/67/19
f 73/75/21 74/76/1 19/20/3
f 45/46/22 19/20/3 5/6/8
f 63/65/23 5/6/8 20/21/10
f 46/47/24 20/21/10 6/7/14
f 62/64/25 6/7/14 21/22/16
f 47/48/26 21/22/16 66/68/20
f 69/71/28 16/17/31 48/49/29
f 1/1/30 15/16/75 48/49/29
f 48/49/29 15/16/75 4/5/32
f 22/23/5 48/49/29 27/28/33
f 7/8/6 27/28/33 49/50/34
f 27/28/33 4/5/32 18/19/35
f 49/50/34 18/19/35 3/3/36
f 23/24/11 49/50/34 28/29/37
f 8/9/12 28/29/37 50/51/38
f 28/29/37 3/3/36 17/18/39
f 50/51/38 17/18/39 2/2/40
f 24/25/17 50/51/38 72/74/41
f 3/4/36 29/30/43 51/52/42
f 29/30/43 11/12/47 37/38/44
f 51/52/42 37/38/44 14/15/45
f 17/18/39 51/52/42 30/31/46
f 11/12/47 33/34/49 52/53/48
f 33/34/49 10/11/53 38/39/50
f 52/53/48 38/39/50 13/14/51
f 37/38/44 52/53/48 36/37/52
f 10/11/53 32/33/55 53/54/54
f 32/33/55 9/10/59 39/40/56
f 53/54/54 39/40/56 12/13/57
f 38/39/50 53/54/54 35/36/58
f 9/10/59 31/32/72 78/80/60
f 39/40/56 78/80/60 34/35/61
f 1/1/30 16/17/31 71/73/62
f 16/17/31 69/71/28 68/70/64
f 18/19/35 61/63/66 60/61/65
f 4/5/32 41/42/76 61/63/66
f 10/11/53 33/34/49 59/60/67
f 33/34/49 11/12/47 40/41/69
f 9/10/59 32/33/55 57/58/70
f 32/33/55 10/11/53 58/59/68
f 31/32/72 9/10/59 56/57/71
f 11/12/47 29/30/43 55/56/74
f 29/30/43 3/4/36 60/62/65
f 15/16/75 54/55/77 41/42/76
f 1/1/30 70/72/63 54/55/77
