# Blender 3.3.0
# www.blender.org
o DesertIslandCol03
v 61.313190 -23.464424 -11.693746
v 52.849644 -25.356598 -8.545280
v 66.437828 -22.381458 -14.442078
v 68.216187 -7.566571 -5.438746
v 63.428635 -12.520736 -4.900657
v 57.243591 -18.818241 -5.653584
v 76.293434 -9.090133 -9.233440
v 71.636063 -13.616332 -8.647086
v 65.657005 -18.629927 -9.250837
v 80.683533 -10.614342 -14.764785
v 76.470474 -14.920256 -14.020826
v 70.865097 -19.233070 -13.887893
v 58.208656 -12.565888 -3.032857
v 62.810684 -7.389995 -3.570761
v 47.287090 -27.064856 -6.786714
v 54.582222 -22.252197 -6.726799
v 67.924812 -12.943002 -6.678772
v 61.812359 -18.524366 -7.424007
v 72.711746 -8.226739 -7.230140
v 69.484283 -5.481108 -6.282662
v 66.139610 -9.886036 -5.006391
v 60.336014 -15.523051 -5.089564
v 57.469582 -24.213371 -10.147709
v 63.108368 -21.185127 -10.139238
v 77.648117 -7.093497 -9.971332
v 74.252899 -11.275966 -8.799896
v 68.639282 -16.075109 -8.783323
v 74.519379 -14.324818 -11.047023
v 68.725807 -18.905949 -11.335620
v 64.417274 -22.865458 -13.195951
v 78.974846 -9.932051 -11.694910
v 68.276398 -21.116100 -14.093566
v 81.910507 -8.682080 -15.308054
v 78.843094 -12.720428 -14.328772
v 73.710030 -17.122208 -13.869231
v 71.939491 -19.573202 -17.050882
v 77.382271 -15.381104 -17.629396
v 81.335838 -11.128891 -18.506418
v 47.328552 -29.291624 -9.919453
v 55.168427 -15.898097 -3.180712
v 60.845875 -9.759438 -3.148168
v 52.027195 -19.610659 -3.706577
v 49.149784 -23.559105 -4.795448
v 70.619576 -10.474648 -6.795078
v 59.236237 -21.502352 -8.444684
v 74.065315 -6.184306 -8.037703
v 71.634178 -16.624508 -11.060908
v 77.023193 -12.070319 -11.265373
v 66.190887 -21.065222 -11.948144
v 80.281120 -7.975397 -12.334240
v 64.852806 -15.631432 -6.869490
v 69.183563 -21.416872 -16.838766
v 74.745377 -17.529510 -17.298965
v 79.616859 -13.217092 -18.042933
v 63.884403 -5.272047 -4.410291
v 82.469749 -9.194692 -18.985212
v 52.339588 -27.610521 -11.258451
v 56.679005 -26.283813 -12.685313
v 60.419861 -25.200129 -14.101475
v 63.647167 -24.147472 -15.417089
v 66.483963 -22.948793 -16.410112
vn 0.4007 -0.6894 0.6035
vn 0.3998 -0.7415 0.5389
vn 0.3959 -0.6830 0.6138
vn 0.3550 -0.4188 0.8358
vn 0.3541 -0.4913 0.7957
vn 0.3304 -0.4214 0.8445
vn 0.3324 -0.3386 0.8802
vn 0.3186 -0.3381 0.8855
vn 0.3242 -0.2267 0.9184
vn 0.3272 -0.2062 0.9222
vn 0.3291 -0.0072 0.9443
vn 0.3457 0.0232 0.9381
vn 0.3241 0.1972 0.9252
vn 0.3602 0.1485 0.9210
vn 0.3982 -0.5768 0.7132
vn 0.3792 -0.5721 0.7273
vn 0.3805 -0.4884 0.7853
vn 0.3712 -0.2614 0.8910
vn 0.4157 -0.0558 0.9078
vn 0.3393 -0.3858 0.8580
vn 0.4144 -0.4733 0.7773
vn 0.4694 -0.3658 0.8037
vn 0.5362 -0.1871 0.8231
vn 0.3587 -0.6075 0.7087
vn 0.3408 -0.5283 0.7776
vn 0.3783 -0.7157 0.5870
vn 0.3777 -0.7611 0.5274
vn 0.3702 -0.6574 0.6564
vn 0.3713 -0.5866 0.7197
vn 0.4478 0.0500 0.8928
vn 0.5817 -0.1022 0.8069
vn 0.3953 -0.7627 0.5119
vn 0.3996 -0.7987 0.4499
vn 0.4071 -0.8418 0.3546
vn 0.3981 -0.8011 0.4469
vn 0.4685 -0.8148 0.3414
vn 0.4754 -0.6359 0.6079
vn 0.5252 -0.5852 0.6178
vn 0.3818 -0.5391 0.7507
vn 0.4489 -0.6666 0.5950
vn 0.5330 -0.7492 0.3932
vn 0.5666 -0.7243 0.3928
vn 0.6229 -0.6801 0.3866
vn 0.5962 -0.4978 0.6299
vn 0.6796 -0.3521 0.6435
vn 0.6987 -0.6066 0.3793
vn 0.7881 -0.4898 0.3728
vn 0.4259 -0.7137 0.5560
vn 0.5051 -0.7766 0.3765
vn 0.7320 -0.2861 0.6184
vn 0.8366 -0.4282 0.3416
vn 0.3306 -0.4654 0.8210
vn 0.5338 -0.8028 0.2654
vn 0.4839 -0.8370 0.2554
vn 0.6044 -0.7516 0.2644
vn 0.5657 -0.7785 0.2719
vn 0.7385 -0.6337 0.2304
vn 0.6633 -0.7057 0.2492
vn 0.8259 -0.5236 0.2093
vn 0.3938 -0.7468 0.5360
vn 0.8664 -0.4594 0.1958
vt 0.153578 0.317932
vt 0.146761 0.296033
vt 0.195913 0.283171
vt 0.200605 0.297320
vt 0.125513 0.335253
vt 0.116222 0.307344
vt 0.084575 0.219055
vt 0.119156 0.231105
vt 0.162473 0.250989
vt 0.046938 0.248366
vt 0.079273 0.257963
vt 0.117448 0.272376
vt 0.024295 0.278686
vt 0.054455 0.286233
vt 0.089251 0.296483
vt 0.146363 0.217505
vt 0.111695 0.204002
vt 0.232857 0.287248
vt 0.229049 0.277977
vt 0.182265 0.265837
vt 0.096966 0.244624
vt 0.137627 0.261371
vt 0.063310 0.233858
vt 0.072152 0.212980
vt 0.100234 0.224635
vt 0.140550 0.239563
vt 0.168931 0.289303
vt 0.174621 0.307601
vt 0.134433 0.282926
vt 0.034031 0.244226
vt 0.061980 0.252805
vt 0.098314 0.264245
vt 0.065284 0.271522
vt 0.101361 0.283814
vt 0.136678 0.327650
vt 0.128607 0.302433
vt 0.034202 0.262943
vt 0.105118 0.302296
vt 0.012003 0.276027
vt 0.038485 0.282102
vt 0.071782 0.291056
vt 0.080838 0.311816
vt 0.046395 0.303478
vt 0.016766 0.297225
vt 0.237189 0.308021
vt 0.168667 0.227735
vt 0.127098 0.210078
vt 0.192159 0.241329
vt 0.214201 0.258367
vt 0.078791 0.238891
vt 0.155830 0.274045
vt 0.050432 0.228696
vt 0.083300 0.277079
vt 0.048769 0.266857
vt 0.117381 0.292020
vt 0.021558 0.259670
vt 0.117194 0.251777
vt 0.097836 0.315938
vt 0.063385 0.307499
vt 0.030730 0.300027
vt 0.100166 0.197222
vt 0.004709 0.295123
vt 0.208303 0.315450
vt 0.183559 0.323986
vt 0.162403 0.332692
vt 0.143884 0.340674
vt 0.126882 0.346591
vt 0.114585 0.318430
s 1
f 15/18/1 57/63/2 2/4/3
f 40/46/4 6/9/5 22/26/6
f 13/16/7 22/26/6 5/8/8
f 41/47/9 5/8/8 21/25/10
f 14/17/11 21/25/10 4/7/12
f 55/61/13 4/7/12 20/24/14
f 43/49/15 2/3/3 16/20/16
f 42/48/17 16/20/16 6/9/5
f 4/7/12 44/50/18 19/23/19
f 21/25/10 17/21/20 44/50/18
f 44/50/18 8/11/21 26/31/22
f 19/23/19 26/31/22 7/10/23
f 6/9/5 45/51/24 18/22/25
f 16/20/16 23/27/26 45/51/24
f 45/51/24 1/2/27 24/29/28
f 18/22/25 24/29/28 9/12/29
f 20/24/14 19/23/19 46/52/30
f 46/52/30 7/10/23 25/30/31
f 2/4/3 58/64/32 23/28/26
f 23/28/26 59/65/33 1/1/27
f 1/1/27 60/66/34 30/35/35
f 60/66/34 3/5/36 30/35/35
f 8/11/21 47/53/37 28/33/38
f 27/32/39 29/34/40 47/53/37
f 47/53/37 12/15/41 35/41/42
f 28/33/38 35/41/42 11/14/43
f 7/10/23 48/54/44 31/37/45
f 26/31/22 28/33/38 48/54/44
f 48/54/44 11/14/43 34/40/46
f 31/37/45 34/40/46 10/13/47
f 9/12/29 49/55/48 29/34/40
f 24/29/28 30/36/35 49/55/48
f 49/55/48 3/6/36 32/38/49
f 29/34/40 32/38/49 12/15/41
f 25/30/31 31/37/45 50/56/50
f 50/56/50 10/13/47 33/39/51
f 5/8/8 51/57/52 17/21/20
f 22/26/6 18/22/25 51/57/52
f 51/57/52 9/12/29 27/32/39
f 17/21/20 27/32/39 8/11/21
f 52/58/53 12/15/41 32/38/49
f 61/68/54 32/38/49 3/6/36
f 53/59/55 11/14/43 35/41/42
f 36/42/56 35/41/42 12/15/41
f 54/60/57 10/13/47 34/40/46
f 37/43/58 34/40/46 11/14/43
f 38/44/59 33/39/51 10/13/47
f 15/18/1 39/45/60 57/63/2
f 40/46/4 42/48/17 6/9/5
f 13/16/7 40/46/4 22/26/6
f 41/47/9 13/16/7 5/8/8
f 14/17/11 41/47/9 21/25/10
f 55/61/13 14/17/11 4/7/12
f 43/49/15 15/19/1 2/3/3
f 42/48/17 43/49/15 16/20/16
f 4/7/12 21/25/10 44/50/18
f 21/25/10 5/8/8 17/21/20
f 44/50/18 17/21/20 8/11/21
f 19/23/19 44/50/18 26/31/22
f 6/9/5 16/20/16 45/51/24
f 16/20/16 2/3/3 23/27/26
f 45/51/24 23/27/26 1/2/27
f 18/22/25 45/51/24 24/29/28
f 20/24/14 4/7/12 19/23/19
f 46/52/30 19/23/19 7/10/23
f 2/4/3 57/63/2 58/64/32
f 23/28/26 58/64/32 59/65/33
f 1/1/27 59/65/33 60/66/34
f 60/66/34 61/67/54 3/5/36
f 8/11/21 27/32/39 47/53/37
f 27/32/39 9/12/29 29/34/40
f 47/53/37 29/34/40 12/15/41
f 28/33/38 47/53/37 35/41/42
f 7/10/23 26/31/22 48/54/44
f 26/31/22 8/11/21 28/33/38
f 48/54/44 28/33/38 11/14/43
f 31/37/45 48/54/44 34/40/46
f 9/12/29 24/29/28 49/55/48
f 24/29/28 1/2/27 30/36/35
f 49/55/48 30/36/35 3/6/36
f 29/34/40 49/55/48 32/38/49
f 25/30/31 7/10/23 31/37/45
f 50/56/50 31/37/45 10/13/47
f 5/8/8 22/26/6 51/57/52
f 22/26/6 6/9/5 18/22/25
f 51/57/52 18/22/25 9/12/29
f 17/21/20 51/57/52 27/32/39
f 52/58/53 36/42/56 12/15/41
f 61/68/54 52/58/53 32/38/49
f 53/59/55 37/43/58 11/14/43
f 36/42/56 53/59/55 35/41/42
f 54/60/57 38/44/59 10/13/47
f 37/43/58 54/60/57 34/40/46
f 38/44/59 56/62/61 33/39/51
