# Blender 3.3.0
# www.blender.org
o DesertIslandCol08
v -12.533218 -3.367283 -27.560711
v -3.892016 -3.237124 -31.114571
v 11.254782 -3.008737 -34.480946
v -22.793730 -2.473906 5.012570
v -20.083569 -2.217047 -8.080153
v -16.265285 -2.524980 -20.151541
v 8.962610 -1.550221 -23.600229
v 3.971760 -3.008534 -8.159249
v -6.444550 -2.020181 -21.840029
v -10.592609 -2.253629 -8.037222
v -13.883472 -5.290328 -28.394352
v -3.599111 -5.893427 -34.831123
v 11.168035 -5.919943 -39.597885
v -26.474737 -4.536880 3.865006
v -24.440950 -4.205517 -8.160356
v -20.335205 -4.518513 -19.476915
v -14.255937 -2.922380 -24.741856
v -9.311835 -3.293552 -29.202976
v 3.108896 -3.137247 -32.936970
v -21.631382 -2.315279 -1.455562
v -18.250103 -2.286638 -14.451537
v 10.470594 -1.995773 -29.747627
v 6.730737 -2.066661 -16.253517
v 0.943041 -3.510459 0.163727
v -4.879218 -2.387481 -27.181852
v -8.418270 -2.060873 -15.308863
v -12.753302 -2.304564 -0.529520
v 0.710560 -1.933070 -22.778830
v -3.803030 -2.849587 -8.034330
v -12.134214 -2.117149 -20.901646
v -16.033031 -1.949821 -8.054803
v -13.311676 -4.091701 -28.112455
v -3.556450 -4.430227 -33.566765
v 11.404361 -4.337274 -37.708988
v -25.112057 -3.336230 4.362945
v -22.817505 -3.019710 -8.123865
v -18.886055 -3.344586 -19.725014
v -22.642719 -4.272255 -14.036072
v -25.722599 -4.319584 -2.102620
v 3.314629 -5.987947 -37.432789
v -9.310055 -5.664053 -31.862101
v -17.482731 -4.882451 -24.276415
v -16.409517 -3.711038 -24.391827
v -9.127199 -4.334075 -31.057581
v 3.395972 -4.436941 -35.819740
v 2.221400 -2.182325 -28.566866
v -1.361684 -2.293015 -15.779108
v -6.382396 -3.013307 -0.075132
v 19.426119 -1.678259 -30.562319
v 15.410421 -1.323734 -16.732416
v 8.812438 -2.959583 0.015602
v -10.436721 -2.544514 -25.792910
v -14.068537 -1.952956 -14.841103
v -17.843458 -2.015317 -1.013249
v -24.197174 -3.131076 -1.821346
v -21.024736 -3.095563 -14.203821
v -23.379389 -5.720477 -13.868538
v -26.406246 -5.773376 -2.300332
v 3.109599 -7.728315 -38.047813
v -9.439596 -7.238905 -32.042011
v -17.936356 -6.335131 -24.067951
v 18.982735 -7.348175 -42.141865
v 12.290041 -2.229289 -8.510744
v 17.867023 -1.130339 -24.207874
v -14.698152 -2.132818 6.716860
v -8.843963 -2.595433 7.572070
v -2.052606 -2.950548 8.165217
v 5.317615 -2.700202 8.281933
v -19.349764 -2.056421 5.822719
v 19.579479 -5.558214 -41.215157
v 20.057943 -3.956565 -39.080334
v 20.111813 -2.625246 -35.564747
v -25.180826 -5.661036 -8.160593
v -20.979231 -5.966430 -19.225842
v -27.065348 -5.991653 3.489784
v 10.793452 -7.685690 -40.372387
v -3.712872 -7.568680 -35.253105
v -14.134755 -6.781277 -28.341345
vn -0.4891 0.8251 -0.2828
vn -0.7425 0.3707 -0.5579
vn -0.7553 0.5096 -0.4120
vn -0.2228 0.9629 -0.1525
vn -0.5330 0.7310 -0.4260
vn -0.2667 0.9275 -0.2619
vn -0.4980 0.6263 -0.5998
vn -0.6445 0.2748 -0.7135
vn -0.3407 0.6865 -0.6424
vn -0.4798 0.3331 -0.8117
vn -0.1868 0.9054 -0.3812
vn -0.1242 0.9293 -0.3479
vn -0.2310 0.7647 -0.6015
vn -0.3525 0.4469 -0.8222
vn -0.1631 0.8144 -0.5568
vn -0.2624 0.5419 -0.7984
vn -0.0904 0.9408 -0.3266
vn -0.0765 0.9498 -0.3034
vn -0.1307 0.8508 -0.5089
vn -0.1985 0.6109 -0.7664
vn -0.1585 0.6780 -0.7178
vn -0.0821 0.9545 -0.2866
vn -0.1129 0.8756 -0.4696
vn -0.0496 0.9868 -0.1539
vn -0.0545 0.9879 -0.1454
vn -0.0606 0.9862 -0.1540
vn -0.0313 0.9995 -0.0054
vn -0.0511 0.9985 -0.0190
vn -0.0569 0.9959 0.0704
vn -0.0159 0.9994 -0.0320
vn 0.0062 0.9979 0.0639
vn 0.0297 0.9992 0.0274
vn 0.0535 0.9966 0.0625
vn -0.0382 0.9968 0.0709
vn -0.0026 1.0000 -0.0076
vn 0.0699 0.9969 0.0352
vn 0.0844 0.9964 0.0050
vn 0.0793 0.9968 0.0095
vn 0.0769 0.9968 -0.0213
vn 0.0240 0.9981 -0.0568
vn -0.0550 0.9858 -0.1586
vn -0.0470 0.9975 -0.0524
vn -0.0694 0.9965 0.0456
vn -0.0873 0.9938 0.0696
vn -0.0764 0.9971 0.0034
vn -0.0501 0.9961 -0.0724
vn -0.2923 0.8677 -0.4021
vn -0.1031 0.9785 -0.1784
vn -0.0672 0.9949 -0.0755
vn -0.0312 0.9993 -0.0219
vn -0.1892 0.9780 -0.0878
vn -0.0073 1.0000 0.0001
vn -0.1770 0.9831 -0.0467
vn -0.0147 0.9999 0.0008
vn -0.1959 0.9804 -0.0204
vn -0.0463 0.9989 0.0036
vn 0.0539 0.9985 0.0001
vn -0.7832 0.6160 -0.0839
vn -0.4620 0.8850 -0.0575
vn -0.7701 0.6286 -0.1089
vn -0.4833 0.8740 -0.0503
vn -0.4411 0.8902 -0.1139
vn -0.7480 0.6350 -0.1932
vn -0.7455 0.5997 -0.2909
vn -0.4501 0.8738 -0.1840
vn -0.8569 0.4012 -0.3237
vn -0.8694 0.4412 -0.2226
vn -0.8426 0.3047 -0.4441
vn -0.9102 0.4023 -0.0982
vn -0.8900 0.4365 -0.1318
vn -0.1874 0.4906 -0.8510
vn -0.2289 0.4251 -0.8757
vn -0.3991 0.2573 -0.8800
vn -0.3106 0.3490 -0.8841
vn -0.5239 0.1432 -0.8396
vn -0.6832 0.0923 -0.7244
vn -0.7941 0.1726 -0.5828
vn -0.2269 0.9738 -0.0169
vt 0.651160 0.212827
vt 0.659400 0.261069
vt 0.688069 0.340970
vt 0.765132 0.067834
vt 0.713107 0.119924
vt 0.671747 0.174888
vt 0.732080 0.297523
vt 0.786522 0.227772
vt 0.694214 0.222865
vt 0.742720 0.162546
vt 0.638566 0.208738
vt 0.637586 0.273972
vt 0.659396 0.357715
vt 0.746804 0.051600
vt 0.696964 0.098443
vt 0.658649 0.153372
vt 0.658329 0.197423
vt 0.652994 0.231367
vt 0.671063 0.298546
vt 0.738660 0.092403
vt 0.690323 0.148259
vt 0.708288 0.322903
vt 0.758604 0.265070
vt 0.814177 0.188971
vt 0.674977 0.245369
vt 0.717069 0.194466
vt 0.769776 0.130070
vt 0.711129 0.257627
vt 0.763468 0.192783
vt 0.681366 0.195134
vt 0.725886 0.138212
vt 0.645343 0.210917
vt 0.647385 0.269861
vt 0.672007 0.351963
vt 0.754740 0.058372
vt 0.703846 0.107176
vt 0.664542 0.161766
vt 0.675738 0.125535
vt 0.721136 0.073421
vt 0.645589 0.314158
vt 0.635495 0.239006
vt 0.646268 0.180882
vt 0.652246 0.186902
vt 0.643650 0.237395
vt 0.656862 0.308790
vt 0.689247 0.281536
vt 0.736305 0.227261
vt 0.791012 0.157255
vt 0.731644 0.366686
vt 0.782921 0.305970
vt 0.837609 0.224274
vt 0.665252 0.216880
vt 0.701798 0.168060
vt 0.752238 0.108467
vt 0.728660 0.081199
vt 0.682017 0.134675
vt 0.669874 0.118660
vt 0.714673 0.067261
vt 0.635493 0.316745
vt 0.626704 0.239072
vt 0.639437 0.176112
vt 0.666881 0.404613
vt 0.810413 0.266299
vt 0.756357 0.340045
vt 0.796568 0.099795
vt 0.817589 0.123431
vt 0.840397 0.151646
vt 0.863253 0.183562
vt 0.778994 0.081362
vt 0.678278 0.402189
vt 0.692292 0.396615
vt 0.710028 0.385440
vt 0.690907 0.091779
vt 0.652516 0.146993
vt 0.739944 0.045753
vt 0.648651 0.360401
vt 0.628107 0.275812
vt 0.630791 0.206351
s 1
f 37/37/1 42/42/2 16/16/3
f 6/6/4 43/43/5 37/37/1
f 17/17/6 32/32/7 43/43/5
f 43/43/5 11/11/8 42/42/2
f 11/11/8 44/44/9 41/41/10
f 32/32/7 18/18/11 44/44/9
f 44/44/9 2/2/12 33/33/13
f 41/41/10 33/33/13 12/12/14
f 12/12/14 45/45/15 40/40/16
f 33/33/13 19/19/17 45/45/15
f 45/45/15 3/3/18 34/34/19
f 40/40/16 34/34/19 13/13/20
f 34/34/19 70/70/21 13/13/20
f 34/34/19 72/72/22 71/71/23
f 19/19/17 22/22/24 3/3/18
f 2/2/12 46/46/25 19/19/17
f 25/25/26 28/28/27 46/46/25
f 46/46/25 7/7/28 22/22/24
f 28/28/27 23/23/29 7/7/28
f 9/9/30 47/47/31 28/28/27
f 26/26/32 29/29/33 47/47/31
f 47/47/31 8/8/34 23/23/29
f 29/29/33 24/24/35 8/8/34
f 10/10/36 48/48/37 29/29/33
f 27/27/38 66/66/39 48/48/37
f 48/48/37 67/67/40 24/24/35
f 3/3/18 49/49/41 72/72/22
f 22/22/24 64/64/42 49/49/41
f 7/7/28 50/50/43 64/64/42
f 23/23/29 63/63/44 50/50/43
f 8/8/34 51/51/45 63/63/44
f 24/24/35 68/68/46 51/51/45
f 18/18/11 25/25/26 2/2/12
f 1/1/47 52/52/48 18/18/11
f 17/17/6 30/30/49 52/52/48
f 52/52/48 9/9/30 25/25/26
f 30/30/49 26/26/32 9/9/30
f 6/6/4 53/53/50 30/30/49
f 21/21/51 31/31/52 53/53/50
f 53/53/50 10/10/36 26/26/32
f 31/31/52 27/27/38 10/10/36
f 5/5/53 54/54/54 31/31/52
f 20/20/55 69/69/56 54/54/54
f 54/54/54 65/65/57 27/27/38
f 14/14/58 55/55/59 39/39/60
f 35/35/61 20/20/55 55/55/59
f 20/20/55 36/36/62 55/55/59
f 55/55/59 15/15/63 39/39/60
f 36/36/62 38/38/64 15/15/63
f 5/5/53 56/56/65 36/36/62
f 21/21/51 37/37/1 56/56/65
f 56/56/65 16/16/3 38/38/64
f 15/15/63 57/57/66 73/73/67
f 38/38/64 74/74/68 57/57/66
f 75/75/69 39/39/60 58/58/70
f 39/39/60 73/73/67 58/58/70
f 13/13/20 62/62/71 76/76/72
f 77/77/73 40/40/16 59/59/74
f 40/40/16 76/76/72 59/59/74
f 11/11/8 60/60/75 78/78/76
f 60/60/75 12/12/14 77/77/73
f 16/16/3 61/61/77 74/74/68
f 42/42/2 78/78/76 61/61/77
f 37/37/1 43/43/5 42/42/2
f 6/6/4 17/17/6 43/43/5
f 17/17/6 1/1/47 32/32/7
f 43/43/5 32/32/7 11/11/8
f 11/11/8 32/32/7 44/44/9
f 32/32/7 1/1/47 18/18/11
f 44/44/9 18/18/11 2/2/12
f 41/41/10 44/44/9 33/33/13
f 12/12/14 33/33/13 45/45/15
f 33/33/13 2/2/12 19/19/17
f 45/45/15 19/19/17 3/3/18
f 40/40/16 45/45/15 34/34/19
f 34/34/19 71/71/23 70/70/21
f 34/34/19 3/3/18 72/72/22
f 19/19/17 46/46/25 22/22/24
f 2/2/12 25/25/26 46/46/25
f 25/25/26 9/9/30 28/28/27
f 46/46/25 28/28/27 7/7/28
f 28/28/27 47/47/31 23/23/29
f 9/9/30 26/26/32 47/47/31
f 26/26/32 10/10/36 29/29/33
f 47/47/31 29/29/33 8/8/34
f 29/29/33 48/48/37 24/24/35
f 10/10/36 27/27/38 48/48/37
f 27/27/38 65/65/57 66/66/39
f 48/48/37 66/66/39 67/67/40
f 3/3/18 22/22/24 49/49/41
f 22/22/24 7/7/28 64/64/42
f 7/7/28 23/23/29 50/50/43
f 23/23/29 8/8/34 63/63/44
f 8/8/34 24/24/35 51/51/45
f 24/24/35 67/67/40 68/68/46
f 18/18/11 52/52/48 25/25/26
f 1/1/47 17/17/6 52/52/48
f 17/17/6 6/6/4 30/30/49
f 52/52/48 30/30/49 9/9/30
f 30/30/49 53/53/50 26/26/32
f 6/6/4 21/21/51 53/53/50
f 21/21/51 5/5/53 31/31/52
f 53/53/50 31/31/52 10/10/36
f 31/31/52 54/54/54 27/27/38
f 5/5/53 20/20/55 54/54/54
f 20/20/55 4/4/78 69/69/56
f 54/54/54 69/69/56 65/65/57
f 14/14/58 35/35/61 55/55/59
f 35/35/61 4/4/78 20/20/55
f 20/20/55 5/5/53 36/36/62
f 55/55/59 36/36/62 15/15/63
f 36/36/62 56/56/65 38/38/64
f 5/5/53 21/21/51 56/56/65
f 21/21/51 6/6/4 37/37/1
f 56/56/65 37/37/1 16/16/3
f 15/15/63 38/38/64 57/57/66
f 38/38/64 16/16/3 74/74/68
f 75/75/69 14/14/58 39/39/60
f 39/39/60 15/15/63 73/73/67
f 13/13/20 70/70/21 62/62/71
f 77/77/73 12/12/14 40/40/16
f 40/40/16 13/13/20 76/76/72
f 11/11/8 41/41/10 60/60/75
f 60/60/75 41/41/10 12/12/14
f 16/16/3 42/42/2 61/61/77
f 42/42/2 11/11/8 78/78/76
