# Blender 3.3.0
# www.blender.org
o DesertIslandCol14
v 19.679712 -3.030984 25.062346
v 12.151363 -2.491958 28.792343
v 1.072890 -2.385326 30.759296
v 37.523865 -2.540252 4.382845
v 26.500420 -2.760101 17.006863
v 26.628420 -1.314769 5.740672
v 17.920235 -1.495940 19.816881
v 12.797149 -2.061516 7.843117
v 5.885754 -1.331556 22.004595
v 19.899075 -4.928924 25.870531
v 9.640986 -4.782150 32.221077
v -1.419609 -4.860780 34.516678
v 42.759514 -5.213972 5.062095
v 30.242224 -5.323001 16.005993
v 22.424730 -2.842556 21.987328
v 16.658161 -2.731502 26.899715
v 6.813834 -2.381540 30.140423
v 14.615631 -1.792722 25.051584
v 3.183085 -1.586758 27.083479
v 31.518591 -2.748985 10.933551
v 21.937317 -1.454419 13.222794
v 9.118029 -1.628598 15.490556
v -0.661910 -1.474215 22.049128
v 19.955351 -1.491763 6.881357
v 12.191022 -1.299999 21.176218
v 32.643414 -1.738060 4.814544
v 22.779133 -1.963890 18.283068
v 19.847149 -3.738322 25.590998
v 19.744184 -6.468585 25.874634
v 10.589667 -3.515162 31.067608
v 8.979042 -6.278051 32.626637
v -0.422074 -3.525373 33.166687
v -2.057807 -6.374666 35.025768
v 40.853405 -3.696395 4.578731
v 28.917816 -3.883508 16.311106
v 30.747496 -7.112319 15.821456
v 36.703945 -9.476836 10.477431
v 36.166569 -5.418197 10.438731
v 2.957940 -7.985378 34.199574
v 4.126604 -4.806140 33.865437
v 13.950530 -8.052620 29.579039
v 14.871725 -4.817389 29.549093
v 24.861189 -8.766027 20.886805
v 24.917002 -5.113441 21.266895
v 24.158489 -3.804002 21.438700
v 19.163511 -2.191330 23.391350
v 9.161160 -1.604198 26.383282
v 15.452632 -3.614367 28.755421
v 5.192770 -3.489609 32.549339
v 15.811796 -1.412008 14.546223
v 27.271971 -1.876522 11.907879
v 34.446644 -3.925121 10.512915
v 36.866467 -7.262375 10.448306
v 3.415140 -6.315344 34.358185
v 14.409727 -6.308960 29.771120
v 25.111437 -6.776132 21.104366
v 43.487900 -7.075477 5.458566
v 43.213268 -9.295540 5.729969
v 30.582233 -9.250047 15.678975
v -2.415373 -8.025499 34.855885
v 8.482450 -7.975123 32.463741
v 19.378553 -8.305268 25.653015
v -2.923030 -1.674577 26.971724
v -4.656651 -2.466116 30.549667
v -5.883013 -3.594390 32.906734
v -6.691937 -4.920233 34.233402
v 5.317615 -2.700202 8.281933
v 2.112479 -1.925388 15.742336
v -7.180357 -6.424304 34.726891
v -7.404083 -8.058032 34.544704
vn 0.5697 0.6326 0.5246
vn 0.6894 0.1630 0.7058
vn 0.6712 0.2964 0.6794
vn 0.3819 0.8656 0.3238
vn 0.6202 0.5127 0.5936
vn 0.4275 0.8091 0.4033
vn 0.5888 0.4075 0.6981
vn 0.6354 0.0760 0.7685
vn 0.2017 0.9651 0.1668
vn 0.0840 0.9934 0.0781
vn 0.2306 0.9404 0.2500
vn 0.1174 0.9744 0.1917
vn 0.3187 0.8265 0.4640
vn 0.4471 0.7388 0.5043
vn 0.0177 0.9995 0.0271
vn -0.0142 0.9999 -0.0055
vn 0.0462 0.9865 0.1571
vn 0.0013 0.9910 0.1336
vn 0.0794 0.9292 0.3610
vn 0.1795 0.8965 0.4050
vn -0.0196 0.9998 -0.0066
vn -0.0182 0.9896 0.1425
vn 0.0081 0.9436 0.3309
vn 0.4398 0.5377 0.7193
vn 0.5083 0.1465 0.8486
vn 0.2788 0.6724 0.6856
vn 0.3503 0.3043 0.8858
vn 0.1317 0.7631 0.6328
vn 0.1816 0.4353 0.8818
vn 0.0170 0.8094 0.5870
vn 0.0255 0.5143 0.8572
vn -0.0402 0.8016 0.5966
vn -0.0541 0.4953 0.8670
vn -0.0272 0.9397 0.3410
vn -0.0712 0.9914 -0.1098
vn -0.0452 0.9961 -0.0754
vn -0.0763 0.9941 -0.0768
vn -0.0385 0.9950 -0.0916
vn -0.0363 0.9992 -0.0179
vn 0.0507 0.9979 0.0409
vn 0.0567 0.9966 0.0601
vn -0.0194 0.9994 -0.0278
vn 0.1630 0.9726 0.1660
vn 0.3167 0.9035 0.2889
vn 0.2729 0.9097 0.3129
vn 0.1704 0.9752 0.1415
vn 0.4009 0.7670 0.5010
vn 0.5951 0.4290 0.6795
vn 0.5202 0.5076 0.6869
vn 0.4740 0.7318 0.4897
vn 0.5996 0.0146 0.8002
vn 0.6283 0.1102 0.7701
vn 0.6249 -0.0409 0.7797
vn 0.5853 0.2050 0.7844
vn 0.6719 0.0132 0.7405
vn 0.6534 -0.1005 0.7503
vn 0.0195 -0.1079 0.9940
vn -0.0609 0.0847 0.9945
vn -0.0613 -0.1023 0.9929
vn 0.0269 0.1025 0.9944
vn 0.3641 -0.1934 0.9111
vn 0.2024 0.0400 0.9785
vn 0.1960 -0.1458 0.9697
vn 0.3722 -0.0483 0.9269
vn 0.6061 -0.2108 0.7669
vn 0.5155 -0.1247 0.8478
vn 0.5044 -0.2248 0.8337
vn 0.6214 -0.1346 0.7718
vn 0.6547 -0.1576 0.7392
vn 0.6728 -0.0753 0.7360
vt 0.981053 0.192263
vt 0.972467 0.150120
vt 0.948059 0.097305
vt 0.950612 0.340494
vt 0.970257 0.247615
vt 0.919936 0.285978
vt 0.952558 0.201842
vt 0.884647 0.217726
vt 0.924537 0.144172
vt 0.991869 0.190690
vt 0.984422 0.128216
vt 0.960550 0.073010
vt 0.976289 0.363282
vt 0.985616 0.268312
vt 0.977393 0.213488
vt 0.978504 0.174298
vt 0.962325 0.123721
vt 0.963933 0.171672
vt 0.938170 0.117426
vt 0.960718 0.290689
vt 0.937610 0.240520
vt 0.906465 0.177936
vt 0.905129 0.115938
vt 0.903292 0.252439
vt 0.940207 0.173488
vt 0.935780 0.316370
vt 0.962294 0.227315
vt 0.985559 0.191295
vt 1.000000 0.190120
vt 0.361833 0.054477
vt 0.978816 0.136529
vt 0.991020 0.122334
vt 0.423782 0.022618
vt 0.955164 0.083020
vt 0.965846 0.065294
vt 0.482801 0.004599
vt 0.964149 0.355657
vt 0.977682 0.260812
vt 0.995201 0.272157
vt 0.292735 0.098183
vt 0.261527 0.131802
vt 0.980456 0.314328
vt 0.458346 0.019844
vt 0.974611 0.099465
vt 0.398981 0.044659
vt 0.990014 0.158290
vt 0.334138 0.084498
vt 0.990000 0.227019
vt 0.983136 0.222745
vt 0.971634 0.195509
vt 0.952961 0.144902
vt 0.984097 0.163586
vt 0.969147 0.109214
vt 0.923424 0.209738
vt 0.949846 0.268300
vt 0.970737 0.305704
vt 0.991003 0.318205
vt 0.254572 0.121704
vt 0.980469 0.092266
vt 0.453688 0.011895
vt 0.997428 0.154747
vt 0.393394 0.036804
vt 0.998741 0.229184
vt 0.328433 0.075310
vt 0.987777 0.365559
vt 0.214429 0.144022
vt 0.222395 0.153696
vt 0.298905 0.108080
vt 0.486302 0.012918
vt 0.429154 0.030349
vt 0.367409 0.062850
vt 0.919584 0.091548
vt 0.930127 0.073166
vt 0.937579 0.059920
vt 0.942975 0.050390
vt 0.863253 0.183562
vt 0.886152 0.146893
vt 0.947841 0.042633
vt 0.510472 0.000687
vt 0.512516 0.009333
s 1
f 35/38/1 44/48/2 14/14/3
f 5/5/4 45/49/5 35/38/1
f 15/15/6 28/28/7 45/49/5
f 45/49/5 10/10/8 44/48/2
f 27/27/9 15/15/6 5/5/4
f 7/7/10 46/50/11 27/27/9
f 18/18/12 16/16/13 46/50/11
f 46/50/11 1/1/14 15/15/6
f 25/25/15 18/18/12 7/7/10
f 9/9/16 47/51/17 25/25/15
f 19/19/18 17/17/19 47/51/17
f 47/51/17 2/2/20 18/18/12
f 23/23/21 19/19/18 9/9/16
f 63/72/22 3/3/23 19/19/18
f 10/10/8 48/52/24 42/46/25
f 28/28/7 16/16/13 48/52/24
f 48/52/24 2/2/20 30/31/26
f 42/46/25 30/31/26 11/11/27
f 11/11/27 49/53/28 40/44/29
f 30/31/26 17/17/19 49/53/28
f 49/53/28 3/3/23 32/34/30
f 40/44/29 32/34/30 12/12/31
f 12/12/31 65/74/32 66/75/33
f 32/34/30 64/73/34 65/74/32
f 67/76/35 22/22/36 8/8/37
f 68/77/38 9/9/16 22/22/36
f 24/24/39 21/21/40 6/6/41
f 8/8/37 50/54/42 24/24/39
f 22/22/36 25/25/15 50/54/42
f 50/54/42 7/7/10 21/21/40
f 26/26/43 20/20/44 4/4/45
f 6/6/41 51/55/46 26/26/43
f 21/21/40 27/27/9 51/55/46
f 51/55/46 5/5/4 20/20/44
f 34/37/47 38/42/48 13/13/49
f 4/4/45 52/56/50 34/37/47
f 20/20/44 35/38/1 52/56/50
f 52/56/50 14/14/3 38/42/48
f 58/67/51 53/58/52 37/41/53
f 13/13/49 53/57/52 57/65/54
f 38/42/48 36/39/55 53/57/52
f 37/41/53 36/40/55 59/68/56
f 60/69/57 69/79/58 70/80/59
f 33/35/60 66/75/33 69/78/58
f 61/70/61 54/60/62 39/43/63
f 31/32/64 40/44/29 54/59/62
f 54/59/62 12/12/31 33/35/60
f 39/43/63 33/36/60 60/69/57
f 62/71/65 55/62/66 41/45/67
f 29/29/68 42/46/25 55/61/66
f 55/61/66 11/11/27 31/32/64
f 41/45/67 31/33/64 61/70/61
f 36/40/55 43/47/69 59/68/56
f 14/14/3 56/63/70 36/39/55
f 44/48/2 29/29/68 56/63/70
f 56/64/70 62/71/65 43/47/69
f 35/38/1 45/49/5 44/48/2
f 5/5/4 15/15/6 45/49/5
f 15/15/6 1/1/14 28/28/7
f 45/49/5 28/28/7 10/10/8
f 27/27/9 46/50/11 15/15/6
f 7/7/10 18/18/12 46/50/11
f 18/18/12 2/2/20 16/16/13
f 46/50/11 16/16/13 1/1/14
f 25/25/15 47/51/17 18/18/12
f 9/9/16 19/19/18 47/51/17
f 19/19/18 3/3/23 17/17/19
f 47/51/17 17/17/19 2/2/20
f 23/23/21 63/72/22 19/19/18
f 63/72/22 64/73/34 3/3/23
f 10/10/8 28/28/7 48/52/24
f 28/28/7 1/1/14 16/16/13
f 48/52/24 16/16/13 2/2/20
f 42/46/25 48/52/24 30/31/26
f 11/11/27 30/31/26 49/53/28
f 30/31/26 2/2/20 17/17/19
f 49/53/28 17/17/19 3/3/23
f 40/44/29 49/53/28 32/34/30
f 12/12/31 32/34/30 65/74/32
f 32/34/30 3/3/23 64/73/34
f 67/76/35 68/77/38 22/22/36
f 68/77/38 23/23/21 9/9/16
f 24/24/39 50/54/42 21/21/40
f 8/8/37 22/22/36 50/54/42
f 22/22/36 9/9/16 25/25/15
f 50/54/42 25/25/15 7/7/10
f 26/26/43 51/55/46 20/20/44
f 6/6/41 21/21/40 51/55/46
f 21/21/40 7/7/10 27/27/9
f 51/55/46 27/27/9 5/5/4
f 34/37/47 52/56/50 38/42/48
f 4/4/45 20/20/44 52/56/50
f 20/20/44 5/5/4 35/38/1
f 52/56/50 35/38/1 14/14/3
f 58/67/51 57/66/54 53/58/52
f 13/13/49 38/42/48 53/57/52
f 38/42/48 14/14/3 36/39/55
f 37/41/53 53/58/52 36/40/55
f 60/69/57 33/36/60 69/79/58
f 33/35/60 12/12/31 66/75/33
f 61/70/61 31/33/64 54/60/62
f 31/32/64 11/11/27 40/44/29
f 54/59/62 40/44/29 12/12/31
f 39/43/63 54/60/62 33/36/60
f 62/71/65 29/30/68 55/62/66
f 29/29/68 10/10/8 42/46/25
f 55/61/66 42/46/25 11/11/27
f 41/45/67 55/62/66 31/33/64
f 36/40/55 56/64/70 43/47/69
f 14/14/3 44/48/2 56/63/70
f 44/48/2 10/10/8 29/29/68
f 56/64/70 29/30/68 62/71/65
