# Blender 3.3.0
# www.blender.org
o DesertIslandCol04
v -10.326334 -17.481819 -22.372940
v 6.509993 -21.420248 -25.763035
v -4.317941 -19.211941 -24.212845
v -14.100902 -8.472014 -28.007202
v -13.318314 -12.105998 -26.662857
v -11.899266 -15.416029 -24.631079
v -3.802637 -9.405931 -35.024906
v -3.827686 -13.305897 -33.106335
v -3.817255 -16.851358 -29.573608
v 10.364563 -9.603840 -40.234554
v 9.421020 -13.759438 -37.838097
v 8.202956 -17.869696 -33.012478
v -21.005482 -7.606257 -18.925676
v -19.688459 -11.126148 -18.147200
v -17.006145 -14.462464 -17.162878
v -11.076178 -16.684269 -23.442997
v -8.045368 -18.225660 -23.256491
v 13.649455 -22.668396 -26.186134
v 0.520858 -20.280350 -25.073051
v -3.944670 -18.224455 -27.178144
v 7.420156 -19.735916 -29.688238
v -11.472647 -17.413858 -20.012075
v -5.039007 -19.789995 -20.554993
v 5.472699 -22.902859 -21.266855
v -15.180778 -15.925578 -16.662382
v -14.134755 -6.781277 -28.341345
v -13.814008 -10.278848 -27.436537
v -12.662301 -13.853342 -25.717112
v -3.712872 -7.568680 -35.253105
v -3.837055 -11.348588 -34.284519
v -3.803139 -15.176575 -31.536722
v 10.793452 -7.685690 -40.372387
v 9.912520 -11.649228 -39.359623
v 8.861394 -15.856658 -35.724316
v -20.979231 -5.966430 -19.225842
v -20.545712 -9.352255 -18.566429
v -18.500679 -12.850430 -17.672943
v 1.694606 -17.436516 -31.462677
v 2.367424 -13.655730 -35.687386
v 2.867446 -9.620625 -37.865776
v -8.314362 -16.123842 -27.354181
v -9.027851 -12.739716 -30.120653
v -9.436313 -8.993746 -31.755796
v -14.722550 -14.847068 -21.230986
v -16.834200 -11.538039 -22.664595
v -17.924986 -7.983702 -23.723385
v -0.333398 -21.255520 -20.958839
v -8.746825 -18.549507 -20.148979
v 1.189221 -19.004263 -28.562420
v 2.072254 -15.624999 -33.827732
v 2.623639 -11.623565 -37.050430
v -8.013947 -17.397503 -25.553650
v -8.682932 -14.532347 -28.867664
v -9.291248 -10.858875 -31.096783
v -13.336313 -16.217907 -20.484343
v -15.883575 -13.266149 -21.981031
v -17.534597 -9.747369 -23.251219
v 17.730726 -11.462715 -41.147125
v 18.358271 -9.319310 -42.058544
v 16.364492 -15.975699 -37.170609
v 17.076738 -13.709343 -39.499386
v 14.689728 -20.506409 -30.471735
v 15.576289 -18.253157 -34.159985
v 12.405422 -24.670431 -21.398462
v 18.982735 -7.348175 -42.141865
v 3.109599 -7.728315 -38.047813
v -9.439596 -7.238905 -32.042011
v -17.936356 -6.335131 -24.067951
v 10.961739 -26.461916 -16.188030
v 4.298859 -24.197300 -16.277918
v -1.357177 -22.036890 -16.280876
v -6.029417 -20.153360 -16.239574
v -9.833806 -18.642246 -16.202154
v -12.852241 -17.291746 -16.307133
vn -0.2007 -0.8984 -0.3907
vn -0.2170 -0.8968 -0.3856
vn -0.2563 -0.9092 -0.3281
vn -0.2631 -0.9004 -0.3466
vn -0.3048 -0.9083 -0.2866
vn -0.2914 -0.9146 -0.2804
vn -0.2938 -0.9221 -0.2519
vn -0.3228 -0.9278 -0.1870
vn -0.2418 -0.9125 -0.3298
vn -0.3417 -0.9161 -0.2095
vn -0.3583 -0.9217 -0.1485
vn -0.4278 -0.8692 -0.2478
vn -0.3602 -0.9204 -0.1521
vn -0.4458 -0.8799 -0.1644
vn -0.3545 -0.8992 -0.2566
vn -0.3838 -0.9152 -0.1230
vn -0.4525 -0.8798 -0.1457
vn -0.1694 -0.8650 -0.4723
vn -0.1665 -0.8823 -0.4404
vn -0.1641 -0.8069 -0.5674
vn -0.1370 -0.8511 -0.5068
vn -0.1784 -0.7218 -0.6687
vn -0.1307 -0.7992 -0.5866
vn -0.2034 -0.6059 -0.7691
vn -0.1431 -0.7208 -0.6782
vn -0.2308 -0.4395 -0.8681
vn -0.1653 -0.6034 -0.7801
vn -0.2516 -0.1791 -0.9511
vn -0.1906 -0.4198 -0.8874
vn -0.2497 -0.0100 -0.9683
vn -0.2109 -0.1177 -0.9704
vn -0.2989 -0.8574 -0.4189
vn -0.3332 -0.7648 -0.5514
vn -0.2232 -0.8696 -0.4403
vn -0.2349 -0.7953 -0.5589
vn -0.3727 -0.6543 -0.6580
vn -0.4063 -0.5342 -0.7413
vn -0.2627 -0.6947 -0.6696
vn -0.2942 -0.5720 -0.7656
vn -0.4311 -0.3940 -0.8117
vn -0.4432 -0.2047 -0.8727
vn -0.3224 -0.4149 -0.8508
vn -0.3393 -0.1882 -0.9217
vn -0.4396 -0.0850 -0.8942
vn -0.3360 -0.0435 -0.9408
vn -0.5093 -0.7838 -0.3554
vn -0.5716 -0.6857 -0.4507
vn -0.3963 -0.8240 -0.4049
vn -0.4517 -0.7180 -0.5295
vn -0.6132 -0.5881 -0.5274
vn -0.6433 -0.4896 -0.5885
vn -0.4964 -0.6102 -0.6175
vn -0.5286 -0.5020 -0.6845
vn -0.6666 -0.3789 -0.6420
vn -0.6855 -0.2341 -0.6894
vn -0.5514 -0.3814 -0.7420
vn -0.5637 -0.2255 -0.7946
vn -0.6880 -0.1505 -0.7099
vn -0.5625 -0.1291 -0.8167
vn -0.5495 -0.7985 -0.2457
vn -0.5384 -0.8160 -0.2104
vn -0.6228 -0.7062 -0.3367
vn -0.6163 -0.7326 -0.2889
vn -0.6761 -0.6096 -0.4140
vn -0.6820 -0.6355 -0.3618
vn -0.7179 -0.5068 -0.4773
vn -0.7379 -0.5257 -0.4233
vn -0.7555 -0.3862 -0.5293
vn -0.7887 -0.3910 -0.4745
vn -0.7898 -0.2205 -0.5723
vn -0.8422 -0.0896 -0.5317
vn -0.8311 -0.2034 -0.5176
vn -0.7956 -0.1294 -0.5918
vn -0.2121 0.0259 -0.9769
vt 0.568441 0.369177
vt 0.373133 0.704342
vt 0.472719 0.394035
vt 0.316660 0.627330
vt 0.533965 0.381340
vt 0.351981 0.676224
vt 0.344055 0.756356
vt 0.353643 0.738374
vt 0.363727 0.719721
vt 0.288394 0.722382
vt 0.304015 0.706148
vt 0.324116 0.690007
vt 0.225216 0.675174
vt 0.246862 0.661309
vt 0.276591 0.645282
vt 0.400339 0.776825
vt 0.405176 0.757932
vt 0.408299 0.735860
vt 0.368807 0.711151
vt 0.555246 0.374768
vt 0.364644 0.693549
vt 0.432399 0.398911
vt 0.294193 0.595237
vt 0.506545 0.387903
vt 0.336023 0.654216
vt 0.336510 0.682698
vt 0.295179 0.636561
vt 0.387045 0.706622
vt 0.573923 0.355520
vt 0.535780 0.360311
vt 0.475013 0.367137
vt 0.409024 0.723524
vt 0.339597 0.764192
vt 0.348761 0.747649
vt 0.358650 0.728927
vt 0.282436 0.730090
vt 0.295636 0.714385
vt 0.313450 0.697915
vt 0.216983 0.681507
vt 0.235101 0.668541
vt 0.260602 0.653538
vt 0.396910 0.784764
vt 0.403023 0.767851
vt 0.406945 0.747255
vt 0.301710 0.669611
vt 0.276578 0.685252
vt 0.257792 0.700268
vt 0.344178 0.706707
vt 0.329209 0.723874
vt 0.316714 0.741105
vt 0.384790 0.729152
vt 0.378771 0.749591
vt 0.371758 0.768086
vt 0.508433 0.363879
vt 0.557487 0.356982
vt 0.317384 0.661904
vt 0.288259 0.677425
vt 0.266421 0.692914
vt 0.352991 0.699232
vt 0.336379 0.715079
vt 0.322620 0.732662
vt 0.387055 0.718593
vt 0.381922 0.739481
vt 0.375405 0.759231
vt 0.202737 0.641730
vt 0.191841 0.647763
vt 0.231227 0.626320
vt 0.215792 0.634581
vt 0.270296 0.606387
vt 0.249312 0.616903
vt 0.435552 0.369479
vt 0.182600 0.653130
vt 0.250696 0.707441
vt 0.311661 0.748982
vt 0.367738 0.775893
vt 0.439697 0.338675
vt 0.477998 0.338179
vt 0.511285 0.337116
vt 0.539173 0.335796
vt 0.561926 0.334543
vt 0.580290 0.334294
vt 0.408262 0.709162
s 1
f 2/3/1 64/71/2 24/31/3
f 24/31/3 69/76/4 70/77/5
f 3/5/6 47/54/7 23/30/8
f 19/24/9 24/31/3 47/54/7
f 47/54/7 70/77/5 71/78/10
f 23/30/8 71/78/10 72/79/11
f 1/1/12 48/55/13 22/29/14
f 17/20/15 23/30/8 48/55/13
f 48/55/13 72/79/11 73/80/16
f 22/29/14 73/80/16 74/81/17
f 21/27/18 18/23/19 2/4/1
f 12/15/20 62/69/21 21/27/18
f 34/41/22 63/70/23 12/15/20
f 11/14/24 60/67/25 34/41/22
f 33/40/26 61/68/27 11/14/24
f 10/13/28 58/65/29 33/40/26
f 32/39/30 59/66/31 10/13/28
f 20/26/32 19/25/9 3/6/6
f 9/12/33 49/56/34 20/26/32
f 38/45/35 21/27/18 49/56/34
f 49/56/34 2/4/1 19/25/9
f 31/38/36 38/45/35 9/12/33
f 8/11/37 50/57/38 31/38/36
f 39/46/39 34/41/22 50/57/38
f 50/57/38 12/15/20 38/45/35
f 30/37/40 39/46/39 8/11/37
f 7/10/41 51/58/42 30/37/40
f 40/47/43 33/40/26 51/58/42
f 51/58/42 11/14/24 39/46/39
f 29/36/44 40/47/43 7/10/41
f 66/73/45 10/13/28 40/47/43
f 16/19/46 17/21/15 1/2/12
f 6/9/47 52/59/48 16/19/46
f 41/48/49 20/26/32 52/59/48
f 52/59/48 3/6/6 17/21/15
f 28/35/50 41/48/49 6/9/47
f 5/8/51 53/60/52 28/35/50
f 42/49/53 31/38/36 53/60/52
f 53/60/52 9/12/33 41/48/49
f 27/34/54 42/49/53 5/8/51
f 4/7/55 54/61/56 27/34/54
f 43/50/57 30/37/40 54/61/56
f 54/61/56 8/11/37 42/49/53
f 26/33/58 43/50/57 4/7/55
f 67/74/59 7/10/41 43/50/57
f 74/82/17 55/62/60 22/28/14
f 25/32/61 44/51/62 55/62/60
f 55/62/60 6/9/47 16/19/46
f 55/62/60 1/2/12 22/28/14
f 15/18/63 56/63/64 44/51/62
f 37/44/65 45/52/66 56/63/64
f 56/63/64 5/8/51 28/35/50
f 44/51/62 28/35/50 6/9/47
f 14/17/67 57/64/68 45/52/66
f 36/43/69 46/53/70 57/64/68
f 46/53/70 27/34/54 57/64/68
f 45/52/66 27/34/54 5/8/51
f 35/42/71 46/53/70 13/16/72
f 68/75/73 4/7/55 46/53/70
f 2/3/1 18/22/19 64/71/2
f 24/31/3 64/71/2 69/76/4
f 3/5/6 19/24/9 47/54/7
f 19/24/9 2/3/1 24/31/3
f 47/54/7 24/31/3 70/77/5
f 23/30/8 47/54/7 71/78/10
f 1/1/12 17/20/15 48/55/13
f 17/20/15 3/5/6 23/30/8
f 48/55/13 23/30/8 72/79/11
f 22/29/14 48/55/13 73/80/16
f 21/27/18 62/69/21 18/23/19
f 12/15/20 63/70/23 62/69/21
f 34/41/22 60/67/25 63/70/23
f 11/14/24 61/68/27 60/67/25
f 33/40/26 58/65/29 61/68/27
f 10/13/28 59/66/31 58/65/29
f 32/39/30 65/72/74 59/66/31
f 20/26/32 49/56/34 19/25/9
f 9/12/33 38/45/35 49/56/34
f 38/45/35 12/15/20 21/27/18
f 49/56/34 21/27/18 2/4/1
f 31/38/36 50/57/38 38/45/35
f 8/11/37 39/46/39 50/57/38
f 39/46/39 11/14/24 34/41/22
f 50/57/38 34/41/22 12/15/20
f 30/37/40 51/58/42 39/46/39
f 7/10/41 40/47/43 51/58/42
f 40/47/43 10/13/28 33/40/26
f 51/58/42 33/40/26 11/14/24
f 29/36/44 66/73/45 40/47/43
f 66/73/45 32/39/30 10/13/28
f 16/19/46 52/59/48 17/21/15
f 6/9/47 41/48/49 52/59/48
f 41/48/49 9/12/33 20/26/32
f 52/59/48 20/26/32 3/6/6
f 28/35/50 53/60/52 41/48/49
f 5/8/51 42/49/53 53/60/52
f 42/49/53 8/11/37 31/38/36
f 53/60/52 31/38/36 9/12/33
f 27/34/54 54/61/56 42/49/53
f 4/7/55 43/50/57 54/61/56
f 43/50/57 7/10/41 30/37/40
f 54/61/56 30/37/40 8/11/37
f 26/33/58 67/74/59 43/50/57
f 67/74/59 29/36/44 7/10/41
f 74/82/17 25/32/61 55/62/60
f 25/32/61 15/18/63 44/51/62
f 55/62/60 44/51/62 6/9/47
f 55/62/60 16/19/46 1/2/12
f 15/18/63 37/44/65 56/63/64
f 37/44/65 14/17/67 45/52/66
f 56/63/64 45/52/66 5/8/51
f 44/51/62 56/63/64 28/35/50
f 14/17/67 36/43/69 57/64/68
f 36/43/69 13/16/72 46/53/70
f 46/53/70 4/7/55 27/34/54
f 45/52/66 57/64/68 27/34/54
f 35/42/71 68/75/73 46/53/70
f 68/75/73 26/33/58 4/7/55
