# Blender 3.3.0
# www.blender.org
o DesertIslandCol09
v 38.512375 -28.125492 -24.928852
v 21.550802 -24.176592 -26.198523
v 26.310551 -9.263154 -43.244610
v 24.820345 -13.910522 -40.571823
v 23.350939 -18.966389 -34.807907
v 40.356178 -10.814759 -43.870228
v 38.723125 -16.191414 -41.110710
v 37.906033 -21.843266 -34.993748
v 29.773220 -26.041376 -25.722382
v 22.576405 -21.598080 -30.793182
v 37.933876 -24.846144 -30.599257
v 27.133654 -7.237801 -43.273338
v 25.550554 -11.503516 -42.313232
v 24.087036 -16.411116 -38.072674
v 41.543240 -8.332393 -43.858131
v 39.435108 -13.461988 -42.922211
v 38.195961 -18.952482 -38.481701
v 43.732979 -23.135208 -35.306171
v 44.453022 -17.425905 -41.113232
v 46.193291 -11.790137 -43.817947
v 30.978785 -20.291424 -34.951916
v 32.131474 -14.850472 -41.020702
v 33.709614 -9.912270 -43.764549
v 15.576289 -18.253157 -34.159985
v 17.076738 -13.709343 -39.499386
v 18.358271 -9.319310 -42.058544
v 30.551891 -23.196140 -30.646114
v 31.495621 -17.516253 -38.408478
v 32.859562 -12.311849 -42.821381
v 14.689728 -20.506409 -30.471735
v 16.364492 -15.975699 -37.170609
v 17.730726 -11.462715 -41.147125
v 18.982735 -7.348175 -42.141865
v 45.197098 -14.562236 -42.875145
v 43.942432 -20.268402 -38.591831
v 13.649455 -22.668396 -26.186134
v 44.906651 -28.284582 -27.188200
v 43.944748 -25.917166 -31.326313
v 34.728695 -7.671447 -43.755081
v 47.496975 -9.201733 -43.847473
vn -0.1885 -0.8357 -0.5159
vn -0.1991 -0.8635 -0.4634
vn -0.1762 -0.8598 -0.4793
vn -0.2043 -0.7734 -0.6001
vn -0.2101 -0.8414 -0.4979
vn -0.1877 -0.7796 -0.5975
vn -0.1773 -0.6927 -0.6991
vn -0.1635 -0.7088 -0.6862
vn -0.1266 -0.5834 -0.8023
vn -0.0823 -0.4260 -0.9010
vn -0.1291 -0.6020 -0.7880
vn -0.0294 -0.1556 -0.9874
vn -0.0667 -0.4046 -0.9120
vn -0.1447 -0.8326 -0.5347
vn -0.1675 -0.8464 -0.5055
vn -0.1547 -0.8501 -0.5033
vn -0.1344 -0.7915 -0.5962
vn -0.1697 -0.8262 -0.5372
vn -0.1288 -0.7245 -0.6771
vn -0.1622 -0.7843 -0.5988
vn -0.1258 -0.6190 -0.7752
vn -0.1490 -0.7178 -0.6801
vn -0.1313 -0.6133 -0.7788
vn -0.1239 -0.4500 -0.8844
vn -0.1157 -0.1553 -0.9811
vn -0.1029 -0.4443 -0.8899
vn -0.0628 -0.1564 -0.9857
vn -0.0945 0.0266 -0.9952
vn -0.0326 0.0192 -0.9993
vn -0.1281 -0.8055 -0.5785
vn -0.1474 -0.8467 -0.5113
vn -0.1656 -0.8637 -0.4759
vn -0.1241 -0.6403 -0.7581
vn -0.1217 -0.7412 -0.6602
vn -0.1448 -0.2123 -0.9664
vn -0.1332 -0.4806 -0.8667
vn -0.1462 0.0102 -0.9892
vn -0.0015 0.0030 -1.0000
vn -0.0172 -0.1383 -0.9902
vn 0.0001 -0.0115 -0.9999
vt 0.225328 0.476022
vt 0.270718 0.558718
vt 0.160750 0.618628
vt 0.186495 0.605412
vt 0.222518 0.585004
vt 0.113621 0.559703
vt 0.142086 0.545044
vt 0.178357 0.519166
vt 0.248298 0.519008
vt 0.245067 0.572010
vt 0.200071 0.500761
vt 0.150422 0.623175
vt 0.172506 0.612877
vt 0.203068 0.596182
vt 0.100556 0.563488
vt 0.127098 0.553669
vt 0.159085 0.533715
vt 0.160004 0.493365
vt 0.125487 0.518940
vt 0.096093 0.533435
vt 0.198913 0.551010
vt 0.162032 0.574701
vt 0.134811 0.588660
vt 0.249312 0.616903
vt 0.215792 0.634581
vt 0.191841 0.647763
vt 0.221839 0.535028
vt 0.179074 0.564233
vt 0.147437 0.582805
vt 0.270296 0.606387
vt 0.231227 0.626320
vt 0.202737 0.641730
vt 0.182600 0.653130
vt 0.110259 0.527522
vt 0.142071 0.507654
vt 0.294193 0.595237
vt 0.195057 0.455392
vt 0.178739 0.475770
vt 0.123108 0.592728
vt 0.082065 0.536834
s 1
f 11/11/1 37/37/2 1/1/3
f 11/11/1 18/18/4 38/38/5
f 8/8/6 35/35/7 18/18/4
f 17/17/8 19/19/9 35/35/7
f 16/16/10 19/19/9 7/7/11
f 6/6/12 34/34/13 16/16/10
f 10/10/14 9/9/15 2/2/16
f 5/5/17 27/27/18 10/10/14
f 27/27/18 8/8/6 11/11/1
f 9/9/15 11/11/1 1/1/3
f 14/14/19 21/21/20 5/5/17
f 4/4/21 28/28/22 14/14/19
f 22/22/23 17/17/8 28/28/22
f 21/21/20 17/17/8 8/8/6
f 13/13/24 22/22/23 4/4/21
f 3/3/25 29/29/26 13/13/24
f 23/23/27 16/16/10 29/29/26
f 29/29/26 7/7/11 22/22/23
f 12/12/28 23/23/27 3/3/25
f 39/39/29 6/6/12 23/23/27
f 24/24/30 10/10/14 30/30/31
f 30/30/31 2/2/16 36/36/32
f 25/25/33 14/14/19 31/31/34
f 31/31/34 5/5/17 24/24/30
f 26/26/35 13/13/24 32/32/36
f 32/32/36 4/4/21 25/25/33
f 33/33/37 3/3/25 26/26/35
f 15/15/38 20/20/39 6/6/12
f 11/11/1 38/38/5 37/37/2
f 11/11/1 8/8/6 18/18/4
f 8/8/6 17/17/8 35/35/7
f 17/17/8 7/7/11 19/19/9
f 16/16/10 34/34/13 19/19/9
f 6/6/12 20/20/39 34/34/13
f 10/10/14 27/27/18 9/9/15
f 5/5/17 21/21/20 27/27/18
f 27/27/18 21/21/20 8/8/6
f 9/9/15 27/27/18 11/11/1
f 14/14/19 28/28/22 21/21/20
f 4/4/21 22/22/23 28/28/22
f 22/22/23 7/7/11 17/17/8
f 21/21/20 28/28/22 17/17/8
f 13/13/24 29/29/26 22/22/23
f 3/3/25 23/23/27 29/29/26
f 23/23/27 6/6/12 16/16/10
f 29/29/26 16/16/10 7/7/11
f 12/12/28 39/39/29 23/23/27
f 39/39/29 15/15/38 6/6/12
f 24/24/30 5/5/17 10/10/14
f 30/30/31 10/10/14 2/2/16
f 25/25/33 4/4/21 14/14/19
f 31/31/34 14/14/19 5/5/17
f 26/26/35 3/3/25 13/13/24
f 32/32/36 13/13/24 4/4/21
f 33/33/37 12/12/28 3/3/25
f 15/15/38 40/40/40 20/20/39
