# Blender 3.3.0
# www.blender.org
o DesertIslandCol12
v 14.859434 -20.327213 21.432280
v -0.113879 -19.496199 24.235682
v 8.558719 -20.189262 23.536051
v 20.000914 -23.883030 15.386125
v 7.959030 -29.390759 6.922605
v 3.046396 -24.281971 16.790665
v 18.777880 -30.590214 6.727531
v 12.344357 -25.193525 16.466818
v 19.378553 -8.305268 25.653015
v 18.092365 -12.622885 24.658373
v 16.355869 -17.063860 23.135275
v 8.482450 -7.975123 32.463741
v 7.799032 -11.832451 30.867439
v 7.581108 -15.989980 27.954428
v -2.415373 -8.025499 34.855885
v -2.482300 -11.578485 32.972996
v -1.776013 -15.371446 29.451065
v 30.582233 -9.250047 15.678975
v 28.666334 -14.386979 15.433556
v 25.144287 -19.808197 15.228375
v 15.489962 -18.966818 22.252232
v 12.256330 -20.283957 22.513145
v -4.502968 -18.922161 23.850683
v 4.333563 -19.929190 24.129744
v 1.248461 -21.766361 20.818239
v 10.072901 -22.535404 20.366100
v 7.808858 -18.051104 26.005503
v -1.095679 -17.378492 27.086248
v 16.896305 -21.796389 19.082554
v 23.840769 -26.011940 10.932478
v 5.305702 -27.013575 12.138247
v 15.290749 -28.097500 11.873581
v 13.437037 -30.501844 6.955373
v 7.797080 -24.972679 16.801977
v 2.498204 -27.360542 6.568995
v 23.827332 -29.661297 6.363401
v 16.469393 -24.875368 15.895195
v 22.841837 -22.132225 15.196824
v 18.816267 -10.387583 25.237444
v 17.251513 -14.898057 23.946564
v 8.092849 -9.840010 31.852163
v 7.611585 -13.904785 29.563797
v -2.548446 -9.767872 34.142906
v -2.228670 -13.444191 31.406620
v 29.858347 -11.707479 15.552406
v 27.082067 -17.154778 15.321739
v 30.018890 -20.963079 10.656967
v 34.355068 -14.917307 10.558156
v 2.910324 -15.684002 29.093941
v 2.589272 -11.677270 32.417679
v 12.044592 -16.347374 25.972874
v 12.959774 -12.096832 28.250538
v 20.651155 -18.351511 19.482399
v 23.282398 -13.488465 20.267704
v 13.866365 -22.431772 19.656153
v -3.252504 -20.999372 20.425159
v 5.777263 -22.294371 20.790634
v 10.386222 -27.931761 12.161850
v 0.247255 -25.447447 11.759502
v 19.832085 -27.469027 11.383668
v 27.204124 -23.753841 10.720292
v 32.403667 -17.945641 10.608783
v 35.824429 -12.055802 10.514297
v 3.423744 -17.757090 26.860481
v 2.652228 -13.653703 30.938004
v 2.690121 -9.780516 33.524578
v 11.828644 -18.324121 24.493853
v 12.465761 -14.247072 27.215311
v 13.464044 -10.004669 29.053461
v 19.014944 -20.369173 19.127825
v 22.072802 -15.989403 19.884069
v 24.231142 -11.037137 20.606108
v 28.331589 -27.727232 6.088953
v 35.260098 -21.528500 6.157101
v 32.095741 -24.880514 6.073379
v 43.213268 -9.295540 5.729969
v 42.095501 -11.889350 5.918830
v 40.306301 -14.842198 6.054276
v 38.001320 -18.105938 6.148216
v 36.703945 -9.476836 10.477431
v 2.957940 -7.985378 34.199574
v 13.950530 -8.052620 29.579039
v 24.861189 -8.766027 20.886805
v -1.681549 -23.197304 16.399374
v -6.245646 -15.076694 29.099539
v -5.486158 -16.953173 26.717340
v -7.202904 -11.511274 32.643284
v -6.815685 -13.273218 31.067703
v -7.404083 -8.058032 34.544704
v -7.404060 -9.766648 33.821873
vn 0.0703 -0.8144 0.5760
vn 0.2034 -0.7385 0.6428
vn 0.0748 -0.7936 0.6038
vn 0.2190 -0.7536 0.6198
vn 0.3347 -0.6557 0.6768
vn 0.3159 -0.6360 0.7041
vn 0.2241 -0.6941 0.6841
vn 0.1045 -0.7556 0.6466
vn -0.2224 -0.8916 0.3943
vn -0.1458 -0.8605 0.4881
vn -0.1778 -0.8732 0.4538
vn -0.1121 -0.8325 0.5425
vn -0.1455 -0.8461 0.5129
vn -0.1882 -0.8795 0.4372
vn -0.0442 -0.8332 0.5513
vn -0.0680 -0.8535 0.5166
vn -0.0131 -0.8019 0.5973
vn -0.2402 -0.9214 0.3055
vn -0.0877 -0.8909 0.4457
vn -0.2381 -0.9064 0.3489
vn -0.0613 -0.9100 0.4100
vn 0.0818 -0.8500 0.5203
vn -0.3304 -0.9170 0.2237
vn -0.2845 -0.9091 0.3043
vn 0.1273 -0.8595 0.4950
vn 0.2493 -0.7770 0.5780
vn 0.2967 -0.7695 0.5656
vn 0.3913 -0.6743 0.6263
vn 0.3593 -0.6651 0.6546
vn 0.4260 -0.6562 0.6228
vn 0.4883 -0.5654 0.6648
vn 0.5053 -0.5501 0.6649
vn 0.5423 -0.4742 0.6936
vn 0.5314 -0.4732 0.7026
vn 0.4658 -0.5634 0.6824
vn 0.5448 -0.4652 0.6977
vn 0.5705 -0.3996 0.7175
vn 0.5612 -0.3955 0.7271
vn 0.5865 -0.3307 0.7394
vn 0.5978 -0.3368 0.7275
vn 0.5709 -0.4004 0.7168
vn 0.5680 -0.3289 0.7545
vn 0.5996 -0.2485 0.7608
vn 0.5778 -0.2344 0.7818
vn 0.6030 -0.1953 0.7735
vn 0.6332 -0.2225 0.7413
vn 0.6211 -0.2667 0.7369
vn -0.0801 -0.7922 0.6050
vn -0.0477 -0.7421 0.6686
vn -0.1168 -0.8097 0.5751
vn -0.0180 -0.6789 0.7341
vn -0.0914 -0.7640 0.6387
vn 0.0051 -0.5925 0.8056
vn -0.0713 -0.7027 0.7079
vn 0.0188 -0.4631 0.8861
vn -0.0594 -0.6134 0.7875
vn -0.0596 -0.3856 0.9208
vn -0.0581 -0.4775 0.8767
vn 0.1539 -0.6980 0.6994
vn 0.2095 -0.6309 0.7471
vn 0.0261 -0.7538 0.6566
vn 0.0702 -0.6945 0.7161
vn 0.2604 -0.5631 0.7843
vn 0.3026 -0.4936 0.8153
vn 0.1135 -0.6272 0.7706
vn 0.1508 -0.5476 0.8230
vn 0.3359 -0.4101 0.8479
vn 0.1982 -0.3682 0.9084
vn 0.1791 -0.4395 0.8802
vn 0.0305 -0.3783 0.9252
vn 0.3817 -0.5650 0.7315
vn 0.4358 -0.5048 0.7452
vn 0.2806 -0.6276 0.7262
vn 0.3429 -0.5597 0.7544
vn 0.4818 -0.4471 0.7536
vn 0.5204 -0.3958 0.7567
vn 0.3945 -0.4991 0.7715
vn 0.4354 -0.4416 0.7845
vn 0.5558 -0.3397 0.7587
vn 0.4869 -0.3341 0.8070
vn 0.4678 -0.3784 0.7987
vn 0.3570 -0.3546 0.8642
vn 0.4350 -0.5568 0.7076
vn 0.4992 -0.4789 0.7222
vn 0.5459 -0.4143 0.7282
vn 0.5796 -0.3590 0.7315
vn 0.6095 -0.2983 0.7346
vn 0.6256 -0.2601 0.7355
vn 0.5762 -0.3018 0.7596
vn 0.5817 -0.1931 0.7902
vt 0.407600 0.123256
vt 0.492059 0.109957
vt 0.489103 0.098412
vt 0.443358 0.113429
vt 0.442120 0.110702
vt 0.381071 0.161604
vt 0.444780 0.215054
vt 0.472375 0.157657
vt 0.389684 0.217824
vt 0.422466 0.160394
vt 0.367409 0.062850
vt 0.381187 0.083125
vt 0.396284 0.105060
vt 0.429154 0.030349
vt 0.437529 0.050961
vt 0.443124 0.077202
vt 0.486302 0.012918
vt 0.490307 0.033657
vt 0.491458 0.061163
vt 0.298905 0.108080
vt 0.319947 0.129199
vt 0.348377 0.149389
vt 0.402997 0.115221
vt 0.422441 0.118154
vt 0.422002 0.117465
vt 0.516804 0.111617
vt 0.513403 0.093542
vt 0.467089 0.110587
vt 0.464933 0.104243
vt 0.483321 0.132269
vt 0.434756 0.135106
vt 0.444024 0.092455
vt 0.490883 0.078232
vt 0.397082 0.138717
vt 0.361372 0.187780
vt 0.459204 0.185798
vt 0.407198 0.188700
vt 0.416538 0.216482
vt 0.446645 0.158597
vt 0.474915 0.214465
vt 0.363512 0.217943
vt 0.400532 0.162096
vt 0.363994 0.157130
vt 0.373942 0.072528
vt 0.388803 0.094170
vt 0.433672 0.039861
vt 0.440775 0.063449
vt 0.488724 0.022520
vt 0.491222 0.046442
vt 0.308172 0.118489
vt 0.333568 0.139764
vt 0.321313 0.173741
vt 0.286482 0.152979
vt 0.467244 0.067944
vt 0.464416 0.040585
vt 0.419571 0.089149
vt 0.409881 0.065012
vt 0.372906 0.125759
vt 0.351329 0.105154
vt 0.413978 0.137953
vt 0.508543 0.133382
vt 0.458293 0.132935
vt 0.432412 0.187144
vt 0.487261 0.185421
vt 0.383538 0.189463
vt 0.340737 0.182266
vt 0.303039 0.163695
vt 0.272382 0.142238
vt 0.467048 0.084554
vt 0.466265 0.053398
vt 0.461829 0.029394
vt 0.422660 0.102094
vt 0.415050 0.076794
vt 0.404481 0.054178
vt 0.384219 0.134033
vt 0.361849 0.115810
vt 0.341922 0.094555
vt 0.338109 0.214996
vt 0.291374 0.196598
vt 0.314048 0.207382
vt 0.222395 0.153696
vt 0.234757 0.163535
vt 0.250937 0.174007
vt 0.270106 0.185168
vt 0.261527 0.131802
vt 0.458346 0.019844
vt 0.398981 0.044659
vt 0.334138 0.084498
vt 0.498724 0.158061
vt 0.514971 0.056901
vt 0.514469 0.073677
vt 0.514708 0.029991
vt 0.515047 0.042498
vt 0.512516 0.009333
vt 0.513894 0.018988
s 1
f 8/10/1 55/60/2 26/31/3
f 37/42/4 29/34/5 55/60/2
f 55/60/2 1/1/6 22/24/7
f 26/31/3 22/24/7 3/4/8
f 84/89/9 25/30/10 56/61/11
f 56/61/11 2/2/12 23/26/13
f 6/8/14 57/62/15 25/30/10
f 34/39/16 26/31/3 57/62/15
f 57/62/15 3/4/8 24/28/17
f 25/30/10 24/28/17 2/2/12
f 5/7/18 58/63/19 31/36/20
f 33/38/21 32/37/22 58/63/19
f 58/63/19 8/10/1 34/39/16
f 31/36/20 34/39/16 6/8/14
f 35/40/23 31/36/20 59/64/24
f 59/64/24 6/8/14 84/89/9
f 7/9/25 60/65/26 32/37/22
f 36/41/27 30/35/28 60/65/26
f 60/65/26 4/6/29 37/42/4
f 32/37/22 37/42/4 8/10/1
f 73/78/30 61/66/31 30/35/28
f 75/80/32 47/52/33 61/66/31
f 61/66/31 20/22/34 38/43/35
f 30/35/28 38/43/35 4/6/29
f 74/79/36 62/67/37 47/52/33
f 79/84/38 48/53/39 62/67/37
f 62/67/37 19/21/40 46/51/41
f 47/52/33 46/51/41 20/22/34
f 78/83/42 63/68/43 48/53/39
f 77/82/44 80/85/45 63/68/43
f 63/68/43 18/20/46 45/50/47
f 48/53/39 45/50/47 19/21/40
f 28/33/48 23/27/13 2/3/12
f 17/19/49 86/91/50 28/33/48
f 44/49/51 85/90/52 17/19/49
f 16/18/53 88/93/54 44/49/51
f 43/48/55 87/92/56 16/18/53
f 43/48/55 89/94/57 90/95/58
f 27/32/59 24/29/17 3/5/8
f 14/16/60 64/69/61 27/32/59
f 49/54/62 28/33/48 64/69/61
f 64/69/61 2/3/12 24/29/17
f 42/47/63 49/54/62 14/16/60
f 13/15/64 65/70/65 42/47/63
f 50/55/66 44/49/51 65/70/65
f 65/70/65 17/19/49 49/54/62
f 41/46/67 50/55/66 13/15/64
f 41/46/67 81/86/68 66/71/69
f 66/71/69 15/17/70 43/48/55
f 66/71/69 16/18/53 50/55/66
f 21/23/71 22/25/7 1/1/6
f 11/13/72 67/72/73 21/23/71
f 51/56/74 27/32/59 67/72/73
f 67/72/73 3/5/8 22/25/7
f 40/45/75 51/56/74 11/13/72
f 10/12/76 68/73/77 40/45/75
f 52/57/78 42/47/63 68/73/77
f 68/73/77 14/16/60 51/56/74
f 39/44/79 52/57/78 10/12/76
f 39/44/79 82/87/80 69/74/81
f 69/74/81 12/14/82 41/46/67
f 69/74/81 13/15/64 52/57/78
f 4/6/29 70/75/83 29/34/5
f 38/43/35 53/58/84 70/75/83
f 53/58/84 21/23/71 70/75/83
f 70/75/83 1/1/6 29/34/5
f 20/22/34 71/76/85 53/58/84
f 46/51/41 54/59/86 71/76/85
f 71/76/85 10/12/76 40/45/75
f 53/58/84 40/45/75 11/13/72
f 19/21/40 72/77/87 54/59/86
f 45/50/47 83/88/88 72/77/87
f 72/77/87 9/11/89 39/44/79
f 54/59/86 39/44/79 10/12/76
f 8/10/1 37/42/4 55/60/2
f 37/42/4 4/6/29 29/34/5
f 55/60/2 29/34/5 1/1/6
f 26/31/3 55/60/2 22/24/7
f 84/89/9 6/8/14 25/30/10
f 56/61/11 25/30/10 2/2/12
f 6/8/14 34/39/16 57/62/15
f 34/39/16 8/10/1 26/31/3
f 57/62/15 26/31/3 3/4/8
f 25/30/10 57/62/15 24/28/17
f 5/7/18 33/38/21 58/63/19
f 33/38/21 7/9/25 32/37/22
f 58/63/19 32/37/22 8/10/1
f 31/36/20 58/63/19 34/39/16
f 35/40/23 5/7/18 31/36/20
f 59/64/24 31/36/20 6/8/14
f 7/9/25 36/41/27 60/65/26
f 36/41/27 73/78/30 30/35/28
f 60/65/26 30/35/28 4/6/29
f 32/37/22 60/65/26 37/42/4
f 73/78/30 75/80/32 61/66/31
f 75/80/32 74/79/36 47/52/33
f 61/66/31 47/52/33 20/22/34
f 30/35/28 61/66/31 38/43/35
f 74/79/36 79/84/38 62/67/37
f 79/84/38 78/83/42 48/53/39
f 62/67/37 48/53/39 19/21/40
f 47/52/33 62/67/37 46/51/41
f 78/83/42 77/82/44 63/68/43
f 77/82/44 76/81/90 80/85/45
f 63/68/43 80/85/45 18/20/46
f 48/53/39 63/68/43 45/50/47
f 28/33/48 86/91/50 23/27/13
f 17/19/49 85/90/52 86/91/50
f 44/49/51 88/93/54 85/90/52
f 16/18/53 87/92/56 88/93/54
f 43/48/55 90/95/58 87/92/56
f 43/48/55 15/17/70 89/94/57
f 27/32/59 64/69/61 24/29/17
f 14/16/60 49/54/62 64/69/61
f 49/54/62 17/19/49 28/33/48
f 64/69/61 28/33/48 2/3/12
f 42/47/63 65/70/65 49/54/62
f 13/15/64 50/55/66 65/70/65
f 50/55/66 16/18/53 44/49/51
f 65/70/65 44/49/51 17/19/49
f 41/46/67 66/71/69 50/55/66
f 41/46/67 12/14/82 81/86/68
f 66/71/69 81/86/68 15/17/70
f 66/71/69 43/48/55 16/18/53
f 21/23/71 67/72/73 22/25/7
f 11/13/72 51/56/74 67/72/73
f 51/56/74 14/16/60 27/32/59
f 67/72/73 27/32/59 3/5/8
f 40/45/75 68/73/77 51/56/74
f 10/12/76 52/57/78 68/73/77
f 52/57/78 13/15/64 42/47/63
f 68/73/77 42/47/63 14/16/60
f 39/44/79 69/74/81 52/57/78
f 39/44/79 9/11/89 82/87/80
f 69/74/81 82/87/80 12/14/82
f 69/74/81 41/46/67 13/15/64
f 4/6/29 38/43/35 70/75/83
f 38/43/35 20/22/34 53/58/84
f 53/58/84 11/13/72 21/23/71
f 70/75/83 21/23/71 1/1/6
f 20/22/34 46/51/41 71/76/85
f 46/51/41 19/21/40 54/59/86
f 71/76/85 54/59/86 10/12/76
f 53/58/84 71/76/85 40/45/75
f 19/21/40 45/50/47 72/77/87
f 45/50/47 18/20/46 83/88/88
f 72/77/87 83/88/88 9/11/89
f 54/59/86 72/77/87 39/44/79
