# Blender 3.3.0
# www.blender.org
o DesertIslandCol13
v -12.852241 -17.291746 -16.307133
v -15.662978 -17.255816 -6.835545
v -6.029417 -20.153360 -16.239574
v -8.523886 -20.768457 -6.107358
v 4.298859 -24.197300 -16.277918
v 1.331256 -25.867605 -5.264661
v -25.214499 -7.308991 -8.117909
v -23.707855 -10.857551 -7.894330
v -20.545580 -14.223457 -7.460866
v -14.269211 -17.230539 -11.814180
v -16.959793 -17.336803 -1.648303
v -7.190602 -20.493284 -11.362715
v -10.015849 -20.873253 -0.691858
v 2.956273 -25.270264 -10.896727
v -0.633843 -25.748243 0.447096
v 10.961739 -26.461916 -16.188030
v 7.329640 -28.729473 -4.877342
v -1.357177 -22.036890 -16.280876
v -3.961865 -23.126499 -5.689322
v -9.833806 -18.642246 -16.202154
v -12.406944 -18.877430 -6.486757
v -18.349384 -15.746134 -7.165184
v -25.180826 -5.661036 -8.160593
v -24.692543 -9.074305 -8.030587
v -22.324099 -12.589441 -7.704900
v -18.943848 -14.263567 -12.508805
v -21.971766 -10.901338 -13.174968
v -23.421738 -7.367833 -13.675549
v -21.775896 -14.284167 -2.239763
v -24.904099 -10.943123 -2.475610
v -26.412350 -7.416662 -2.423997
v -2.543455 -22.706099 -11.138766
v -5.641661 -23.134577 -0.121196
v -11.074480 -18.742962 -11.569736
v -13.777526 -18.991385 -1.209808
v -16.854029 -15.772378 -12.141562
v -20.642242 -12.632118 -12.859813
v -22.920748 -9.122825 -13.446247
v -19.604439 -15.807482 -1.991619
v -23.534826 -12.660595 -2.397842
v -25.882757 -9.172452 -2.482749
v 2.498204 -27.360542 6.568995
v 4.964702 -28.521105 0.942552
v 9.309012 -27.934334 -10.639792
v -2.691037 -24.944263 5.989004
v -7.373916 -22.677624 5.306795
v -11.494221 -20.677410 4.610604
v -15.047055 -18.939148 3.976168
v -18.054218 -17.361872 3.465123
v -22.601725 -14.387848 2.929424
v -20.551228 -15.877686 3.121053
v -27.065348 -5.991653 3.489784
v -27.033836 -7.631147 3.213103
v -26.509073 -9.363453 3.016237
v -25.569258 -11.107955 2.897464
v -24.266825 -12.795767 2.862446
v -23.379389 -5.720477 -13.868538
v -26.406246 -5.773376 -2.300332
v -17.006145 -14.462464 -17.162878
v -15.180778 -15.925578 -16.662382
v -20.979231 -5.966430 -19.225842
v -21.005482 -7.606257 -18.925676
v -20.545712 -9.352255 -18.566429
v -19.688459 -11.126148 -18.147200
v -18.500679 -12.850430 -17.672943
vn -0.3392 -0.8975 -0.2818
vn -0.3448 -0.8963 -0.2789
vn -0.3825 -0.8929 -0.2374
vn -0.4003 -0.8958 -0.1933
vn -0.4258 -0.8888 -0.1693
vn -0.4328 -0.8975 -0.0853
vn -0.4420 -0.8935 -0.0796
vn -0.4317 -0.9019 -0.0167
vn -0.4334 -0.9003 -0.0400
vn -0.3811 -0.9089 -0.1691
vn -0.4096 -0.8920 -0.1915
vn -0.4081 -0.8998 -0.1542
vn -0.3727 -0.9012 -0.2213
vn -0.4404 -0.8843 -0.1550
vn -0.4303 -0.8914 -0.1422
vn -0.4461 -0.8897 -0.0974
vn -0.4355 -0.8936 -0.1083
vn -0.4325 -0.8989 -0.0700
vn -0.4264 -0.9002 -0.0887
vn -0.4421 -0.8873 -0.1317
vn -0.4098 -0.9027 -0.1315
vn -0.4480 -0.8841 -0.1332
vn -0.3904 -0.9107 -0.1349
vn -0.4262 -0.8950 -0.1315
vn -0.4537 -0.8815 -0.1311
vn -0.4368 -0.8925 -0.1122
vn -0.4652 -0.8776 -0.1158
vn -0.4367 -0.8943 -0.0977
vn -0.4722 -0.8754 -0.1031
vn -0.5177 -0.8403 -0.1608
vn -0.5138 -0.8456 -0.1449
vn -0.6061 -0.7686 -0.2049
vn -0.6200 -0.7535 -0.2186
vn -0.5281 -0.8332 -0.1640
vn -0.6036 -0.7789 -0.1702
vn -0.6976 -0.6708 -0.2518
vn -0.7057 -0.6803 -0.1982
vn -0.7821 -0.5500 -0.2929
vn -0.7753 -0.5401 -0.3274
vn -0.7030 -0.6553 -0.2764
vn -0.8023 -0.5540 -0.2225
vn -0.8600 -0.3915 -0.3272
vn -0.8906 -0.3851 -0.2418
vn -0.9227 -0.1561 -0.3526
vn -0.8987 -0.1754 -0.4020
vn -0.8412 -0.3934 -0.3710
vn -0.9663 0.0115 -0.2572
vn -0.9575 -0.1354 -0.2547
vn -0.9319 -0.0217 -0.3621
vn -0.5240 -0.8428 -0.1232
vn -0.5370 -0.8367 -0.1074
vn -0.6153 -0.7767 -0.1349
vn -0.6319 -0.7668 -0.1125
vn -0.7209 -0.6773 -0.1465
vn -0.7383 -0.6644 -0.1162
vn -0.8211 -0.5493 -0.1549
vn -0.8366 -0.5352 -0.1172
vn -0.9114 -0.3792 -0.1600
vn -0.9227 -0.3674 -0.1168
vn -0.9782 -0.1321 -0.1605
vn -0.9851 -0.1280 -0.1151
vn -0.9877 0.0143 -0.1559
vn -0.3001 -0.8960 -0.3272
vn -0.9120 -0.0597 -0.4058
vn -0.9936 -0.0000 -0.1131
vt 0.408262 0.709162
vt 0.580290 0.334294
vt 0.591811 0.280233
vt 0.461500 0.714196
vt 0.539173 0.335796
vt 0.547824 0.278644
vt 0.477998 0.338179
vt 0.487463 0.276580
vt 0.460402 0.787454
vt 0.461590 0.767946
vt 0.461970 0.744422
vt 0.586363 0.308622
vt 0.433629 0.711643
vt 0.596381 0.250746
vt 0.490337 0.716890
vt 0.543188 0.308232
vt 0.553231 0.248220
vt 0.481820 0.307709
vt 0.495694 0.245430
vt 0.439697 0.338675
vt 0.452342 0.275652
vt 0.511285 0.337116
vt 0.519651 0.277636
vt 0.561926 0.334543
vt 0.571713 0.279454
vt 0.461892 0.730533
vt 0.459223 0.795863
vt 0.461135 0.778179
vt 0.461863 0.756758
vt 0.434330 0.740801
vt 0.432952 0.763915
vt 0.429996 0.783176
vt 0.490120 0.746952
vt 0.490413 0.770330
vt 0.490952 0.789900
vt 0.514842 0.308072
vt 0.526196 0.246723
vt 0.566800 0.308255
vt 0.576534 0.249602
vt 0.434386 0.727367
vt 0.433821 0.752873
vt 0.431724 0.774035
vt 0.490161 0.733140
vt 0.490214 0.759204
vt 0.490676 0.780558
vt 0.474915 0.214465
vt 0.462765 0.244676
vt 0.444932 0.307109
vt 0.505386 0.215058
vt 0.533701 0.216565
vt 0.558983 0.218492
vt 0.581001 0.220373
vt 0.599891 0.221831
vt 0.518554 0.719670
vt 0.517680 0.748464
vt 0.517829 0.735209
vt 0.522382 0.799166
vt 0.520858 0.790594
vt 0.519618 0.781289
vt 0.518654 0.771189
vt 0.517985 0.760316
vt 0.427534 0.791348
vt 0.491171 0.798410
vt 0.408299 0.735860
vt 0.409024 0.723524
vt 0.396910 0.784764
vt 0.400339 0.776825
vt 0.403023 0.767851
vt 0.405176 0.757932
vt 0.406945 0.747255
s 1
f 5/7/1 44/48/2 14/18/3
f 14/18/3 17/21/4 6/8/5
f 6/8/5 43/47/6 15/19/7
f 15/19/7 42/46/8 45/49/9
f 3/5/10 32/36/11 12/16/12
f 18/22/13 14/18/3 32/36/11
f 32/36/11 6/8/5 19/23/14
f 12/16/12 19/23/14 4/6/15
f 4/6/15 33/37/16 13/17/17
f 19/23/14 15/19/7 33/37/16
f 33/37/16 45/49/9 46/50/18
f 13/17/17 46/50/18 47/51/19
f 1/2/20 34/38/21 10/12/22
f 20/24/23 12/16/12 34/38/21
f 34/38/21 4/6/15 21/25/24
f 10/12/22 21/25/24 2/3/25
f 2/3/25 35/39/26 11/14/27
f 21/25/24 13/17/17 35/39/26
f 35/39/26 47/51/19 48/52/28
f 11/14/27 48/52/28 49/53/29
f 2/4/25 36/40/30 10/13/22
f 22/26/31 26/30/32 36/40/30
f 36/40/30 59/64/33 60/65/34
f 10/13/22 60/65/34 1/1/20
f 9/11/35 37/41/36 26/30/32
f 25/29/37 27/31/38 37/41/36
f 37/41/36 64/69/39 65/70/40
f 26/30/32 65/70/40 59/64/33
f 8/10/41 38/42/42 27/31/38
f 24/28/43 28/32/44 38/42/42
f 38/42/42 62/67/45 63/68/46
f 27/31/38 63/68/46 64/69/39
f 23/27/47 28/32/44 7/9/48
f 57/62/49 62/67/45 28/32/44
f 49/54/29 39/43/50 11/15/27
f 51/56/51 29/33/52 39/43/50
f 39/43/50 9/11/35 22/26/31
f 11/15/27 22/26/31 2/4/25
f 50/55/53 40/44/54 29/33/52
f 56/61/55 30/34/56 40/44/54
f 40/44/54 8/10/41 25/29/37
f 29/33/52 25/29/37 9/11/35
f 55/60/57 41/45/58 30/34/56
f 54/59/59 31/35/60 41/45/58
f 41/45/58 7/9/48 24/28/43
f 30/34/56 24/28/43 8/10/41
f 53/58/61 58/63/62 31/35/60
f 31/35/60 23/27/47 7/9/48
f 5/7/1 16/20/63 44/48/2
f 14/18/3 44/48/2 17/21/4
f 6/8/5 17/21/4 43/47/6
f 15/19/7 43/47/6 42/46/8
f 3/5/10 18/22/13 32/36/11
f 18/22/13 5/7/1 14/18/3
f 32/36/11 14/18/3 6/8/5
f 12/16/12 32/36/11 19/23/14
f 4/6/15 19/23/14 33/37/16
f 19/23/14 6/8/5 15/19/7
f 33/37/16 15/19/7 45/49/9
f 13/17/17 33/37/16 46/50/18
f 1/2/20 20/24/23 34/38/21
f 20/24/23 3/5/10 12/16/12
f 34/38/21 12/16/12 4/6/15
f 10/12/22 34/38/21 21/25/24
f 2/3/25 21/25/24 35/39/26
f 21/25/24 4/6/15 13/17/17
f 35/39/26 13/17/17 47/51/19
f 11/14/27 35/39/26 48/52/28
f 2/4/25 22/26/31 36/40/30
f 22/26/31 9/11/35 26/30/32
f 36/40/30 26/30/32 59/64/33
f 10/13/22 36/40/30 60/65/34
f 9/11/35 25/29/37 37/41/36
f 25/29/37 8/10/41 27/31/38
f 37/41/36 27/31/38 64/69/39
f 26/30/32 37/41/36 65/70/40
f 8/10/41 24/28/43 38/42/42
f 24/28/43 7/9/48 28/32/44
f 38/42/42 28/32/44 62/67/45
f 27/31/38 38/42/42 63/68/46
f 23/27/47 57/62/49 28/32/44
f 57/62/49 61/66/64 62/67/45
f 49/54/29 51/56/51 39/43/50
f 51/56/51 50/55/53 29/33/52
f 39/43/50 29/33/52 9/11/35
f 11/15/27 39/43/50 22/26/31
f 50/55/53 56/61/55 40/44/54
f 56/61/55 55/60/57 30/34/56
f 40/44/54 30/34/56 8/10/41
f 29/33/52 40/44/54 25/29/37
f 55/60/57 54/59/59 41/45/58
f 54/59/59 53/58/61 31/35/60
f 41/45/58 31/35/60 7/9/48
f 30/34/56 41/45/58 24/28/43
f 53/58/61 52/57/65 58/63/62
f 31/35/60 58/63/62 23/27/47
