# Blender 3.3.0
# www.blender.org
o AppleCol08
v 45.927277 -10.450313 19.746756
v 43.135353 -20.499029 18.564426
v 41.105980 -10.450312 28.766762
v 38.571808 -20.499027 27.102217
v -1.776258 -23.312202 33.600788
v -0.846173 -22.349480 29.918699
v 24.009415 -19.499523 24.936262
v 20.229315 -13.519032 25.728613
v 20.018560 -20.171717 19.211790
v 22.224709 -13.373789 19.711567
v -0.979991 -22.443769 35.913692
v 14.526843 -21.395067 26.071112
v 10.668658 -22.414242 21.919769
v 11.976968 -15.577808 21.946878
v 12.157587 -15.604236 28.112740
v -0.215724 -18.931252 28.804260
v 0.363782 -15.548920 29.972042
v 0.521330 -14.322659 33.087502
v 0.225905 -15.646070 36.148869
v 44.187893 -15.712031 18.261194
v 38.581985 -15.531592 29.081442
v 43.246521 -9.103506 24.416899
v 39.868927 -21.802019 22.611530
v 0.509097 -20.098824 36.638130
v 34.113033 -12.072332 26.563271
v 32.292324 -19.150442 25.476891
v 35.467857 -19.149910 19.366722
v 37.394501 -12.071781 20.249784
v 21.573566 -21.119604 21.769581
v 21.556601 -12.200558 22.871023
v 19.732521 -16.707907 26.487127
v 20.741720 -16.900402 18.391981
v 4.666431 -23.719694 25.926577
v 5.740417 -16.847897 25.871639
v 6.059667 -16.893076 32.048840
v 4.976283 -23.763542 31.921940
v 5.123690 -24.959114 28.132263
v 10.384360 -19.580582 21.193153
v 7.082093 -15.587317 27.942635
v 11.534143 -19.026945 29.147512
v 32.564846 -15.616219 27.154987
v 33.490314 -20.442820 22.237377
v 36.050953 -10.772272 23.582993
vn 0.1623 0.3809 0.9103
vn 0.0867 -0.1642 0.9826
vn 0.0550 0.6277 0.7765
vn -0.5323 0.1907 -0.8248
vn -0.5762 -0.4477 -0.6837
vn -0.4897 -0.5636 -0.6652
vn 0.0893 -0.9953 0.0366
vn 0.4254 -0.6568 0.6226
vn 0.3927 -0.6634 0.6369
vn 0.1794 0.6787 0.7122
vn 0.4282 -0.0303 0.9032
vn 0.4520 0.5884 0.6704
vn -0.3956 0.6130 -0.6839
vn 0.0317 0.9973 0.0658
vn -0.3553 0.7365 -0.5757
vn -0.0662 0.7227 -0.6880
vn -0.1352 0.9896 0.0500
vn -0.4918 0.1026 -0.8646
vn -0.1480 0.0659 -0.9868
vn 0.1357 -0.1037 0.9853
vn 0.0932 -0.7056 0.7025
vn 0.1373 -0.6943 0.7065
vn 0.1689 -0.6627 0.7296
vn 0.2339 -0.6790 -0.6958
vn 0.3215 0.0075 -0.9469
vn 0.1805 0.0871 -0.9797
vn 0.2890 0.7465 -0.5993
vn 0.1526 0.7279 -0.6685
vn 0.0553 -0.6849 -0.7266
vn 0.0822 0.9946 0.0626
vn 0.2097 0.9546 0.2114
vn 0.0270 0.6076 0.7938
vn 0.2153 -0.9607 0.1751
vn 0.1707 -0.9817 0.0846
vn 0.3257 -0.7998 -0.5043
vn 0.1699 -0.9849 0.0342
vn -0.3102 -0.9340 -0.1771
vn -0.2421 0.7540 -0.6106
vn -0.1673 -0.6198 -0.7667
vn 0.2818 -0.7686 0.5744
vn 0.5752 -0.1102 0.8106
vn 0.5622 0.6136 0.5545
vn 0.1259 0.9797 -0.1559
vt 0.903195 0.751609
vt 0.832381 0.989283
vt 0.951267 0.730474
vt 0.927439 0.073824
vt 0.769874 0.058080
vt 0.787922 0.962895
vt 0.772982 0.110487
vt 0.885918 0.094695
vt 0.867936 0.244897
vt 0.883057 0.227082
vt 0.678213 0.142009
vt 0.902821 0.166903
vt 0.803003 0.843153
vt 0.657405 0.102006
vt 0.941317 0.165490
vt 0.944674 0.603027
vt 0.895585 0.624630
vt 0.848613 0.860253
vt 0.588963 0.205660
vt 0.839307 0.232497
vt 0.895025 0.186783
vt 0.648038 0.164309
vt 0.936248 0.198078
vt 0.951267 0.553127
vt 0.941572 0.224883
vt 0.901219 0.568021
vt 0.849150 0.800597
vt 0.801548 0.807063
vt 0.627862 0.122712
vt 0.885190 0.242507
vt 0.887324 0.257932
vt 0.795872 0.743630
vt 0.778103 0.744577
vt 0.577583 0.154587
vt 0.749301 0.739028
vt 0.926984 0.738635
vt 0.771428 0.084284
vt 0.810152 0.976089
vt 0.906679 0.084259
vt 0.583407 0.166165
vt 0.722489 0.073841
vt 0.795898 0.913834
vt 0.725598 0.126248
vt 0.894370 0.130799
vt 0.946002 0.681649
vt 0.935891 0.109927
vt 0.897931 0.702784
vt 0.840358 0.940223
vt 0.918986 0.162191
vt 0.824486 0.852950
vt 0.664199 0.126784
vt 0.921275 0.611294
vt 0.904205 0.217047
vt 0.822511 0.772114
vt 0.914448 0.241407
vt 0.602723 0.138649
vt 0.775424 0.773045
vt 0.611567 0.190108
vt 0.865375 0.214208
vt 0.889552 0.212550
vt 0.934982 0.213764
vt 0.926243 0.560574
vt 0.802309 0.778950
vt 0.630725 0.148448
vt 0.724726 0.100063
vt 0.914760 0.119923
vt 0.817896 0.927361
s 1
f 2/3/1 20/36/2 27/45/3
f 24/40/4 19/34/5 35/56/6
f 39/63/7 34/54/8 14/27/9
f 13/23/10 38/61/11 33/53/12
f 12/21/13 37/60/14 36/59/15
f 7/12/16 29/49/17 12/21/13
f 12/22/13 40/64/18 31/51/19
f 32/52/20 28/47/21 10/17/22
f 20/36/2 1/1/23 28/47/21
f 32/52/20 27/45/3 20/36/2
f 25/41/24 21/37/25 41/65/26
f 41/65/26 4/7/27 26/43/28
f 41/65/26 7/11/16 31/51/19
f 8/14/29 41/65/26 31/51/19
f 42/66/30 4/8/27 23/39/31
f 27/46/3 23/39/31 2/4/1
f 9/15/32 42/66/30 27/46/3
f 7/12/16 42/66/30 29/49/17
f 28/48/21 22/38/33 43/67/34
f 43/67/34 3/6/35 25/42/24
f 30/50/36 25/42/24 8/13/29
f 10/18/22 43/67/34 30/50/36
f 35/56/6 40/64/18 24/40/4
f 40/64/18 36/58/15 24/40/4
f 18/33/37 35/57/6 19/35/5
f 24/40/4 36/58/15 11/19/38
f 15/28/39 35/57/6 39/63/7
f 17/32/40 39/63/7 18/33/37
f 16/30/41 34/55/8 17/31/40
f 38/61/11 14/25/9 34/55/8
f 16/30/41 33/53/12 38/61/11
f 6/10/42 37/60/14 33/53/12
f 37/60/14 13/23/10 33/53/12
f 5/9/43 36/59/15 37/60/14
f 13/23/10 29/49/17 9/15/32
f 14/26/9 32/52/20 10/17/22
f 12/21/13 29/49/17 37/60/14
f 38/62/11 9/16/32 32/52/20
f 30/50/36 15/28/39 39/63/7
f 14/27/9 30/50/36 39/63/7
f 15/29/39 31/51/19 40/64/18
f 7/11/16 12/22/13 31/51/19
f 32/52/20 20/36/2 28/47/21
f 32/52/20 9/16/32 27/45/3
f 25/41/24 3/5/35 21/37/25
f 41/65/26 21/37/25 4/7/27
f 41/65/26 26/43/28 7/11/16
f 8/14/29 25/41/24 41/65/26
f 42/66/30 26/44/28 4/8/27
f 27/46/3 42/66/30 23/39/31
f 9/15/32 29/49/17 42/66/30
f 7/12/16 26/44/28 42/66/30
f 28/48/21 1/2/23 22/38/33
f 43/67/34 22/38/33 3/6/35
f 30/50/36 43/67/34 25/42/24
f 10/18/22 28/48/21 43/67/34
f 35/56/6 15/29/39 40/64/18
f 40/64/18 12/22/13 36/58/15
f 18/33/37 39/63/7 35/57/6
f 17/32/40 34/54/8 39/63/7
f 16/30/41 38/61/11 34/55/8
f 16/30/41 6/10/42 33/53/12
f 6/10/42 5/9/43 37/60/14
f 5/9/43 11/20/38 36/59/15
f 13/23/10 37/60/14 29/49/17
f 14/26/9 38/62/11 32/52/20
f 38/62/11 13/24/10 9/16/32
f 30/50/36 8/13/29 15/28/39
f 14/27/9 10/18/22 30/50/36
f 15/29/39 8/14/29 31/51/19
