# Blender 3.3.0
# www.blender.org
o AppleCol02
v 20.756279 44.035858 1.346880
v 29.290216 43.448833 5.826205
v 37.682377 36.959663 8.685014
v 33.608459 36.187309 20.261431
v 25.218161 37.913601 27.948446
v 2.906389 43.453892 29.509182
v -3.460452 40.078533 35.134655
v 7.934491 40.238888 -0.402817
v 25.296257 44.405369 0.000086
v 32.807865 41.147987 8.364991
v 19.950630 44.396263 16.373098
v 39.346748 31.240658 17.860170
v 41.456753 31.962822 10.323510
v 28.004110 41.201111 18.711802
v 13.036572 43.920238 14.967583
v 31.615776 31.962803 28.734686
v 20.283243 41.147987 27.109417
v 25.402460 31.962812 34.350464
v 22.959038 43.497349 18.842037
v 18.714384 32.641651 37.791294
v 8.364990 41.147984 32.807896
v 12.953846 43.472847 26.701132
v 14.314393 38.038109 34.558094
v 2.037272 31.962803 42.674236
v 7.560901 36.329769 38.421497
v -6.327186 31.962797 42.251720
v -12.077432 40.217064 32.918282
v -14.448503 31.962812 40.205490
v 5.895357 40.238888 5.325751
v 15.424215 27.559404 42.972195
v 18.996256 22.845282 44.370583
v 7.437245 26.789589 45.467403
v 48.384178 19.559294 11.132236
v 45.305824 22.910374 16.249620
v 39.160202 26.789602 24.270836
v 35.638702 22.910320 32.350487
v 28.642653 22.910334 38.681641
v 1.681717 22.099941 48.441448
v -7.098672 22.910337 47.605469
v -17.869617 22.765810 44.831871
v 1.834073 43.931656 19.726648
v 1.565211 44.402111 25.621756
v 0.402786 40.238876 7.934499
v -7.495866 43.472847 28.715240
v -0.000017 38.639671 0.000017
v 14.787119 42.477196 2.941388
vn -0.1376 0.9886 -0.0614
vn 0.0775 0.9949 0.0639
vn 0.0322 0.9994 0.0111
vn 0.7737 0.5786 0.2581
vn 0.6666 0.6942 0.2716
vn 0.7416 0.5798 0.3375
vn 0.8289 0.4989 0.2530
vn 0.8513 0.4880 0.1925
vn -0.1856 0.9679 -0.1698
vn -0.2373 0.9677 -0.0845
vn -0.1464 0.9803 -0.1323
vn 0.7109 0.5415 0.4488
vn -0.2818 0.9486 -0.1442
vn -0.1108 0.9849 -0.1330
vn 0.2927 0.9260 0.2384
vn 0.2752 0.9544 0.1160
vn 0.6277 0.6820 0.3754
vn 0.4886 0.8154 0.3106
vn 0.4685 0.7151 0.5188
vn 0.3380 0.8176 0.4662
vn 0.6022 0.5866 0.5415
vn 0.1587 0.9330 0.3231
vn 0.4757 0.5860 0.6560
vn 0.0093 0.9898 0.1425
vn 0.2816 0.7198 0.6345
vn 0.1391 0.8178 0.5585
vn -0.1114 0.9633 -0.2440
vn 0.0324 0.9239 0.3814
vn 0.1382 0.6748 0.7250
vn 0.3560 0.6064 0.7110
vn 0.2996 0.5637 0.7697
vn 0.1154 0.5507 0.8267
vn -0.0589 0.7740 0.6304
vn 0.0307 0.5938 0.8041
vn -0.0109 0.5050 0.8630
vn -0.0727 0.8812 0.4670
vn -0.1217 0.5946 0.7947
vn -0.1543 0.7528 0.6399
vn 0.5288 0.8154 0.2357
vn 0.6162 0.5127 0.5979
vn 0.5074 0.5129 0.6925
vn 0.4194 0.5144 0.7480
vn -0.0676 0.9846 -0.1614
vn -0.1254 0.5091 0.8515
vn -0.2002 0.5900 0.7822
vn -0.2219 0.5028 0.8354
vt 0.344225 0.912129
vt 0.329490 0.868193
vt 0.325907 0.820622
vt 0.290944 0.814540
vt 0.257873 0.824258
vt 0.186713 0.868193
vt 0.164739 0.839150
vt 0.325750 0.967204
vt 0.374394 0.970124
vt 0.351521 0.890161
vt 0.323553 0.846225
vt 0.274516 0.890161
vt 0.303981 0.787773
vt 0.324126 0.791493
vt 0.285578 0.846225
vt 0.255721 0.915786
vt 0.269004 0.791493
vt 0.247610 0.846225
vt 0.247037 0.791493
vt 0.274578 0.868193
vt 0.226908 0.795044
vt 0.203675 0.846225
vt 0.226282 0.868193
vt 0.219666 0.824258
vt 0.181133 0.791493
vt 0.196977 0.814811
vt 0.159165 0.791493
vt 0.137053 0.839348
vt 0.137198 0.791493
vt 0.237879 0.967204
vt 0.286522 0.970124
vt 0.214271 0.769311
vt 0.222080 0.742554
vt 0.194072 0.765563
vt 0.327066 0.731459
vt 0.312971 0.747268
vt 0.289220 0.765563
vt 0.269036 0.747268
vt 0.247068 0.747268
vt 0.179418 0.743481
vt 0.159197 0.747268
vt 0.133886 0.745076
vt 0.183375 0.916767
vt 0.182449 0.890161
vt 0.198651 0.970124
vt 0.147171 0.868193
vt 0.318533 1.000000
vt 0.230662 1.000000
vt 0.329726 0.933938
s 1
f 1/1/1 11/12/2 9/10/3
f 13/14/4 3/3/5 12/13/6
f 13/14/4 34/36/7 33/35/8
f 29/31/9 8/8/10 45/47/11
f 12/13/6 35/37/12 34/36/7
f 1/1/1 46/49/13 15/16/14
f 11/12/2 19/20/15 2/2/16
f 3/3/5 4/4/17 12/13/6
f 12/13/6 4/4/17 35/37/12
f 46/49/13 29/31/9 15/16/14
f 14/15/18 5/5/19 4/4/17
f 14/15/18 19/20/15 17/18/20
f 4/4/17 16/17/21 35/37/12
f 19/20/15 11/12/2 22/23/22
f 5/5/19 18/19/23 16/17/21
f 11/12/2 15/16/14 42/44/24
f 17/18/20 23/24/25 5/5/19
f 17/18/20 22/23/22 21/22/26
f 43/45/27 29/30/9 45/48/11
f 22/23/22 42/44/24 6/6/28
f 23/24/25 21/22/26 25/26/29
f 23/24/25 25/26/29 20/21/30
f 30/32/31 25/26/29 32/34/32
f 21/22/26 6/6/28 7/7/33
f 25/26/29 24/25/34 32/34/32
f 32/34/32 24/25/34 38/40/35
f 42/44/24 44/46/36 6/6/28
f 7/7/33 26/27/37 24/25/34
f 44/46/36 27/28/38 7/7/33
f 8/9/10 29/31/9 46/49/13
f 9/10/3 11/12/2 2/2/16
f 34/36/7 13/14/4 12/13/6
f 1/1/1 15/16/14 11/12/2
f 4/4/17 10/11/39 14/15/18
f 14/15/18 2/2/16 19/20/15
f 5/5/19 14/15/18 17/18/20
f 4/4/17 5/5/19 16/17/21
f 35/37/12 16/17/21 36/38/40
f 37/39/41 16/17/21 18/19/23
f 17/18/20 19/20/15 22/23/22
f 22/23/22 11/12/2 42/44/24
f 23/24/25 17/18/20 21/22/26
f 20/21/30 5/5/19 23/24/25
f 37/39/41 20/21/30 31/33/42
f 31/33/42 20/21/30 30/32/31
f 15/16/14 43/45/27 41/43/43
f 15/16/14 41/43/43 42/44/24
f 21/22/26 22/23/22 6/6/28
f 20/21/30 25/26/29 30/32/31
f 25/26/29 21/22/26 7/7/33
f 24/25/34 25/26/29 7/7/33
f 39/41/44 24/25/34 26/27/37
f 6/6/28 44/46/36 7/7/33
f 26/27/37 27/28/38 28/29/45
f 39/41/44 28/29/45 40/42/46
f 4/4/17 3/3/5 10/11/39
f 14/15/18 10/11/39 2/2/16
f 37/39/41 36/38/40 16/17/21
f 20/21/30 18/19/23 5/5/19
f 37/39/41 18/19/23 20/21/30
f 15/16/14 29/31/9 43/45/27
f 39/41/44 38/40/35 24/25/34
f 26/27/37 7/7/33 27/28/38
f 39/41/44 26/27/37 28/29/45
