# Blender 3.3.0
# www.blender.org
o AppleCol10
v 2.374588 -1.729643 53.147194
v 5.397742 -7.572723 52.507210
v -17.422558 -13.022434 48.628456
v 13.348649 2.627023 51.486736
v 1.681717 22.099941 48.441448
v 2.512937 13.022372 51.594173
v 2.587495 5.255939 52.870117
v 2.430410 -18.060406 50.073963
v 1.575802 -26.789675 46.044655
v -7.098672 22.910337 47.605469
v -7.600861 13.022412 51.093048
v -7.743659 -7.869942 52.104073
v -7.385244 -18.060347 49.585976
v -6.744464 -27.559521 45.155540
v -5.209203 2.624825 52.889484
v -17.422539 13.022407 48.628471
v -17.842031 -5.255867 49.835808
v -16.249588 -22.910391 45.305855
v -14.908744 -36.356236 36.184341
v -10.982062 -32.642197 40.715721
v -13.348774 2.627009 51.486710
v -28.264994 23.209703 38.793823
v -26.344196 15.348485 43.620918
v -26.733627 8.576004 45.237442
v -17.869617 22.765810 44.831871
v 11.719421 14.574800 49.946167
v 7.437245 26.789589 45.467403
v -1.693951 -36.323769 39.187054
v -27.305876 -7.760986 45.074257
v -27.429575 -18.015030 42.112259
v -22.532436 1.729614 48.192871
v -19.984592 -28.298370 40.508247
vn 0.1541 0.3873 0.9090
vn 0.0536 0.3525 0.9343
vn 0.1434 0.2551 0.9562
vn 0.0574 0.1083 0.9925
vn -0.0995 0.0516 0.9937
vn 0.0427 -0.0320 0.9986
vn -0.1431 0.2444 0.9591
vn -0.2518 0.0530 0.9663
vn -0.1383 -0.1497 0.9790
vn -0.1259 -0.5080 0.8521
vn -0.2050 -0.6061 0.7685
vn -0.0951 -0.6186 0.7799
vn -0.3066 -0.4219 0.8532
vn -0.3328 -0.5063 0.7956
vn -0.2441 -0.6356 0.7324
vn -0.3234 0.2416 0.9149
vn -0.3814 0.0430 0.9234
vn -0.3343 -0.0983 0.9373
vn -0.3291 -0.2477 0.9112
vn -0.1354 -0.3327 0.9333
vn -0.4136 0.1865 0.8911
vn -0.4310 -0.1747 0.8853
vn -0.4191 -0.3226 0.8487
vn -0.3435 0.3474 0.8725
vn -0.4298 0.3104 0.8479
vn 0.0439 0.2417 0.9694
vn 0.1549 0.0799 0.9847
vn -0.1496 0.3381 0.9291
vn 0.0343 -0.1268 0.9913
vn -0.0397 -0.3125 0.9491
vn -0.0448 -0.4835 0.8742
vn -0.4514 0.3842 0.8054
vt 0.180484 0.642280
vt 0.187286 0.616690
vt 0.137257 0.593672
vt 0.204126 0.659487
vt 0.179418 0.743481
vt 0.181193 0.703358
vt 0.181214 0.670483
vt 0.181179 0.571693
vt 0.179380 0.531467
vt 0.159197 0.747268
vt 0.159225 0.703358
vt 0.159239 0.615590
vt 0.159211 0.571694
vt 0.159182 0.527719
vt 0.164759 0.659487
vt 0.137257 0.703358
vt 0.137278 0.626547
vt 0.137229 0.549762
vt 0.132581 0.482133
vt 0.146546 0.501984
vt 0.147359 0.659487
vt 0.106554 0.749715
vt 0.114956 0.714419
vt 0.116547 0.686942
vt 0.133886 0.745076
vt 0.202097 0.710051
vt 0.194072 0.765563
vt 0.170019 0.483282
vt 0.114943 0.615847
vt 0.112185 0.576470
vt 0.127066 0.654750
vt 0.124550 0.524012
s 1
f 27/27/1 5/5/2 26/26/3
f 7/7/4 15/15/5 1/1/6
f 15/15/5 11/11/7 21/21/8
f 1/1/6 15/15/5 12/12/9
f 14/14/10 20/20/11 28/28/12
f 14/14/10 18/18/13 20/20/11
f 18/18/13 32/32/14 20/20/11
f 28/28/12 20/20/11 19/19/15
f 21/21/8 16/16/16 31/31/17
f 12/12/9 17/17/18 3/3/19
f 12/12/9 21/21/8 17/17/18
f 13/13/20 3/3/19 18/18/13
f 16/16/16 24/24/21 31/31/17
f 17/17/18 31/31/17 29/29/22
f 3/3/19 29/29/22 30/30/23
f 18/18/13 30/30/23 32/32/14
f 25/25/24 23/23/25 16/16/16
f 7/7/4 26/26/3 6/6/26
f 26/26/3 5/5/2 6/6/26
f 4/4/27 7/7/4 1/1/6
f 11/11/7 5/5/2 10/10/28
f 2/2/29 4/4/27 1/1/6
f 7/7/4 11/11/7 15/15/5
f 12/12/9 8/8/30 2/2/29
f 2/2/29 1/1/6 12/12/9
f 15/15/5 21/21/8 12/12/9
f 13/13/20 9/9/31 8/8/30
f 28/28/12 9/9/31 14/14/10
f 14/14/10 13/13/20 18/18/13
f 20/20/11 32/32/14 19/19/15
f 16/16/16 10/10/28 25/25/24
f 11/11/7 16/16/16 21/21/8
f 21/21/8 31/31/17 17/17/18
f 13/13/20 12/12/9 3/3/19
f 3/3/19 17/17/18 29/29/22
f 18/18/13 3/3/19 30/30/23
f 16/16/16 23/23/25 24/24/21
f 23/23/25 25/25/24 22/22/32
f 7/7/4 4/4/27 26/26/3
f 11/11/7 6/6/26 5/5/2
f 7/7/4 6/6/26 11/11/7
f 12/12/9 13/13/20 8/8/30
f 13/13/20 14/14/10 9/9/31
f 16/16/16 11/11/7 10/10/28
