# Blender 3.3.0
# www.blender.org
o GateIsland_col02
v 20.945267 -47.002445 -45.987686
v -37.614300 -48.752022 -78.331734
v 5.464235 -49.325642 -85.596008
v -3.384087 -50.279877 -86.198349
v -16.155466 -52.020828 -82.904305
v -25.021254 -51.687202 -81.299400
v -32.485657 -52.199368 -76.097786
v -39.784595 -50.746231 -72.139114
v -37.238495 -53.442703 -66.422249
v -36.855644 -53.820312 -57.956470
v -34.814327 -53.049927 -52.038540
v -34.445137 -51.600468 -47.987858
v 20.868086 -48.699627 -53.873909
v 12.191210 -52.000595 -64.766884
v 10.531782 -51.220512 -75.909531
v 12.457832 -48.964252 -45.689690
v -43.127621 -46.352329 -74.680351
v 27.763435 -45.025639 -50.855217
v 4.353683 -44.898373 -93.090332
v -29.503901 -55.116745 -58.957870
v -32.190807 -54.532543 -67.420547
v -20.486202 -52.630764 -47.841694
v -21.540430 -54.235485 -52.646172
v -26.061495 -55.191704 -68.497040
v -25.695784 -53.773102 -75.353363
v -15.101894 -55.174088 -58.139538
v -15.697289 -55.669186 -65.624283
v -16.249365 -54.582283 -75.089485
v -5.257452 -53.115429 -51.091595
v 0.269365 -53.996101 -60.151970
v -1.082119 -54.359528 -68.181122
v -2.260554 -53.023346 -78.365967
v 9.612116 -51.523884 -53.089680
v -45.311161 -47.499481 -67.523277
v -44.151886 -48.921036 -50.298847
v -44.028637 -50.624710 -57.146107
v -43.995445 -50.124115 -64.227577
v -40.987587 -50.601284 -50.091228
v -40.982597 -52.401413 -57.487160
v -41.162258 -51.935638 -65.330002
v 17.965672 -47.594841 -79.378563
v 19.200375 -48.898628 -72.296379
v 21.637785 -48.773930 -62.231182
v -20.959488 -48.312328 -87.916946
v -10.307448 -47.824181 -89.926414
v -29.555208 -48.799297 -84.149918
v -39.636909 -43.661018 -82.470306
v -43.183846 -46.433216 -44.806301
v 15.749956 -46.667690 -84.508202
v 37.079235 -37.031654 -38.707870
v 30.560863 -41.478344 -39.572704
v 23.121820 -43.781380 -38.436138
v -34.321777 -46.696720 -83.942932
v -33.915039 -49.395512 -43.920612
v 12.406418 -44.733444 -90.337425
v -19.479956 -50.469036 -43.328400
v 2.595387 -48.923576 -41.943821
vn -0.0760 -0.9699 0.2314
vn -0.0438 -0.9990 -0.0080
vn -0.0778 -0.9755 -0.2060
vn 0.0460 -0.9743 0.2204
vn 0.1278 -0.9766 0.1729
vn 0.1657 -0.9751 -0.1471
vn 0.1238 -0.9308 -0.3438
vn 0.2485 -0.9640 0.0942
vn 0.1538 -0.8969 0.4147
vn -0.6610 -0.6828 -0.3111
vn -0.4050 -0.8833 -0.2362
vn -0.5993 -0.6347 -0.4878
vn 0.3393 -0.9380 -0.0706
vn 0.3392 -0.9129 -0.2272
vn 0.5479 -0.8273 0.1243
vn 0.3232 -0.9005 0.2909
vn -0.1244 -0.8509 -0.5103
vn -0.0193 -0.8511 -0.5247
vn 0.1948 -0.8316 -0.5201
vn -0.2578 -0.8529 -0.4540
vn -0.0681 -0.9374 0.3416
vn -0.1990 -0.9575 -0.2087
vn -0.1126 -0.9931 -0.0328
vn 0.0943 -0.9951 0.0292
vn -0.0127 -0.9880 0.1539
vn -0.0078 -0.9977 0.0666
vn -0.0144 -0.9935 -0.1132
vn 0.0358 -0.9502 0.3095
vn 0.0955 -0.9835 0.1539
vn 0.0776 -0.9873 -0.1385
vn -0.1753 -0.9844 -0.0123
vn 0.1957 -0.9771 0.0831
vn 0.1710 -0.9851 0.0158
vn 0.1985 -0.9752 -0.0978
vn 0.1867 -0.9411 -0.2818
vn -0.1474 -0.9730 0.1775
vn -0.3117 -0.9202 -0.2368
vn -0.0919 -0.9459 -0.3111
vn -0.3836 -0.8313 -0.4022
vn -0.1761 -0.9225 -0.3436
vn 0.0417 -0.9411 -0.3356
vn 0.2519 -0.9404 0.2284
vn 0.2680 -0.8579 -0.4384
vn 0.2686 -0.9091 -0.3184
vn 0.1422 -0.9404 0.3089
vn 0.0608 -0.9054 0.4201
vn -0.0695 -0.8732 0.4824
vn 0.2237 -0.9181 0.3271
vn -0.4754 -0.8549 0.2078
vn -0.5485 -0.8353 -0.0370
vn -0.6396 -0.7248 -0.2560
vn -0.3645 -0.9309 -0.0250
vn -0.5835 -0.6909 -0.4270
vn -0.2943 -0.9295 0.2225
vn -0.2824 -0.8274 0.4854
vn -0.2495 -0.9043 0.3463
vn -0.4447 -0.7839 0.4334
vn 0.4527 -0.8903 0.0496
vn 0.3140 -0.9487 0.0374
vn 0.3000 -0.9474 -0.1110
vn 0.3041 -0.9058 -0.2951
vn 0.3907 -0.9007 0.1900
vn 0.3984 -0.8986 0.1838
vn -0.1879 -0.8235 -0.5353
vn -0.0660 -0.8314 -0.5518
vn 0.0330 -0.8054 -0.5918
vn -0.3727 -0.7985 -0.4728
vn 0.1265 -0.8457 -0.5184
vn -0.5243 -0.6528 -0.5468
vn -0.0729 -0.9411 0.3303
vn -0.1471 -0.9564 -0.2522
vn 0.0840 -0.9947 0.0591
vn 0.0682 -0.9907 -0.1177
vn -0.2173 -0.9755 -0.0337
vn -0.2594 -0.9129 -0.3151
vn -0.0710 -0.9387 -0.3374
vn 0.0330 -0.9499 -0.3109
vn 0.2273 -0.9525 0.2028
vn 0.1057 -0.9516 0.2885
vn 0.0402 -0.9210 0.3875
vn -0.0846 -0.8912 0.4457
vn -0.4695 -0.8588 0.2052
vn -0.5081 -0.8590 -0.0631
vn -0.5970 -0.7265 -0.3403
vn -0.3297 -0.9429 -0.0484
vn -0.2969 -0.9279 0.2256
vn -0.3059 -0.8052 0.5080
vn -0.3297 -0.8075 -0.4892
vt 0.995834 0.979453
vt 1.000000 1.000000
vt 1.000000 1.000000
vt 1.000000 1.000000
vt 1.000000 1.000000
vt 1.000000 1.000000
vt 0.999997 1.000000
vt 0.999984 1.000000
vt 0.999802 1.000000
vt 0.998997 1.000000
vt 0.998275 1.000000
vt 0.997707 1.000000
vt 1.000000 1.000000
vt 1.000000 1.000000
vt 1.000000 1.000000
vt 1.000000 1.000000
vt 1.000000 1.000000
vt 0.997888 0.976289
vt 1.000000 1.000000
vt 0.999695 1.000000
vt 0.999918 1.000000
vt 0.999931 1.000000
vt 0.999887 1.000000
vt 0.999976 1.000000
vt 0.999999 1.000000
vt 0.999989 1.000000
vt 0.999996 1.000000
vt 1.000000 1.000000
vt 1.000000 1.000000
vt 1.000000 1.000000
vt 1.000000 1.000000
vt 1.000000 1.000000
vt 1.000000 1.000000
vt 0.999819 1.000000
vt 0.988239 1.000000
vt 0.996869 1.000000
vt 0.999381 1.000000
vt 0.992802 1.000000
vt 0.998015 1.000000
vt 0.999614 1.000000
vt 1.000000 1.000000
vt 1.000000 1.000000
vt 1.000000 1.000000
vt 1.000000 1.000000
vt 1.000000 1.000000
vt 1.000000 1.000000
vt 1.000000 1.000000
vt 0.967944 1.000000
vt 1.000000 1.000000
vt 0.991086 0.851948
vt 0.988544 0.898024
vt 0.982122 0.914661
vt 1.000000 1.000000
vt 1.000000 1.000000
vt 1.000000 1.000000
vt 1.000000 1.000000
vt 0.991224 0.981818
s 0
f 20/20/1 23/23/1 11/11/1
f 24/24/2 27/27/2 20/20/2
f 25/25/3 28/28/3 24/24/3
f 23/23/4 26/26/4 29/29/4
f 29/29/5 30/30/5 33/33/5
f 32/32/6 15/15/6 31/31/6
f 4/4/7 3/3/7 32/32/7
f 33/33/8 14/14/8 13/13/8
f 57/57/9 16/16/9 52/52/9
f 17/17/10 8/8/10 34/34/10
f 8/8/11 9/9/11 40/40/11
f 17/17/12 47/47/12 2/2/12
f 43/43/13 14/14/13 42/42/13
f 42/42/14 15/15/14 41/41/14
f 50/50/15 51/51/15 18/18/15
f 51/51/16 52/52/16 1/1/16
f 44/44/17 5/5/17 6/6/17
f 45/45/18 4/4/18 5/5/18
f 19/19/19 55/55/19 3/3/19
f 46/46/20 6/6/20 7/7/20
f 23/23/21 12/12/21 11/11/21
f 24/24/22 7/7/22 25/25/22
f 21/21/23 24/24/23 20/20/23
f 30/30/24 27/27/24 31/31/24
f 23/23/25 20/20/25 26/26/25
f 20/20/26 27/27/26 26/26/26
f 24/24/27 28/28/27 27/27/27
f 22/22/28 23/23/28 29/29/28
f 29/29/29 26/26/29 30/30/29
f 31/31/30 28/28/30 32/32/30
f 10/10/31 21/21/31 20/20/31
f 33/33/32 30/30/32 14/14/32
f 30/30/33 31/31/33 14/14/33
f 31/31/34 15/15/34 14/14/34
f 32/32/35 3/3/35 15/15/35
f 10/10/36 20/20/36 11/11/36
f 21/21/37 8/8/37 7/7/37
f 28/28/38 6/6/38 5/5/38
f 8/8/39 2/2/39 7/7/39
f 7/7/40 6/6/40 25/25/40
f 32/32/41 5/5/41 4/4/41
f 13/13/42 16/16/42 33/33/42
f 3/3/43 55/55/43 49/49/43
f 3/3/44 49/49/44 15/15/44
f 33/33/45 57/57/45 29/29/45
f 29/29/46 56/56/46 22/22/46
f 22/22/47 54/54/47 12/12/47
f 52/52/48 16/16/48 1/1/48
f 38/38/49 36/36/49 39/39/49
f 39/39/50 37/37/50 40/40/50
f 40/40/51 34/34/51 8/8/51
f 10/10/52 40/40/52 9/9/52
f 17/17/53 2/2/53 8/8/53
f 11/11/54 39/39/54 10/10/54
f 54/54/55 38/38/55 12/12/55
f 38/38/56 11/11/56 12/12/56
f 35/35/57 38/38/57 48/48/57
f 18/18/58 13/13/58 43/43/58
f 43/43/59 13/13/59 14/14/59
f 42/42/60 14/14/60 15/15/60
f 41/41/61 15/15/61 49/49/61
f 13/13/62 51/51/62 1/1/62
f 18/18/63 51/51/63 13/13/63
f 46/46/64 44/44/64 6/6/64
f 44/44/65 45/45/65 5/5/65
f 45/45/66 19/19/66 4/4/66
f 7/7/67 53/53/67 46/46/67
f 4/4/68 19/19/68 3/3/68
f 53/53/69 2/2/69 47/47/69
f 23/23/70 22/22/70 12/12/70
f 24/24/71 21/21/71 7/7/71
f 30/30/72 26/26/72 27/27/72
f 31/31/73 27/27/73 28/28/73
f 10/10/74 9/9/74 21/21/74
f 21/21/75 9/9/75 8/8/75
f 28/28/76 25/25/76 6/6/76
f 32/32/77 28/28/77 5/5/77
f 13/13/78 1/1/78 16/16/78
f 33/33/79 16/16/79 57/57/79
f 29/29/80 57/57/80 56/56/80
f 22/22/81 56/56/81 54/54/81
f 38/38/82 35/35/82 36/36/82
f 39/39/83 36/36/83 37/37/83
f 40/40/84 37/37/84 34/34/84
f 10/10/85 39/39/85 40/40/85
f 11/11/86 38/38/86 39/39/86
f 54/54/87 48/48/87 38/38/87
f 7/7/88 2/2/88 53/53/88
