# Blender 3.3.0
# www.blender.org
o GateIsland_col11
v 4.387896 -20.060087 -29.078178
v 2.813797 -25.681589 -28.738638
v 6.879188 -18.411375 -28.117369
v 9.267161 -18.259880 -27.549620
v 11.114669 -19.555756 -29.081427
v 5.688971 -30.151831 -28.229385
v 8.035259 -33.207314 -31.250788
v 10.542002 -30.599405 -27.255596
v 12.553341 -29.337723 -26.603804
v 14.270173 -22.200842 -27.596989
v 14.519156 -31.171083 -30.889704
v 5.416445 -21.810909 -33.480240
v -6.567132 -8.837171 -8.994592
v -5.595169 3.185092 -4.729757
v 1.184886 -1.361559 -5.246965
v -3.550232 -10.972880 -7.747433
v -1.468908 -10.924610 -6.631417
v -0.233980 -0.607513 -2.448189
v 2.656468 -6.181393 -4.807524
v 2.290307 -8.514035 -5.231205
v 4.092000 -17.816862 -26.131689
v 3.606939 -15.055127 -23.041555
v 0.317234 -8.986063 -16.500942
v -2.962427 -13.542969 -12.826013
v 0.567367 -19.591934 -18.882704
v 2.618491 -23.856190 -22.571598
v 10.411146 -25.182461 -21.049513
v 7.721108 -19.269751 -14.800533
v 6.068314 -7.535638 -11.333889
v 12.801023 -20.182774 -27.668266
v -13.267711 2.039448 6.502036
v 2.149814 -10.898426 -6.579825
v -5.079058 4.552547 0.050957
v 15.844022 -29.367746 -31.685310
v 3.026703 -22.447107 -28.903376
v 1.494428 -21.711346 -23.477091
v 1.338382 -19.313797 -23.625338
v 1.491632 -15.908995 -22.224699
v -1.061629 -16.164267 -17.895170
v -1.217695 -13.821842 -18.016941
v -2.957479 -6.819683 -13.682096
v -4.827332 -10.125812 -12.263565
v -4.989281 -7.785379 -12.367434
v 3.521260 -29.615831 -33.601120
v 3.295625 -26.599644 -33.571274
v 7.132210 -35.336830 -35.618061
v 13.288527 -34.050438 -33.641464
v 10.498556 -35.001255 -34.043022
v 13.277610 -21.573399 -34.078674
v 10.141782 -20.805861 -35.459053
v 7.162920 -20.692827 -33.131077
v 8.929724 -19.956800 -31.788073
v -7.478458 -7.697098 -5.984514
v 13.275981 -21.977058 -22.390511
v 12.838717 -25.297415 -23.135277
v 9.716028 -13.582293 -15.093413
v 10.813701 -17.862452 -16.700586
v 10.370140 -20.240232 -17.112213
v 7.354166 -12.142104 -10.700351
v 6.949533 -14.476688 -11.113973
v 4.849718 -6.706121 -7.631685
v 8.907544 -14.554827 -20.920019
v 5.837534 -14.421072 -22.501385
v 7.141675 -13.436491 -20.606333
v 7.231916 -28.549950 -24.859039
v 7.305811 -22.718538 -17.960150
v -0.107616 -17.035105 -14.555333
v -9.457325 -5.031470 -7.116595
v 0.019203 -5.786922 -13.450261
v -8.337172 -1.008059 -7.925816
v -10.002478 -2.260941 1.935759
v -14.230433 -1.430819 0.702399
v -13.156986 -2.497780 -2.327765
v -11.190503 -2.980099 0.339977
v 1.270608 -2.245749 -8.236370
v -10.771355 -1.840604 -6.389845
v -15.126820 -0.083027 -2.232394
v -3.978158 1.154531 1.376054
v -3.654741 -2.194401 0.703146
v -7.773500 5.872959 3.713793
v 15.798702 -25.872728 -30.732775
v 15.227179 -23.266260 -34.069469
v 4.749770 -32.456188 -33.856762
v 3.995690 -23.733788 -33.484940
vn 0.9434 -0.0454 0.3287
vn 0.7438 -0.3841 0.5470
vn 0.8905 0.4541 -0.0298
vn 0.7348 -0.2861 0.6150
vn 0.9094 0.3924 0.1381
vn 0.6145 -0.2992 0.7300
vn 0.8591 0.4209 0.2913
vn 0.9456 0.3189 -0.0644
vn 0.3515 -0.7276 0.5892
vn 0.2701 -0.5859 0.7641
vn 0.5745 -0.2309 0.7853
vn 0.7399 -0.5476 0.3907
vn 0.9351 -0.2364 0.2641
vn 0.9937 0.0735 0.0851
vn 0.1253 0.8813 -0.4556
vn 0.5782 0.7167 -0.3900
vn -0.0057 0.8390 -0.5441
vn -0.3077 0.7754 -0.5514
vn -0.0714 -0.9767 0.2023
vn -0.0300 -0.9271 0.3736
vn 0.0615 -0.9072 0.4163
vn 0.4288 -0.8006 0.4186
vn 0.5391 0.7954 -0.2769
vn -0.9517 -0.2552 -0.1708
vn -0.9399 -0.1212 -0.3191
vn -0.8901 -0.1717 -0.4222
vn -0.8462 -0.5066 -0.1650
vn -0.8872 0.2091 -0.4114
vn -0.6843 0.5022 -0.5287
vn -0.5420 0.5209 -0.6595
vn -0.4628 0.4924 -0.7371
vn -0.3954 0.4697 -0.7893
vn -0.7937 -0.1635 -0.5860
vn 0.3240 -0.6796 0.6582
vn -0.0828 -0.8196 0.5670
vn -0.1467 -0.8329 0.5337
vn 0.0384 -0.7228 0.6900
vn -0.2533 -0.7761 0.5775
vn -0.5713 -0.7336 0.3680
vn -0.3353 -0.7723 0.5395
vn 0.2671 -0.7536 0.6006
vn -0.6677 -0.7189 0.1935
vn -0.0575 0.7515 -0.6572
vn 0.0054 0.7637 -0.6456
vn -0.1750 0.6765 -0.7154
vn 0.7669 0.5935 -0.2442
vn 0.4715 0.7357 -0.4863
vn -0.0614 0.6783 -0.7323
vn 0.2798 0.7829 -0.5557
vn 0.7981 0.5650 -0.2093
vn 0.5066 0.7915 -0.3419
vn 0.7123 0.1365 0.6885
vn -0.7469 -0.3090 -0.5888
vn -0.7622 -0.6078 -0.2226
vn -0.6192 0.0968 -0.7792
vn -0.3066 0.4822 -0.8207
vn -0.9439 -0.3185 -0.0871
vn -0.8079 -0.5889 -0.0225
vn 0.9343 0.0803 0.3472
vn 0.8979 0.4290 -0.0985
vn 0.9791 0.0754 0.1886
vn 0.8891 -0.2078 0.4078
vn 0.9010 0.4334 -0.0181
vn 0.8671 0.0818 0.4914
vn 0.7877 -0.1707 0.5919
vn 0.8804 0.4658 0.0893
vn 0.7952 0.1969 0.5734
vn 0.5995 -0.2100 0.7723
vn 0.4875 -0.6116 0.6231
vn 0.4811 -0.5087 0.7140
vn 0.1549 -0.6192 0.7698
vn 0.8265 0.5098 0.2389
vn 0.8368 -0.4549 0.3047
vn 0.9921 -0.0597 0.1103
vn 0.8933 0.4041 -0.1970
vn 0.4157 0.7807 -0.4666
vn 0.3388 0.7802 -0.5259
vn -0.2036 0.8220 -0.5318
vn -0.4810 0.7044 -0.5219
vn 0.1815 -0.9432 0.2781
vn -0.3255 -0.9173 0.2295
vn -0.6517 -0.7499 0.1142
vn -0.4565 -0.8759 0.1561
vn -0.3036 -0.8760 0.3749
vn 0.3940 -0.8279 0.3991
vn 0.0050 0.7056 -0.7086
vn 0.2562 0.7954 -0.5492
vn 0.3776 0.8347 -0.4009
vn 0.6656 0.7458 -0.0268
vn -0.8201 0.2259 -0.5258
vn 0.6377 0.7642 -0.0964
vn -0.7207 0.2466 -0.6479
vn -0.8869 -0.0552 -0.4587
vn -0.6278 0.2400 -0.7405
vn -0.8890 -0.4117 -0.2004
vn -0.7914 -0.0197 -0.6110
vn -0.8055 -0.5826 0.1082
vn -0.9529 -0.2505 -0.1712
vn -0.9442 0.0751 -0.3206
vn -0.7993 0.3829 -0.4632
vn -0.5155 0.5788 -0.6318
vn -0.4154 0.5647 -0.7131
vn -0.3265 0.5427 -0.7739
vn -0.8431 -0.4403 -0.3088
vn -0.2138 -0.8576 0.4677
vn 0.0864 -0.8045 0.5876
vn -0.5543 -0.7680 0.3207
vn 0.1181 -0.6795 0.7241
vn -0.3957 -0.7666 0.5057
vn -0.0823 -0.7206 0.6884
vn -0.2938 -0.8106 0.5065
vn 0.1766 -0.6706 0.7205
vn -0.2487 0.7271 -0.6399
vn 0.4058 0.7394 -0.5372
vn 0.1868 0.7493 -0.6353
vn 0.6762 0.6859 -0.2689
vn 0.0817 0.8104 -0.5802
vn 0.6517 0.6576 -0.3780
vn 0.6581 0.6887 -0.3043
vn 0.7995 0.6005 0.0146
vn 0.0052 0.6948 -0.7192
vn 0.8128 0.4160 0.4078
vn 0.7528 0.6038 0.2622
vn -0.7328 -0.0948 -0.6738
vn -0.5524 0.2321 -0.8006
vn -0.2724 0.5041 -0.8196
vn -0.7603 -0.5367 -0.3658
vn 0.9345 0.0822 0.3462
vn 0.8674 0.0833 0.4907
vn 0.7798 0.0815 0.6208
vn 0.0767 0.7526 -0.6540
vn 0.2691 0.7999 -0.5364
vn -0.8137 0.2432 -0.5280
vn -0.7242 0.2401 -0.6464
vn -0.6314 0.2334 -0.7395
vn -0.8279 -0.5540 0.0877
vn -0.4302 -0.7978 0.4225
vt 1.000000 1.000000
vt 1.000000 1.000000
vt 1.000000 1.000000
vt 1.000000 1.000000
vt 1.000000 1.000000
vt 1.000000 1.000000
vt 1.000000 1.000000
vt 1.000000 1.000000
vt 1.000000 1.000000
vt 1.000000 1.000000
vt 1.000000 1.000000
vt 1.000000 1.000000
vt 1.000000 1.000000
vt 0.999999 0.999999
vt 1.000000 1.000000
vt 1.000000 1.000000
vt 0.999988 0.999975
vt 1.000000 1.000000
vt 1.000000 1.000000
vt 1.000000 1.000000
vt 1.000000 1.000000
vt 1.000000 1.000000
vt 1.000000 1.000000
vt 1.000000 1.000000
vt 1.000000 1.000000
vt 1.000000 1.000000
vt 1.000000 1.000000
vt 1.000000 1.000000
vt 1.000000 1.000000
vt 1.000000 1.000000
vt 0.997971 0.995931
vt 0.999994 0.999987
vt 1.000000 1.000000
vt 1.000000 1.000000
vt 1.000000 1.000000
vt 1.000000 1.000000
vt 1.000000 1.000000
vt 1.000000 1.000000
vt 1.000000 1.000000
vt 1.000000 1.000000
vt 1.000000 1.000000
vt 1.000000 1.000000
vt 1.000000 1.000000
vt 1.000000 1.000000
vt 1.000000 1.000000
vt 1.000000 1.000000
vt 1.000000 1.000000
vt 1.000000 1.000000
vt 1.000000 1.000000
vt 1.000000 1.000000
vt 1.000000 1.000000
vt 1.000000 1.000000
vt 0.999908 0.999856
vt 1.000000 1.000000
vt 1.000000 1.000000
vt 1.000000 1.000000
vt 1.000000 1.000000
vt 1.000000 1.000000
vt 1.000000 1.000000
vt 1.000000 1.000000
vt 1.000000 1.000000
vt 1.000000 1.000000
vt 1.000000 1.000000
vt 1.000000 1.000000
vt 1.000000 1.000000
vt 1.000000 1.000000
vt 1.000000 1.000000
vt 0.999906 0.999873
vt 0.999999 0.999998
vt 0.999913 0.999889
vt 0.998178 0.996429
vt 0.995556 0.992483
vt 0.997336 0.996049
vt 0.997286 0.994957
vt 1.000000 1.000000
vt 0.999612 0.999498
vt 0.996834 0.995722
vt 1.000000 1.000000
vt 0.999978 0.999955
vt 1.000000 1.000000
vt 1.000000 1.000000
vt 1.000000 1.000000
vt 1.000000 1.000000
vt 1.000000 1.000000
s 0
f 35/35/1 37/37/1 2/2/1
f 1/1/2 38/38/2 35/35/2
f 36/36/3 25/25/3 26/26/3
f 38/38/4 40/40/4 37/37/4
f 39/39/5 24/24/5 25/25/5
f 41/41/6 43/43/6 40/40/6
f 42/42/7 13/13/7 24/24/7
f 2/2/8 26/26/8 83/83/8
f 21/21/9 38/38/9 1/1/9
f 23/23/10 41/41/10 38/38/10
f 70/70/11 76/76/11 43/43/11
f 12/12/12 1/1/12 84/84/12
f 84/84/13 35/35/13 45/45/13
f 45/45/14 2/2/14 44/44/14
f 46/46/15 7/7/15 48/48/15
f 83/83/16 6/6/16 46/46/16
f 48/48/17 7/7/17 8/8/17
f 47/47/18 8/8/18 9/9/18
f 50/50/19 5/5/19 52/52/19
f 52/52/20 4/4/20 3/3/20
f 52/52/21 3/3/21 51/51/21
f 51/51/22 1/1/22 12/12/22
f 53/53/23 74/74/23 16/16/23
f 10/10/24 54/54/24 56/56/24
f 54/54/25 57/57/25 56/56/25
f 56/56/26 59/59/26 61/61/26
f 29/29/27 61/61/27 15/15/27
f 34/34/28 55/55/28 54/54/28
f 11/11/29 9/9/29 55/55/29
f 55/55/30 27/27/30 58/58/30
f 58/58/31 28/28/31 60/60/31
f 60/60/32 32/32/32 20/20/32
f 61/61/33 19/19/33 18/18/33
f 3/3/34 22/22/34 21/21/34
f 4/4/35 63/63/35 3/3/35
f 4/4/36 64/64/36 63/63/36
f 63/63/37 23/23/37 22/22/37
f 63/63/38 64/64/38 69/69/38
f 62/62/39 29/29/39 75/75/39
f 64/64/40 75/75/40 14/14/40
f 3/3/41 21/21/41 1/1/41
f 29/29/42 15/15/42 75/75/42
f 8/8/43 66/66/43 27/27/43
f 8/8/44 65/65/44 66/66/44
f 27/27/45 66/66/45 28/28/45
f 26/26/46 67/67/46 6/6/46
f 67/67/47 17/17/47 65/65/47
f 28/28/48 66/66/48 32/32/48
f 67/67/49 16/16/49 17/17/49
f 25/25/50 67/67/50 26/26/50
f 24/24/51 53/53/51 16/16/51
f 76/76/52 77/77/52 68/68/52
f 18/18/53 78/78/53 80/80/53
f 15/15/54 18/18/54 33/33/54
f 19/19/55 79/79/55 78/78/55
f 20/20/56 32/32/56 79/79/56
f 82/82/57 81/81/57 10/10/57
f 30/30/58 82/82/58 10/10/58
f 39/39/59 37/37/59 40/40/59
f 2/2/60 36/36/60 26/26/60
f 2/2/61 37/37/61 36/36/61
f 35/35/62 38/38/62 37/37/62
f 36/36/63 39/39/63 25/25/63
f 42/42/64 40/40/64 43/43/64
f 38/38/65 41/41/65 40/40/65
f 39/39/66 42/42/66 24/24/66
f 68/68/67 43/43/67 76/76/67
f 41/41/68 70/70/68 43/43/68
f 21/21/69 22/22/69 38/38/69
f 22/22/70 23/23/70 38/38/70
f 41/41/71 69/69/71 70/70/71
f 42/42/72 68/68/72 13/13/72
f 84/84/73 1/1/73 35/35/73
f 45/45/74 35/35/74 2/2/74
f 44/44/75 2/2/75 83/83/75
f 46/46/76 6/6/76 7/7/76
f 7/7/77 6/6/77 65/65/77
f 47/47/78 48/48/78 8/8/78
f 11/11/79 47/47/79 9/9/79
f 51/51/80 50/50/80 52/52/80
f 50/50/81 49/49/81 5/5/81
f 49/49/82 82/82/82 30/30/82
f 5/5/83 49/49/83 30/30/83
f 52/52/84 5/5/84 4/4/84
f 51/51/85 3/3/85 1/1/85
f 71/71/86 32/32/86 17/17/86
f 17/17/87 74/74/87 71/71/87
f 53/53/88 72/72/88 74/74/88
f 53/53/89 73/73/89 72/72/89
f 58/58/90 54/54/90 55/55/90
f 13/13/91 73/73/91 53/53/91
f 60/60/92 57/57/92 58/58/92
f 56/56/93 57/57/93 59/59/93
f 20/20/94 59/59/94 60/60/94
f 29/29/95 56/56/95 61/61/95
f 61/61/96 59/59/96 19/19/96
f 56/56/97 30/30/97 10/10/97
f 10/10/98 81/81/98 54/54/98
f 81/81/99 34/34/99 54/54/99
f 34/34/100 11/11/100 55/55/100
f 55/55/101 9/9/101 27/27/101
f 58/58/102 27/27/102 28/28/102
f 60/60/103 28/28/103 32/32/103
f 15/15/104 61/61/104 18/18/104
f 62/62/105 4/4/105 5/5/105
f 3/3/106 63/63/106 22/22/106
f 5/5/107 30/30/107 62/62/107
f 63/63/108 69/69/108 23/23/108
f 64/64/109 62/62/109 75/75/109
f 69/69/110 64/64/110 14/14/110
f 62/62/111 30/30/111 29/29/111
f 23/23/112 69/69/112 41/41/112
f 9/9/113 8/8/113 27/27/113
f 6/6/114 67/67/114 65/65/114
f 65/65/115 17/17/115 66/66/115
f 67/67/116 24/24/116 16/16/116
f 8/8/117 7/7/117 65/65/117
f 83/83/118 26/26/118 6/6/118
f 25/25/119 24/24/119 67/67/119
f 24/24/120 13/13/120 53/53/120
f 32/32/121 66/66/121 17/17/121
f 13/13/122 68/68/122 73/73/122
f 68/68/123 77/77/123 73/73/123
f 18/18/124 19/19/124 78/78/124
f 19/19/125 20/20/125 79/79/125
f 79/79/126 32/32/126 31/31/126
f 33/33/127 18/18/127 80/80/127
f 39/39/128 36/36/128 37/37/128
f 42/42/129 39/39/129 40/40/129
f 68/68/130 42/42/130 43/43/130
f 71/71/131 31/31/131 32/32/131
f 17/17/132 16/16/132 74/74/132
f 58/58/133 57/57/133 54/54/133
f 60/60/134 59/59/134 57/57/134
f 20/20/135 19/19/135 59/59/135
f 56/56/136 29/29/136 30/30/136
f 62/62/137 64/64/137 4/4/137
