# Blender 3.3.0
# www.blender.org
o GateIsland_col21
v 52.553730 -17.234213 -17.329008
v 59.312943 -9.827487 -24.418013
v 71.995033 7.428846 -45.688267
v 75.162193 12.383771 -51.916725
v 75.742905 15.094727 -61.386253
v 72.384369 14.444457 -70.439819
v 69.605431 17.926613 -79.525848
v 52.376759 -16.736061 -32.541779
v 50.177551 -14.773746 -44.082783
v 70.971695 30.069666 -84.192482
v 66.999893 21.717031 -85.396370
v 44.806561 -25.212082 -20.270891
v 63.302315 11.934963 -81.127640
v 56.411495 4.695989 -78.867836
v 37.866402 -7.352783 -78.484749
v 67.987404 9.327250 -70.514221
v 44.679855 -9.643296 -65.158127
v 61.314770 2.730502 -68.019997
v 49.330711 -10.598551 -55.715641
v 65.759377 3.616302 -61.875881
v 72.073219 8.900002 -58.641491
v 64.068054 -0.595648 -52.038708
v 61.605755 -5.787197 -38.603703
v 70.755341 5.835461 -49.694759
v 62.911568 -2.950871 -21.148882
v 75.725700 14.641834 -47.153641
v 65.988342 5.389337 -21.936375
v 76.492401 18.482618 -45.436634
v 60.811066 20.324860 -90.589630
v 62.970985 28.842287 -91.628387
v 77.283974 17.450201 -56.653439
v 75.120049 18.764660 -70.290062
v 78.019707 22.844633 -66.074623
v 74.895180 23.290607 -75.266296
v 71.772652 25.577465 -81.655952
v 48.740334 -20.320118 -36.045631
v 45.922230 -18.116348 -46.851715
v 46.604076 -26.390154 -26.830257
v 40.702110 -14.832640 -61.703529
v 49.381027 -22.512035 -28.583891
v 60.360752 18.971586 -8.373864
v 62.703705 10.916550 -12.316259
v 59.114334 2.477947 -6.413623
v 58.220905 -6.268594 -11.896049
v 31.883686 -12.049770 -78.603012
v 62.558640 15.814461 -85.882751
v 65.706505 19.676235 -20.073881
v 79.046875 23.593975 -56.733875
v 79.222443 28.845860 -66.701416
v 77.661522 29.785297 -72.751740
v 75.519371 29.707121 -77.395348
v 73.539627 19.451500 -35.974461
vn 0.4966 -0.7767 -0.3874
vn 0.5701 -0.7237 -0.3888
vn 0.5421 -0.7931 -0.2778
vn 0.5992 -0.7302 -0.3282
vn 0.6846 -0.7053 -0.1843
vn 0.7111 -0.6898 -0.1362
vn 0.8149 -0.5745 -0.0767
vn 0.8244 -0.5651 -0.0303
vn 0.7699 -0.6356 -0.0566
vn 0.5840 -0.7496 -0.3115
vn 0.9314 -0.1905 0.3102
vn 0.8945 0.0826 0.4395
vn 0.8919 -0.4403 0.1032
vn 0.9158 -0.1219 0.3827
vn 0.6360 -0.4255 -0.6438
vn 0.8890 -0.3981 -0.2263
vn 0.8965 -0.3069 -0.3196
vn 0.7793 -0.3630 -0.5108
vn 0.8870 -0.2208 -0.4055
vn 0.8335 -0.2454 -0.4951
vn 0.9376 -0.3439 0.0521
vn 0.8944 -0.4415 -0.0715
vn 0.7737 -0.4754 -0.4188
vn 0.7393 -0.3667 -0.5649
vn 0.7116 -0.5905 -0.3807
vn 0.5844 -0.6897 -0.4274
vn 0.5120 -0.7744 -0.3717
vn 0.5378 -0.7702 -0.3428
vn 0.6949 -0.6692 -0.2632
vn 0.5856 -0.7484 -0.3113
vn 0.5852 -0.7769 -0.2320
vn 0.6571 -0.7358 -0.1639
vn 0.7107 -0.6910 -0.1320
vn 0.6865 -0.5836 -0.4336
vn 0.6480 -0.5374 -0.5398
vn 0.7811 -0.5728 -0.2486
vn 0.7435 -0.6651 -0.0692
vn 0.8350 -0.5405 -0.1035
vn 0.7867 -0.6173 0.0021
vn 0.5689 -0.7111 -0.4131
vn 0.6693 -0.7008 -0.2467
vn 0.6030 -0.7075 -0.3686
vn 0.9227 -0.2951 0.2480
vn 0.9182 -0.1145 0.3793
vn 0.8163 -0.5330 0.2227
vn 0.8593 -0.5003 0.1065
vn 0.8904 -0.4306 0.1475
vn 0.8924 -0.2972 0.3395
vn 0.9066 0.0592 0.4178
vn 0.6547 -0.2529 -0.7124
vn 0.9576 -0.2759 -0.0832
vn 0.9096 -0.2628 -0.3219
vn 0.7897 -0.4357 -0.4320
vn 0.9746 -0.2048 -0.0907
vn 0.8152 -0.1677 -0.5544
vn 0.8183 -0.5089 -0.2670
vn 0.6680 -0.4540 -0.5896
vn 0.7128 -0.2442 -0.6575
vn 0.9574 -0.2735 0.0927
vn 0.7043 -0.6369 -0.3136
vn 0.7877 -0.5695 -0.2349
vn 0.6831 -0.7162 0.1433
vn 0.6743 -0.5909 -0.4428
vn 0.7314 -0.6244 -0.2742
vn 0.7233 -0.6898 -0.0310
vn 0.5673 -0.7122 -0.4133
vn 0.9182 -0.3162 0.2385
vn 0.8167 -0.5324 0.2225
vn 0.8891 -0.3048 0.3414
vn 0.6817 -0.2238 -0.6966
vn 0.9280 -0.3500 -0.1280
vn 0.9367 -0.2165 -0.2753
vn 0.9682 -0.2334 0.0898
vn 0.7902 -0.5613 -0.2460
vn 0.8801 -0.4741 -0.0258
vn 0.8337 -0.4566 0.3105
vt 1.000000 0.534859
vt 1.000000 0.595808
vt 1.000000 0.856508
vt 1.000000 0.961048
vt 1.000000 0.968179
vt 1.000000 0.967216
vt 1.000000 0.979416
vt 1.000000 0.646861
vt 1.000000 0.722780
vt 1.000000 0.996120
vt 1.000000 0.987720
vt 0.981632 0.641434
vt 1.000000 0.964279
vt 1.000000 0.926730
vt 1.000000 0.876529
vt 1.000000 0.945925
vt 1.000000 0.838442
vt 1.000000 0.902676
vt 1.000000 0.789359
vt 1.000000 0.895932
vt 1.000000 0.928826
vt 1.000000 0.831884
vt 1.000000 0.727722
vt 1.000000 0.872290
vt 1.000000 0.663570
vt 1.000000 0.947122
vt 1.000000 0.736634
vt 1.000000 0.950768
vt 1.000000 0.986044
vt 1.000000 0.995263
vt 1.000000 0.985618
vt 1.000000 0.978940
vt 1.000000 0.987608
vt 1.000000 0.988015
vt 1.000000 0.991776
vt 1.000000 0.664841
vt 1.000000 0.730538
vt 0.991897 0.664499
vt 1.000000 0.803999
vt 1.000000 0.593002
vt 1.000000 0.745323
vt 1.000000 0.727743
vt 1.000000 0.608733
vt 1.000000 0.593002
vt 1.000000 0.874362
vt 1.000000 0.977933
vt 1.000000 0.820036
vt 1.000000 0.994616
vt 1.000000 0.994472
vt 1.000000 0.994769
vt 1.000000 0.994965
vt 1.000000 0.889646
s 0
f 14/14/1 17/17/1 15/15/1
f 16/16/2 18/18/2 14/14/2
f 18/18/3 20/20/3 17/17/3
f 16/16/4 20/20/4 18/18/4
f 20/20/5 21/21/5 22/22/5
f 22/22/6 24/24/6 23/23/6
f 21/21/7 4/4/7 24/24/7
f 24/24/8 4/4/8 3/3/8
f 23/23/9 3/3/9 2/2/9
f 19/19/10 9/9/10 39/39/10
f 28/28/11 52/52/11 27/27/11
f 52/52/12 47/47/12 42/42/12
f 4/4/13 26/26/13 3/3/13
f 27/27/14 42/42/14 43/43/14
f 46/46/15 29/29/15 11/11/15
f 32/32/16 33/33/16 5/5/16
f 32/32/17 34/34/17 33/33/17
f 7/7/18 35/35/18 34/34/18
f 34/34/19 51/51/19 50/50/19
f 34/34/20 35/35/20 51/51/20
f 4/4/21 31/31/21 26/26/21
f 5/5/22 31/31/22 4/4/22
f 6/6/23 7/7/23 32/32/23
f 7/7/24 11/11/24 35/35/24
f 37/37/25 39/39/25 9/9/25
f 13/13/26 16/16/26 14/14/26
f 14/14/27 18/18/27 17/17/27
f 17/17/28 20/20/28 19/19/28
f 16/16/29 21/21/29 20/20/29
f 19/19/30 22/22/30 9/9/30
f 19/19/31 20/20/31 22/22/31
f 9/9/32 22/22/32 23/23/32
f 22/22/33 21/21/33 24/24/33
f 16/16/34 7/7/34 6/6/34
f 46/46/35 7/7/35 13/13/35
f 21/21/36 6/6/36 5/5/36
f 2/2/37 8/8/37 23/23/37
f 21/21/38 5/5/38 4/4/38
f 23/23/39 24/24/39 3/3/39
f 39/39/40 15/15/40 17/17/40
f 9/9/41 23/23/41 8/8/41
f 17/17/42 19/19/42 39/39/42
f 27/27/43 26/26/43 28/28/43
f 27/27/44 52/52/44 42/42/44
f 44/44/45 2/2/45 25/25/45
f 2/2/46 3/3/46 25/25/46
f 3/3/47 26/26/47 25/25/47
f 43/43/48 25/25/48 27/27/48
f 42/42/49 47/47/49 41/41/49
f 30/30/50 11/11/50 29/29/50
f 31/31/51 33/33/51 48/48/51
f 50/50/52 33/33/52 34/34/52
f 32/32/53 7/7/53 34/34/53
f 33/33/54 49/49/54 48/48/54
f 51/51/55 35/35/55 10/10/55
f 5/5/56 6/6/56 32/32/56
f 7/7/57 46/46/57 11/11/57
f 35/35/58 11/11/58 10/10/58
f 28/28/59 31/31/59 48/48/59
f 9/9/60 36/36/60 37/37/60
f 8/8/61 40/40/61 36/36/61
f 12/12/62 40/40/62 1/1/62
f 16/16/63 13/13/63 7/7/63
f 21/21/64 16/16/64 6/6/64
f 2/2/65 1/1/65 8/8/65
f 39/39/66 45/45/66 15/15/66
f 27/27/67 25/25/67 26/26/67
f 44/44/68 1/1/68 2/2/68
f 43/43/69 44/44/69 25/25/69
f 30/30/70 10/10/70 11/11/70
f 31/31/71 5/5/71 33/33/71
f 50/50/72 49/49/72 33/33/72
f 28/28/73 26/26/73 31/31/73
f 9/9/74 8/8/74 36/36/74
f 8/8/75 1/1/75 40/40/75
f 12/12/76 38/38/76 40/40/76
