# Blender 3.3.0
# www.blender.org
o GateIsland_col14
v -37.385464 46.276699 -81.777817
v -11.217577 53.303391 -107.006310
v -24.018997 51.594894 -81.830383
v -32.129845 49.358734 -83.969917
v 22.610285 33.487225 -116.253639
v 23.789877 39.033001 -113.312828
v -42.790520 42.493500 -84.028870
v -29.666809 46.005039 -132.969055
v -36.561668 46.510315 -129.592529
v -43.003975 46.039463 -125.519615
v -20.499371 29.636053 -140.360321
v -19.471493 36.999863 -139.356323
v -22.119625 43.218327 -136.452652
v -54.657810 30.104765 -119.954918
v -54.966995 35.442127 -118.059151
v -52.348740 40.371162 -119.584167
v -46.157059 46.599041 -104.808769
v -49.055687 45.590183 -112.576530
v -49.344410 44.396099 -119.441582
v -16.233810 43.996124 -135.301270
v -5.981770 46.880718 -127.715973
v 22.408913 48.899246 -103.418510
v -14.824821 53.120571 -78.749329
v -7.530136 53.936363 -83.719589
v 23.934689 44.047310 -109.371193
v -54.304413 34.723488 -103.496704
v -55.280190 29.920620 -104.475502
v -52.657623 39.048031 -103.552055
v -49.893200 43.121574 -103.854912
v -56.212242 26.703926 -111.663734
v -56.496372 30.795786 -111.520416
v -55.944988 34.788387 -110.996262
v -54.490803 38.806843 -110.980942
v -52.193439 42.441071 -111.444748
v -53.330166 40.535095 -116.269508
v -0.172073 54.038372 -86.407875
v -47.118351 38.048252 -87.093636
v -49.204365 32.794373 -86.683594
v -50.823257 27.300163 -89.161659
v -51.261276 21.304834 -90.945168
v -27.394865 29.814619 -139.266754
v -35.127308 34.505180 -136.259079
v -49.059525 34.247833 -126.929245
v -52.266483 33.963406 -123.373672
v -24.629316 37.267220 -138.934326
v -29.975801 38.014645 -137.515488
v -42.440075 36.355114 -131.932663
v -37.249252 40.194633 -133.852249
v -45.899738 39.868793 -128.183548
v -49.002182 41.513802 -124.007370
v -31.387375 43.227436 -134.710968
v -40.453846 43.559532 -130.154465
v -0.481076 43.357330 -128.115845
v 0.392442 39.081684 -130.548370
v 0.250413 34.318695 -132.399551
v -9.826794 42.427780 -134.371277
v -8.640693 38.599350 -136.134491
v -8.694548 34.587807 -137.550140
v -14.745747 36.896954 -138.878479
v -15.944675 29.172844 -140.175858
v -27.343582 52.822742 -106.302322
v -21.132114 53.314602 -109.019089
v -9.441904 52.166630 -115.403458
v -41.016991 49.451313 -105.572021
v -37.192127 51.208954 -110.688133
v -3.694135 50.166740 -119.125565
v -18.598614 52.563469 -117.320763
v -33.257710 51.811630 -115.828873
v -27.783060 52.182365 -118.729172
v -16.831581 50.797268 -124.315048
v -11.939270 48.973053 -126.946358
v -45.185802 48.057056 -114.678604
v -25.642410 50.806877 -125.292030
v -44.450058 47.800972 -119.786049
v -34.371902 50.526894 -122.715179
v -25.766230 48.660721 -130.286850
v -19.413588 47.016800 -132.499115
v -36.704010 48.822212 -125.874969
v 12.860592 53.288570 -91.114868
v 17.218601 51.444435 -99.151169
v -55.161930 25.047956 -105.436874
v -56.025417 29.685534 -116.370804
v 20.507849 27.405342 -118.373894
v -0.712962 29.334047 -133.577087
v -9.374713 30.330198 -138.374115
vn -0.8757 0.3717 0.3083
vn -0.9456 0.1314 0.2977
vn -0.9945 -0.0662 -0.0814
vn -0.8459 0.5333 -0.0114
vn -0.7701 0.5839 -0.2569
vn -0.9347 0.0696 -0.3485
vn -0.3036 0.1067 -0.9468
vn -0.5277 0.3200 -0.7869
vn -0.3738 0.5015 -0.7803
vn -0.5782 0.5154 -0.6325
vn -0.6064 0.6511 -0.4565
vn -0.4276 0.6779 -0.5980
vn -0.0538 0.4036 -0.9134
vn 0.3158 0.3120 -0.8961
vn 0.2692 0.7213 -0.6381
vn -0.1939 0.9781 0.0754
vn 0.0680 0.9905 -0.1197
vn -0.0262 0.9948 -0.0980
vn -0.3808 0.9241 0.0328
vn 0.0275 0.9708 -0.2382
vn -0.1005 0.9667 -0.2354
vn 0.0069 0.9996 -0.0283
vn 0.1229 0.9797 -0.1582
vn 0.2562 0.8781 -0.4041
vn -0.3733 0.7813 -0.5002
vn -0.5482 0.7506 -0.3689
vn -0.4555 0.8706 0.1857
vn 0.0373 0.9978 -0.0556
vn -0.9607 -0.0124 0.2775
vn -0.9427 0.1415 0.3022
vn -0.7784 0.5535 0.2964
vn -0.8845 0.3409 0.3184
vn -0.9842 -0.0740 0.1607
vn -0.9652 0.1528 0.2125
vn -0.9120 0.3500 0.2137
vn -0.8050 0.5607 0.1937
vn -0.9819 0.1446 -0.1226
vn -0.9373 0.3350 -0.0962
vn -0.6227 0.7423 0.2475
vn -0.6534 0.7425 0.1474
vn -0.7282 0.6797 -0.0876
vn -0.8810 0.3815 -0.2797
vn -0.7271 0.2611 -0.6349
vn -0.2372 0.1309 -0.9626
vn -0.3795 0.2368 -0.8944
vn -0.4629 0.1933 -0.8651
vn -0.6294 0.1854 -0.7546
vn -0.1662 0.4319 -0.8865
vn -0.8211 0.2827 -0.4959
vn -0.3231 0.3790 -0.8671
vn -0.5216 0.3555 -0.7756
vn -0.8715 0.1185 -0.4758
vn -0.3442 0.5927 -0.7281
vn -0.7256 0.5560 -0.4054
vn -0.5699 0.5519 -0.6088
vn -0.1533 0.1007 -0.9830
vn -0.1486 0.5898 -0.7937
vn 0.5139 0.5011 -0.6963
vn 0.5683 0.2833 -0.7725
vn 0.5853 0.0776 -0.8071
vn 0.4412 0.4846 -0.7553
vn 0.4847 0.2853 -0.8269
vn 0.4904 0.0894 -0.8669
vn 0.2505 0.4679 -0.8475
vn 0.2420 0.1241 -0.9623
vn 0.0531 0.1276 -0.9904
vn 0.0991 0.4643 -0.8801
vn 0.4210 0.7199 -0.5518
vn 0.3732 0.6569 -0.6551
vn -0.2934 0.9483 0.1213
vn -0.0996 0.9939 -0.0477
vn 0.1743 0.9541 -0.2435
vn 0.0183 0.9963 -0.0846
vn -0.1591 0.9872 -0.0060
vn 0.1401 0.9461 -0.2921
vn 0.0887 0.9708 -0.2227
vn -0.2937 0.9471 -0.1292
vn -0.0087 0.9781 -0.2078
vn -0.3243 0.9413 -0.0939
vn 0.0949 0.8920 -0.4420
vn -0.1497 0.9760 -0.1579
vn 0.0448 0.9175 -0.3953
vn -0.1430 0.9106 -0.3877
vn -0.3209 0.9121 -0.2552
vn -0.0726 0.9973 0.0145
vn -0.1875 0.9794 0.0746
vn 0.2876 0.8665 -0.4080
vn 0.0782 0.9900 -0.1175
vn 0.2036 0.7916 -0.5762
vn -0.0450 0.7356 -0.6759
vn 0.0454 0.7047 -0.7081
vn -0.2003 0.8261 -0.5267
vn -0.5726 0.8106 -0.1231
vn -0.3940 0.8460 -0.3593
vn -0.4741 0.8766 0.0828
vn -0.4389 0.8795 0.1843
vn -0.0225 0.9995 -0.0236
vn -0.9676 -0.0712 0.2421
vn -0.7800 0.5513 0.2960
vn -0.9869 -0.0540 0.1521
vn -0.9769 0.1110 0.1824
vn -0.9207 0.3324 0.2043
vn -0.8199 0.5419 0.1847
vn -0.9797 0.1524 -0.1300
vn -0.9357 0.3390 -0.0982
vn -0.6255 0.7399 0.2475
vn -0.6758 0.7237 0.1399
vn -0.7226 0.6840 -0.1000
vn -0.7220 0.2630 -0.6400
vn -0.1723 0.4402 -0.8812
vn -0.7964 0.3002 -0.5250
vn -0.3022 0.6338 -0.7120
vn -0.0732 0.1448 -0.9868
vn 0.5099 0.5225 -0.6834
vn 0.5684 0.2878 -0.7708
vn 0.5855 0.0789 -0.8068
vn 0.4429 0.5100 -0.7374
vn 0.4894 0.3032 -0.8176
vn 0.4986 0.1069 -0.8602
vn 0.2394 0.4765 -0.8460
vn 0.2638 0.1425 -0.9540
vn 0.1027 0.1492 -0.9835
vn 0.1117 0.4591 -0.8813
vn 0.3805 0.7622 -0.5237
vn -0.2789 0.9529 0.1188
vn -0.0928 0.9945 -0.0480
vn 0.1878 0.9355 -0.2994
vn -0.2981 0.9473 -0.1171
vn 0.0790 0.8953 -0.4385
vn -0.1432 0.9113 -0.3860
vn -0.0906 0.9954 0.0304
vn 0.2192 0.9318 -0.2891
vn 0.2283 0.7804 -0.5822
vn -0.0387 0.7377 -0.6740
vn -0.1955 0.8294 -0.5233
vn -0.5780 0.8077 -0.1162
vn -0.5058 0.8592 0.0772
vt 1.000000 1.000000
vt 1.000000 1.000000
vt 1.000000 1.000000
vt 1.000000 1.000000
vt 1.000000 0.999097
vt 1.000000 0.999735
vt 0.998022 1.000000
vt 1.000000 1.000000
vt 1.000000 1.000000
vt 1.000000 1.000000
vt 1.000000 1.000000
vt 1.000000 1.000000
vt 1.000000 1.000000
vt 1.000000 1.000000
vt 1.000000 1.000000
vt 1.000000 1.000000
vt 1.000000 1.000000
vt 1.000000 1.000000
vt 1.000000 1.000000
vt 1.000000 1.000000
vt 1.000000 1.000000
vt 1.000000 1.000000
vt 1.000000 1.000000
vt 1.000000 1.000000
vt 1.000000 0.999967
vt 1.000000 1.000000
vt 1.000000 1.000000
vt 1.000000 1.000000
vt 1.000000 1.000000
vt 1.000000 1.000000
vt 1.000000 1.000000
vt 1.000000 1.000000
vt 1.000000 1.000000
vt 1.000000 1.000000
vt 1.000000 1.000000
vt 1.000000 1.000000
vt 1.000000 1.000000
vt 1.000000 1.000000
vt 1.000000 1.000000
vt 1.000000 1.000000
vt 1.000000 1.000000
vt 1.000000 1.000000
vt 1.000000 1.000000
vt 1.000000 1.000000
vt 1.000000 1.000000
vt 1.000000 1.000000
vt 1.000000 1.000000
vt 1.000000 1.000000
vt 1.000000 1.000000
vt 1.000000 1.000000
vt 1.000000 1.000000
vt 1.000000 1.000000
vt 1.000000 0.999994
vt 1.000000 0.999952
vt 1.000000 0.999839
vt 1.000000 0.999999
vt 1.000000 0.999990
vt 1.000000 0.999970
vt 1.000000 0.999999
vt 1.000000 0.999993
vt 1.000000 1.000000
vt 1.000000 1.000000
vt 1.000000 1.000000
vt 1.000000 1.000000
vt 1.000000 1.000000
vt 1.000000 1.000000
vt 1.000000 1.000000
vt 1.000000 1.000000
vt 1.000000 1.000000
vt 1.000000 1.000000
vt 1.000000 1.000000
vt 1.000000 1.000000
vt 1.000000 1.000000
vt 1.000000 1.000000
vt 1.000000 1.000000
vt 1.000000 1.000000
vt 1.000000 1.000000
vt 1.000000 1.000000
vt 1.000000 1.000000
vt 1.000000 1.000000
vt 1.000000 1.000000
vt 1.000000 1.000000
vt 1.000000 0.997866
vt 1.000000 0.999616
vt 1.000000 0.999930
s 0
f 38/38/1 37/37/1 26/26/1
f 39/39/2 26/26/2 27/27/2
f 31/31/3 82/82/3 30/30/3
f 34/34/4 35/35/4 33/33/4
f 19/19/5 16/16/5 35/35/5
f 15/15/6 14/14/6 82/82/6
f 42/42/7 46/46/7 41/41/7
f 47/47/8 49/49/8 48/48/8
f 48/48/9 52/52/9 51/51/9
f 49/49/10 50/50/10 52/52/10
f 50/50/11 19/19/11 10/10/11
f 52/52/12 10/10/12 9/9/12
f 45/45/13 13/13/13 12/12/13
f 58/58/14 59/59/14 57/57/14
f 21/21/15 56/56/15 20/20/15
f 3/3/16 61/61/16 65/65/16
f 2/2/17 63/63/17 67/67/17
f 62/62/18 67/67/18 69/69/18
f 64/64/19 65/65/19 72/72/19
f 67/67/20 70/70/20 73/73/20
f 69/69/21 73/73/21 75/75/21
f 24/24/22 2/2/22 62/62/22
f 79/79/23 80/80/23 63/63/23
f 66/66/24 21/21/24 71/71/24
f 78/78/25 9/9/25 10/10/25
f 74/74/26 10/10/26 19/19/26
f 1/1/27 64/64/27 17/17/27
f 79/79/28 2/2/28 36/36/28
f 27/27/29 40/40/29 39/39/29
f 39/39/30 38/38/30 26/26/30
f 29/29/31 37/37/31 7/7/31
f 26/26/32 37/37/32 28/28/32
f 30/30/33 27/27/33 31/31/33
f 32/32/34 27/27/34 26/26/34
f 33/33/35 26/26/35 28/28/35
f 34/34/36 28/28/36 29/29/36
f 82/82/37 32/32/37 15/15/37
f 15/15/38 33/33/38 35/35/38
f 17/17/39 7/7/39 1/1/39
f 18/18/40 29/29/40 17/17/40
f 35/35/41 18/18/41 19/19/41
f 35/35/42 16/16/42 15/15/42
f 50/50/43 43/43/43 44/44/43
f 41/41/44 46/46/44 45/45/44
f 42/42/45 48/48/45 46/46/45
f 42/42/46 47/47/46 48/48/46
f 47/47/47 43/43/47 49/49/47
f 13/13/48 46/46/48 51/51/48
f 16/16/49 44/44/49 15/15/49
f 46/46/50 48/48/50 51/51/50
f 48/48/51 49/49/51 52/52/51
f 44/44/52 14/14/52 15/15/52
f 9/9/53 51/51/53 52/52/53
f 50/50/54 16/16/54 19/19/54
f 52/52/55 50/50/55 10/10/55
f 45/45/56 11/11/56 41/41/56
f 13/13/57 51/51/57 8/8/57
f 53/53/58 6/6/58 54/54/58
f 54/54/59 5/5/59 55/55/59
f 55/55/60 83/83/60 84/84/60
f 56/56/61 54/54/61 57/57/61
f 57/57/62 55/55/62 58/58/62
f 58/58/63 84/84/63 85/85/63
f 59/59/64 56/56/64 57/57/64
f 59/59/65 85/85/65 60/60/65
f 12/12/66 60/60/66 11/11/66
f 12/12/67 20/20/67 59/59/67
f 22/22/68 53/53/68 21/21/68
f 21/21/69 53/53/69 56/56/69
f 65/65/70 4/4/70 3/3/70
f 69/69/71 61/61/71 62/62/71
f 63/63/72 80/80/72 66/66/72
f 62/62/73 2/2/73 67/67/73
f 65/65/74 61/61/74 68/68/74
f 71/71/75 63/63/75 66/66/75
f 67/67/76 63/63/76 70/70/76
f 74/74/77 68/68/77 75/75/77
f 69/69/78 67/67/78 73/73/78
f 72/72/79 65/65/79 74/74/79
f 77/77/80 70/70/80 71/71/80
f 68/68/81 69/69/81 75/75/81
f 73/73/82 70/70/82 76/76/82
f 78/78/83 73/73/83 76/76/83
f 74/74/84 75/75/84 78/78/84
f 61/61/85 24/24/85 62/62/85
f 3/3/86 23/23/86 61/61/86
f 66/66/87 22/22/87 21/21/87
f 2/2/88 79/79/88 63/63/88
f 20/20/89 71/71/89 21/21/89
f 13/13/90 76/76/90 77/77/90
f 77/77/91 20/20/91 13/13/91
f 8/8/92 78/78/92 76/76/92
f 19/19/93 72/72/93 74/74/93
f 74/74/94 78/78/94 10/10/94
f 72/72/95 17/17/95 64/64/95
f 1/1/96 4/4/96 64/64/96
f 2/2/97 24/24/97 36/36/97
f 27/27/98 81/81/98 40/40/98
f 29/29/99 28/28/99 37/37/99
f 30/30/100 81/81/100 27/27/100
f 32/32/101 31/31/101 27/27/101
f 33/33/102 32/32/102 26/26/102
f 34/34/103 33/33/103 28/28/103
f 82/82/104 31/31/104 32/32/104
f 15/15/105 32/32/105 33/33/105
f 17/17/106 29/29/106 7/7/106
f 18/18/107 34/34/107 29/29/107
f 35/35/108 34/34/108 18/18/108
f 50/50/109 49/49/109 43/43/109
f 13/13/110 45/45/110 46/46/110
f 16/16/111 50/50/111 44/44/111
f 9/9/112 8/8/112 51/51/112
f 45/45/113 12/12/113 11/11/113
f 53/53/114 25/25/114 6/6/114
f 54/54/115 6/6/115 5/5/115
f 55/55/116 5/5/116 83/83/116
f 56/56/117 53/53/117 54/54/117
f 57/57/118 54/54/118 55/55/118
f 58/58/119 55/55/119 84/84/119
f 59/59/120 20/20/120 56/56/120
f 59/59/121 58/58/121 85/85/121
f 12/12/122 59/59/122 60/60/122
f 12/12/123 13/13/123 20/20/123
f 22/22/124 25/25/124 53/53/124
f 65/65/125 64/64/125 4/4/125
f 69/69/126 68/68/126 61/61/126
f 71/71/127 70/70/127 63/63/127
f 74/74/128 65/65/128 68/68/128
f 77/77/129 76/76/129 70/70/129
f 78/78/130 75/75/130 73/73/130
f 61/61/131 23/23/131 24/24/131
f 66/66/132 80/80/132 22/22/132
f 20/20/133 77/77/133 71/71/133
f 13/13/134 8/8/134 76/76/134
f 8/8/135 9/9/135 78/78/135
f 19/19/136 18/18/136 72/72/136
f 72/72/137 18/18/137 17/17/137
