# Blender 3.3.0
# www.blender.org
o GateIsland_col05
v -3.272274 -33.685863 -98.384521
v -41.464962 -39.187862 -84.211609
v -39.636909 -43.661018 -82.470306
v 5.831723 -19.311583 -112.435425
v 9.664598 -29.811836 -105.200264
v 12.984380 -38.661587 -96.794090
v 9.894524 -40.403408 -96.655975
v -12.318149 -17.287870 -105.934784
v -20.192736 -14.042364 -106.707649
v -24.528769 -15.734776 -102.924423
v -10.798140 -36.021408 -94.475754
v -13.630898 -37.378967 -94.406906
v -18.400034 -38.811924 -94.306442
v -25.899727 -22.065145 -97.226196
v -26.693493 -26.843618 -95.678246
v -26.018192 -33.765926 -94.658775
v -4.102253 -21.875713 -108.464302
v -1.488783 -26.613564 -105.474640
v -2.238486 -30.607363 -100.445915
v 0.432798 -10.619219 -117.344574
v -5.214727 -12.084496 -117.211708
v -7.226256 -17.033655 -112.623131
v -28.388838 -18.463650 -100.056000
v -31.047085 -13.837818 -102.560715
v -37.909210 -11.603488 -99.872261
v -34.321777 -46.696720 -83.942932
v -28.541767 -44.081482 -89.819267
v -24.459167 -40.662853 -93.312500
v -25.303667 -37.360325 -94.247658
v -1.951596 -37.229195 -98.220490
v 1.680740 -37.681656 -99.287468
v 4.096810 -41.030167 -97.023674
v -20.742996 -21.171984 -94.560593
v -23.318344 -18.896051 -98.966629
v -22.142231 -34.384548 -93.881210
v -20.091316 -32.857517 -91.810432
v -4.950839 -32.932175 -96.492859
v -8.145051 -21.621485 -99.223854
v -6.549480 -24.218624 -92.863243
v -15.478720 -13.417959 -110.815430
v -35.866035 -5.531821 -104.938515
v -10.964718 -39.838154 -94.958046
v -6.707701 -38.230164 -96.205559
v -5.709697 -35.858028 -96.598679
v -17.946800 -44.440075 -92.149475
v -4.826990 -41.849171 -95.252426
v -30.143692 -23.899389 -97.313583
v -29.263062 -29.762350 -95.539230
v -33.957142 -19.032761 -98.683922
v -32.756092 -27.167749 -95.910583
v -29.877300 -36.722706 -93.589912
v -36.967712 -30.253790 -93.122955
v -32.664650 -38.703896 -91.469856
v -36.051380 -40.230846 -88.519371
v -0.645013 -30.428497 -102.815498
v -8.905888 -18.001846 -108.856773
v -0.834148 -24.211670 -109.254280
v 0.853817 -32.433765 -102.540138
v 3.776875 -31.258265 -105.172134
v -1.853987 -18.960510 -113.774651
v 3.281748 -23.897690 -110.882080
v -1.042834 -16.022240 -115.688744
v 7.684426 -33.198879 -103.653816
v -8.034816 -34.512051 -94.668076
v -18.727846 -36.625130 -93.942390
v -17.013771 -35.528538 -92.988762
v -19.447491 -17.436720 -100.702484
v -15.383572 -19.657650 -95.453163
v -18.154531 -20.384758 -93.861427
v -5.673354 -23.154327 -101.889511
v -3.669322 -26.178619 -101.233139
v -3.838178 -29.572519 -97.634613
v -23.729897 -26.716108 -93.679337
v -21.046494 -28.213377 -90.398598
v -25.042608 -31.196327 -94.458435
v -23.112658 -30.570873 -93.209259
v -20.344978 -30.356342 -90.275284
v -8.071453 -13.886353 -115.499977
v -17.998873 -10.383002 -112.795219
v -26.815458 -10.870850 -107.028984
v -32.691387 -8.264616 -105.393616
v -41.487423 -2.769712 -101.473839
v -5.886742 -31.858562 -94.051361
v -8.366235 -33.164265 -92.329704
v -11.114575 -34.145218 -91.864098
v -15.133254 -34.544834 -91.676147
v -15.170842 -17.733589 -101.705811
v -10.296682 -21.199493 -94.773132
v -4.962855 -26.812054 -94.877762
v -4.790171 -29.320263 -94.085541
v -22.029673 -22.976374 -93.766174
v -20.980553 -25.018391 -90.884094
v -18.034969 -31.763639 -88.575661
v -16.789352 -33.021839 -89.586784
v 12.406418 -44.733444 -90.337425
v -40.618942 -32.540211 -89.315819
v 6.108815 -12.484123 -114.235558
v -41.836723 -25.421888 -91.525314
v -42.461506 -6.268827 -97.945763
v -29.555208 -48.799297 -84.149918
v -10.307448 -47.824181 -89.926414
v -20.959488 -48.312328 -87.916946
v 4.353683 -44.898373 -93.090332
vn 0.3638 -0.6946 -0.6206
vn -0.4058 -0.7113 -0.5739
vn -0.3004 -0.6937 -0.6546
vn -0.4323 -0.5067 -0.7459
vn -0.2972 -0.8325 -0.4676
vn -0.2065 -0.5550 -0.8058
vn -0.4955 -0.4521 -0.7417
vn -0.1091 -0.1688 -0.9796
vn -0.1540 -0.3339 -0.9299
vn -0.2911 -0.3823 -0.8770
vn -0.1939 -0.5783 -0.7925
vn -0.1020 -0.6967 -0.7100
vn -0.2420 -0.7241 -0.6458
vn -0.0658 0.1498 -0.9865
vn -0.6904 0.2042 -0.6940
vn -0.3040 -0.3738 -0.8763
vn -0.3340 -0.6943 -0.6375
vn -0.0876 -0.3330 -0.9388
vn -0.3492 -0.3192 -0.8810
vn -0.3647 -0.3331 -0.8695
vn -0.5334 -0.3943 -0.7483
vn 0.2319 -0.4968 -0.8363
vn 0.2326 -0.2495 -0.9400
vn 0.1695 -0.0787 -0.9824
vn -0.1775 -0.3099 -0.9341
vn -0.4035 -0.5368 -0.7410
vn -0.5088 -0.5839 -0.6327
vn -0.4403 -0.3654 -0.8201
vn -0.1499 -0.5360 -0.8308
vn -0.6648 -0.5642 -0.4897
vn -0.5791 -0.6390 -0.5063
vn -0.5457 -0.7201 -0.4285
vn -0.7221 -0.5204 -0.4558
vn -0.4457 -0.5213 -0.7278
vn -0.3425 -0.6503 -0.6781
vn -0.1727 -0.6341 -0.7537
vn -0.0420 -0.5372 -0.8424
vn 0.0027 -0.6128 -0.7902
vn 0.1190 -0.6728 -0.7302
vn 0.3162 -0.4573 -0.8312
vn 0.2602 -0.3472 -0.9010
vn -0.6968 -0.5074 -0.5069
vn 0.3792 -0.5585 -0.7377
vn 0.2241 -0.7601 -0.6100
vn 0.1205 -0.7038 -0.7001
vn -0.6109 0.6114 -0.5030
vn -0.1912 0.3525 -0.9161
vn -0.3417 0.5264 -0.7785
vn 0.2420 0.3931 -0.8871
vn 0.4117 0.7205 -0.5580
vn -0.2646 -0.9240 -0.2759
vn 0.1519 -0.8969 -0.4152
vn -0.5468 -0.8161 -0.1870
vn 0.3766 -0.7148 -0.5893
vn -0.0809 -0.8720 -0.4828
vn -0.3342 -0.8869 -0.3189
vn -0.6709 -0.7100 -0.2138
vn -0.9606 -0.1784 -0.2133
vn -0.8889 -0.4368 -0.1378
vn -0.8486 -0.3454 -0.4008
vn 0.7651 -0.3602 -0.5337
vn 0.7842 0.0501 -0.6185
vn 0.4614 0.2665 -0.8462
vn 0.6327 0.4507 -0.6298
vn -0.4071 -0.7116 -0.5726
vn -0.3319 -0.7509 -0.5710
vn -0.2388 -0.6894 -0.6839
vn -0.4399 -0.8028 -0.4025
vn -0.7087 -0.3933 -0.5857
vn 0.0710 -0.7687 -0.6357
vn -0.4525 -0.5066 -0.7339
vn -0.1002 -0.6093 -0.7866
vn -0.0687 -0.2880 -0.9552
vn -0.3923 0.0126 -0.9197
vn -0.0842 -0.4229 -0.9022
vn -0.1511 -0.3244 -0.9338
vn -0.1831 -0.6570 -0.7314
vn -0.3853 0.0092 -0.9228
vn -0.0089 -0.7132 -0.7009
vn -0.0337 -0.1202 -0.9922
vn -0.0856 0.1286 -0.9880
vn -0.4506 -0.2081 -0.8681
vn -0.1010 -0.6062 -0.7889
vn -0.0917 -0.2610 -0.9610
vn -0.1259 -0.3046 -0.9441
vn -0.3051 -0.4776 -0.8239
vn -0.1814 -0.3957 -0.9003
vn -0.3268 -0.3478 -0.8788
vn -0.3869 -0.3629 -0.8477
vn -0.4919 -0.4016 -0.7725
vn -0.5578 -0.3072 -0.7710
vn -0.5740 -0.3307 -0.7491
vn -0.6235 -0.2667 -0.7349
vn -0.6111 -0.4317 -0.6635
vn -0.5984 -0.4910 -0.6331
vn 0.1290 -0.5560 -0.8211
vn 0.1610 -0.3283 -0.9308
vn 0.1004 -0.1354 -0.9857
vn -0.4005 -0.6412 -0.6546
vn -0.4237 -0.5961 -0.6820
vn -0.5973 -0.7084 -0.3761
vn -0.6140 -0.5382 -0.5773
vn -0.4324 -0.6689 -0.6047
vn -0.1787 -0.5138 -0.8391
vn -0.1514 -0.6122 -0.7761
vn -0.0199 -0.6407 -0.7675
vn 0.2479 -0.5186 -0.8183
vn 0.2167 -0.4191 -0.8817
vn -0.6431 -0.2651 -0.7184
vn 0.0572 -0.3068 -0.9501
vn 0.4012 -0.2487 -0.8816
vn 0.3119 -0.6110 -0.7276
vn -0.2987 -0.5363 -0.7894
vn -0.3649 0.7834 -0.5032
vn 0.0235 0.6349 -0.7723
vn -0.6402 0.6228 -0.4497
vn -0.0625 0.8396 -0.5396
vn -0.0074 0.8053 -0.5929
vn 0.2321 0.2855 -0.9299
vn -0.5665 0.1761 -0.8050
vn -0.0671 0.1541 -0.9858
vn 0.2674 0.6298 -0.7293
vn 0.3773 0.7777 -0.5028
vn -0.1350 -0.9457 -0.2956
vn 0.0123 -0.9174 -0.3977
vn -0.4264 -0.8573 -0.2885
vn -0.5548 -0.8097 -0.1914
vn 0.0129 -0.7794 -0.6264
vn -0.1702 -0.8668 -0.4688
vn -0.8648 -0.3444 -0.3654
vn -0.7911 -0.5715 -0.2180
vn -0.9583 -0.1439 -0.2468
vn -0.6335 -0.7589 -0.1510
vn -0.7529 -0.5702 -0.3286
vn -0.5869 -0.7569 -0.2874
vn -0.7440 0.0194 -0.6679
vn -0.8152 0.3459 -0.4646
vn 0.5360 -0.3394 -0.7730
vn 0.5466 -0.0146 -0.8372
vn 0.7424 -0.1156 -0.6600
vn 0.7068 0.1922 -0.6808
vn 0.4453 -0.6072 -0.6580
vn 0.5701 0.2811 -0.7720
vn 0.6901 0.4281 -0.5835
vn 0.1969 0.0017 -0.9804
vn 0.4251 -0.0912 -0.9006
vn -0.4266 -0.6699 -0.6076
vn -0.4657 -0.8151 -0.3447
vn -0.6129 -0.3744 -0.6959
vn -0.0569 -0.6347 -0.7706
vn -0.3245 0.1325 -0.9366
vn -0.1720 -0.2516 -0.9524
vn -0.2911 -0.4776 -0.8290
vn -0.3616 -0.6331 -0.6844
vn -0.1755 -0.5029 -0.8463
vn -0.6406 -0.2720 -0.7180
vn -0.4265 0.7093 -0.5612
vn -0.1072 0.8013 -0.5886
vn 0.0992 0.1779 -0.9790
vn -0.7460 -0.5973 -0.2944
vn -0.8737 -0.0317 -0.4855
vn -0.9382 0.2199 -0.2673
vn 0.5991 -0.2897 -0.7464
vn 0.5597 -0.0199 -0.8285
vn 0.4271 -0.6770 -0.5994
vt 1.000000 1.000000
vt 1.000000 1.000000
vt 1.000000 1.000000
vt 1.000000 0.995254
vt 1.000000 0.998715
vt 1.000000 0.999832
vt 1.000000 0.999974
vt 1.000000 1.000000
vt 1.000000 0.999990
vt 1.000000 0.999999
vt 1.000000 1.000000
vt 1.000000 1.000000
vt 1.000000 1.000000
vt 1.000000 1.000000
vt 1.000000 1.000000
vt 1.000000 1.000000
vt 1.000000 0.999992
vt 1.000000 0.999994
vt 1.000000 1.000000
vt 1.000000 0.992632
vt 1.000000 0.997096
vt 1.000000 0.999895
vt 1.000000 1.000000
vt 1.000000 0.999998
vt 1.000000 1.000000
vt 1.000000 1.000000
vt 1.000000 1.000000
vt 1.000000 1.000000
vt 1.000000 1.000000
vt 1.000000 1.000000
vt 1.000000 0.999998
vt 1.000000 0.999994
vt 1.000000 1.000000
vt 1.000000 1.000000
vt 1.000000 1.000000
vt 1.000000 1.000000
vt 1.000000 1.000000
vt 1.000000 1.000000
vt 1.000000 1.000000
vt 1.000000 0.999945
vt 1.000000 0.999937
vt 1.000000 1.000000
vt 1.000000 1.000000
vt 1.000000 1.000000
vt 1.000000 1.000000
vt 1.000000 1.000000
vt 1.000000 1.000000
vt 1.000000 1.000000
vt 1.000000 1.000000
vt 1.000000 1.000000
vt 1.000000 1.000000
vt 1.000000 1.000000
vt 1.000000 1.000000
vt 1.000000 1.000000
vt 1.000000 0.999997
vt 1.000000 0.999996
vt 1.000000 0.999871
vt 1.000000 0.999987
vt 1.000000 0.999859
vt 1.000000 0.999140
vt 1.000000 0.998746
vt 1.000000 0.997239
vt 1.000000 0.999657
vt 1.000000 1.000000
vt 1.000000 1.000000
vt 1.000000 1.000000
vt 1.000000 1.000000
vt 1.000000 1.000000
vt 1.000000 1.000000
vt 1.000000 1.000000
vt 1.000000 1.000000
vt 1.000000 1.000000
vt 1.000000 1.000000
vt 1.000000 1.000000
vt 1.000000 1.000000
vt 1.000000 1.000000
vt 1.000000 1.000000
vt 1.000000 0.998936
vt 1.000000 0.999693
vt 1.000000 0.999949
vt 1.000000 0.999935
vt 1.000000 0.999982
vt 1.000000 1.000000
vt 1.000000 1.000000
vt 1.000000 1.000000
vt 1.000000 1.000000
vt 1.000000 1.000000
vt 1.000000 1.000000
vt 1.000000 1.000000
vt 1.000000 1.000000
vt 1.000000 1.000000
vt 1.000000 1.000000
vt 1.000000 1.000000
vt 1.000000 1.000000
vt 1.000000 1.000000
vt 1.000000 1.000000
vt 1.000000 0.988188
vt 1.000000 1.000000
vt 1.000000 1.000000
vt 1.000000 1.000000
vt 1.000000 1.000000
vt 1.000000 1.000000
vt 1.000000 1.000000
s 0
f 6/6/1 95/95/1 7/7/1
f 9/9/2 79/79/2 40/40/2
f 10/10/3 80/80/3 9/9/3
f 24/24/4 81/81/4 80/80/4
f 8/8/5 9/9/5 40/40/5
f 23/23/6 24/24/6 10/10/6
f 25/25/7 41/41/7 81/81/7
f 13/13/8 42/42/8 28/28/8
f 42/42/9 46/46/9 45/45/9
f 43/43/10 30/30/10 46/46/10
f 28/28/11 45/45/11 27/27/11
f 45/45/12 101/101/12 102/102/12
f 27/27/13 102/102/13 100/100/13
f 12/12/14 42/42/14 13/13/14
f 1/1/15 44/44/15 37/37/15
f 30/30/16 31/31/16 46/46/16
f 27/27/17 100/100/17 26/26/17
f 47/47/18 50/50/18 49/49/18
f 51/51/19 52/52/19 50/50/19
f 49/49/20 52/52/20 25/25/20
f 54/54/21 96/96/21 52/52/21
f 14/14/22 47/47/22 23/23/22
f 15/15/23 48/48/23 47/47/23
f 16/16/24 29/29/24 48/48/24
f 29/29/25 28/28/25 51/51/25
f 53/53/26 27/27/26 54/54/26
f 26/26/27 3/3/27 54/54/27
f 49/49/28 25/25/28 24/24/28
f 23/23/29 49/49/29 24/24/29
f 19/19/30 55/55/30 58/58/30
f 17/17/31 57/57/31 18/18/31
f 56/56/32 22/22/32 17/17/32
f 18/18/33 57/57/33 58/58/33
f 58/58/34 59/59/34 31/31/34
f 78/78/35 60/60/35 57/57/35
f 31/31/36 59/59/36 32/32/36
f 60/60/37 62/62/37 61/61/37
f 59/59/38 61/61/38 63/63/38
f 32/32/39 63/63/39 7/7/39
f 61/61/40 4/4/40 5/5/40
f 62/62/41 20/20/41 4/4/41
f 18/18/42 55/55/42 19/19/42
f 63/63/43 5/5/43 6/6/43
f 103/103/44 7/7/44 95/95/44
f 32/32/45 7/7/45 103/103/45
f 64/64/46 83/83/46 37/37/46
f 12/12/47 66/66/47 11/11/47
f 44/44/48 11/11/48 64/64/48
f 65/65/49 35/35/49 66/66/49
f 66/66/50 36/36/50 94/94/50
f 88/88/51 87/87/51 8/8/51
f 69/69/52 34/34/52 67/67/52
f 38/38/53 88/88/53 8/8/53
f 69/69/54 33/33/54 34/34/54
f 67/67/55 10/10/55 9/9/55
f 87/87/56 9/9/56 8/8/56
f 70/70/57 38/38/57 56/56/57
f 72/72/58 89/89/58 71/71/58
f 89/89/59 39/39/59 70/70/59
f 19/19/60 71/71/60 18/18/60
f 92/92/61 73/73/61 91/91/61
f 74/74/62 76/76/62 73/73/62
f 76/76/63 35/35/63 75/75/63
f 77/77/64 36/36/64 76/76/64
f 78/78/65 40/40/65 79/79/65
f 9/9/66 80/80/66 79/79/66
f 10/10/67 24/24/67 80/80/67
f 56/56/68 40/40/68 22/22/68
f 82/82/69 25/25/69 99/99/69
f 10/10/70 34/34/70 23/23/70
f 24/24/71 25/25/71 81/81/71
f 101/101/72 46/46/72 32/32/72
f 29/29/73 13/13/73 28/28/73
f 43/43/74 44/44/74 30/30/74
f 28/28/75 42/42/75 45/45/75
f 42/42/76 43/43/76 46/46/76
f 27/27/77 45/45/77 102/102/77
f 43/43/78 11/11/78 44/44/78
f 101/101/79 32/32/79 103/103/79
f 16/16/80 13/13/80 29/29/80
f 12/12/81 11/11/81 42/42/81
f 44/44/82 1/1/82 30/30/82
f 46/46/83 31/31/83 32/32/83
f 48/48/84 51/51/84 50/50/84
f 47/47/85 48/48/85 50/50/85
f 27/27/86 51/51/86 28/28/86
f 23/23/87 47/47/87 49/49/87
f 49/49/88 50/50/88 52/52/88
f 51/51/89 53/53/89 52/52/89
f 53/53/90 54/54/90 52/52/90
f 25/25/91 52/52/91 98/98/91
f 52/52/92 96/96/92 98/98/92
f 25/25/93 98/98/93 99/99/93
f 54/54/94 2/2/94 96/96/94
f 54/54/95 3/3/95 2/2/95
f 34/34/96 14/14/96 23/23/96
f 14/14/97 15/15/97 47/47/97
f 15/15/98 16/16/98 48/48/98
f 59/59/99 57/57/99 60/60/99
f 27/27/100 26/26/100 54/54/100
f 17/17/101 22/22/101 57/57/101
f 55/55/102 18/18/102 58/58/102
f 22/22/103 78/78/103 57/57/103
f 62/62/104 78/78/104 21/21/104
f 59/59/105 60/60/105 61/61/105
f 32/32/106 59/59/106 63/63/106
f 63/63/107 61/61/107 5/5/107
f 61/61/108 62/62/108 4/4/108
f 58/58/109 1/1/109 19/19/109
f 62/62/110 21/21/110 20/20/110
f 4/4/111 20/20/111 97/97/111
f 7/7/112 63/63/112 6/6/112
f 30/30/113 58/58/113 31/31/113
f 64/64/114 85/85/114 84/84/114
f 12/12/115 65/65/115 66/66/115
f 64/64/116 84/84/116 83/83/116
f 86/86/117 11/11/117 66/66/117
f 86/86/118 66/66/118 94/94/118
f 35/35/119 13/13/119 16/16/119
f 44/44/120 64/64/120 37/37/120
f 12/12/121 13/13/121 65/65/121
f 66/66/122 35/35/122 36/36/122
f 94/94/123 36/36/123 93/93/123
f 87/87/124 68/68/124 67/67/124
f 68/68/125 69/69/125 67/67/125
f 56/56/126 38/38/126 8/8/126
f 38/38/127 39/39/127 88/88/127
f 67/67/128 34/34/128 10/10/128
f 87/87/129 67/67/129 9/9/129
f 19/19/130 72/72/130 71/71/130
f 71/71/131 89/89/131 70/70/131
f 72/72/132 90/90/132 89/89/132
f 70/70/133 39/39/133 38/38/133
f 70/70/134 18/18/134 71/71/134
f 17/17/135 70/70/135 56/56/135
f 72/72/136 1/1/136 37/37/136
f 90/90/137 37/37/137 83/83/137
f 14/14/138 73/73/138 15/15/138
f 75/75/139 73/73/139 76/76/139
f 92/92/140 74/74/140 73/73/140
f 74/74/141 77/77/141 76/76/141
f 14/14/142 33/33/142 91/91/142
f 76/76/143 36/36/143 35/35/143
f 77/77/144 93/93/144 36/36/144
f 75/75/145 35/35/145 16/16/145
f 15/15/146 75/75/146 16/16/146
f 78/78/147 22/22/147 40/40/147
f 56/56/148 8/8/148 40/40/148
f 82/82/149 41/41/149 25/25/149
f 101/101/150 45/45/150 46/46/150
f 43/43/151 42/42/151 11/11/151
f 48/48/152 29/29/152 51/51/152
f 27/27/153 53/53/153 51/51/153
f 59/59/154 58/58/154 57/57/154
f 62/62/155 60/60/155 78/78/155
f 58/58/156 30/30/156 1/1/156
f 64/64/157 11/11/157 85/85/157
f 86/86/158 85/85/158 11/11/158
f 35/35/159 65/65/159 13/13/159
f 70/70/160 17/17/160 18/18/160
f 72/72/161 19/19/161 1/1/161
f 90/90/162 72/72/162 37/37/162
f 14/14/163 91/91/163 73/73/163
f 75/75/164 15/15/164 73/73/164
f 14/14/165 34/34/165 33/33/165
