# Blender 3.3.0
# www.blender.org
o GateIsland_col19
v 0.019203 -5.786922 -13.450261
v -34.491062 22.455223 17.141323
v -3.917293 3.088872 -3.400573
v -30.393377 20.622149 13.945556
v -30.817629 22.433260 22.294149
v -31.829168 11.616882 15.813046
v -25.367203 8.498393 13.897721
v -30.605726 14.311130 22.129908
v -27.165236 18.862106 19.935177
v -26.736631 16.775763 20.245747
v -26.817749 14.608217 20.064959
v -26.187511 7.786239 7.049864
v -31.410149 11.243887 13.009229
v -22.935215 8.980672 14.605189
v -19.043453 11.534868 2.548170
v -25.910009 16.467918 8.119982
v -25.921062 19.210859 16.554037
v -12.526755 10.210605 5.849195
v -49.118977 24.870142 44.040642
v -46.383018 24.008583 44.454765
v -43.127228 24.041994 44.876995
v -47.919365 35.540253 44.319683
v -44.895199 35.988266 44.723862
v -37.658554 27.295422 47.286209
v -37.177822 30.802935 46.253513
v -39.441486 34.177624 45.362968
v -52.071056 30.546516 43.783436
v -51.786167 28.052116 43.797329
v -37.910912 24.612856 49.073231
v -39.576591 25.329203 47.165623
v -52.297806 26.149820 46.254311
v -55.764381 26.436516 48.547993
v -55.425877 23.858324 49.452988
v -58.057545 38.346260 49.441048
v -53.667675 38.597481 48.655605
v -39.083942 36.197868 47.424854
v -36.171871 15.139273 18.897409
v -45.242748 23.193737 34.175812
v -48.739006 25.389931 40.878235
v -35.221066 19.048109 29.649406
v -37.671463 20.057245 32.397636
v -39.911442 23.383038 39.612190
v -40.430416 24.558456 43.521969
v -35.439659 26.021856 29.410995
v -38.183399 29.071758 36.865131
v -38.755909 24.443092 21.937033
v -34.996456 15.771098 24.558815
v -41.851803 20.305132 30.591278
v -40.030945 19.816765 31.647512
v -42.415089 22.666124 38.838425
v -44.984608 22.962603 37.936192
v -10.002478 -2.260941 1.935759
v -13.156986 -2.497780 -2.327765
v -11.190503 -2.980099 0.339977
v -14.230433 -1.430819 0.702399
v -23.633421 5.740541 8.950543
v 1.270608 -2.245749 -8.236370
v -10.771355 -1.840604 -6.389845
v -8.337172 -1.008059 -7.925816
v -15.126820 -0.083027 -2.232394
v -23.800554 9.177260 3.646006
v -20.265894 9.792086 1.732569
v -28.707716 16.390209 8.820312
v -29.356104 11.010405 8.931865
v -31.176228 15.162848 10.157562
v -3.978158 1.154531 1.376054
v -3.654741 -2.194401 0.703146
v -7.773500 5.872959 3.713793
v -19.102802 10.602204 13.299907
v -18.952765 8.122733 12.473869
v -20.302017 13.993356 13.919529
v -10.625982 5.677505 -2.982604
v -10.886771 8.786381 1.735678
v -18.651123 13.495280 5.392277
v -22.349773 16.829916 10.609020
v -42.587555 23.857033 47.645164
v -46.675133 23.606064 47.364239
v -51.089268 24.071074 48.208942
v -45.834442 22.640327 48.871815
v -48.941959 21.593721 49.524017
v -44.792618 19.774937 49.578545
v -50.611805 36.664501 46.445461
v -46.483639 38.556885 47.481617
v -35.925636 31.741034 48.021404
v -31.527763 33.267712 50.133312
v -54.774048 28.743448 46.945339
v -53.001728 34.602097 46.212940
v -56.562290 31.369659 48.028492
v -56.684834 35.186825 48.501335
v -59.644875 28.803375 49.418205
v -64.786377 32.244785 48.872486
v -32.540527 22.817785 26.551523
v -30.815897 19.824509 25.067743
v -30.184902 16.537029 23.709295
v -34.343681 22.863174 30.373699
v -34.449780 20.929693 30.234205
v -36.323681 26.117987 33.801308
v -37.270805 25.436167 37.171021
v -37.698647 23.640736 36.922619
v -38.126228 28.906101 40.273045
v -38.107525 28.190506 43.099152
v -38.708275 26.183561 42.950726
v -38.562859 31.439394 43.280792
v -37.526863 27.704590 30.235916
v -40.485615 31.846003 39.464275
v -42.053963 31.323954 36.380432
v -42.852734 34.111076 42.236301
v -36.332554 26.000549 24.718054
v -39.075455 26.278065 24.911827
v -45.527081 32.091354 38.192200
v -35.487209 15.411014 16.074631
v -35.947262 17.577499 15.810505
v -35.635773 20.101934 15.834435
v -40.706615 20.162655 23.880077
v -41.158508 22.922504 24.135792
v -40.911549 24.912132 24.686363
v -47.855747 26.519535 37.111671
v -48.035973 29.338036 37.722874
v -48.566280 31.916567 40.302296
v -13.267711 2.039448 6.502036
v -5.595169 3.185092 -4.729757
v -5.079058 4.552547 0.050957
v 1.184886 -1.361559 -5.246965
v -47.301437 40.655849 48.849033
v -40.853565 38.859184 48.606186
v -47.377472 42.652092 49.520317
v -35.996941 36.810806 49.182411
v -62.873672 32.149597 49.567616
v -41.278824 21.952675 49.692474
v -56.774509 22.269503 49.498714
v -34.077873 30.649729 49.304764
v -63.850189 25.933327 48.466961
v -66.614037 30.773968 47.413242
vn -0.0203 0.8403 -0.5418
vn 0.0574 0.8841 -0.4638
vn 0.3792 0.8935 -0.2406
vn 0.6037 0.7951 -0.0580
vn -0.1165 0.8877 -0.4454
vn 0.2121 0.9306 -0.2984
vn 0.3519 0.9182 -0.1821
vn 0.4010 0.8752 -0.2705
vn 0.6498 0.7601 0.0021
vn 0.6373 0.7445 0.1989
vn -0.2548 0.9564 -0.1426
vn 0.5472 0.8311 -0.0988
vn 0.1851 0.8370 -0.5150
vn 0.4071 0.8664 -0.2892
vn 0.0293 0.7761 -0.6299
vn 0.5690 0.8220 -0.0243
vn 0.6938 0.6894 0.2081
vn 0.0049 0.8183 -0.5747
vn -0.1302 -0.7317 0.6690
vn -0.5979 -0.7732 0.2115
vn 0.5546 -0.0969 0.8264
vn 0.7095 0.2452 0.6607
vn 0.5448 -0.2115 0.8115
vn 0.5730 -0.3398 0.7458
vn 0.7254 0.5770 0.3753
vn -0.6516 -0.0928 -0.7529
vn -0.4780 0.2515 -0.8416
vn -0.7315 -0.2450 -0.6363
vn -0.6306 0.0879 -0.7712
vn -0.2987 0.5503 -0.7797
vn -0.2304 0.5635 -0.7933
vn -0.3204 0.5877 -0.7429
vn -0.7604 -0.5551 -0.3371
vn -0.7130 -0.6360 -0.2952
vn -0.5501 -0.8192 0.1622
vn -0.2667 -0.8257 0.4971
vn -0.4008 -0.8741 0.2746
vn -0.5296 -0.8443 0.0812
vn -0.1159 -0.8103 0.5745
vn -0.2591 -0.8866 0.3830
vn -0.5385 -0.8425 0.0139
vn 0.1917 -0.7249 0.6616
vn 0.0465 -0.6496 0.7588
vn -0.2382 0.9272 0.2892
vn -0.0894 0.8153 0.5721
vn 0.1793 0.8708 0.4578
vn -0.0464 0.6239 0.7802
vn 0.0211 0.4830 0.8754
vn -0.0007 0.0294 0.9996
vn 0.5704 0.7138 0.4064
vn 0.2425 0.3495 0.9050
vn 0.1736 -0.6097 0.7734
vn 0.1857 -0.7517 0.6328
vn -0.0895 -0.7540 0.6507
vn -0.6311 -0.1816 0.7542
vn -0.7150 0.4329 0.5489
vn -0.8477 0.2534 0.4660
vn 0.5424 0.3097 0.7810
vn 0.5154 -0.0890 0.8523
vn 0.3015 0.1480 0.9419
vn 0.0373 -0.0086 0.9993
vn -0.2125 -0.1379 0.9674
vn 0.6294 -0.2879 0.7218
vn 0.4309 -0.4173 0.8001
vn 0.0128 0.0179 0.9998
vn -0.5790 0.4489 -0.6806
vn -0.9002 -0.1017 -0.4235
vn -0.9216 -0.2373 -0.3071
vn -0.8205 0.2656 -0.5062
vn -0.9629 0.0039 -0.2699
vn -0.9838 -0.1788 0.0078
vn -0.9901 -0.1372 -0.0282
vn -0.3515 0.7329 -0.5825
vn -0.5685 0.7196 -0.3988
vn -0.8294 -0.4816 0.2833
vn -0.8239 -0.4872 -0.2894
vn -0.6323 -0.7744 -0.0202
vn -0.3040 -0.9018 0.3072
vn -0.4675 -0.8681 0.1669
vn -0.3513 -0.8631 0.3629
vn -0.0631 -0.9097 0.4104
vn 0.0091 -0.9144 0.4047
vn -0.5989 -0.7940 0.1044
vn -0.6270 -0.7422 0.2368
vn -0.7874 -0.5128 0.3421
vn -0.5633 -0.5392 0.6260
vn 0.1944 -0.7438 0.6396
vn 0.4056 -0.7504 0.5220
vn 0.8681 0.2375 0.4359
vn 0.8110 -0.1055 0.5754
vn 0.7051 -0.3557 0.6135
vn 0.8953 0.1065 0.4326
vn 0.8126 -0.2469 0.5279
vn 0.8615 0.3942 0.3202
vn 0.8240 -0.0693 0.5624
vn 0.7769 0.5804 0.2443
vn 0.4647 -0.5918 0.6586
vn 0.5728 -0.6056 0.5524
vn 0.7916 0.3923 0.4685
vn 0.4817 0.8537 0.1982
vn 0.8182 0.5382 0.2020
vn -0.2999 0.9219 -0.2454
vn 0.3199 0.8955 -0.3095
vn -0.2630 0.8059 -0.5304
vn 0.0203 0.9318 -0.3625
vn 0.0185 0.9753 -0.2200
vn 0.3110 0.9466 -0.0852
vn -0.0711 0.7929 -0.6051
vn 0.1994 0.8840 -0.4229
vn 0.6198 0.7835 -0.0451
vn 0.5503 0.8348 0.0135
vn -0.0526 0.7079 -0.7043
vn 0.3590 0.8631 -0.3553
vn 0.5314 0.8387 -0.1190
vn 0.6255 0.7802 -0.0103
vn 0.1956 -0.5249 0.8284
vn -0.4017 -0.7980 0.4493
vn 0.7196 0.2672 0.6409
vn 0.4934 -0.2099 0.8441
vn 0.7399 0.4207 0.5250
vn 0.4943 -0.2590 0.8298
vn 0.7030 0.1003 0.7041
vn 0.2137 -0.5750 0.7898
vn 0.7900 0.2367 0.5656
vn 0.3998 -0.5859 0.7049
vn 0.7396 -0.0976 0.6659
vn -0.7080 -0.5721 -0.4140
vn 0.7854 0.4984 0.3671
vn 0.7620 0.5430 0.3528
vn -0.6992 -0.2264 -0.6782
vn -0.5731 0.1079 -0.8124
vn -0.7234 -0.1320 -0.6777
vn -0.5724 0.2278 -0.7877
vn -0.3279 0.4878 -0.8090
vn -0.6325 0.2685 -0.7265
vn -0.7208 -0.6105 -0.3282
vn -0.2069 -0.8062 0.5543
vn -0.3746 -0.8303 0.4127
vn -0.5786 -0.8140 0.0512
vn -0.1712 -0.8597 0.4813
vn -0.5605 -0.8281 -0.0050
vn -0.6292 -0.7688 0.1142
vn -0.3111 -0.9077 0.2817
vn 0.1857 -0.7268 0.6612
vn -0.2943 0.7813 0.5504
vn -0.1128 0.3585 0.9267
vn 0.1965 0.5871 0.7853
vn -0.0211 -0.0182 0.9996
vn -0.0008 0.0281 0.9996
vn -0.0665 0.9946 0.0794
vn -0.4166 0.8981 0.1412
vn 0.1492 0.9557 0.2537
vn 0.4128 0.7397 0.5314
vn 0.0732 -0.3154 0.9461
vn 0.0341 -0.5362 0.8434
vn -0.1302 -0.5763 0.8068
vn 0.0160 -0.7271 0.6864
vn -0.3329 -0.5586 0.7597
vn -0.3252 -0.5558 0.7650
vn 0.3132 -0.4568 0.8326
vn -0.4532 -0.2050 0.8675
vn -0.5400 0.0718 0.8386
vn -0.2527 -0.0595 0.9657
vn -0.6982 -0.2963 0.6517
vn -0.5521 0.4976 0.6690
vn 0.4395 -0.0753 0.8951
vn 0.6939 0.1855 0.6958
vn 0.1076 0.0595 0.9924
vn -0.3443 -0.1110 0.9323
vn -0.5499 -0.1345 0.8243
vn 0.6928 0.1842 0.6972
vn 0.6784 0.5058 0.5329
vn 0.1838 -0.2060 0.9611
vn -0.8059 0.0873 -0.5855
vn 0.4030 0.3498 0.8457
vn -0.8647 -0.2978 -0.4044
vn -0.9292 0.2580 -0.2645
vn -0.9042 0.0799 -0.4196
vn -0.7128 0.4574 -0.5317
vn -0.8514 -0.5244 -0.0112
vn -0.9785 -0.2014 -0.0445
vn -0.8111 -0.2456 -0.5308
vn -0.7547 -0.6063 -0.2507
vn -0.7090 0.0849 -0.7000
vn -0.6852 0.7284 0.0065
vn -0.4980 0.5625 -0.6600
vn -0.6474 0.5956 -0.4756
vn -0.7060 0.6469 -0.2882
vn -0.9489 0.2722 0.1599
vn 0.0596 -0.8598 0.5072
vn -0.9081 -0.1491 0.3912
vn -0.9045 -0.3894 -0.1736
vn -0.7952 -0.5881 -0.1473
vn -0.3475 -0.8494 0.3972
vn -0.4026 -0.8466 0.3481
vn -0.0657 -0.9195 0.3875
vn -0.7367 -0.6730 0.0658
vn -0.1943 -0.8531 0.4842
vn 0.4324 -0.7031 0.5645
vn 0.3663 -0.7739 0.5167
vn 0.2125 -0.8213 0.5294
vn -0.0926 -0.9103 0.4035
vn -0.4357 -0.8823 0.1782
vn -0.7426 0.0598 -0.6670
vn 0.8706 0.0979 0.4821
vn 0.7613 -0.2590 0.5945
vn 0.8552 0.4584 0.2418
vn 0.8826 -0.0451 0.4680
vn 0.7479 -0.3862 0.5399
vn 0.7820 0.5223 0.3400
vn 0.8676 0.1018 0.4867
vn 0.7180 -0.4129 0.5604
vn 0.4699 -0.6158 0.6324
vn 0.7294 -0.2205 0.6476
vn 0.8288 0.5010 0.2493
vn -0.1740 0.9364 -0.3046
vn 0.1565 0.9799 -0.1237
vn 0.3022 -0.4457 0.8426
vn 0.2518 -0.5494 0.7967
vn 0.7985 0.1805 0.5742
vn -0.7144 -0.5526 -0.4292
vn -0.1779 -0.7986 0.5750
vn -0.0276 0.9906 0.1343
vn 0.2746 0.9484 0.1588
vn 0.1816 -0.4664 0.8658
vn -0.7151 -0.4333 0.5486
vn 0.4728 -0.0934 0.8762
vn 0.7320 0.0874 0.6756
vn -0.8061 0.0865 -0.5855
vn -0.9178 0.2944 -0.2663
vn -0.8157 -0.2011 -0.5425
vn -0.7058 0.1506 -0.6923
vn -0.7156 0.6985 -0.0059
vn -0.9742 0.1753 0.1419
vn 0.0739 -0.8596 0.5057
vt 0.999999 0.999998
vt 0.968326 0.954027
vt 1.000000 1.000000
vt 0.999515 0.999389
vt 0.976645 0.927447
vt 0.904674 0.840568
vt 0.969869 0.934471
vt 0.975836 0.912840
vt 1.000000 1.000000
vt 1.000000 1.000000
vt 0.999929 0.999858
vt 0.956938 0.939527
vt 0.912236 0.872302
vt 0.990970 0.979855
vt 0.999041 0.998793
vt 0.996475 0.995561
vt 1.000000 1.000000
vt 1.000000 1.000000
vt 0.460017 0.188788
vt 0.554650 0.182016
vt 0.662748 0.158457
vt 0.388662 0.041470
vt 0.531616 0.043310
vt 0.796854 0.000979
vt 0.794132 0.000000
vt 0.784076 0.045716
vt 0.325079 0.169338
vt 0.354855 0.186051
vt 0.746309 0.016583
vt 0.761869 0.027856
vt 0.351352 0.132721
vt 0.273607 0.070629
vt 0.289370 0.041699
vt 0.219219 0.021900
vt 0.266936 0.009763
vt 0.749705 0.000025
vt 0.842474 0.768105
vt 0.585572 0.422687
vt 0.455811 0.267173
vt 0.933882 0.686961
vt 0.841452 0.548081
vt 0.816044 0.310708
vt 0.777770 0.155293
vt 0.903775 0.683097
vt 0.846311 0.426176
vt 0.819142 0.772249
vt 0.885968 0.737976
vt 0.702797 0.529403
vt 0.769296 0.538873
vt 0.702801 0.343105
vt 0.599231 0.346143
vt 0.998178 0.996429
vt 0.997336 0.996049
vt 0.997286 0.994957
vt 0.995556 0.992483
vt 0.970047 0.944689
vt 1.000000 1.000000
vt 0.999612 0.999498
vt 0.999913 0.999889
vt 0.996834 0.995722
vt 0.977960 0.971620
vt 0.994283 0.992783
vt 0.980323 0.975185
vt 0.937189 0.915841
vt 0.935313 0.917107
vt 1.000000 1.000000
vt 0.999978 0.999955
vt 1.000000 1.000000
vt 0.999973 0.999946
vt 0.999068 0.998119
vt 1.000000 1.000000
vt 0.999941 0.999926
vt 1.000000 1.000000
vt 0.999965 0.999956
vt 1.000000 1.000000
vt 0.650835 0.075875
vt 0.524979 0.103045
vt 0.391316 0.086665
vt 0.539551 0.058714
vt 0.451632 0.037279
vt 0.542603 0.015658
vt 0.288706 0.001307
vt 0.466733 0.000294
vt 0.809092 0.000021
vt 0.843410 0.000073
vt 0.279914 0.108420
vt 0.250677 0.059498
vt 0.231220 0.075948
vt 0.212223 0.039539
vt 0.197547 0.042764
vt 0.119607 0.037514
vt 0.950617 0.808201
vt 0.972045 0.875000
vt 0.981043 0.908807
vt 0.929908 0.683239
vt 0.934088 0.684067
vt 0.893902 0.552360
vt 0.879644 0.428445
vt 0.882073 0.428416
vt 0.846525 0.300645
vt 0.828393 0.173149
vt 0.829252 0.171235
vt 0.811955 0.159629
vt 0.856224 0.618632
vt 0.757980 0.298067
vt 0.688720 0.380237
vt 0.648256 0.165530
vt 0.875800 0.768692
vt 0.803680 0.715081
vt 0.510672 0.282994
vt 0.857657 0.807265
vt 0.856361 0.814691
vt 0.889263 0.859979
vt 0.742475 0.661163
vt 0.726083 0.652339
vt 0.734479 0.665853
vt 0.484682 0.340499
vt 0.447154 0.310625
vt 0.361652 0.200523
vt 0.997971 0.995931
vt 0.999999 0.999999
vt 1.000000 1.000000
vt 1.000000 1.000000
vt 0.458730 0.002325
vt 0.669888 0.000546
vt 0.469479 0.006973
vt 0.791250 0.000206
vt 0.155536 0.030962
vt 0.640900 0.022929
vt 0.269531 0.023318
vt 0.825120 0.000265
vt 0.121006 0.030195
vt 0.089480 0.053855
s 0
f 8/8/1 47/47/1 40/40/1
f 47/47/2 49/49/2 41/41/2
f 47/47/3 48/48/3 49/49/3
f 37/37/4 48/48/4 6/6/4
f 41/41/5 50/50/5 42/42/5
f 49/49/6 51/51/6 50/50/6
f 48/48/7 51/51/7 49/49/7
f 56/56/8 6/6/8 47/47/8
f 38/38/9 51/51/9 48/48/9
f 39/39/10 19/19/10 51/51/10
f 43/43/11 21/21/11 30/30/11
f 53/53/12 56/56/12 55/55/12
f 54/54/13 7/7/13 52/52/13
f 55/55/14 56/56/14 54/54/14
f 120/120/15 7/7/15 14/14/15
f 13/13/16 6/6/16 56/56/16
f 12/12/17 13/13/17 53/53/17
f 14/14/18 7/7/18 8/8/18
f 1/1/19 121/121/19 72/72/19
f 57/57/20 123/123/20 3/3/20
f 59/59/21 61/61/21 58/58/21
f 61/61/22 64/64/22 60/60/22
f 63/63/23 65/65/23 61/61/23
f 63/63/24 113/113/24 65/65/24
f 60/60/25 12/12/25 53/53/25
f 66/66/26 69/69/26 71/71/26
f 67/67/27 70/70/27 69/69/27
f 71/71/28 10/10/28 9/9/28
f 69/69/29 11/11/29 10/10/29
f 70/70/30 14/14/30 11/11/30
f 67/67/31 120/120/31 70/70/31
f 14/14/32 8/8/32 94/94/32
f 17/17/33 9/9/33 5/5/33
f 122/122/34 68/68/34 18/18/34
f 3/3/35 122/122/35 73/73/35
f 121/121/36 73/73/36 74/74/36
f 73/73/37 75/75/37 74/74/37
f 73/73/38 18/18/38 75/75/38
f 15/15/39 74/74/39 16/16/39
f 74/74/40 75/75/40 4/4/40
f 75/75/41 17/17/41 108/108/41
f 4/4/42 2/2/42 63/63/42
f 72/72/43 15/15/43 1/1/43
f 76/76/44 79/79/44 29/29/44
f 77/77/45 79/79/45 76/76/45
f 78/78/46 79/79/46 77/77/46
f 79/79/47 80/80/47 129/129/47
f 78/78/48 80/80/48 79/79/48
f 33/33/49 130/130/49 80/80/49
f 31/31/50 78/78/50 19/19/50
f 32/32/51 33/33/51 78/78/51
f 82/82/52 124/124/52 35/35/52
f 22/22/53 83/83/53 82/82/53
f 23/23/54 125/125/54 83/83/54
f 84/84/55 131/131/55 127/127/55
f 24/24/56 29/29/56 131/131/56
f 25/25/57 24/24/57 84/84/57
f 86/86/58 32/32/58 31/31/58
f 87/87/59 89/89/59 88/88/59
f 88/88/60 90/90/60 32/32/60
f 34/34/61 128/128/61 90/90/61
f 128/128/62 132/132/62 130/130/62
f 87/87/63 88/88/63 27/27/63
f 87/87/64 35/35/64 89/89/64
f 90/90/65 130/130/65 33/33/65
f 94/94/66 40/40/66 96/96/66
f 92/92/67 95/95/67 97/97/67
f 95/95/68 98/98/68 97/97/68
f 96/96/69 99/99/69 98/98/69
f 97/97/70 98/98/70 100/100/70
f 45/45/71 100/100/71 103/103/71
f 100/100/72 101/101/72 103/103/72
f 40/40/73 41/41/73 99/99/73
f 99/99/74 42/42/74 102/102/74
f 103/103/75 25/25/75 26/26/75
f 5/5/76 92/92/76 44/44/76
f 44/44/77 104/104/77 5/5/77
f 105/105/78 106/106/78 104/104/78
f 104/104/79 106/106/79 108/108/79
f 23/23/80 106/106/80 107/107/80
f 108/108/81 109/109/81 2/2/81
f 106/106/82 110/110/82 109/109/82
f 45/45/83 104/104/83 44/44/83
f 103/103/84 105/105/84 45/45/84
f 26/26/85 105/105/85 103/103/85
f 36/36/86 107/107/86 26/26/86
f 82/82/87 119/119/87 22/22/87
f 110/110/88 119/119/88 46/46/88
f 112/112/89 114/114/89 111/111/89
f 113/113/90 115/115/90 112/112/90
f 46/46/91 116/116/91 113/113/91
f 115/115/92 117/117/92 114/114/92
f 116/116/93 118/118/93 115/115/93
f 117/117/94 39/39/94 38/38/94
f 118/118/95 27/27/95 117/117/95
f 111/111/96 37/37/96 13/13/96
f 2/2/97 46/46/97 113/113/97
f 46/46/98 119/119/98 116/116/98
f 28/28/99 31/31/99 39/39/99
f 39/39/100 31/31/100 19/19/100
f 114/114/101 38/38/101 37/37/101
f 43/43/102 50/50/102 21/21/102
f 47/47/103 6/6/103 48/48/103
f 40/40/104 47/47/104 41/41/104
f 41/41/105 49/49/105 50/50/105
f 50/50/106 20/20/106 21/21/106
f 51/51/107 19/19/107 20/20/107
f 8/8/108 7/7/108 47/47/108
f 7/7/109 56/56/109 47/47/109
f 37/37/110 38/38/110 48/48/110
f 38/38/111 39/39/111 51/51/111
f 120/120/112 52/52/112 7/7/112
f 54/54/113 56/56/113 7/7/113
f 53/53/114 13/13/114 56/56/114
f 13/13/115 37/37/115 6/6/115
f 59/59/116 15/15/116 62/62/116
f 121/121/117 57/57/117 3/3/117
f 58/58/118 61/61/118 60/60/118
f 59/59/119 62/62/119 61/61/119
f 60/60/120 64/64/120 12/12/120
f 62/62/121 63/63/121 61/61/121
f 61/61/122 65/65/122 64/64/122
f 62/62/123 16/16/123 63/63/123
f 111/111/124 65/65/124 112/112/124
f 63/63/125 2/2/125 113/113/125
f 65/65/126 113/113/126 112/112/126
f 71/71/127 18/18/127 68/68/127
f 64/64/128 111/111/128 13/13/128
f 12/12/129 64/64/129 13/13/129
f 68/68/130 66/66/130 71/71/130
f 66/66/131 67/67/131 69/69/131
f 71/71/132 69/69/132 10/10/132
f 69/69/133 70/70/133 11/11/133
f 70/70/134 120/120/134 14/14/134
f 11/11/135 14/14/135 94/94/135
f 17/17/136 71/71/136 9/9/136
f 74/74/137 72/72/137 121/121/137
f 121/121/138 3/3/138 73/73/138
f 73/73/139 122/122/139 18/18/139
f 74/74/140 4/4/140 16/16/140
f 75/75/141 18/18/141 17/17/141
f 3/3/142 123/123/142 122/122/142
f 75/75/143 108/108/143 4/4/143
f 16/16/144 4/4/144 63/63/144
f 30/30/145 76/76/145 29/29/145
f 29/29/146 79/79/146 129/129/146
f 78/78/147 33/33/147 80/80/147
f 129/129/148 80/80/148 81/81/148
f 80/80/149 130/130/149 81/81/149
f 21/21/150 77/77/150 76/76/150
f 30/30/151 21/21/151 76/76/151
f 77/77/152 19/19/152 78/78/152
f 31/31/153 32/32/153 78/78/153
f 126/126/154 35/35/154 124/124/154
f 82/82/155 83/83/155 124/124/155
f 83/83/156 125/125/156 124/124/156
f 22/22/157 23/23/157 83/83/157
f 23/23/158 36/36/158 125/125/158
f 36/36/159 127/127/159 125/125/159
f 87/87/160 82/82/160 35/35/160
f 36/36/161 84/84/161 127/127/161
f 84/84/162 24/24/162 131/131/162
f 127/127/163 131/131/163 85/85/163
f 84/84/164 26/26/164 25/25/164
f 24/24/165 30/30/165 29/29/165
f 90/90/166 89/89/166 34/34/166
f 86/86/167 88/88/167 32/32/167
f 90/90/168 128/128/168 130/130/168
f 128/128/169 91/91/169 132/132/169
f 91/91/170 133/133/170 132/132/170
f 86/86/171 27/27/171 88/88/171
f 28/28/172 86/86/172 31/31/172
f 89/89/173 35/35/173 34/34/173
f 96/96/174 93/93/174 94/94/174
f 32/32/175 90/90/175 33/33/175
f 92/92/176 93/93/176 95/95/176
f 102/102/177 98/98/177 99/99/177
f 95/95/178 96/96/178 98/98/178
f 96/96/179 40/40/179 99/99/179
f 45/45/180 97/97/180 100/100/180
f 100/100/181 98/98/181 101/101/181
f 93/93/182 9/9/182 10/10/182
f 5/5/183 9/9/183 92/92/183
f 94/94/184 10/10/184 11/11/184
f 30/30/185 102/102/185 43/43/185
f 94/94/186 8/8/186 40/40/186
f 99/99/187 41/41/187 42/42/187
f 102/102/188 42/42/188 43/43/188
f 24/24/189 101/101/189 102/102/189
f 110/110/190 23/23/190 22/22/190
f 103/103/191 101/101/191 25/25/191
f 44/44/192 97/97/192 45/45/192
f 44/44/193 92/92/193 97/97/193
f 26/26/194 107/107/194 105/105/194
f 105/105/195 107/107/195 106/106/195
f 108/108/196 106/106/196 109/109/196
f 45/45/197 105/105/197 104/104/197
f 36/36/198 23/23/198 107/107/198
f 110/110/199 22/22/199 119/119/199
f 109/109/200 110/110/200 46/46/200
f 2/2/201 109/109/201 46/46/201
f 4/4/202 108/108/202 2/2/202
f 17/17/203 104/104/203 108/108/203
f 5/5/204 104/104/204 17/17/204
f 112/112/205 115/115/205 114/114/205
f 113/113/206 116/116/206 115/115/206
f 114/114/207 117/117/207 38/38/207
f 115/115/208 118/118/208 117/117/208
f 116/116/209 119/119/209 118/118/209
f 117/117/210 28/28/210 39/39/210
f 117/117/211 27/27/211 28/28/211
f 118/118/212 119/119/212 27/27/212
f 119/119/213 82/82/213 87/87/213
f 119/119/214 87/87/214 27/27/214
f 111/111/215 114/114/215 37/37/215
f 43/43/216 42/42/216 50/50/216
f 50/50/217 51/51/217 20/20/217
f 59/59/218 1/1/218 15/15/218
f 62/62/219 15/15/219 16/16/219
f 111/111/220 64/64/220 65/65/220
f 71/71/221 17/17/221 18/18/221
f 74/74/222 15/15/222 72/72/222
f 21/21/223 20/20/223 77/77/223
f 77/77/224 20/20/224 19/19/224
f 126/126/225 34/34/225 35/35/225
f 84/84/226 36/36/226 26/26/226
f 90/90/227 88/88/227 89/89/227
f 86/86/228 28/28/228 27/27/228
f 96/96/229 95/95/229 93/93/229
f 102/102/230 101/101/230 98/98/230
f 93/93/231 92/92/231 9/9/231
f 94/94/232 93/93/232 10/10/232
f 30/30/233 24/24/233 102/102/233
f 24/24/234 25/25/234 101/101/234
f 110/110/235 106/106/235 23/23/235
