# Blender 3.3.0
# www.blender.org
o GateIsland_col12
v -18.713823 14.420569 42.518616
v -58.943008 16.278963 43.356758
v -50.071228 13.918235 43.501842
v -40.012985 12.668126 42.685677
v -52.871864 3.600138 -8.941936
v -63.744904 11.590352 0.155697
v -25.905649 6.404039 30.851696
v -28.961193 1.689967 19.298056
v -33.080463 0.068944 12.997900
v -36.709141 -1.952199 4.351641
v -36.629578 -6.401930 -7.931264
v -67.779457 14.125825 8.778420
v -69.425819 16.759834 21.999525
v -66.000992 13.950947 25.564503
v -66.248360 17.109940 34.864086
v -20.764521 20.183731 47.078548
v -70.286385 35.052742 40.716511
v -70.426765 29.198406 41.080143
v -69.239265 24.269283 40.315136
v -66.189980 22.117790 43.646969
v -70.221405 27.865900 0.655578
v -69.419373 21.125593 0.472029
v -68.442627 15.962379 4.415036
v -27.750210 18.090965 47.355469
v -32.826546 20.441402 49.301628
v -31.048429 23.682085 50.047279
v -34.557968 24.846161 49.917652
v -56.774509 22.269503 49.498714
v -57.234692 20.575449 48.766342
v -62.518307 22.068750 47.286236
v -63.731525 19.286528 43.380913
v -61.517281 13.710454 34.969006
v -65.598907 11.815977 12.818872
v -61.830357 9.256303 13.012340
v -63.595524 10.464996 5.340265
v -55.018547 8.380831 25.161104
v -60.461910 9.752625 21.965336
v -53.881039 4.014993 -1.767406
v -46.908241 10.146921 36.257515
v -53.305046 10.205381 33.299492
v -47.135517 0.777553 1.190808
v -43.029667 -3.721073 -10.049747
v -41.669815 -1.095981 2.189077
v -21.598970 -9.676238 -3.591439
v -4.428554 -9.678641 4.064528
v -15.288459 -2.922537 13.384284
v -2.355304 -5.939132 11.112240
v -6.871071 1.151856 22.935331
v -71.357788 19.477768 16.773775
v -68.601936 20.018324 35.438026
v -71.762596 22.199823 9.261753
v -71.295334 22.686417 30.552340
v -72.965866 25.187590 19.902746
v -72.358917 26.453941 30.932676
v -73.026146 28.321507 14.623954
v -73.192604 29.673838 25.752535
v -71.855804 30.917114 36.272327
v -63.473820 13.510661 -4.553632
v -65.919914 25.331240 -8.123970
v -41.278824 21.952675 49.692474
v -40.367458 17.516138 48.429012
v -48.865189 17.660419 48.319477
v -56.964825 18.432119 47.119747
v -31.701475 15.076218 45.335953
v -34.077873 30.649729 49.304764
v -20.471758 28.513243 49.443481
v -22.786407 23.904091 48.962955
v -63.850189 25.933327 48.466961
v -66.614037 30.773968 47.413242
v -67.824684 27.042088 45.012341
v -5.101597 -20.327766 -11.195202
v -16.933008 -16.329033 -10.839486
v -29.036068 -13.491263 -14.094594
v -42.711437 -8.200716 -20.617496
v -47.686901 -1.227490 -13.897866
v -65.406693 17.561396 -5.569495
v -65.661728 21.254253 -7.492591
v -72.243393 29.789942 8.813259
v -72.670296 34.710842 20.688490
v -72.341225 34.156334 31.373848
v -67.039078 29.670576 -5.974545
v -7.206370 -13.409200 -2.795953
v -28.620285 29.895000 50.414730
v -23.270624 32.079018 50.106426
v -20.844305 10.662855 38.084099
v -68.414505 33.686817 45.253555
v -44.792618 19.774937 49.578545
v -37.910912 24.612856 49.073231
v -31.527763 33.267712 50.133312
vn -0.5618 -0.8273 -0.0011
vn -0.4562 -0.8872 0.0693
vn -0.3532 -0.9059 0.2336
vn -0.5685 -0.7834 0.2510
vn -0.7571 -0.6523 0.0357
vn -0.6204 -0.7699 -0.1492
vn -0.5992 -0.7997 -0.0380
vn 0.0274 -0.8696 0.4929
vn -0.0764 -0.8977 0.4340
vn -0.2454 -0.7775 0.5790
vn -0.1629 -0.9246 0.3444
vn -0.2898 -0.9005 0.3243
vn -0.9082 -0.4069 -0.0985
vn -0.8360 -0.5194 0.1772
vn -0.9874 -0.1406 -0.0722
vn -0.9873 -0.1420 0.0706
vn -0.9601 -0.1633 0.2270
vn -0.9966 0.0787 -0.0245
vn -0.9919 0.0356 0.1218
vn -0.8242 -0.5663 0.0102
vn -0.7678 -0.5293 0.3610
vn -0.9536 0.0414 0.2982
vn -0.9211 -0.3309 -0.2051
vn -0.8677 -0.2754 -0.4138
vn -0.8997 -0.0160 -0.4362
vn -0.7768 -0.5662 -0.2756
vn -0.2439 0.5020 0.8298
vn -0.0195 -0.4835 0.8751
vn 0.0960 -0.5036 0.8586
vn 0.0154 -0.7636 0.6455
vn 0.0528 -0.8160 0.5757
vn -0.4244 0.1297 0.8961
vn -0.0500 -0.0395 0.9980
vn 0.0964 -0.0963 0.9907
vn 0.1502 -0.3806 0.9125
vn -0.8231 -0.0934 0.5602
vn -0.9184 0.0464 0.3929
vn -0.8644 -0.2737 0.4219
vn -0.3477 -0.3815 0.8565
vn -0.5616 -0.8169 0.1311
vn -0.4971 -0.8405 0.2155
vn -0.3688 -0.8971 0.2431
vn -0.6808 -0.7308 -0.0504
vn -0.1892 -0.9356 0.2981
vn -0.5549 -0.8319 -0.0034
vn -0.3391 -0.9231 0.1813
vn -0.4256 -0.8976 0.1148
vn -0.1539 -0.9367 0.3144
vn -0.3480 -0.9205 0.1776
vn -0.1319 -0.9358 0.3270
vn -0.4850 -0.8585 0.1664
vn -0.0550 -0.9081 0.4151
vn -0.5506 -0.7552 0.3557
vn -0.7339 -0.6679 -0.1238
vn -0.6903 -0.7169 0.0983
vn -0.4563 -0.8241 0.3356
vn -0.6136 -0.7886 -0.0407
vn -0.5744 -0.7991 0.1774
vn -0.4406 -0.8664 0.2348
vn -0.3025 -0.8814 0.3627
vn -0.1876 -0.9024 0.3879
vn -0.2395 -0.8090 0.5369
vn -0.1149 -0.8631 0.4918
vn -0.1194 -0.8709 0.4767
vn -0.3219 -0.7936 0.5162
vn -0.2356 -0.7868 0.5705
vn -0.0875 -0.9140 0.3961
vn -0.0206 -0.8552 0.5179
vn -0.1596 -0.8955 0.4156
vn -0.9567 -0.2786 0.0846
vn -0.8948 -0.4339 0.1051
vn -0.8721 -0.4195 0.2517
vn -0.9672 -0.2511 -0.0389
vn -0.9322 -0.2632 0.2487
vn -0.9860 -0.0714 -0.1509
vn -0.9993 -0.0369 -0.0105
vn -0.9903 -0.0453 0.1312
vn -0.9847 0.1458 -0.0958
vn -0.9894 0.1406 0.0378
vn -0.9679 0.1545 0.1981
vn -0.7379 -0.6441 0.2014
vn -0.8741 -0.4807 -0.0695
vn -0.6865 -0.6302 0.3629
vn -0.9719 -0.0748 -0.2233
vn -0.8526 -0.4093 -0.3248
vn -0.9045 -0.0963 -0.4154
vn -0.7148 -0.6323 -0.2990
vn -0.0355 0.0050 0.9994
vn 0.0428 -0.3853 0.9218
vn -0.0819 -0.3767 0.9227
vn -0.0470 -0.7831 0.6201
vn -0.1726 -0.6136 0.7705
vn 0.0941 -0.6363 0.7657
vn -0.2201 -0.7923 0.5691
vn -0.4205 -0.6744 0.6069
vn -0.3683 -0.5951 0.7143
vn 0.0944 -0.7814 0.6168
vn -0.2504 0.1221 0.9604
vn -0.0889 0.0065 0.9960
vn 0.1325 -0.1296 0.9827
vn 0.2039 -0.3244 0.9237
vn 0.2005 -0.5630 0.8018
vn -0.6628 -0.3962 0.6354
vn -0.6742 -0.2323 0.7011
vn -0.8533 -0.0944 0.5129
vn -0.7905 -0.3927 0.4699
vn -0.5855 -0.5632 0.5831
vn -0.2930 -0.3112 0.9040
vn -0.5483 -0.8274 0.1213
vn -0.3304 -0.9037 0.2722
vn -0.2148 -0.9424 0.2565
vn -0.2632 -0.9361 0.2332
vn -0.0629 -0.9181 0.3913
vn -0.4886 -0.7810 0.3891
vn -0.7246 -0.6676 -0.1709
vn -0.6261 -0.7245 0.2883
vn -0.2962 -0.8986 0.3236
vn -0.2419 -0.8846 0.3986
vn -0.1886 -0.8864 0.4228
vn -0.4768 -0.8092 0.3433
vn -0.3248 -0.7916 0.5175
vn -0.0975 -0.8815 0.4620
vn -0.2861 -0.8994 0.3303
vn -0.9481 -0.3088 0.0762
vn -0.9272 -0.2861 0.2417
vn -0.7426 -0.6399 0.1976
vn -0.6877 -0.6283 0.3638
vn -0.9638 -0.1080 -0.2437
vn -0.8193 -0.4724 -0.3248
vn -0.8968 -0.1226 -0.4251
vn -0.0354 0.0045 0.9994
vn 0.0360 -0.2428 0.9694
vn -0.0858 -0.3826 0.9199
vn -0.0213 -0.7646 0.6441
vn -0.1656 -0.7583 0.6305
vn -0.4215 -0.6716 0.6094
vn 0.1269 -0.6615 0.7391
vn 0.0627 -0.1346 0.9889
vn 0.1307 -0.3664 0.9212
vn -0.6424 -0.4177 0.6425
vt 0.999999 0.000000
vt 0.200654 0.001245
vt 0.428213 0.000206
vt 0.652138 -0.000412
vt 0.441232 1.000000
vt 0.186361 1.000000
vt 0.792123 0.224211
vt 0.712359 0.421839
vt 0.667265 0.521688
vt 0.636691 0.650610
vt 0.635329 0.839366
vt 0.028430 0.830138
vt 0.002654 0.496817
vt 0.060477 0.405009
vt 0.000000 0.185743
vt 0.931618 0.000023
vt 0.068437 0.168402
vt 0.043303 0.149040
vt 0.029079 0.136636
vt 0.052341 0.053577
vt 0.163166 0.793242
vt 0.130565 0.861485
vt 0.052114 0.937965
vt 0.848596 0.000405
vt 0.778049 0.002218
vt 0.816931 0.002495
vt 0.787218 0.005384
vt 0.269531 0.023318
vt 0.255884 0.012054
vt 0.134712 0.018059
vt 0.055560 0.007194
vt 0.159905 0.180344
vt 0.107431 0.696787
vt 0.220478 0.666362
vt 0.175422 0.874809
vt 0.355295 0.395907
vt 0.233333 0.460388
vt 0.410638 0.872469
vt 0.514650 0.131771
vt 0.374548 0.202643
vt 0.514800 0.736498
vt 0.591284 0.859624
vt 0.583557 0.716997
vt 0.712538 0.732982
vt 0.813109 0.600397
vt 0.769182 0.488545
vt 0.832089 0.505464
vt 0.838486 0.369836
vt 0.014732 0.607171
vt 0.008283 0.202682
vt 0.054228 0.728423
vt 0.011106 0.321154
vt 0.027768 0.522554
vt 0.020244 0.322169
vt 0.059109 0.598830
vt 0.035417 0.413833
vt 0.038968 0.236147
vt 0.247106 0.975075
vt 0.297414 0.893882
vt 0.640900 0.022929
vt 0.640367 0.004119
vt 0.453446 0.005876
vt 0.255726 0.004834
vt 0.789188 0.000123
vt 0.825120 0.000265
vt 0.926249 0.000005
vt 0.910150 0.000064
vt 0.121006 0.030195
vt 0.089480 0.053855
vt 0.061648 0.072798
vt 0.817632 0.769091
vt 0.762946 0.803740
vt 0.701250 0.878281
vt 0.615485 1.000000
vt 0.538549 1.000000
vt 0.240528 0.944999
vt 0.274459 0.921076
vt 0.104021 0.679933
vt 0.079925 0.488002
vt 0.054700 0.319261
vt 0.284566 0.844814
vt 0.798757 0.690490
vt 0.864878 0.000165
vt 0.906859 0.000006
vt 0.889591 0.078821
vt 0.078968 0.093992
vt 0.542603 0.015658
vt 0.746309 0.016583
vt 0.843410 0.000073
s 0
f 35/35/1 34/34/1 33/33/1
f 38/38/2 41/41/2 34/34/2
f 41/41/3 42/42/3 43/43/3
f 14/14/4 32/32/4 15/15/4
f 12/12/5 33/33/5 13/13/5
f 6/6/6 38/38/6 35/35/6
f 5/5/7 42/42/7 38/38/7
f 4/4/8 7/7/8 85/85/8
f 3/3/9 39/39/9 4/4/9
f 71/71/10 82/82/10 72/72/10
f 46/46/11 8/8/11 9/9/11
f 44/44/12 10/10/12 11/11/12
f 49/49/13 51/51/13 23/23/13
f 50/50/14 52/52/14 13/13/14
f 53/53/15 55/55/15 51/51/15
f 54/54/16 56/56/16 53/53/16
f 18/18/17 57/57/17 54/54/17
f 56/56/18 79/79/18 55/55/18
f 57/57/19 80/80/19 56/56/19
f 13/13/20 49/49/20 12/12/20
f 20/20/21 19/19/21 50/50/21
f 18/18/22 17/17/22 57/57/22
f 23/23/23 51/51/23 22/22/23
f 76/76/24 22/22/24 77/77/24
f 21/21/25 81/81/25 59/59/25
f 6/6/26 23/23/26 58/58/26
f 88/88/27 60/60/27 27/27/27
f 87/87/28 62/62/28 61/61/28
f 25/25/29 61/61/29 24/24/29
f 61/61/30 4/4/30 64/64/30
f 64/64/31 4/4/31 85/85/31
f 65/65/32 27/27/32 89/89/32
f 27/27/33 26/26/33 83/83/33
f 83/83/34 26/26/34 84/84/34
f 67/67/35 24/24/35 16/16/35
f 69/69/36 86/86/36 70/70/36
f 86/86/37 17/17/37 18/18/37
f 70/70/38 18/18/38 19/19/38
f 68/68/39 30/30/39 29/29/39
f 37/37/40 33/33/40 34/34/40
f 14/14/41 37/37/41 32/32/41
f 36/36/42 32/32/42 37/37/42
f 12/12/43 35/35/43 33/33/43
f 9/9/44 36/36/44 10/10/44
f 35/35/45 38/38/45 34/34/45
f 36/36/46 37/37/46 41/41/46
f 37/37/47 34/34/47 41/41/47
f 39/39/48 40/40/48 9/9/48
f 43/43/49 36/36/49 41/41/49
f 8/8/50 39/39/50 9/9/50
f 38/38/51 42/42/51 41/41/51
f 4/4/52 39/39/52 7/7/52
f 32/32/53 31/31/53 15/15/53
f 35/35/54 23/23/54 6/6/54
f 13/13/55 33/33/55 14/14/55
f 42/42/56 74/74/56 11/11/56
f 6/6/57 5/5/57 38/38/57
f 5/5/58 75/75/58 42/42/58
f 11/11/59 43/43/59 42/42/59
f 40/40/60 2/2/60 32/32/60
f 3/3/61 40/40/61 39/39/61
f 82/82/62 45/45/62 44/44/62
f 46/46/63 45/45/63 47/47/63
f 47/47/64 48/48/64 46/46/64
f 11/11/65 73/73/65 44/44/65
f 44/44/66 72/72/66 82/82/66
f 8/8/67 48/48/67 7/7/67
f 48/48/68 85/85/68 7/7/68
f 9/9/69 44/44/69 46/46/69
f 53/53/70 52/52/70 54/54/70
f 13/13/71 52/52/71 49/49/71
f 50/50/72 19/19/72 52/52/72
f 49/49/73 53/53/73 51/51/73
f 54/54/74 19/19/74 18/18/74
f 51/51/75 55/55/75 78/78/75
f 53/53/76 56/56/76 55/55/76
f 54/54/77 57/57/77 56/56/77
f 55/55/78 79/79/78 78/78/78
f 56/56/79 80/80/79 79/79/79
f 57/57/80 17/17/80 80/80/80
f 14/14/81 50/50/81 13/13/81
f 12/12/82 49/49/82 23/23/82
f 50/50/83 31/31/83 20/20/83
f 21/21/84 51/51/84 78/78/84
f 76/76/85 23/23/85 22/22/85
f 59/59/86 22/22/86 21/21/86
f 5/5/87 6/6/87 58/58/87
f 26/26/88 60/60/88 87/87/88
f 25/25/89 87/87/89 61/61/89
f 62/62/90 28/28/90 29/29/90
f 4/4/91 62/62/91 3/3/91
f 29/29/92 63/63/92 62/62/92
f 24/24/93 61/61/93 64/64/93
f 3/3/94 63/63/94 2/2/94
f 63/63/95 31/31/95 2/2/95
f 29/29/96 30/30/96 63/63/96
f 1/1/97 64/64/97 85/85/97
f 65/65/98 88/88/98 27/27/98
f 89/89/99 27/27/99 83/83/99
f 67/67/100 84/84/100 26/26/100
f 24/24/101 26/26/101 25/25/101
f 16/16/102 24/24/102 1/1/102
f 20/20/103 68/68/103 70/70/103
f 68/68/104 69/69/104 70/70/104
f 70/70/105 86/86/105 18/18/105
f 20/20/106 70/70/106 19/19/106
f 30/30/107 20/20/107 31/31/107
f 28/28/108 68/68/108 29/29/108
f 37/37/109 14/14/109 33/33/109
f 36/36/110 40/40/110 32/32/110
f 9/9/111 40/40/111 36/36/111
f 43/43/112 10/10/112 36/36/112
f 8/8/113 7/7/113 39/39/113
f 32/32/114 2/2/114 31/31/114
f 35/35/115 12/12/115 23/23/115
f 42/42/116 75/75/116 74/74/116
f 11/11/117 10/10/117 43/43/117
f 40/40/118 3/3/118 2/2/118
f 46/46/119 44/44/119 45/45/119
f 11/11/120 74/74/120 73/73/120
f 44/44/121 73/73/121 72/72/121
f 8/8/122 46/46/122 48/48/122
f 9/9/123 10/10/123 44/44/123
f 53/53/124 49/49/124 52/52/124
f 54/54/125 52/52/125 19/19/125
f 14/14/126 15/15/126 50/50/126
f 50/50/127 15/15/127 31/31/127
f 21/21/128 22/22/128 51/51/128
f 76/76/129 58/58/129 23/23/129
f 59/59/130 77/77/130 22/22/130
f 26/26/131 27/27/131 60/60/131
f 25/25/132 26/26/132 87/87/132
f 62/62/133 87/87/133 28/28/133
f 4/4/134 61/61/134 62/62/134
f 3/3/135 62/62/135 63/63/135
f 63/63/136 30/30/136 31/31/136
f 1/1/137 24/24/137 64/64/137
f 67/67/138 66/66/138 84/84/138
f 24/24/139 67/67/139 26/26/139
f 20/20/140 30/30/140 68/68/140
