# Blender 3.3.0
# www.blender.org
o PalmTree01_col
v -0.343756 -0.480606 0.342754
v -0.248795 0.872517 0.131364
v -0.343756 -0.480606 -0.343777
v -0.248795 0.756066 -0.351399
v 0.342775 -0.480606 0.342754
v 0.247814 0.872517 0.131364
v 0.342775 -0.480606 -0.343777
v 0.247814 0.756066 -0.351399
v -0.236050 2.345713 -0.407229
v -0.236050 2.142193 -0.660758
v 0.089061 2.345713 -0.407229
v 0.089061 2.142193 -0.660758
v -0.414608 3.285873 -1.027542
v -0.414608 3.117769 -1.236952
v -0.146071 3.285873 -1.027542
v -0.146071 3.117769 -1.236952
v -0.627536 3.772027 -1.524294
v -0.627536 3.603922 -1.733705
v -0.358999 3.772027 -1.524294
v -0.358999 3.603922 -1.733705
v -0.816183 4.030475 -1.625974
v -0.816183 3.732818 -1.996769
v -0.340695 4.030475 -1.625974
v -0.340695 3.732818 -1.996769
v -0.779689 4.142292 -1.907219
v -0.779689 3.981727 -2.107238
v -0.523197 4.142292 -1.907219
v -0.523197 3.981727 -2.107238
v -0.583422 3.750446 -1.803693
v -0.583422 3.750446 -2.537868
v -0.583422 4.092820 -2.537868
v -0.583422 3.750446 -1.069518
v -0.583422 4.092820 -1.069518
v -0.583422 4.092820 -1.803693
v -1.317597 4.092820 -1.803693
v -1.317597 3.750446 -1.803693
v 0.150753 3.750446 -1.803693
v 0.150753 4.092820 -1.803693
v -0.059470 4.092820 -2.327645
v -0.059470 3.750446 -2.327645
v -0.059470 4.092820 -1.279740
v -0.059470 3.750446 -1.279740
v -1.107375 4.092820 -2.327645
v -1.107375 3.750446 -2.327645
v -1.107375 4.092820 -1.279740
v -1.107375 3.750446 -1.279740
vn -0.9971 0.0766 -0.0000
vn -0.0000 -0.0062 -1.0000
vn 0.9971 0.0766 -0.0000
vn -0.0000 0.1544 0.9880
vn -0.0000 -1.0000 -0.0000
vn -1.0000 0.0087 -0.0021
vn -0.0000 0.5507 0.8347
vn -0.0000 0.3434 0.9392
vn -0.0000 -0.2178 -0.9760
vn 0.9943 0.0828 -0.0665
vn 0.9555 0.2299 -0.1846
vn -0.0000 -0.5085 -0.8610
vn 0.9787 0.1600 -0.1285
vn -0.9876 -0.1226 0.0984
vn -0.8149 -0.4520 0.3629
vn -0.9555 -0.2299 0.1846
vn -0.0000 0.7147 0.6994
vn -0.0000 -0.7147 -0.6994
vn -0.0000 0.9292 0.3695
vn -0.0000 0.3661 0.9306
vn -0.0000 -0.8980 -0.4400
vn 0.9976 -0.0537 0.0431
vn -0.0000 0.7798 -0.6260
vn -0.0000 -0.4057 -0.9140
vn 0.8218 0.4443 -0.3567
vn -0.9905 0.1071 -0.0860
vn -0.0000 1.0000 -0.0000
vn 0.3724 -0.0000 0.9281
vn -0.3724 -0.0000 0.9281
vn 0.3724 -0.0000 -0.9281
vn -0.9281 -0.0000 0.3724
vn -0.3724 -0.0000 -0.9281
vn 0.9281 -0.0000 0.3724
vn 0.9281 -0.0000 -0.3724
vn -0.9281 -0.0000 -0.3724
vn -0.9976 0.0675 -0.0163
vn 0.9976 0.0675 -0.0163
vn -1.0000 0.0067 -0.0054
vn 0.9938 0.1080 -0.0261
vt 0.375000 0.000000
vt 0.375000 1.000000
vt 0.125000 0.750000
vt 0.625000 0.000000
vt 0.625000 1.000000
vt 0.125000 0.500000
vt 0.375000 0.250000
vt 0.625000 0.250000
vt 0.375000 0.750000
vt 0.625000 0.750000
vt 0.375000 0.500000
vt 0.625000 0.500000
vt 0.625000 1.000000
vt 0.625000 0.000000
vt 0.625000 0.250000
vt 0.625000 0.750000
vt 0.625000 0.500000
vt 0.625000 0.000000
vt 0.625000 1.000000
vt 0.625000 0.250000
vt 0.625000 0.750000
vt 0.625000 0.500000
vt 0.625000 0.000000
vt 0.625000 1.000000
vt 0.625000 0.250000
vt 0.625000 0.750000
vt 0.625000 0.500000
vt 0.625000 1.000000
vt 0.625000 0.000000
vt 0.625000 0.250000
vt 0.625000 0.750000
vt 0.625000 0.500000
vt 0.625000 1.000000
vt 0.875000 0.750000
vt 0.625000 0.000000
vt 0.875000 0.500000
vt 0.625000 0.250000
vt 0.625000 0.750000
vt 0.625000 0.500000
vt 0.500000 0.125000
vt 0.500000 0.000000
vt 0.375000 0.875000
vt 0.625000 0.875000
vt 0.500000 0.500000
vt 0.375000 0.375000
vt 0.500000 0.250000
vt 0.625000 0.375000
vt 0.500000 0.750000
vt 0.500000 0.625000
vt 0.625000 0.625000
vt 0.875000 0.625000
vt 0.375000 0.125000
vt 0.625000 0.625000
vt 0.625000 0.125000
vt 0.125000 0.625000
vt 0.375000 0.625000
vt 0.625000 1.000000
vt 0.375000 0.500000
vt 0.125000 0.500000
vt 0.375000 1.000000
vt 0.625000 0.000000
vt 0.625000 0.250000
vt 0.375000 0.750000
vt 0.375000 0.250000
vt 0.625000 0.250000
vt 0.125000 0.750000
vt 0.625000 0.500000
vt 0.625000 0.750000
vt 0.875000 0.750000
vt 0.375000 0.750000
vt 0.375000 0.000000
vt 0.625000 0.750000
vt 0.625000 0.500000
vt 0.625000 0.750000
vt 0.875000 0.500000
vt 0.625000 0.500000
vt 0.375000 0.500000
vt 0.375000 0.250000
s 0
f 1/1/1 4/8/1 3/7/1
f 3/7/2 8/12/2 7/11/2
f 8/12/3 5/9/3 7/11/3
f 6/10/4 1/2/4 5/9/4
f 7/11/5 1/3/5 3/6/5
f 2/4/6 10/15/6 4/8/6
f 9/13/7 15/21/7 13/19/7
f 2/5/8 11/16/8 9/13/8
f 4/8/9 12/17/9 8/12/9
f 6/10/10 12/17/10 11/16/10
f 16/22/11 19/26/11 15/21/11
f 10/15/12 16/22/12 12/17/12
f 11/16/13 16/22/13 15/21/13
f 9/14/14 14/20/14 10/15/14
f 18/25/15 21/29/15 22/30/15
f 14/20/16 17/23/16 18/25/16
f 13/19/17 19/26/17 17/24/17
f 14/20/18 20/27/18 16/22/18
f 21/28/19 27/38/19 25/33/19
f 17/24/20 23/31/20 21/28/20
f 18/25/21 24/32/21 20/27/21
f 20/27/22 23/31/22 19/26/22
f 26/36/23 27/38/23 28/39/23
f 22/30/24 28/39/24 24/32/24
f 24/32/25 27/38/25 23/31/25
f 22/30/26 25/35/26 26/37/26
f 29/40/5 42/65/5 32/46/5
f 44/71/5 29/40/5 36/52/5
f 43/67/27 34/49/27 31/44/27
f 41/62/28 32/45/28 42/64/28
f 33/47/29 46/77/29 32/45/29
f 34/49/27 45/74/27 33/48/27
f 29/40/5 46/78/5 36/52/5
f 31/43/30 40/60/30 30/42/30
f 45/75/31 36/53/31 46/76/31
f 43/68/32 30/42/32 44/70/32
f 40/61/5 29/40/5 30/41/5
f 38/56/33 42/66/33 37/55/33
f 39/58/27 34/49/27 38/56/27
f 34/49/27 41/63/27 38/56/27
f 39/58/34 37/55/34 40/59/34
f 35/51/35 44/72/35 36/53/35
f 1/1/36 2/4/36 4/8/36
f 3/7/2 4/8/2 8/12/2
f 8/12/37 6/10/37 5/9/37
f 6/10/4 2/5/4 1/2/4
f 7/11/5 5/9/5 1/3/5
f 2/4/38 9/14/38 10/15/38
f 9/13/7 11/16/7 15/21/7
f 2/5/8 6/10/8 11/16/8
f 4/8/9 10/15/9 12/17/9
f 6/10/39 8/12/39 12/17/39
f 16/22/11 20/27/11 19/26/11
f 10/15/12 14/20/12 16/22/12
f 11/16/13 12/17/13 16/22/13
f 9/14/14 13/18/14 14/20/14
f 18/25/15 17/23/15 21/29/15
f 14/20/16 13/18/16 17/23/16
f 13/19/17 15/21/17 19/26/17
f 14/20/18 18/25/18 20/27/18
f 21/28/19 23/31/19 27/38/19
f 17/24/20 19/26/20 23/31/20
f 18/25/21 22/30/21 24/32/21
f 20/27/22 24/32/22 23/31/22
f 26/36/23 25/34/23 27/38/23
f 22/30/24 26/37/24 28/39/24
f 24/32/25 28/39/25 27/38/25
f 22/30/26 21/29/26 25/35/26
f 29/40/5 37/54/5 42/65/5
f 44/71/5 30/41/5 29/40/5
f 43/67/27 35/50/27 34/49/27
f 41/62/28 33/47/28 32/45/28
f 33/47/29 45/73/29 46/77/29
f 34/49/27 35/50/27 45/74/27
f 29/40/5 32/46/5 46/78/5
f 31/43/30 39/57/30 40/60/30
f 45/75/31 35/51/31 36/53/31
f 43/68/32 31/43/32 30/42/32
f 40/61/5 37/54/5 29/40/5
f 38/56/33 41/63/33 42/66/33
f 39/58/27 31/44/27 34/49/27
f 34/49/27 33/48/27 41/63/27
f 39/58/34 38/56/34 37/55/34
f 35/51/35 43/69/35 44/72/35
