# Blender 3.3.0
# www.blender.org
o BuildingCol
v 12.000000 5.200000 -15.000000
v 12.000000 14.200000 -15.000000
v 12.000000 5.200000 -29.000000
v 12.000000 14.200000 -29.000000
v 23.000000 5.200000 -15.000000
v 23.000000 14.200000 -15.000000
v 23.000000 5.200000 -29.000000
v 23.000000 14.200000 -29.000000
v 12.000000 15.200000 -15.000000
v 12.000000 15.200000 -29.000000
v 23.000000 15.200000 -29.000000
v 23.000000 15.200000 -15.000000
v 23.200001 14.200000 -29.000000
v 23.200001 14.200000 -15.000000
v 23.200001 15.200000 -29.000000
v 23.200001 15.200000 -15.000000
v 12.000000 14.200000 -29.200001
v 23.000000 14.200000 -29.200001
v 12.000000 15.200000 -29.200001
v 23.000000 15.200000 -29.200001
v 23.200001 15.200000 -29.200001
v 23.200001 14.200000 -29.200001
v 11.799999 14.200000 -15.000000
v 11.799999 14.200000 -29.000000
v 11.799999 15.200000 -15.000000
v 11.799999 15.200000 -29.000000
v 11.799999 15.200000 -29.200001
v 11.799999 14.200000 -29.200001
v 23.000000 14.200000 -14.799999
v 12.000000 14.200000 -14.799999
v 23.000000 15.200000 -14.799999
v 12.000000 15.200000 -14.799999
v 11.799999 14.200000 -14.799999
v 23.200001 14.200000 -14.799999
v 23.200001 15.200000 -14.799999
v 11.799999 15.200000 -14.799999
v 12.000000 14.400000 -15.000000
v 12.000000 14.400000 -29.000000
v 23.000000 14.400000 -29.000000
v 23.000000 14.400000 -15.000000
vn -0.0000 -0.0000 -1.0000
vn -0.0000 -0.0000 1.0000
vn -0.0000 -1.0000 -0.0000
vn -0.0000 1.0000 -0.0000
vn 1.0000 -0.0000 -0.0000
vn -1.0000 -0.0000 -0.0000
vt 0.378948 0.000000
vt 0.378948 0.236842
vt 0.373684 0.994738
vt 0.289474 0.163157
vt 0.005262 0.994738
vt 0.289474 0.400000
vt 0.668423 0.000000
vt 0.373684 0.705263
vt 0.668423 0.236842
vt 0.000000 0.163157
vt 0.000000 0.400000
vt 0.005262 0.705263
vt 0.957895 0.031579
vt 0.373684 0.405264
vt 0.000000 0.044736
vt 0.368421 0.044736
vt 0.005262 0.405264
vt 0.668421 0.052632
vt 0.957895 0.052632
vt 0.005262 0.694738
vt 0.000000 0.023685
vt 0.368422 0.023685
vt 0.668421 0.031579
vt 0.373684 0.694738
vt 0.005262 0.700001
vt 0.373684 0.071054
vt 0.005263 0.071054
vt 0.373684 0.700001
vt 0.373684 0.097369
vt 0.005262 0.700001
vt 0.373684 0.700001
vt 0.005263 0.097369
vt 0.000000 0.994738
vt 0.963158 0.078948
vt 0.673683 0.078948
vt 0.000000 0.705263
vt 0.963158 0.105264
vt 0.000000 0.405264
vt 0.000000 0.694738
vt 0.673683 0.105264
vt 0.000000 0.700001
vt 0.668421 0.105264
vt 0.378947 0.097369
vt 0.668421 0.078948
vt 0.000000 0.700001
vt 0.378947 0.071054
vt 0.373684 1.000000
vt 0.373684 0.044736
vt 0.005262 0.044736
vt 0.005262 1.000000
vt 0.373684 0.071052
vt 0.373684 0.400002
vt 0.005262 0.071052
vt 0.005262 0.400002
vt 0.000000 0.071052
vt 0.000000 0.400002
vt 0.968420 0.105264
vt 0.000000 0.044736
vt 0.968420 0.078948
vt 0.000000 1.000000
vt 0.963158 0.052632
vt 0.378948 0.705263
vt 0.673683 0.052632
vt 0.378948 0.994738
vt 0.963158 0.078948
vt 0.378948 0.694738
vt 0.378948 0.405264
vt 0.673683 0.078948
vt 0.668421 0.052632
vt 0.378948 0.044736
vt 0.378948 1.000000
vt 0.378948 0.700001
vt 0.968420 0.052632
vt 0.000000 0.071054
vt 0.968420 0.078948
vt 0.000000 0.097369
vt 0.378948 0.700001
vt 0.378948 0.400002
vt 0.668421 0.078948
vt 0.378948 0.071052
vt 0.957895 0.010527
vt 0.747370 0.710526
vt 0.000000 0.023684
vt 0.378948 0.710526
vt 0.668421 0.031580
vt 0.368421 0.023684
vt 0.378948 1.000000
vt 0.957895 0.031580
vt 0.000000 0.002632
vt 0.668421 0.010527
vt 0.747370 1.000000
vt 0.368422 0.002632
s 0
f 4/6/1 7/10/1 3/4/1
f 6/9/2 1/1/2 5/7/2
f 14/28/3 29/62/3 6/8/3
f 12/23/1 37/81/1 9/13/1
f 9/14/4 31/66/4 12/24/4
f 11/20/4 19/38/4 10/17/4
f 25/52/4 32/67/4 9/14/4
f 13/26/5 16/32/5 14/27/5
f 12/24/4 15/30/4 11/20/4
f 8/12/3 14/28/3 6/8/3
f 15/30/4 20/39/4 11/20/4
f 17/34/1 20/40/1 18/35/1
f 20/40/1 22/44/1 18/35/1
f 8/12/3 22/45/3 13/25/3
f 4/5/3 18/36/3 8/12/3
f 13/26/5 21/43/5 15/29/5
f 2/3/3 24/50/3 4/5/3
f 23/48/6 26/53/6 24/49/6
f 26/53/6 28/58/6 24/49/6
f 19/38/4 26/54/4 10/17/4
f 10/17/4 25/52/4 9/14/4
f 17/34/1 27/57/1 19/37/1
f 4/5/3 28/60/3 17/33/3
f 32/68/2 33/69/2 30/63/2
f 29/61/2 32/68/2 30/63/2
f 29/61/2 35/75/2 31/65/2
f 6/8/3 30/64/3 2/3/3
f 16/32/5 34/74/5 14/27/5
f 23/48/6 36/80/6 25/51/6
f 12/24/4 35/77/4 16/31/4
f 2/3/3 33/71/3 23/47/3
f 38/84/4 40/91/4 39/87/4
f 10/18/2 39/88/2 11/19/2
f 11/21/6 40/92/6 12/22/6
f 9/15/5 38/86/5 10/16/5
f 8/12/5 5/7/5 7/10/5
f 2/3/6 3/4/6 1/1/6
f 4/6/1 8/11/1 7/10/1
f 6/9/2 2/2/2 1/1/2
f 14/28/3 34/72/3 29/62/3
f 12/23/1 40/90/1 37/81/1
f 9/14/4 32/67/4 31/66/4
f 11/20/4 20/39/4 19/38/4
f 25/52/4 36/78/4 32/67/4
f 13/26/5 15/29/5 16/32/5
f 12/24/4 16/31/4 15/30/4
f 8/12/3 13/25/3 14/28/3
f 15/30/4 21/41/4 20/39/4
f 17/34/1 19/37/1 20/40/1
f 20/40/1 21/42/1 22/44/1
f 8/12/3 18/36/3 22/45/3
f 4/5/3 17/33/3 18/36/3
f 13/26/5 22/46/5 21/43/5
f 2/3/3 23/47/3 24/50/3
f 23/48/6 25/51/6 26/53/6
f 26/53/6 27/55/6 28/58/6
f 19/38/4 27/56/4 26/54/4
f 10/17/4 26/54/4 25/52/4
f 17/34/1 28/59/1 27/57/1
f 4/5/3 24/50/3 28/60/3
f 32/68/2 36/79/2 33/69/2
f 29/61/2 31/65/2 32/68/2
f 29/61/2 34/73/2 35/75/2
f 6/8/3 29/62/3 30/64/3
f 16/32/5 35/76/5 34/74/5
f 23/48/6 33/70/6 36/80/6
f 12/24/4 31/66/4 35/77/4
f 2/3/3 30/64/3 33/71/3
f 38/84/4 37/82/4 40/91/4
f 10/18/2 38/85/2 39/88/2
f 11/21/6 39/89/6 40/92/6
f 9/15/5 37/83/5 38/86/5
f 8/12/5 6/9/5 5/7/5
f 2/3/6 4/6/6 3/4/6
