# Blender 3.3.0
# www.blender.org
o LampPost
v -0.029391 0.300000 0.029391
v -0.029391 2.500000 0.029391
v -0.029391 0.300000 -0.029391
v -0.029391 2.500000 -0.029391
v 0.029391 0.300000 0.029391
v 0.029391 2.500000 0.029391
v 0.029391 0.300000 -0.029391
v 0.029391 2.500000 -0.029391
v -0.000000 0.300000 -0.040300
v -0.000000 2.500000 -0.040300
v -0.000000 0.300000 0.040300
v -0.000000 2.500000 0.040300
v -0.040300 0.300000 0.000000
v -0.040300 2.500000 0.000000
v 0.040300 0.300000 0.000000
v 0.040300 2.500000 0.000000
v 0.100000 0.300000 -0.100000
v 0.200000 0.000000 -0.200000
v 0.100000 0.300000 0.100000
v 0.200000 0.000000 0.200000
v -0.100000 0.300000 -0.100000
v -0.200000 0.000000 -0.200000
v -0.100000 0.300000 0.100000
v -0.200000 0.000000 0.200000
v 0.022250 2.900001 -0.022250
v 0.022250 2.900001 0.022250
v -0.022250 2.900001 -0.022250
v -0.022250 2.900001 0.022250
v -0.148678 2.740000 0.148678
v -0.148678 2.740000 -0.148678
v 0.148678 2.740000 0.148678
v 0.148678 2.740000 -0.148678
v 0.126764 2.740000 -0.126764
v 0.069311 2.500000 -0.069311
v 0.126764 2.740000 0.126764
v 0.069311 2.500000 0.069311
v -0.126764 2.740000 -0.126764
v -0.069311 2.500000 -0.069311
v -0.126764 2.740000 0.126764
v -0.069311 2.500000 0.069311
v 0.061372 2.509725 0.071639
v 0.114168 2.730275 0.124436
v -0.114168 2.730275 0.124436
v -0.061372 2.509725 0.071639
v 0.071639 2.509725 -0.061372
v 0.124436 2.730275 -0.114168
v 0.124436 2.730275 0.114168
v 0.071639 2.509725 0.061372
v -0.061372 2.509725 -0.071639
v -0.114168 2.730275 -0.124436
v 0.114168 2.730275 -0.124436
v 0.061372 2.509725 -0.071639
v -0.071639 2.509725 0.061372
v -0.124436 2.730275 0.114168
v -0.124436 2.730275 -0.114168
v -0.071639 2.509725 -0.061372
v -0.061372 2.512213 0.061247
v -0.114168 2.732762 0.114044
v 0.061247 2.512213 -0.061372
v 0.061247 2.512213 0.061372
v 0.114044 2.732762 0.114168
v -0.061372 2.512213 -0.061247
v -0.082157 2.752762 -0.082247
v 0.114168 2.732762 -0.114044
v 0.082247 2.752762 -0.082157
v 0.082157 2.752762 0.082247
v -0.082247 2.752762 0.082157
v -0.114044 2.732762 -0.114168
vn -1.0000 -0.0000 -0.0000
vn -0.7071 -0.0000 -0.7071
vn -0.0000 -0.0000 -1.0000
vn 0.7071 -0.0000 -0.7071
vn 1.0000 -0.0000 -0.0000
vn 0.7071 -0.0000 0.7071
vn -0.0000 -0.0000 1.0000
vn -0.7071 -0.0000 0.7071
vn -0.0000 1.0000 -0.0000
vn -0.9487 0.3162 -0.0000
vn -0.0000 -1.0000 -0.0000
vn 0.9487 0.3162 -0.0000
vn -0.0000 0.3162 -0.9487
vn -0.0000 0.3162 0.9487
vn 0.9741 0.2199 -0.0530
vn 0.9739 0.2177 -0.0642
vn 0.9741 0.2200 -0.0527
vn -0.0002 0.9725 0.2330
vn 0.0784 0.9937 0.0799
vn -0.0799 0.9937 0.0783
vn 0.0530 0.2199 0.9741
vn 0.0642 0.2177 0.9739
vn 0.0527 0.2200 0.9741
vn -0.7846 0.6200 -0.0000
vn 0.7846 0.6200 -0.0000
vn -0.0000 0.6200 0.7846
vn -0.9739 0.2177 0.0646
vn -0.0000 0.6200 -0.7846
vn -0.0000 -0.2328 0.9725
vn 0.9725 -0.2328 -0.0000
vn -0.0000 -0.2328 -0.9725
vn -0.9725 -0.2328 -0.0000
vn 0.1763 -0.9681 0.1780
vn 0.2125 -0.9538 -0.2123
vn 0.1780 -0.9681 -0.1763
vn -0.2123 -0.9538 -0.2125
vn -0.1763 -0.9681 -0.1780
vn -0.2125 -0.9538 0.2123
vn -0.1780 -0.9681 0.1763
vn 0.0784 0.9937 -0.0799
vn 0.2328 0.9725 -0.0000
vn -0.0646 0.2177 -0.9739
vn 0.0001 -0.9725 -0.2329
vn -0.0000 -0.9719 -0.2355
vn -0.0002 0.9725 -0.2330
vn -0.0000 0.9719 -0.2355
vn -0.2329 -0.9725 -0.0001
vn -0.2355 -0.9719 -0.0000
vn -0.2355 0.9719 -0.0000
vn -0.0799 0.9937 -0.0783
vn 0.9740 0.2205 0.0528
vn -0.0001 -0.9725 0.2329
vn -0.0000 -0.9719 0.2355
vn 0.0528 0.2205 -0.9740
vn 0.2329 -0.9725 0.0001
vn 0.2355 -0.9719 -0.0000
vn -0.9738 0.2209 -0.0532
vn -0.9739 0.2178 -0.0642
vn -0.9738 0.2210 -0.0529
vn -0.0532 0.2209 0.9738
vn -0.0642 0.2178 0.9739
vn -0.0529 0.2210 0.9738
vn 0.2123 -0.9538 0.2125
vn 0.9739 0.2177 -0.0646
vn -0.0000 0.9719 0.2355
vn 0.0645 0.2177 0.9739
vn -0.9739 0.2177 -0.0646
vn -0.0646 0.2177 0.9739
vt 0.261589 0.999774
vt 0.209059 0.999074
vt 0.209059 0.000000
vt 0.261589 0.000627
vt 0.235332 0.999774
vt 0.287846 0.999147
vt 0.287846 0.000000
vt 0.235332 0.000627
vt 0.182785 0.999696
vt 0.235332 0.999074
vt 0.235332 0.000000
vt 0.182785 0.000622
vt 0.209059 0.999696
vt 0.261589 0.999147
vt 0.261589 0.000000
vt 0.209059 0.000622
vt 0.249512 1.000000
vt 0.249512 0.000853
vt 0.196959 0.999928
vt 0.196959 0.000854
vt 0.275769 1.000000
vt 0.275769 0.000853
vt 0.223233 0.999928
vt 0.223233 0.000854
vt 0.429225 0.519261
vt 0.000000 0.323075
vt 0.287846 0.229784
vt 0.141397 0.361622
vt 0.182785 0.000000
vt 0.429225 0.178836
vt 0.429225 0.610654
vt 0.000000 0.233656
vt 0.429243 0.038547
vt 0.287846 0.000000
vt 0.182785 0.182785
vt 0.141397 0.182785
vt 0.520618 0.519261
vt 0.429225 0.485333
vt 0.287846 0.319145
vt 0.000000 0.000000
vt 0.429225 0.357559
vt 0.287846 0.536281
vt 0.520618 0.610654
vt 0.429225 0.395972
vt 0.429243 0.127965
vt 0.287846 0.357559
vt 0.000000 0.182785
vt 0.287846 0.178836
vt 0.160532 0.287966
vt 0.535199 0.512074
vt 0.535239 0.066790
vt 0.160532 0.308300
vt 0.535199 0.492179
vt 0.535198 0.379129
vt 0.622133 0.225771
vt 0.180867 0.287966
vt 0.535239 0.086673
vt 0.622132 0.205889
vt 0.180867 0.308300
vt 0.535198 0.359233
vt 0.614410 0.292561
vt 0.542950 0.159701
vt 0.000000 0.361622
vt 0.542950 0.292561
vt 0.614422 0.132861
vt 0.135881 0.361622
vt 0.614410 0.425507
vt 0.000000 0.497503
vt 0.614422 0.000000
vt 0.614410 0.558452
vt 0.135881 0.497503
vt 0.125867 0.487489
vt 0.535199 0.405911
vt 0.429243 0.000000
vt 0.169342 0.560848
vt 0.429225 0.423626
vt 0.535239 0.033741
vt 0.010014 0.487489
vt 0.535199 0.292561
vt 0.535199 0.519261
vt 0.105996 0.560848
vt 0.429225 0.310277
vt 0.429225 0.485603
vt 0.125867 0.371636
vt 0.429243 0.113278
vt 0.105996 0.610780
vt 0.169342 0.497503
vt 0.535239 0.095679
vt 0.000000 0.577039
vt 0.010014 0.371636
vt 0.535199 0.405911
vt 0.105996 0.497503
vt 0.105996 0.497503
vt 0.429225 0.372254
vt 0.000000 0.515102
vt 0.151011 0.288941
vt 0.490024 0.113278
vt 0.433520 0.314149
vt 0.542950 0.183528
vt 0.151011 0.182785
vt 0.530904 0.297870
vt 0.165284 0.182967
vt 0.530905 0.399957
vt 0.542950 0.287870
vt 0.433935 0.113278
vt 0.433520 0.369027
vt 0.165284 0.287966
vt 0.146204 0.182843
vt 0.433520 0.427499
vt 0.494716 0.174059
vt 0.433917 0.178836
vt 0.146204 0.288998
vt 0.530905 0.411220
vt 0.174785 0.182971
vt 0.530905 0.513307
vt 0.538258 0.178836
vt 0.494716 0.117969
vt 0.433520 0.482377
vt 0.174785 0.287949
vt 0.151011 0.182844
vt 0.530944 0.091804
vt 0.433935 0.178751
vt 0.429225 0.287870
vt 0.151011 0.288998
vt 0.433538 0.107977
vt 0.433538 0.005955
vt 0.429225 0.183528
vt 0.182785 0.182971
vt 0.490024 0.178751
vt 0.530944 0.036962
vt 0.182785 0.287949
vt 0.155772 0.288941
vt 0.004295 0.518976
vt 0.429243 0.117969
vt 0.538258 0.292561
vt 0.101701 0.502803
vt 0.155772 0.182785
vt 0.101701 0.604825
vt 0.433917 0.292561
vt 0.170036 0.182967
vt 0.429243 0.174059
vt 0.004295 0.573819
vt 0.170036 0.287966
vt 0.160532 0.288996
vt 0.433935 0.118026
vt 0.160532 0.287784
vt 0.160532 0.182785
vt 0.538201 0.287870
vt 0.141397 0.182785
vt 0.489968 0.174059
vt 0.178104 0.287756
vt 0.155772 0.288996
vt 0.489968 0.117969
vt 0.170036 0.287764
vt 0.155772 0.182840
vt 0.538258 0.183585
vt 0.170036 0.182785
vt 0.146204 0.182785
vt 0.433935 0.174002
vt 0.165351 0.287777
vt 0.448504 0.273242
vt 0.178037 0.182785
vt 0.141441 0.288944
vt 0.433974 0.183528
vt 0.448545 0.198115
vt 0.523671 0.198156
vt 0.523630 0.273283
vt 0.165284 0.182785
vt 0.146248 0.288945
vt 0.433917 0.287813
s 1
f 14/22/1 3/6/2 13/21/1
f 10/18/3 7/14/4 9/17/3
f 16/24/5 5/10/6 15/23/5
f 12/20/7 1/2/8 11/19/7
f 21/37/9 19/31/9 17/25/9
f 23/44/10 22/42/10 24/46/10
f 18/29/11 24/47/11 22/40/11
f 17/26/12 20/36/12 18/28/12
f 6/12/6 11/19/7 5/9/6
f 4/8/2 9/17/3 3/5/2
f 21/39/13 18/30/13 22/41/13
f 19/33/14 24/48/14 20/34/14
f 8/16/4 15/23/5 7/13/4
f 2/4/8 13/21/1 1/1/8
f 34/75/11 40/93/11 38/87/11
f 49/120/15 68/169/16 62/158/17
f 44/105/18 60/153/19 57/145/20
f 45/108/21 64/163/22 59/149/23
f 29/62/24 27/55/24 30/64/24
f 27/56/9 26/52/9 25/49/9
f 32/70/25 26/53/25 31/67/25
f 39/90/11 30/66/11 37/84/11
f 31/67/26 28/60/26 29/61/26
f 33/72/11 31/68/11 35/78/11
f 35/78/11 29/63/11 39/90/11
f 42/100/27 60/152/27 41/96/27
f 30/65/28 25/51/28 32/69/28
f 37/84/11 32/71/11 33/72/11
f 36/82/29 42/101/29 41/98/29
f 39/91/29 42/101/29 35/79/29
f 40/94/29 43/103/29 39/91/29
f 36/82/29 44/106/29 40/94/29
f 34/76/30 46/113/30 45/109/30
f 35/80/30 46/113/30 33/73/30
f 36/83/30 47/115/30 35/80/30
f 34/76/30 48/118/30 36/83/30
f 38/88/31 50/125/31 49/121/31
f 33/74/31 50/125/31 37/85/31
f 34/77/31 51/126/31 33/74/31
f 38/88/31 52/130/31 34/77/31
f 40/95/32 54/136/32 53/133/32
f 37/86/32 54/136/32 39/92/32
f 38/89/32 55/138/32 37/86/32
f 40/95/32 56/142/32 38/89/32
f 68/170/33 67/167/34 58/148/35
f 58/148/35 66/166/36 61/156/37
f 61/156/37 65/165/38 64/164/39
f 59/150/40 57/145/20 60/153/19
f 45/110/41 60/153/19 48/117/41
f 54/137/42 57/144/42 53/132/42
f 43/104/43 61/156/37 42/99/44
f 49/122/45 59/150/40 52/129/46
f 47/116/47 64/164/39 46/111/48
f 53/134/49 62/159/50 56/141/49
f 44/107/51 58/147/51 43/102/51
f 51/127/52 68/170/33 50/123/53
f 48/119/54 61/157/54 47/114/54
f 55/139/55 58/148/35 54/135/56
f 51/128/57 59/151/58 64/162/59
f 55/140/60 62/160/61 68/168/62
f 64/164/39 63/161/63 68/170/33
f 63/161/63 66/166/36 67/167/34
f 14/22/1 4/7/2 3/6/2
f 10/18/3 8/15/4 7/14/4
f 16/24/5 6/11/6 5/10/6
f 12/20/7 2/3/8 1/2/8
f 21/37/9 23/43/9 19/31/9
f 23/44/10 21/38/10 22/42/10
f 18/29/11 20/35/11 24/47/11
f 17/26/12 19/32/12 20/36/12
f 6/12/6 12/20/7 11/19/7
f 4/8/2 10/18/3 9/17/3
f 21/39/13 17/27/13 18/30/13
f 19/33/14 23/45/14 24/48/14
f 8/16/4 16/24/5 15/23/5
f 2/4/8 14/22/1 13/21/1
f 34/75/11 36/81/11 40/93/11
f 49/120/15 50/124/64 68/169/16
f 44/105/18 41/97/65 60/153/19
f 45/108/21 46/112/66 64/163/22
f 29/62/24 28/58/24 27/55/24
f 27/56/9 28/59/9 26/52/9
f 32/70/25 25/50/25 26/53/25
f 39/90/11 29/63/11 30/66/11
f 31/67/26 26/54/26 28/60/26
f 33/72/11 32/71/11 31/68/11
f 35/78/11 31/68/11 29/63/11
f 42/100/27 61/155/27 60/152/27
f 30/65/28 27/57/28 25/51/28
f 37/84/11 30/66/11 32/71/11
f 36/82/29 35/79/29 42/101/29
f 39/91/29 43/103/29 42/101/29
f 40/94/29 44/106/29 43/103/29
f 36/82/29 41/98/29 44/106/29
f 34/76/30 33/73/30 46/113/30
f 35/80/30 47/115/30 46/113/30
f 36/83/30 48/118/30 47/115/30
f 34/76/30 45/109/30 48/118/30
f 38/88/31 37/85/31 50/125/31
f 33/74/31 51/126/31 50/125/31
f 34/77/31 52/130/31 51/126/31
f 38/88/31 49/121/31 52/130/31
f 40/95/32 39/92/32 54/136/32
f 37/86/32 55/138/32 54/136/32
f 38/89/32 56/142/32 55/138/32
f 40/95/32 53/133/32 56/142/32
f 68/170/33 63/161/63 67/167/34
f 58/148/35 67/167/34 66/166/36
f 61/156/37 66/166/36 65/165/38
f 59/150/40 62/159/50 57/145/20
f 45/110/41 59/150/40 60/153/19
f 54/137/42 58/147/42 57/144/42
f 43/104/43 58/148/35 61/156/37
f 49/122/45 62/159/50 59/150/40
f 47/116/47 61/156/37 64/164/39
f 53/134/49 57/145/20 62/159/50
f 44/107/51 57/146/51 58/147/51
f 51/127/52 64/164/39 68/170/33
f 48/119/54 60/154/54 61/157/54
f 55/139/55 68/170/33 58/148/35
f 51/128/57 52/131/67 59/151/58
f 55/140/60 56/143/68 62/160/61
f 64/164/39 65/165/38 63/161/63
f 63/161/63 65/165/38 66/166/36
