# Blender 3.3.0
# www.blender.org
o SpawnPointMarble
v -0.253730 -0.200000 0.253730
v -0.253730 1.400000 0.253730
v -0.253730 -0.200000 -0.253730
v -0.253730 1.400000 -0.253730
v 0.253730 -0.200000 0.253730
v 0.253730 1.400000 0.253730
v 0.253730 -0.200000 -0.253730
v 0.253730 1.400000 -0.253730
v -0.253730 0.121178 0.253730
v -0.126417 0.700000 0.126417
v -0.253730 1.278822 0.253730
v -0.253730 1.278822 -0.253730
v -0.126417 0.700000 -0.126417
v -0.253730 0.121178 -0.253730
v 0.253730 1.278822 -0.253730
v 0.126417 0.700000 -0.126417
v 0.253730 0.121178 -0.253730
v 0.253730 1.278822 0.253730
v 0.126417 0.700000 0.126417
v 0.253730 0.121178 0.253730
v -0.153192 0.209087 0.153192
v -0.153192 0.209087 -0.153192
v 0.153192 0.209087 -0.153192
v 0.153192 0.209087 0.153192
v -0.153192 1.190913 0.153192
v -0.153192 1.190913 -0.153192
v 0.153192 1.190913 -0.153192
v 0.153192 1.190913 0.153192
v -0.133222 0.945457 -0.133222
v 0.133222 0.945457 -0.133222
v 0.133222 0.945457 0.133222
v -0.133222 0.945457 0.133222
v -0.133222 0.454543 0.133222
v -0.133222 0.454543 -0.133222
v 0.133222 0.454543 -0.133222
v 0.133222 0.454543 0.133222
v -0.253730 1.319215 0.253730
v -0.253730 1.359607 0.253730
v -0.253730 1.359607 -0.253730
v -0.253730 1.319215 -0.253730
v 0.253730 1.359607 -0.253730
v 0.253730 1.319215 -0.253730
v 0.253730 1.359607 0.253730
v 0.253730 1.319215 0.253730
v 0.031679 -0.200000 -0.253730
v -0.031679 -0.200000 -0.253730
v -0.031679 -0.200000 0.253730
v 0.031679 -0.200000 0.253730
v 0.031679 0.121178 0.253730
v -0.031679 0.121178 0.253730
v 0.031679 0.700000 0.126417
v -0.031679 0.700000 0.126417
v 0.031679 1.278822 0.253730
v -0.031679 1.278822 0.253730
v -0.031679 0.121178 -0.253730
v 0.031679 0.121178 -0.253730
v -0.031679 0.700000 -0.126417
v 0.031679 0.700000 -0.126417
v -0.031679 1.278822 -0.253730
v 0.031679 1.278822 -0.253730
v -0.031679 0.209087 -0.153192
v 0.031679 0.209087 -0.153192
v 0.031679 0.209087 0.153192
v -0.031679 0.209087 0.153192
v -0.031679 1.190913 -0.153192
v 0.031679 1.190913 -0.153192
v 0.031679 1.190913 0.153192
v -0.031679 1.190913 0.153192
v 0.031679 0.945457 0.133222
v -0.031679 0.945457 0.133222
v -0.031679 0.945457 -0.133222
v 0.031679 0.945457 -0.133222
v -0.031679 0.454543 -0.133222
v 0.031679 0.454543 -0.133222
v 0.031679 0.454543 0.133222
v -0.031679 0.454543 0.133222
v 0.031679 1.319215 0.253730
v -0.031679 1.319215 0.253730
v -0.031679 1.319215 -0.253730
v 0.031679 1.319215 -0.253730
v -0.253730 -0.200000 -0.031679
v -0.253730 -0.200000 0.031679
v 0.253730 -0.200000 0.031679
v 0.253730 -0.200000 -0.031679
v 0.253730 0.121178 -0.031679
v 0.253730 0.121178 0.031679
v 0.126417 0.700000 -0.031679
v 0.126417 0.700000 0.031679
v 0.253730 1.278822 -0.031679
v 0.253730 1.278822 0.031679
v -0.253730 0.121178 0.031679
v -0.253730 0.121178 -0.031679
v -0.126417 0.700000 0.031679
v -0.126417 0.700000 -0.031679
v -0.253730 1.278822 0.031679
v -0.253730 1.278822 -0.031679
v -0.153192 0.209087 0.031679
v -0.153192 0.209087 -0.031679
v 0.153192 0.209087 -0.031679
v 0.153192 0.209087 0.031679
v -0.153192 1.190913 0.031679
v -0.153192 1.190913 -0.031679
v 0.153192 1.190913 -0.031679
v 0.153192 1.190913 0.031679
v 0.133222 0.945457 -0.031679
v 0.133222 0.945457 0.031679
v -0.133222 0.945457 0.031679
v -0.133222 0.945457 -0.031679
v -0.133222 0.454543 0.031679
v -0.133222 0.454543 -0.031679
v 0.133222 0.454543 -0.031679
v 0.133222 0.454543 0.031679
v 0.253730 1.319215 -0.031679
v 0.253730 1.319215 0.031679
v -0.253730 1.319215 0.031679
v -0.253730 1.319215 -0.031679
v -0.031679 1.278822 -0.090074
v -0.031679 0.700000 -0.090074
v -0.031679 0.121178 -0.090074
v -0.031679 -0.200000 -0.090074
v -0.031679 0.209087 -0.090074
v -0.031679 1.190913 -0.090074
v -0.031679 0.945457 -0.090074
v -0.031679 0.454543 -0.090074
v -0.031679 1.319215 -0.090074
v 0.031679 -0.200000 -0.090074
v 0.031679 0.121178 -0.090074
v 0.031679 0.700000 -0.090074
v 0.031679 1.278822 -0.090074
v 0.031679 0.209087 -0.090074
v 0.031679 1.190913 -0.090074
v 0.031679 0.945457 -0.090074
v 0.031679 0.454543 -0.090074
v 0.031679 1.319215 -0.090074
v 0.090074 -0.200000 -0.031679
v 0.090074 0.121178 -0.031679
v 0.090074 0.700000 -0.031679
v 0.090074 1.278822 -0.031679
v 0.090074 0.209087 -0.031679
v 0.090074 1.190913 -0.031679
v 0.090074 0.945457 -0.031679
v 0.090074 0.454543 -0.031679
v 0.090074 1.319215 -0.031679
v 0.090074 -0.200000 0.031679
v 0.090074 0.121178 0.031679
v 0.090074 0.700000 0.031679
v 0.090074 1.278822 0.031679
v 0.090074 0.209087 0.031679
v 0.090074 1.190913 0.031679
v 0.090074 0.945457 0.031679
v 0.090074 0.454543 0.031679
v 0.090074 1.319215 0.031679
v 0.031679 -0.200000 0.090074
v 0.031679 0.121178 0.090074
v 0.031679 0.700000 0.090074
v 0.031679 1.278822 0.090074
v 0.031679 0.209087 0.090074
v 0.031679 1.190913 0.090074
v 0.031679 0.945457 0.090074
v 0.031679 0.454543 0.090074
v 0.031679 1.319215 0.090074
v -0.031679 -0.200000 0.090074
v -0.031679 0.121178 0.090074
v -0.031679 0.700000 0.090074
v -0.031679 1.278822 0.090074
v -0.031679 0.209087 0.090074
v -0.031679 1.190913 0.090074
v -0.031679 0.945457 0.090074
v -0.031679 0.454543 0.090074
v -0.031679 1.319215 0.090074
v -0.090074 -0.200000 0.031679
v -0.090074 0.121178 0.031679
v -0.090074 0.700000 0.031679
v -0.090074 1.278822 0.031679
v -0.090074 0.209087 0.031679
v -0.090074 1.190913 0.031679
v -0.090074 0.945457 0.031679
v -0.090074 0.454543 0.031679
v -0.090074 1.319215 0.031679
v -0.090074 -0.200000 -0.031679
v -0.090074 0.121178 -0.031679
v -0.090074 0.700000 -0.031679
v -0.090074 1.278822 -0.031679
v -0.090074 0.209087 -0.031679
v -0.090074 1.190913 -0.031679
v -0.090074 0.945457 -0.031679
v -0.090074 0.454543 -0.031679
v -0.090074 1.319215 -0.031679
vn -1.0000 -0.0000 -0.0000
vn -0.0000 -0.0000 -1.0000
vn 1.0000 -0.0000 -0.0000
vn -0.0000 -0.0000 1.0000
vn -0.0000 1.0000 -0.0000
vn -0.0000 0.0544 0.9985
vn -0.0000 0.0553 0.9985
vn -0.0000 -0.7528 0.6582
vn 0.9985 0.0544 -0.0000
vn 0.9985 0.0553 -0.0000
vn 0.6582 -0.7528 -0.0000
vn -0.0000 0.0544 -0.9985
vn -0.0000 0.0553 -0.9985
vn -0.0000 -0.7528 -0.6582
vn -0.9985 0.0544 -0.0000
vn -0.9985 0.0553 -0.0000
vn -0.6582 -0.7528 -0.0000
vn -0.6582 0.7528 -0.0000
vn -0.0000 0.7528 -0.6582
vn 0.6582 0.7528 -0.0000
vn -0.0000 0.7528 0.6582
vn -0.9967 -0.0811 -0.0000
vn -0.9985 -0.0553 -0.0000
vn -0.9985 -0.0544 -0.0000
vn -0.0000 -0.0811 -0.9967
vn -0.0000 -0.0553 -0.9985
vn -0.0000 -0.0544 -0.9985
vn 0.9967 -0.0811 -0.0000
vn 0.9985 -0.0553 -0.0000
vn 0.9985 -0.0544 -0.0000
vn -0.0000 -0.0811 0.9967
vn -0.0000 -0.0553 0.9985
vn -0.0000 -0.0544 0.9985
vn -0.9967 0.0811 -0.0000
vn -0.0000 0.0811 -0.9967
vn 0.9967 0.0811 -0.0000
vn -0.0000 0.0811 0.9967
vn -0.0000 -1.0000 -0.0000
vt 0.064460 0.566163
vt 0.461757 0.579527
vt 0.729270 0.167894
vt 0.204804 0.566163
vt 0.293864 0.579527
vt 0.461757 0.619619
vt 0.561376 0.167894
vt 0.485492 0.566163
vt 0.461757 0.592891
vt 0.293864 0.579527
vt 0.729270 0.335788
vt 0.345148 0.566163
vt 0.561376 0.335788
vt 0.293864 0.619619
vt 0.293864 0.592891
vt 0.074037 0.481211
vt 0.076787 0.246300
vt 0.080615 0.011470
vt 0.220960 0.011470
vt 0.217131 0.246300
vt 0.214381 0.481211
vt 0.361303 0.011470
vt 0.357475 0.246300
vt 0.354725 0.481211
vt 0.501648 0.011470
vt 0.497821 0.246300
vt 0.495070 0.481211
vt 0.074411 0.430908
vt 0.214755 0.430908
vt 0.355100 0.430908
vt 0.495445 0.430908
vt 0.079425 0.061710
vt 0.219769 0.061710
vt 0.360113 0.061710
vt 0.500458 0.061710
vt 0.218353 0.155709
vt 0.358698 0.155709
vt 0.499043 0.155709
vt 0.078009 0.155709
vt 0.075578 0.336891
vt 0.215922 0.336891
vt 0.356266 0.336891
vt 0.496612 0.336891
vt 0.081277 0.000000
vt 0.293864 0.639629
vt 0.461757 0.566163
vt 0.461757 0.592891
vt 0.729270 0.167894
vt 0.461757 0.606255
vt 0.293864 0.566163
vt 0.561376 0.167894
vt 0.221621 0.000000
vt 0.146932 0.566163
vt 0.293864 0.606255
vt 0.561376 0.000000
vt 0.361965 0.000000
vt 0.073466 0.639629
vt 0.293864 0.592891
vt 0.729270 0.000000
vt 0.461757 0.606255
vt 0.502309 0.000000
vt 0.146932 0.639629
vt 0.280688 0.554443
vt 0.891708 0.000000
vt 0.615522 0.335788
vt 0.280688 0.565320
vt 0.000000 0.554443
vt 0.837562 0.000000
vt 0.729270 0.502634
vt 0.561376 0.565321
vt 0.551841 0.462412
vt 0.729270 0.396372
vt 0.016952 0.461208
vt 0.837562 0.106262
vt 0.532430 0.246764
vt 0.771392 0.204868
vt 0.042176 0.245836
vt 0.879684 0.297766
vt 0.557546 0.031803
vt 0.729270 0.013364
vt 0.022717 0.029731
vt 0.837562 0.489270
vt 0.271152 0.462412
vt 0.615522 0.442049
vt 0.297640 0.461208
vt 0.891708 0.106262
vt 0.251740 0.246764
vt 0.573401 0.633553
vt 0.322864 0.245836
vt 0.933830 0.297766
vt 0.615522 0.825058
vt 0.276857 0.031804
vt 0.303405 0.029731
vt 0.891708 0.489270
vt 0.258733 0.422174
vt 0.582259 0.471134
vt 0.311178 0.421052
vt 0.924971 0.135347
vt 0.539423 0.422174
vt 0.762533 0.367288
vt 0.030489 0.421052
vt 0.870825 0.135347
vt 0.263429 0.071616
vt 0.582259 0.795973
vt 0.315880 0.070348
vt 0.924971 0.460185
vt 0.544118 0.071615
vt 0.762533 0.042449
vt 0.035192 0.070348
vt 0.870825 0.460185
vt 0.535524 0.158188
vt 0.769140 0.123659
vt 0.041456 0.157202
vt 0.877432 0.378976
vt 0.254835 0.158188
vt 0.575652 0.714763
vt 0.322144 0.157202
vt 0.931578 0.378976
vt 0.252459 0.335391
vt 0.575652 0.552344
vt 0.319769 0.334418
vt 0.931578 0.216557
vt 0.533149 0.335391
vt 0.769140 0.286078
vt 0.039081 0.334417
vt 0.877432 0.216557
vt 0.561376 0.021058
vt 0.729270 0.000000
vt 0.146932 0.566163
vt 0.837562 0.502634
vt 0.018825 0.016180
vt 0.220398 0.639629
vt 0.280688 0.021059
vt 0.615522 0.838422
vt 0.146932 0.639629
vt 0.891708 0.502634
vt 0.299513 0.016180
vt 0.000000 0.639629
vt 0.140344 0.554443
vt 0.669668 0.335788
vt 0.669668 0.335788
vt 0.140344 0.565320
vt 0.421032 0.554442
vt 0.945854 0.000000
vt 0.783416 0.502634
vt 0.421032 0.565320
vt 0.411496 0.462412
vt 0.783416 0.396372
vt 0.437985 0.461207
vt 0.945854 0.106262
vt 0.392084 0.246764
vt 0.825538 0.204869
vt 0.463209 0.245836
vt 0.987976 0.297766
vt 0.417201 0.031804
vt 0.783416 0.013364
vt 0.443750 0.029731
vt 0.945854 0.489270
vt 0.130808 0.462412
vt 0.669668 0.442050
vt 0.157296 0.461207
vt 0.669668 0.442050
vt 0.111396 0.246764
vt 0.627547 0.633553
vt 0.182520 0.245836
vt 0.711790 0.633554
vt 0.136513 0.031804
vt 0.669668 0.825058
vt 0.163061 0.029731
vt 0.669668 0.825058
vt 0.118389 0.422174
vt 0.636405 0.471134
vt 0.170834 0.421052
vt 0.702931 0.471135
vt 0.399077 0.422174
vt 0.816679 0.367288
vt 0.451523 0.421052
vt 0.979117 0.135347
vt 0.123085 0.071616
vt 0.636405 0.795973
vt 0.175536 0.070348
vt 0.702931 0.795973
vt 0.403773 0.071615
vt 0.816679 0.042449
vt 0.456225 0.070349
vt 0.979117 0.460185
vt 0.395179 0.158188
vt 0.823286 0.123659
vt 0.462489 0.157202
vt 0.985724 0.378976
vt 0.114491 0.158188
vt 0.629798 0.714763
vt 0.181800 0.157202
vt 0.709539 0.714763
vt 0.112115 0.335391
vt 0.629798 0.552344
vt 0.179425 0.334417
vt 0.709539 0.552344
vt 0.392803 0.335391
vt 0.823286 0.286078
vt 0.460115 0.334417
vt 0.985724 0.216557
vt 0.421032 0.021059
vt 0.783416 0.000000
vt 0.073466 0.566163
vt 0.945854 0.502634
vt 0.439858 0.016180
vt 0.073466 0.639629
vt 0.140344 0.021059
vt 0.669668 0.838422
vt 0.293864 0.566163
vt 0.669668 0.838422
vt 0.159169 0.016180
vt 0.220398 0.566163
vt 0.561376 0.825058
vt 0.561376 0.633553
vt 0.561376 0.442049
vt 0.561376 0.335788
vt 0.561376 0.471134
vt 0.561376 0.795973
vt 0.561376 0.714763
vt 0.561376 0.552344
vt 0.561376 0.838422
vt 0.201078 0.639629
vt 0.945854 0.000000
vt 0.945854 0.106262
vt 0.945854 0.297766
vt 0.945854 0.489270
vt 0.945854 0.135347
vt 0.945854 0.460185
vt 0.945854 0.378976
vt 0.945854 0.216557
vt 0.945854 0.502634
vt 0.000000 0.585483
vt 0.837562 0.502634
vt 0.837562 0.396372
vt 0.837562 0.204869
vt 0.837562 0.013364
vt 0.837562 0.367288
vt 0.837562 0.042449
vt 0.837562 0.123659
vt 0.837562 0.286078
vt 0.837562 0.000000
vt 0.019320 0.566163
vt 1.000000 0.000000
vt 1.000000 0.106262
vt 1.000000 0.297766
vt 1.000000 0.489270
vt 1.000000 0.135347
vt 1.000000 0.460185
vt 1.000000 0.378976
vt 1.000000 0.216557
vt 1.000000 0.502634
vt 0.073466 0.585483
vt 0.783416 0.502634
vt 0.783416 0.396372
vt 0.783416 0.204868
vt 0.783416 0.013364
vt 0.783416 0.367288
vt 0.783416 0.042449
vt 0.783416 0.123659
vt 0.783416 0.286078
vt 0.783416 0.000000
vt 0.092786 0.566163
vt 0.891708 0.000000
vt 0.891708 0.106262
vt 0.891708 0.297766
vt 0.891708 0.489270
vt 0.891708 0.135347
vt 0.891708 0.460185
vt 0.891708 0.378976
vt 0.891708 0.216557
vt 0.891708 0.502634
vt 0.220398 0.585483
vt 0.615522 0.335788
vt 0.615522 0.442050
vt 0.615522 0.633553
vt 0.615522 0.825058
vt 0.615522 0.471134
vt 0.615522 0.795973
vt 0.615522 0.714763
vt 0.615522 0.552344
vt 0.615522 0.838422
vt 0.239718 0.566163
vt 0.723814 0.335788
vt 0.723814 0.442050
vt 0.723814 0.633554
vt 0.723814 0.825058
vt 0.723814 0.471135
vt 0.723814 0.795973
vt 0.723814 0.714763
vt 0.723814 0.552344
vt 0.723814 0.838421
vt 0.220398 0.620309
s 1
f 2/2/1 39/50/1 38/46/1
f 4/6/2 41/54/2 39/49/2
f 8/15/3 43/60/3 41/54/3
f 6/10/4 38/47/4 43/58/4
f 4/7/5 6/11/5 8/13/5
f 50/73/4 1/1/4 47/67/4
f 76/125/6 10/17/4 33/40/7
f 54/81/8 25/32/8 68/109/8
f 86/149/3 5/8/3 83/143/3
f 112/201/9 19/26/3 36/43/10
f 90/157/11 28/35/11 104/185/11
f 56/85/2 7/12/2 45/63/2
f 74/121/12 16/23/2 35/42/13
f 60/93/14 27/34/14 66/105/14
f 92/161/1 3/4/1 81/139/1
f 110/197/15 13/20/1 34/41/16
f 96/169/17 26/33/17 102/181/17
f 92/161/18 22/29/18 14/21/18
f 56/85/19 23/30/19 17/24/19
f 86/149/20 24/31/20 20/27/20
f 50/73/21 21/28/21 9/16/21
f 102/181/22 29/36/23 108/193/24
f 66/105/25 30/37/26 72/117/27
f 104/185/28 31/38/29 106/189/30
f 68/109/31 32/39/32 70/113/33
f 70/113/33 10/17/4 52/77/4
f 106/189/30 19/26/3 88/153/3
f 72/117/27 16/23/2 58/89/2
f 108/193/24 13/20/1 94/165/1
f 98/173/34 34/41/16 22/29/34
f 62/97/35 35/42/13 23/30/35
f 100/177/36 36/43/10 24/31/36
f 64/101/37 33/40/7 21/28/37
f 78/131/4 11/18/4 54/81/4
f 65/104/3 117/215/3 122/220/3
f 114/207/3 18/25/3 90/157/3
f 74/122/1 130/229/1 133/232/1
f 80/137/2 15/22/2 60/93/2
f 38/48/38 41/55/38 43/59/38
f 116/213/1 12/19/1 96/169/1
f 57/88/3 123/221/3 118/216/3
f 40/52/2 59/92/2 12/19/2
f 44/61/4 53/79/4 18/25/4
f 36/43/7 63/99/37 24/31/37
f 34/41/13 61/95/35 22/29/35
f 13/20/2 71/115/27 57/87/2
f 19/26/4 69/111/33 51/75/4
f 31/38/32 67/107/31 69/111/33
f 29/36/26 65/103/25 71/115/27
f 24/31/21 49/71/21 20/27/21
f 22/29/19 55/83/19 14/21/19
f 26/33/14 59/92/14 65/103/14
f 13/20/2 73/119/12 34/41/13
f 14/21/2 46/66/2 3/4/2
f 28/35/8 53/79/8 67/107/8
f 19/26/4 75/123/6 36/43/7
f 20/27/4 48/70/4 5/8/4
f 61/96/3 119/217/3 55/84/3
f 71/116/3 122/220/3 123/221/3
f 37/44/1 95/167/1 11/18/1
f 73/120/3 121/219/3 61/96/3
f 57/88/3 124/222/3 73/120/3
f 42/56/3 89/155/3 15/22/3
f 55/84/3 120/218/3 46/65/3
f 79/134/3 117/215/3 59/91/3
f 35/42/10 99/175/36 23/30/36
f 33/40/16 97/171/34 21/28/34
f 10/17/1 107/191/24 93/163/1
f 16/23/3 105/187/30 87/151/3
f 30/37/29 103/183/28 105/187/30
f 32/39/23 101/179/22 107/191/24
f 23/30/20 85/147/20 17/24/20
f 21/28/18 91/159/18 9/16/18
f 25/32/17 95/167/17 101/179/17
f 10/17/1 109/195/15 33/40/16
f 9/16/1 82/142/1 1/1/1
f 27/34/11 89/155/11 103/183/11
f 16/23/3 111/199/9 35/42/10
f 17/24/3 84/146/3 7/12/3
f 45/64/1 127/226/1 56/86/1
f 58/90/1 133/232/1 128/227/1
f 60/94/1 134/233/1 80/136/1
f 66/106/1 129/228/1 60/94/1
f 62/98/1 127/226/1 130/229/1
f 72/118/1 131/230/1 66/106/1
f 58/90/1 132/231/1 72/118/1
f 99/176/4 136/236/4 85/148/4
f 105/188/4 140/240/4 141/241/4
f 87/152/4 141/241/4 137/237/4
f 85/148/4 135/235/4 84/145/4
f 87/152/4 142/242/4 111/200/4
f 103/184/4 138/238/4 140/240/4
f 111/200/4 139/239/4 99/176/4
f 113/204/4 138/238/4 89/156/4
f 83/144/2 145/246/2 86/150/2
f 88/154/2 151/252/2 146/247/2
f 104/186/2 147/248/2 90/158/2
f 112/202/2 148/249/2 151/252/2
f 90/158/2 152/253/2 114/206/2
f 100/178/2 145/246/2 148/249/2
f 106/190/2 149/250/2 104/186/2
f 88/154/2 150/251/2 106/190/2
f 63/100/1 154/256/1 49/72/1
f 69/112/1 158/260/1 159/261/1
f 51/76/1 159/261/1 155/257/1
f 49/72/1 153/255/1 48/69/1
f 51/76/1 160/262/1 75/124/1
f 67/108/1 156/258/1 158/260/1
f 75/124/1 157/259/1 63/100/1
f 77/128/1 156/258/1 53/80/1
f 52/78/3 169/272/3 164/267/3
f 68/110/3 165/268/3 54/82/3
f 76/126/3 166/269/3 169/272/3
f 54/82/3 170/273/3 78/130/3
f 64/102/3 163/266/3 166/269/3
f 70/114/3 167/270/3 68/110/3
f 52/78/3 168/271/3 70/114/3
f 47/68/3 163/266/3 50/74/3
f 101/180/2 174/278/2 176/280/2
f 97/172/2 172/276/2 91/160/2
f 115/210/2 174/278/2 95/168/2
f 107/192/2 176/280/2 177/281/2
f 93/164/2 177/281/2 173/277/2
f 109/196/2 175/279/2 97/172/2
f 91/160/2 171/275/2 82/141/2
f 93/164/2 178/282/2 109/196/2
f 94/166/4 186/291/4 108/194/4
f 110/198/4 184/289/4 187/292/4
f 81/140/4 181/286/4 92/162/4
f 94/166/4 187/292/4 182/287/4
f 102/182/4 183/288/4 96/170/4
f 98/174/4 181/286/4 184/289/4
f 96/170/4 188/293/4 116/212/4
f 108/194/4 185/290/4 102/182/4
f 170/274/5 115/211/5 37/45/5
f 188/294/5 79/135/5 40/53/5
f 134/234/5 113/205/5 42/57/5
f 152/254/5 77/129/5 44/62/5
f 2/2/1 4/5/1 39/50/1
f 4/6/2 8/14/2 41/54/2
f 8/15/3 6/9/3 43/60/3
f 6/10/4 2/2/4 38/47/4
f 4/7/5 2/3/5 6/11/5
f 50/73/4 9/16/4 1/1/4
f 76/125/6 52/77/4 10/17/4
f 54/81/8 11/18/8 25/32/8
f 86/149/3 20/27/3 5/8/3
f 112/201/9 88/153/3 19/26/3
f 90/157/11 18/25/11 28/35/11
f 56/85/2 17/24/2 7/12/2
f 74/121/12 58/89/2 16/23/2
f 60/93/14 15/22/14 27/34/14
f 92/161/1 14/21/1 3/4/1
f 110/197/15 94/165/1 13/20/1
f 96/169/17 12/19/17 26/33/17
f 92/161/18 98/173/18 22/29/18
f 56/85/19 62/97/19 23/30/19
f 86/149/20 100/177/20 24/31/20
f 50/73/21 64/101/21 21/28/21
f 102/181/22 26/33/22 29/36/23
f 66/105/25 27/34/25 30/37/26
f 104/185/28 28/35/28 31/38/29
f 68/109/31 25/32/31 32/39/32
f 70/113/33 32/39/32 10/17/4
f 106/189/30 31/38/29 19/26/3
f 72/117/27 30/37/26 16/23/2
f 108/193/24 29/36/23 13/20/1
f 98/173/34 110/197/15 34/41/16
f 62/97/35 74/121/12 35/42/13
f 100/177/36 112/201/9 36/43/10
f 64/101/37 76/125/6 33/40/7
f 78/131/4 37/44/4 11/18/4
f 65/104/3 59/91/3 117/215/3
f 114/207/3 44/61/3 18/25/3
f 74/122/1 62/98/1 130/229/1
f 80/137/2 42/56/2 15/22/2
f 38/48/38 39/51/38 41/55/38
f 116/213/1 40/52/1 12/19/1
f 57/88/3 71/116/3 123/221/3
f 40/52/2 79/133/2 59/92/2
f 44/61/4 77/127/4 53/79/4
f 36/43/7 75/123/6 63/99/37
f 34/41/13 73/119/12 61/95/35
f 13/20/2 29/36/26 71/115/27
f 19/26/4 31/38/32 69/111/33
f 31/38/32 28/35/31 67/107/31
f 29/36/26 26/33/25 65/103/25
f 24/31/21 63/99/21 49/71/21
f 22/29/19 61/95/19 55/83/19
f 26/33/14 12/19/14 59/92/14
f 13/20/2 57/87/2 73/119/12
f 14/21/2 55/83/2 46/66/2
f 28/35/8 18/25/8 53/79/8
f 19/26/4 51/75/4 75/123/6
f 20/27/4 49/71/4 48/70/4
f 61/96/3 121/219/3 119/217/3
f 71/116/3 65/104/3 122/220/3
f 37/44/1 115/209/1 95/167/1
f 73/120/3 124/222/3 121/219/3
f 57/88/3 118/216/3 124/222/3
f 42/56/3 113/203/3 89/155/3
f 55/84/3 119/217/3 120/218/3
f 79/134/3 125/223/3 117/215/3
f 35/42/10 111/199/9 99/175/36
f 33/40/16 109/195/15 97/171/34
f 10/17/1 32/39/23 107/191/24
f 16/23/3 30/37/29 105/187/30
f 30/37/29 27/34/28 103/183/28
f 32/39/23 25/32/22 101/179/22
f 23/30/20 99/175/20 85/147/20
f 21/28/18 97/171/18 91/159/18
f 25/32/17 11/18/17 95/167/17
f 10/17/1 93/163/1 109/195/15
f 9/16/1 91/159/1 82/142/1
f 27/34/11 15/22/11 89/155/11
f 16/23/3 87/151/3 111/199/9
f 17/24/3 85/147/3 84/146/3
f 45/64/1 126/225/1 127/226/1
f 58/90/1 74/122/1 133/232/1
f 60/94/1 129/228/1 134/233/1
f 66/106/1 131/230/1 129/228/1
f 62/98/1 56/86/1 127/226/1
f 72/118/1 132/231/1 131/230/1
f 58/90/1 128/227/1 132/231/1
f 99/176/4 139/239/4 136/236/4
f 105/188/4 103/184/4 140/240/4
f 87/152/4 105/188/4 141/241/4
f 85/148/4 136/236/4 135/235/4
f 87/152/4 137/237/4 142/242/4
f 103/184/4 89/156/4 138/238/4
f 111/200/4 142/242/4 139/239/4
f 113/204/4 143/243/4 138/238/4
f 83/144/2 144/245/2 145/246/2
f 88/154/2 112/202/2 151/252/2
f 104/186/2 149/250/2 147/248/2
f 112/202/2 100/178/2 148/249/2
f 90/158/2 147/248/2 152/253/2
f 100/178/2 86/150/2 145/246/2
f 106/190/2 150/251/2 149/250/2
f 88/154/2 146/247/2 150/251/2
f 63/100/1 157/259/1 154/256/1
f 69/112/1 67/108/1 158/260/1
f 51/76/1 69/112/1 159/261/1
f 49/72/1 154/256/1 153/255/1
f 51/76/1 155/257/1 160/262/1
f 67/108/1 53/80/1 156/258/1
f 75/124/1 160/262/1 157/259/1
f 77/128/1 161/263/1 156/258/1
f 52/78/3 76/126/3 169/272/3
f 68/110/3 167/270/3 165/268/3
f 76/126/3 64/102/3 166/269/3
f 54/82/3 165/268/3 170/273/3
f 64/102/3 50/74/3 163/266/3
f 70/114/3 168/271/3 167/270/3
f 52/78/3 164/267/3 168/271/3
f 47/68/3 162/265/3 163/266/3
f 101/180/2 95/168/2 174/278/2
f 97/172/2 175/279/2 172/276/2
f 115/210/2 179/283/2 174/278/2
f 107/192/2 101/180/2 176/280/2
f 93/164/2 107/192/2 177/281/2
f 109/196/2 178/282/2 175/279/2
f 91/160/2 172/276/2 171/275/2
f 93/164/2 173/277/2 178/282/2
f 94/166/4 182/287/4 186/291/4
f 110/198/4 98/174/4 184/289/4
f 81/140/4 180/285/4 181/286/4
f 94/166/4 110/198/4 187/292/4
f 102/182/4 185/290/4 183/288/4
f 98/174/4 92/162/4 181/286/4
f 96/170/4 183/288/4 188/293/4
f 108/194/4 186/291/4 185/290/4
f 37/45/5 78/132/5 170/274/5
f 170/274/5 179/284/5 115/211/5
f 40/53/5 116/214/5 188/294/5
f 188/294/5 125/224/5 79/135/5
f 42/57/5 80/138/5 134/234/5
f 134/234/5 143/244/5 113/205/5
f 44/62/5 114/208/5 152/254/5
f 152/254/5 161/264/5 77/129/5
