# Blender 3.3.0
# www.blender.org
o SpawnPointCol
v -0.267931 -0.200000 0.267931
v -0.267931 1.900000 0.267931
v -0.267931 -0.200000 -0.267931
v -0.267931 1.900000 -0.267931
v 0.267931 -0.200000 0.267931
v 0.267931 1.900000 0.267931
v 0.267931 -0.200000 -0.267931
v 0.267931 1.900000 -0.267931
v 0.000000 2.300000 0.000000
vn -1.0000 -0.0000 -0.0000
vn -0.0000 -0.0000 -1.0000
vn 1.0000 -0.0000 -0.0000
vn -0.0000 -0.0000 1.0000
vn -0.0000 -1.0000 -0.0000
vn -0.0000 0.5565 0.8308
vn 0.8308 0.5565 -0.0000
vn -0.8308 0.5565 -0.0000
vn -0.0000 0.5565 -0.8308
vt 0.375000 0.000000
vt 0.375000 1.000000
vt 0.125000 0.750000
vt 0.625000 0.000000
vt 0.625000 1.000000
vt 0.125000 0.500000
vt 0.375000 0.250000
vt 0.625000 0.250000
vt 0.375000 0.750000
vt 0.625000 0.750000
vt 0.375000 0.500000
vt 0.625000 0.500000
vt 0.000000 0.000000
s 0
f 2/4/1 3/7/1 1/1/1
f 4/8/2 7/11/2 3/7/2
f 8/12/3 5/9/3 7/11/3
f 6/10/4 1/2/4 5/9/4
f 7/11/5 1/3/5 3/6/5
f 9/13/6 2/5/6 6/10/6
f 6/10/7 8/12/7 9/13/7
f 4/8/8 2/5/8 9/13/8
f 8/12/9 4/8/9 9/13/9
f 2/4/1 4/8/1 3/7/1
f 4/8/2 8/12/2 7/11/2
f 8/12/3 6/10/3 5/9/3
f 6/10/4 2/5/4 1/2/4
f 7/11/5 5/9/5 1/3/5
