# Blender 3.3.0
# www.blender.org
o Pyramid
v 36.987198 -2.042976 -9.815512
v 45.872578 6.926480 -18.700893
v 36.987198 -2.042976 -33.265251
v 45.872578 6.926480 -24.379868
v 60.436935 -2.042976 -9.815512
v 51.551552 6.926480 -18.700893
v 60.436935 -2.042976 -33.265251
v 51.551552 6.926480 -24.379868
vn -0.7104 0.7038 -0.0000
vn -0.0000 0.7038 -0.7104
vn 0.7104 0.7038 -0.0000
vn -0.0000 0.7038 0.7104
vn -0.0000 1.0000 -0.0000
vt 0.500000 0.000000
vt 0.000000 0.000000
vt 0.310544 0.269201
vt 0.189456 0.269201
vt 0.378912 0.390290
vt 0.500000 0.000000
vt 0.000000 0.000000
vt 0.189456 0.269201
vt 0.310544 0.269201
vt 0.500000 0.390290
vt 0.000000 0.000000
vt 0.500000 0.000000
vt 0.189456 0.269201
vt 0.310544 0.269201
vt 0.378912 0.269202
vt 0.500000 0.000000
vt 0.000000 0.000000
vt 0.500000 0.269202
vt 0.189456 0.269201
vt 0.310544 0.269201
s 0
f 2/3/1 3/7/1 1/1/1
f 4/9/2 7/17/2 3/6/2
f 8/20/3 5/11/3 7/16/3
f 5/12/4 2/4/4 1/2/4
f 4/10/5 6/15/5 8/18/5
f 2/3/1 4/8/1 3/7/1
f 4/9/2 8/19/2 7/17/2
f 8/20/3 6/13/3 5/11/3
f 5/12/4 6/14/4 2/4/4
f 4/10/5 2/5/5 6/15/5
