# Blender 3.3.0
# www.blender.org
o AppleStalkCol01
v -6.159262 -37.785965 6.154802
v -6.159262 -37.785965 -6.154802
v 6.226508 -38.338818 6.242915
v 6.226508 -38.338814 -6.242915
v -1.929394 -38.029884 1.954219
v -1.929394 -38.029881 -1.954218
v 1.996639 -38.205128 1.975326
v 1.996639 -38.205124 -1.975325
v -3.995356 -40.210510 4.004157
v -3.995357 -40.210506 -4.004157
v 4.062602 -40.570179 -4.061481
v 4.062602 -40.570179 4.061481
v -8.481594 -37.682308 0.000000
v 0.033623 -38.062393 -8.523431
v 8.548841 -38.442474 -0.000000
v 0.033623 -38.062393 8.523431
v -5.506223 -40.143066 0.000000
v 0.033623 -40.390343 -5.545126
v 5.573468 -40.637619 0.000000
v 0.033623 -40.390343 5.545126
v 5.139576 -40.002296 5.147196
v 5.139576 -40.002293 -5.147196
v -5.072330 -39.546478 -5.074548
v -5.072330 -39.546474 5.074548
v -2.251934 -37.742722 0.000000
v 0.033622 -37.844738 -2.287578
v 2.319179 -37.946758 0.000000
v 0.033623 -37.844742 2.287579
v -2.922024 -39.205158 -2.937966
v -2.922024 -39.205154 2.937967
v 2.989269 -39.469017 -2.978782
v 2.989269 -39.469021 2.978782
v 7.054307 -40.087757 0.000000
v -6.987062 -39.461014 0.000000
v 0.033623 -39.774384 7.027449
v 0.033623 -39.774384 -7.027449
v 0.033622 -37.272308 0.000000
v -4.010029 -39.129704 0.000000
v 0.033622 -39.310196 -4.047379
v 4.077275 -39.490685 0.000000
v 0.033623 -39.310192 4.047380
vn 0.7116 -0.6464 -0.2754
vn 0.7116 -0.6464 0.2754
vn 0.3445 -0.9277 0.1436
vn 0.3445 -0.9278 -0.1436
vn -0.7376 -0.6198 0.2679
vn -0.7376 -0.6198 -0.2679
vn -0.4142 -0.8992 -0.1411
vn -0.4142 -0.8992 0.1411
vn 0.2406 -0.6387 0.7309
vn -0.3025 -0.6272 0.7177
vn -0.1847 -0.9076 0.3771
vn 0.0996 -0.9189 0.3818
vn -0.3025 -0.6272 -0.7177
vn 0.2406 -0.6387 -0.7309
vn 0.0996 -0.9189 -0.3818
vn -0.1847 -0.9075 -0.3771
vn 0.1316 -0.9617 -0.2406
vn 0.1985 -0.9644 0.1745
vn -0.2789 -0.9453 0.1692
vn -0.2118 -0.9481 -0.2372
vn 0.6259 -0.7385 0.2507
vn 0.6052 -0.7671 -0.2126
vn 0.5466 -0.8071 -0.2232
vn 0.5427 -0.8110 0.2184
vn -0.2699 -0.7198 0.6396
vn 0.1782 -0.7561 0.6297
vn 0.1874 -0.7967 0.5746
vn -0.2426 -0.7900 0.5630
vn -0.6636 -0.7095 -0.2372
vn -0.6463 -0.7359 0.2018
vn -0.5946 -0.7757 0.2115
vn -0.5911 -0.7796 -0.2069
vn 0.2180 -0.7281 -0.6499
vn -0.2360 -0.7467 -0.6218
vn -0.2472 -0.7859 -0.5668
vn 0.1826 -0.8004 -0.5709
vn 0.3445 -0.9278 0.1436
vn 0.3445 -0.9277 -0.1436
vn -0.1847 -0.9075 0.3771
vn -0.1847 -0.9076 -0.3771
vn 0.1985 -0.9644 -0.1745
vn 0.1316 -0.9617 0.2406
vn -0.2118 -0.9481 0.2372
vn -0.2789 -0.9453 -0.1692
vn 0.6052 -0.7671 0.2126
vn 0.6259 -0.7385 -0.2507
vn 0.5427 -0.8110 -0.2184
vn 0.5466 -0.8071 0.2232
vn -0.2360 -0.7467 0.6218
vn 0.2180 -0.7281 0.6499
vn 0.1826 -0.8004 0.5709
vn -0.2472 -0.7859 0.5668
vn -0.6463 -0.7359 -0.2018
vn -0.6636 -0.7095 0.2372
vn -0.5911 -0.7796 0.2069
vn -0.5946 -0.7757 -0.2115
vn 0.1782 -0.7561 -0.6297
vn -0.2699 -0.7198 -0.6396
vn -0.2426 -0.7900 -0.5630
vn 0.1874 -0.7967 -0.5746
vt 0.000000 1.000000
vt 0.012371 0.014351
vt 0.978210 0.962964
vt 0.978210 0.000000
vt 0.422003 0.563345
vt 0.432629 0.424179
vt 0.561866 0.562537
vt 0.571665 0.423075
vt 0.316528 0.677743
vt 0.327540 0.316863
vt 0.683509 0.312108
vt 0.674719 0.667608
vt 0.006185 0.507176
vt 0.495291 0.007176
vt 0.978210 0.481482
vt 0.489105 0.981482
vt 0.255082 0.498699
vt 0.507381 0.247325
vt 0.746066 0.488462
vt 0.493767 0.739836
vt 0.758004 0.748917
vt 0.763328 0.225966
vt 0.239327 0.234446
vt 0.230239 0.766346
vt 0.417728 0.493619
vt 0.502888 0.414625
vt 0.575316 0.492919
vt 0.490156 0.571914
vt 0.390097 0.379160
vt 0.377452 0.610759
vt 0.620279 0.376281
vt 0.609219 0.607285
vt 0.847456 0.485325
vt 0.147993 0.502513
vt 0.492845 0.844683
vt 0.502604 0.143154
vt 0.495433 0.493239
vt 0.341649 0.495504
vt 0.507396 0.335598
vt 0.656772 0.491235
vt 0.491025 0.651141
s 0
f 15/15/1 22/22/1 4/4/1
f 15/15/2 21/21/2 33/33/2
f 33/33/3 12/12/3 19/19/3
f 33/33/4 11/11/4 22/22/4
f 13/13/5 24/24/5 1/1/5
f 13/13/6 23/23/6 34/34/6
f 34/34/7 10/10/7 17/17/7
f 34/34/8 9/9/8 24/24/8
f 3/3/9 35/35/9 21/21/9
f 16/16/10 24/24/10 35/35/10
f 35/35/11 9/9/11 20/20/11
f 35/35/12 12/12/12 21/21/12
f 14/14/13 23/23/13 2/2/13
f 4/4/14 36/36/14 14/14/14
f 36/36/15 11/11/15 18/18/15
f 36/36/16 10/10/16 23/23/16
f 5/5/17 37/37/17 28/28/17
f 6/6/18 37/37/18 25/25/18
f 37/37/19 8/8/19 27/27/19
f 37/37/20 7/7/20 28/28/20
f 6/6/21 38/38/21 29/29/21
f 5/5/22 38/38/22 25/25/22
f 30/30/23 17/17/23 38/38/23
f 29/29/24 17/17/24 10/10/24
f 8/8/25 39/39/25 31/31/25
f 6/6/26 39/39/26 26/26/26
f 29/29/27 18/18/27 39/39/27
f 31/31/28 18/18/28 11/11/28
f 7/7/29 40/40/29 32/32/29
f 8/8/30 40/40/30 27/27/30
f 31/31/31 19/19/31 40/40/31
f 32/32/32 19/19/32 12/12/32
f 5/5/33 41/41/33 30/30/33
f 7/7/34 41/41/34 28/28/34
f 32/32/35 20/20/35 41/41/35
f 30/30/36 20/20/36 9/9/36
f 15/15/1 33/33/1 22/22/1
f 15/15/2 3/3/2 21/21/2
f 33/33/37 21/21/37 12/12/37
f 33/33/38 19/19/38 11/11/38
f 13/13/5 34/34/5 24/24/5
f 13/13/6 2/2/6 23/23/6
f 34/34/7 23/23/7 10/10/7
f 34/34/8 17/17/8 9/9/8
f 3/3/9 16/16/9 35/35/9
f 16/16/10 1/1/10 24/24/10
f 35/35/39 24/24/39 9/9/39
f 35/35/12 20/20/12 12/12/12
f 14/14/13 36/36/13 23/23/13
f 4/4/14 22/22/14 36/36/14
f 36/36/15 22/22/15 11/11/15
f 36/36/40 18/18/40 10/10/40
f 5/5/41 25/25/41 37/37/41
f 6/6/42 26/26/42 37/37/42
f 37/37/43 26/26/43 8/8/43
f 37/37/44 27/27/44 7/7/44
f 6/6/45 25/25/45 38/38/45
f 5/5/46 30/30/46 38/38/46
f 30/30/47 9/9/47 17/17/47
f 29/29/48 38/38/48 17/17/48
f 8/8/49 26/26/49 39/39/49
f 6/6/50 29/29/50 39/39/50
f 29/29/51 10/10/51 18/18/51
f 31/31/52 39/39/52 18/18/52
f 7/7/53 27/27/53 40/40/53
f 8/8/54 31/31/54 40/40/54
f 31/31/55 11/11/55 19/19/55
f 32/32/56 40/40/56 19/19/56
f 5/5/57 28/28/57 41/41/57
f 7/7/58 32/32/58 41/41/58
f 32/32/59 12/12/59 20/20/59
f 30/30/60 41/41/60 20/20/60
