# Blender 3.3.0
# www.blender.org
o LighthouseIslandCol03
v -0.774909 66.742424 -1.870795
v -0.774909 69.516396 -1.870795
v 0.774909 66.742424 -1.870795
v 0.774909 69.516396 -1.870795
v 1.870795 66.742424 -0.774909
v 1.870795 69.516396 -0.774909
v 1.870795 66.742424 0.774909
v 1.870795 69.516396 0.774909
v 0.774909 66.742424 1.870795
v 0.774909 69.516396 1.870795
v -0.774909 66.742424 1.870795
v -0.774909 69.516396 1.870795
v -1.870795 66.742424 0.774909
v -1.870795 69.516396 0.774909
v -1.870795 66.742424 -0.774909
v -1.870795 69.516396 -0.774909
v -0.937367 69.580513 -2.263005
v 0.937367 69.580513 -2.263005
v 2.263005 69.580513 -0.937367
v 2.263005 69.580513 0.937367
v 0.937367 69.580513 2.263005
v -0.937367 69.580513 2.263005
v -2.263005 69.580513 0.937367
v -2.263005 69.580513 -0.937367
v -0.039394 71.270569 -0.095107
v 0.039394 71.270569 -0.095107
v 0.095107 71.270569 -0.039394
v 0.095107 71.270569 0.039394
v 0.039394 71.270569 0.095107
v -0.039394 71.270569 0.095107
v -0.095107 71.270569 0.039394
v -0.095107 71.270569 -0.039394
v -0.733627 69.462372 -1.771132
v 0.733627 69.462372 -1.771132
v 1.771132 69.462372 -0.733627
v 1.771132 69.462372 0.733627
v 0.733627 69.462372 1.771132
v -0.733627 69.462372 1.771132
v -1.771132 69.462372 0.733627
v -1.771132 69.462372 -0.733627
v -0.643628 69.513824 -1.553854
v 0.643627 69.513824 -1.553854
v 1.553854 69.513824 -0.643628
v 1.553854 69.513824 0.643627
v 0.643628 69.513824 1.553854
v -0.643627 69.513824 1.553854
v -1.553854 69.513824 0.643628
v -1.553854 69.513824 -0.643627
v -0.640358 69.730087 -1.545961
v 0.640358 69.730087 -1.545961
v 1.545961 69.730087 -0.640358
v 1.545961 69.730087 0.640358
v 0.640358 69.730087 1.545961
v -0.640358 69.730087 1.545961
v -1.545961 69.730087 0.640358
v -1.545961 69.730087 -0.640358
vn -0.0000 -0.0000 -1.0000
vn 0.7071 -0.0000 -0.7071
vn 1.0000 -0.0000 -0.0000
vn 0.7071 -0.0000 0.7071
vn -0.0000 -0.0000 1.0000
vn -0.7071 -0.0000 0.7071
vn 0.1141 -0.9869 -0.1141
vn -0.1630 0.9731 -0.1629
vn -0.7071 -0.0000 -0.7071
vn -0.1629 0.9731 0.1629
vn -0.6148 0.7887 -0.0000
vn -0.0000 -0.9869 0.1613
vn -0.1141 -0.9869 -0.1141
vn -0.0000 -0.9869 -0.1613
vn 0.1613 -0.9869 -0.0000
vn -0.1141 -0.9869 0.1141
vn 0.1141 -0.9869 0.1141
vn -0.1613 -0.9869 -0.0000
vn -0.0000 1.0000 -0.0000
vn -0.0000 0.7887 0.6148
vn 0.6148 0.7887 -0.0000
vn -0.0000 0.7887 -0.6148
vn -0.4348 0.7887 -0.4347
vn -0.4347 0.7887 0.4347
vn 0.4348 0.7887 0.4347
vn 0.4347 0.7887 -0.4347
vn 0.1630 0.9731 0.1629
vn 0.1629 0.9731 -0.1629
vn -0.0000 0.9731 -0.2304
vn -0.2305 0.9731 -0.0000
vn -0.0000 0.9731 0.2304
vn 0.2305 0.9731 -0.0000
vn -0.9993 0.0365 -0.0000
vn -0.0000 0.0365 0.9993
vn 0.9993 0.0365 -0.0000
vn -0.0000 0.0365 -0.9993
vn -0.7066 0.0365 -0.7067
vn -0.7067 0.0365 0.7066
vn 0.7066 0.0365 0.7067
vn 0.7067 0.0365 -0.7066
vn -0.1629 0.9731 -0.1629
vn -0.4347 0.7887 -0.4348
vn -0.4349 0.7886 0.4347
vn 0.4347 0.7887 0.4348
vn 0.4349 0.7886 -0.4347
vn 0.1629 0.9731 0.1629
vn -0.2304 0.9731 -0.0000
vn 0.2304 0.9731 -0.0000
vn -0.7066 0.0365 -0.7066
vn -0.7066 0.0365 0.7066
vn 0.7066 0.0365 0.7066
vn 0.7066 0.0365 -0.7066
vt 1.000000 0.500000
vt 0.000000 0.500000
vt 0.000000 1.000000
vt 1.000000 1.000000
vt 0.875000 0.500000
vt 0.875000 1.000000
vt 0.750000 0.500000
vt 0.750000 1.000000
vt 0.625000 0.500000
vt 0.625000 1.000000
vt 0.500000 0.500000
vt 0.500000 1.000000
vt 0.375000 0.500000
vt 0.375000 1.000000
vt 0.250000 0.500000
vt 0.250000 1.000000
vt 0.125000 0.500000
vt 0.125000 1.000000
vt 0.000000 1.000000
vt 1.000000 1.000000
vt 0.875000 1.000000
vt 0.750000 1.000000
vt 0.625000 1.000000
vt 0.500000 1.000000
vt 0.375000 1.000000
vt 0.250000 1.000000
vt 0.125000 1.000000
vt 0.250000 0.490000
vt 1.000000 1.000000
vt 0.000000 1.000000
vt 0.419706 0.419706
vt 0.875000 1.000000
vt 0.490000 0.250000
vt 0.750000 1.000000
vt 0.419706 0.080294
vt 0.625000 1.000000
vt 0.250000 0.010000
vt 0.500000 1.000000
vt 0.080294 0.080294
vt 0.375000 1.000000
vt 0.010000 0.250000
vt 0.250000 1.000000
vt 0.080294 0.419706
vt 0.125000 1.000000
vt 0.000000 0.000000
vt 0.000000 0.000000
vt 0.000000 0.000000
vt 0.000000 0.000000
vt 0.000000 0.000000
vt 0.000000 0.000000
vt 0.000000 0.000000
vt 0.000000 0.000000
vt 0.000000 0.000000
vt 0.000000 0.000000
vt 0.000000 0.000000
vt 0.000000 0.000000
vt 0.000000 0.000000
vt 0.000000 0.000000
vt 0.000000 0.000000
vt 0.000000 0.000000
vt 0.000000 0.000000
vt 0.000000 0.000000
vt 0.000000 0.000000
vt 0.000000 0.000000
vt 0.000000 0.000000
vt 0.000000 0.000000
vt 0.000000 0.000000
vt 0.000000 0.000000
s 0
f 2/4/1 3/5/1 1/1/1
f 4/6/2 5/7/2 3/5/2
f 6/8/3 7/9/3 5/7/3
f 8/10/4 9/11/4 7/9/4
f 10/12/5 11/13/5 9/11/5
f 12/14/6 13/15/6 11/13/6
f 4/6/7 19/22/7 6/8/7
f 33/45/8 48/60/8 41/53/8
f 16/18/9 1/2/9 15/17/9
f 39/51/10 46/58/10 47/59/10
f 23/26/11 32/44/11 24/27/11
f 10/12/12 22/25/12 12/14/12
f 16/18/13 17/19/13 2/3/13
f 2/4/14 18/21/14 4/6/14
f 6/8/15 20/23/15 8/10/15
f 12/14/16 23/26/16 14/16/16
f 8/10/17 21/24/17 10/12/17
f 14/16/18 24/27/18 16/18/18
f 31/41/19 29/37/19 27/33/19
f 21/24/20 30/40/20 22/25/20
f 19/22/21 28/36/21 20/23/21
f 17/20/22 26/32/22 18/21/22
f 24/27/23 25/30/23 17/19/23
f 22/25/24 31/42/24 23/26/24
f 20/23/25 29/38/25 21/24/25
f 18/21/26 27/34/26 19/22/26
f 37/49/27 44/56/27 45/57/27
f 35/47/28 42/54/28 43/55/28
f 33/45/29 42/54/29 34/46/29
f 39/51/30 48/60/30 40/52/30
f 37/49/31 46/58/31 38/50/31
f 35/47/32 44/56/32 36/48/32
f 47/59/33 56/68/33 48/60/33
f 45/57/34 54/66/34 46/58/34
f 43/55/35 52/64/35 44/56/35
f 41/53/36 50/62/36 42/54/36
f 48/60/37 49/61/37 41/53/37
f 46/58/38 55/67/38 47/59/38
f 44/56/39 53/65/39 45/57/39
f 42/54/40 51/63/40 43/55/40
f 55/67/19 53/65/19 51/63/19
f 2/4/1 4/6/1 3/5/1
f 4/6/2 6/8/2 5/7/2
f 6/8/3 8/10/3 7/9/3
f 8/10/4 10/12/4 9/11/4
f 10/12/5 12/14/5 11/13/5
f 12/14/6 14/16/6 13/15/6
f 4/6/7 18/21/7 19/22/7
f 33/45/41 40/52/41 48/60/41
f 16/18/9 2/3/9 1/2/9
f 39/51/10 38/50/10 46/58/10
f 23/26/11 31/42/11 32/44/11
f 10/12/12 21/24/12 22/25/12
f 16/18/13 24/27/13 17/19/13
f 2/4/14 17/20/14 18/21/14
f 6/8/15 19/22/15 20/23/15
f 12/14/16 22/25/16 23/26/16
f 8/10/17 20/23/17 21/24/17
f 14/16/18 23/26/18 24/27/18
f 27/33/19 26/31/19 25/28/19
f 25/28/19 32/43/19 31/41/19
f 31/41/19 30/39/19 29/37/19
f 29/37/19 28/35/19 27/33/19
f 27/33/19 25/28/19 31/41/19
f 21/24/20 29/38/20 30/40/20
f 19/22/21 27/34/21 28/36/21
f 17/20/22 25/29/22 26/32/22
f 24/27/42 32/44/42 25/30/42
f 22/25/43 30/40/43 31/42/43
f 20/23/44 28/36/44 29/38/44
f 18/21/45 26/32/45 27/34/45
f 37/49/46 36/48/46 44/56/46
f 35/47/28 34/46/28 42/54/28
f 33/45/29 41/53/29 42/54/29
f 39/51/47 47/59/47 48/60/47
f 37/49/31 45/57/31 46/58/31
f 35/47/48 43/55/48 44/56/48
f 47/59/33 55/67/33 56/68/33
f 45/57/34 53/65/34 54/66/34
f 43/55/35 51/63/35 52/64/35
f 41/53/36 49/61/36 50/62/36
f 48/60/49 56/68/49 49/61/49
f 46/58/50 54/66/50 55/67/50
f 44/56/51 52/64/51 53/65/51
f 42/54/52 50/62/52 51/63/52
f 51/63/19 50/62/19 49/61/19
f 49/61/19 56/68/19 55/67/19
f 55/67/19 54/66/19 53/65/19
f 53/65/19 52/64/19 51/63/19
f 51/63/19 49/61/19 55/67/19
