# Blender 3.3.0
# www.blender.org
o LighthouseIslandCol04
v 0.000000 66.871147 -3.520796
v 0.000000 67.820702 -3.520796
v 0.686873 66.871147 -3.453145
v 0.686873 67.820702 -3.453145
v 1.347350 66.871147 -3.252791
v 1.347350 67.820702 -3.252791
v 1.956050 66.871147 -2.927435
v 1.956050 67.820702 -2.927435
v 2.489578 66.871147 -2.489578
v 2.489578 67.820702 -2.489578
v 2.927435 66.871147 -1.956050
v 2.927435 67.820702 -1.956050
v 3.252791 66.871147 -1.347350
v 3.252791 67.820702 -1.347350
v 3.453145 66.871147 -0.686873
v 3.453145 67.820702 -0.686873
v 3.520796 66.871147 0.000000
v 3.520796 67.820702 0.000000
v 3.453145 66.871147 0.686873
v 3.453145 67.820702 0.686873
v 3.252791 66.871147 1.347350
v 3.252791 67.820702 1.347350
v 2.927435 66.871147 1.956050
v 2.927435 67.820702 1.956050
v 2.489578 66.871147 2.489578
v 2.489578 67.820702 2.489578
v 1.956050 66.871147 2.927435
v 1.956050 67.820702 2.927435
v 1.347350 66.871147 3.252791
v 1.347350 67.820702 3.252791
v 0.686873 66.871147 3.453145
v 0.686873 67.820702 3.453145
v 0.000000 66.871147 3.520796
v 0.000000 67.820702 3.520796
v -0.686873 66.871147 3.453145
v -0.686873 67.820702 3.453145
v -1.347350 66.871147 3.252791
v -1.347350 67.820702 3.252791
v -1.956050 66.871147 2.927435
v -1.956050 67.820702 2.927435
v -2.489578 66.871147 2.489578
v -2.489578 67.820702 2.489578
v -2.927435 66.871147 1.956050
v -2.927435 67.820702 1.956050
v -3.252791 66.871147 1.347350
v -3.252791 67.820702 1.347350
v -3.453145 66.871147 0.686873
v -3.453145 67.820702 0.686873
v -3.520796 66.871147 0.000000
v -3.520796 67.820702 0.000000
v -3.453145 66.871147 -0.686873
v -3.453145 67.820702 -0.686873
v -3.252791 66.871147 -1.347350
v -3.252791 67.820702 -1.347350
v -2.927435 66.871147 -1.956050
v -2.927435 67.820702 -1.956050
v -2.489578 66.871147 -2.489578
v -2.489578 67.820702 -2.489578
v -1.956050 66.871147 -2.927435
v -1.956050 67.820702 -2.927435
v -1.347350 66.871147 -3.252791
v -1.347350 67.820702 -3.252791
v -0.686873 66.871147 -3.453145
v -0.686873 67.820702 -3.453145
v 0.000000 66.871147 -3.439285
v 0.000000 67.820702 -3.439285
v 0.670971 66.871147 -3.373200
v 0.670971 67.820702 -3.373200
v 1.316157 66.871147 -3.177484
v 1.316157 67.820702 -3.177484
v 1.910764 66.871147 -2.859661
v 1.910764 67.820702 -2.859661
v 2.431941 66.871147 -2.431941
v 2.431941 67.820702 -2.431941
v 2.859660 66.871147 -1.910764
v 2.859660 67.820702 -1.910764
v 3.177484 66.871147 -1.316157
v 3.177484 67.820702 -1.316157
v 3.373200 66.871147 -0.670971
v 3.373200 67.820702 -0.670971
v 3.439285 66.871147 0.000000
v 3.439285 67.820702 0.000000
v 3.373200 66.871147 0.670971
v 3.373200 67.820702 0.670971
v 3.177484 66.871147 1.316157
v 3.177484 67.820702 1.316157
v 2.859660 66.871147 1.910764
v 2.859660 67.820702 1.910764
v 2.431941 66.871147 2.431941
v 2.431941 67.820702 2.431941
v 1.910764 66.871147 2.859661
v 1.910764 67.820702 2.859661
v 1.316157 66.871147 3.177484
v 1.316157 67.820702 3.177484
v 0.670971 66.871147 3.373200
v 0.670971 67.820702 3.373200
v 0.000000 66.871147 3.439285
v 0.000000 67.820702 3.439285
v -0.670971 66.871147 3.373200
v -0.670971 67.820702 3.373200
v -1.316157 66.871147 3.177484
v -1.316157 67.820702 3.177484
v -1.910764 66.871147 2.859661
v -1.910764 67.820702 2.859661
v -2.431941 66.871147 2.431941
v -2.431941 67.820702 2.431941
v -2.859660 66.871147 1.910764
v -2.859660 67.820702 1.910764
v -3.177484 66.871147 1.316157
v -3.177484 67.820702 1.316157
v -3.373200 66.871147 0.670971
v -3.373200 67.820702 0.670971
v -3.439285 66.871147 0.000000
v -3.439285 67.820702 0.000000
v -3.373200 66.871147 -0.670971
v -3.373200 67.820702 -0.670971
v -3.177484 66.871147 -1.316157
v -3.177484 67.820702 -1.316157
v -2.859660 66.871147 -1.910764
v -2.859660 67.820702 -1.910764
v -2.431941 66.871147 -2.431941
v -2.431941 67.820702 -2.431941
v -1.910764 66.871147 -2.859661
v -1.910764 67.820702 -2.859661
v -1.316157 66.871147 -3.177484
v -1.316157 67.820702 -3.177484
v -0.670971 66.871147 -3.373200
v -0.670971 67.820702 -3.373200
vn 0.0980 -0.0000 -0.9952
vn 0.2903 -0.0000 -0.9569
vn 0.4714 -0.0000 -0.8819
vn 0.6344 -0.0000 -0.7730
vn 0.7730 -0.0000 -0.6344
vn 0.8819 -0.0000 -0.4714
vn 0.9569 -0.0000 -0.2903
vn 0.9952 -0.0000 -0.0980
vn 0.9952 -0.0000 0.0980
vn 0.9569 -0.0000 0.2903
vn 0.8819 -0.0000 0.4714
vn 0.7730 -0.0000 0.6344
vn 0.6344 -0.0000 0.7730
vn 0.4714 -0.0000 0.8819
vn 0.2903 -0.0000 0.9569
vn 0.0980 -0.0000 0.9952
vn -0.0980 -0.0000 0.9952
vn -0.2903 -0.0000 0.9569
vn -0.4714 -0.0000 0.8819
vn -0.6344 -0.0000 0.7730
vn -0.7730 -0.0000 0.6344
vn -0.8819 -0.0000 0.4714
vn -0.9569 -0.0000 0.2903
vn -0.9952 -0.0000 0.0980
vn -0.9952 -0.0000 -0.0980
vn -0.9569 -0.0000 -0.2903
vn -0.8819 -0.0000 -0.4714
vn -0.7730 -0.0000 -0.6344
vn -0.6344 -0.0000 -0.7730
vn -0.4714 -0.0000 -0.8819
vn -0.2903 -0.0000 -0.9569
vn -0.0980 -0.0000 -0.9952
vn -0.0000 -1.0000 -0.0000
vn -0.0000 1.0000 -0.0000
vn 0.0001 1.0000 -0.0000
vn -0.0001 1.0000 -0.0000
vn -0.0001 -1.0000 -0.0000
vn 0.0001 -1.0000 -0.0000
vt 1.000000 0.500000
vt 0.000000 0.500000
vt 1.000000 1.000000
vt 0.000000 1.000000
vt 0.968750 0.500000
vt 0.968750 1.000000
vt 0.937500 0.500000
vt 0.937500 1.000000
vt 0.906250 0.500000
vt 0.906250 1.000000
vt 0.875000 0.500000
vt 0.875000 1.000000
vt 0.843750 0.500000
vt 0.843750 1.000000
vt 0.812500 0.500000
vt 0.812500 1.000000
vt 0.781250 0.500000
vt 0.781250 1.000000
vt 0.750000 0.500000
vt 0.750000 1.000000
vt 0.718750 0.500000
vt 0.718750 1.000000
vt 0.687500 0.500000
vt 0.687500 1.000000
vt 0.656250 0.500000
vt 0.656250 1.000000
vt 0.625000 0.500000
vt 0.625000 1.000000
vt 0.593750 0.500000
vt 0.593750 1.000000
vt 0.562500 0.500000
vt 0.562500 1.000000
vt 0.531250 0.500000
vt 0.531250 1.000000
vt 0.500000 0.500000
vt 0.500000 1.000000
vt 0.468750 0.500000
vt 0.468750 1.000000
vt 0.437500 0.500000
vt 0.437500 1.000000
vt 0.406250 0.500000
vt 0.406250 1.000000
vt 0.375000 0.500000
vt 0.375000 1.000000
vt 0.343750 0.500000
vt 0.343750 1.000000
vt 0.312500 0.500000
vt 0.312500 1.000000
vt 0.281250 0.500000
vt 0.281250 1.000000
vt 0.250000 0.500000
vt 0.250000 1.000000
vt 0.218750 0.500000
vt 0.218750 1.000000
vt 0.187500 0.500000
vt 0.187500 1.000000
vt 0.156250 0.500000
vt 0.156250 1.000000
vt 0.125000 0.500000
vt 0.125000 1.000000
vt 0.093750 0.500000
vt 0.093750 1.000000
vt 0.062500 0.500000
vt 0.062500 1.000000
vt 0.031250 0.500000
vt 0.031250 1.000000
vt 1.000000 0.500000
vt 0.000000 0.500000
vt 0.000000 1.000000
vt 1.000000 1.000000
vt 0.968750 0.500000
vt 0.968750 1.000000
vt 0.937500 0.500000
vt 0.937500 1.000000
vt 0.906250 0.500000
vt 0.906250 1.000000
vt 0.875000 0.500000
vt 0.875000 1.000000
vt 0.843750 0.500000
vt 0.843750 1.000000
vt 0.812500 0.500000
vt 0.812500 1.000000
vt 0.781250 0.500000
vt 0.781250 1.000000
vt 0.750000 0.500000
vt 0.750000 1.000000
vt 0.718750 0.500000
vt 0.718750 1.000000
vt 0.687500 0.500000
vt 0.687500 1.000000
vt 0.656250 0.500000
vt 0.656250 1.000000
vt 0.625000 0.500000
vt 0.625000 1.000000
vt 0.593750 0.500000
vt 0.593750 1.000000
vt 0.562500 0.500000
vt 0.562500 1.000000
vt 0.531250 0.500000
vt 0.531250 1.000000
vt 0.500000 0.500000
vt 0.500000 1.000000
vt 0.468750 0.500000
vt 0.468750 1.000000
vt 0.437500 0.500000
vt 0.437500 1.000000
vt 0.406250 0.500000
vt 0.406250 1.000000
vt 0.375000 0.500000
vt 0.375000 1.000000
vt 0.343750 0.500000
vt 0.343750 1.000000
vt 0.312500 0.500000
vt 0.312500 1.000000
vt 0.281250 0.500000
vt 0.281250 1.000000
vt 0.250000 0.500000
vt 0.250000 1.000000
vt 0.218750 0.500000
vt 0.218750 1.000000
vt 0.187500 0.500000
vt 0.187500 1.000000
vt 0.156250 0.500000
vt 0.156250 1.000000
vt 0.125000 0.500000
vt 0.125000 1.000000
vt 0.093750 0.500000
vt 0.093750 1.000000
vt 0.062500 0.500000
vt 0.062500 1.000000
vt 0.031250 0.500000
vt 0.031250 1.000000
s 0
f 2/3/1 3/5/1 1/1/1
f 4/6/2 5/7/2 3/5/2
f 6/8/3 7/9/3 5/7/3
f 8/10/4 9/11/4 7/9/4
f 10/12/5 11/13/5 9/11/5
f 12/14/6 13/15/6 11/13/6
f 14/16/7 15/17/7 13/15/7
f 16/18/8 17/19/8 15/17/8
f 18/20/9 19/21/9 17/19/9
f 20/22/10 21/23/10 19/21/10
f 22/24/11 23/25/11 21/23/11
f 24/26/12 25/27/12 23/25/12
f 26/28/13 27/29/13 25/27/13
f 28/30/14 29/31/14 27/29/14
f 30/32/15 31/33/15 29/31/15
f 32/34/16 33/35/16 31/33/16
f 34/36/17 35/37/17 33/35/17
f 36/38/18 37/39/18 35/37/18
f 38/40/19 39/41/19 37/39/19
f 40/42/20 41/43/20 39/41/20
f 42/44/21 43/45/21 41/43/21
f 44/46/22 45/47/22 43/45/22
f 46/48/23 47/49/23 45/47/23
f 48/50/24 49/51/24 47/49/24
f 50/52/25 51/53/25 49/51/25
f 52/54/26 53/55/26 51/53/26
f 54/56/27 55/57/27 53/55/27
f 56/58/28 57/59/28 55/57/28
f 58/60/29 59/61/29 57/59/29
f 60/62/30 61/63/30 59/61/30
f 62/64/31 63/65/31 61/63/31
f 64/66/32 1/2/32 63/65/32
f 67/71/17 66/70/17 65/67/17
f 69/73/18 68/72/18 67/71/18
f 71/75/19 70/74/19 69/73/19
f 73/77/20 72/76/20 71/75/20
f 75/79/21 74/78/21 73/77/21
f 77/81/22 76/80/22 75/79/22
f 79/83/23 78/82/23 77/81/23
f 81/85/24 80/84/24 79/83/24
f 83/87/25 82/86/25 81/85/25
f 85/89/26 84/88/26 83/87/26
f 87/91/27 86/90/27 85/89/27
f 89/93/28 88/92/28 87/91/28
f 91/95/29 90/94/29 89/93/29
f 93/97/30 92/96/30 91/95/30
f 95/99/31 94/98/31 93/97/31
f 97/101/32 96/100/32 95/99/32
f 99/103/1 98/102/1 97/101/1
f 101/105/2 100/104/2 99/103/2
f 103/107/3 102/106/3 101/105/3
f 105/109/4 104/108/4 103/107/4
f 107/111/5 106/110/5 105/109/5
f 109/113/6 108/112/6 107/111/6
f 111/115/7 110/114/7 109/113/7
f 113/117/8 112/116/8 111/115/8
f 115/119/9 114/118/9 113/117/9
f 117/121/10 116/120/10 115/119/10
f 119/123/11 118/122/11 117/121/11
f 121/125/12 120/124/12 119/123/12
f 123/127/13 122/126/13 121/125/13
f 125/129/14 124/128/14 123/127/14
f 127/131/15 126/130/15 125/129/15
f 65/68/16 128/132/16 127/131/16
f 1/1/33 67/71/33 65/67/33
f 2/3/34 68/72/34 4/6/34
f 5/7/33 67/71/33 3/5/33
f 4/6/34 70/74/34 6/8/34
f 5/7/33 71/75/33 69/73/33
f 6/8/34 72/76/34 8/10/34
f 9/11/33 71/75/33 7/9/33
f 10/12/34 72/76/34 74/78/34
f 9/11/33 75/79/33 73/77/33
f 10/12/34 76/80/34 12/14/34
f 13/15/33 75/79/33 11/13/33
f 12/14/34 78/82/34 14/16/34
f 13/15/33 79/83/33 77/81/33
f 14/16/35 80/84/35 16/18/35
f 17/19/33 79/83/33 15/17/33
f 18/20/34 80/84/34 82/86/34
f 17/19/33 83/87/33 81/85/33
f 18/20/36 84/88/36 20/22/36
f 21/23/33 83/87/33 19/21/33
f 22/24/34 84/88/34 86/90/34
f 23/25/33 85/89/33 21/23/33
f 22/24/36 88/92/36 24/26/36
f 25/27/37 87/91/37 23/25/37
f 26/28/35 88/92/35 90/94/35
f 25/27/33 91/95/33 89/93/33
f 26/28/34 92/96/34 28/30/34
f 29/31/33 91/95/33 27/29/33
f 30/32/36 92/96/36 94/98/36
f 31/33/33 93/97/33 29/31/33
f 30/32/34 96/100/34 32/34/34
f 33/35/33 95/99/33 31/33/33
f 34/36/34 96/100/34 98/102/34
f 33/35/33 99/103/33 97/101/33
f 34/36/34 100/104/34 36/38/34
f 37/39/33 99/103/33 35/37/33
f 36/38/34 102/106/34 38/40/34
f 37/39/33 103/107/33 101/105/33
f 38/40/34 104/108/34 40/42/34
f 41/43/33 103/107/33 39/41/33
f 42/44/34 104/108/34 106/110/34
f 41/43/33 107/111/33 105/109/33
f 42/44/34 108/112/34 44/46/34
f 45/47/33 107/111/33 43/45/33
f 44/46/34 110/114/34 46/48/34
f 45/47/33 111/115/33 109/113/33
f 46/48/36 112/116/36 48/50/36
f 49/51/33 111/115/33 47/49/33
f 50/52/34 112/116/34 114/118/34
f 49/51/33 115/119/33 113/117/33
f 50/52/35 116/120/35 52/54/35
f 53/55/33 115/119/33 51/53/33
f 54/56/34 116/120/34 118/122/34
f 55/57/33 117/121/33 53/55/33
f 54/56/35 120/124/35 56/58/35
f 57/59/38 119/123/38 55/57/38
f 58/60/36 120/124/36 122/126/36
f 57/59/33 123/127/33 121/125/33
f 58/60/34 124/128/34 60/62/34
f 61/63/33 123/127/33 59/61/33
f 62/64/35 124/128/35 126/130/35
f 63/65/33 125/129/33 61/63/33
f 62/64/34 128/132/34 64/66/34
f 1/2/33 127/131/33 63/65/33
f 2/4/34 128/132/34 66/69/34
f 2/3/1 4/6/1 3/5/1
f 4/6/2 6/8/2 5/7/2
f 6/8/3 8/10/3 7/9/3
f 8/10/4 10/12/4 9/11/4
f 10/12/5 12/14/5 11/13/5
f 12/14/6 14/16/6 13/15/6
f 14/16/7 16/18/7 15/17/7
f 16/18/8 18/20/8 17/19/8
f 18/20/9 20/22/9 19/21/9
f 20/22/10 22/24/10 21/23/10
f 22/24/11 24/26/11 23/25/11
f 24/26/12 26/28/12 25/27/12
f 26/28/13 28/30/13 27/29/13
f 28/30/14 30/32/14 29/31/14
f 30/32/15 32/34/15 31/33/15
f 32/34/16 34/36/16 33/35/16
f 34/36/17 36/38/17 35/37/17
f 36/38/18 38/40/18 37/39/18
f 38/40/19 40/42/19 39/41/19
f 40/42/20 42/44/20 41/43/20
f 42/44/21 44/46/21 43/45/21
f 44/46/22 46/48/22 45/47/22
f 46/48/23 48/50/23 47/49/23
f 48/50/24 50/52/24 49/51/24
f 50/52/25 52/54/25 51/53/25
f 52/54/26 54/56/26 53/55/26
f 54/56/27 56/58/27 55/57/27
f 56/58/28 58/60/28 57/59/28
f 58/60/29 60/62/29 59/61/29
f 60/62/30 62/64/30 61/63/30
f 62/64/31 64/66/31 63/65/31
f 64/66/32 2/4/32 1/2/32
f 67/71/17 68/72/17 66/70/17
f 69/73/18 70/74/18 68/72/18
f 71/75/19 72/76/19 70/74/19
f 73/77/20 74/78/20 72/76/20
f 75/79/21 76/80/21 74/78/21
f 77/81/22 78/82/22 76/80/22
f 79/83/23 80/84/23 78/82/23
f 81/85/24 82/86/24 80/84/24
f 83/87/25 84/88/25 82/86/25
f 85/89/26 86/90/26 84/88/26
f 87/91/27 88/92/27 86/90/27
f 89/93/28 90/94/28 88/92/28
f 91/95/29 92/96/29 90/94/29
f 93/97/30 94/98/30 92/96/30
f 95/99/31 96/100/31 94/98/31
f 97/101/32 98/102/32 96/100/32
f 99/103/1 100/104/1 98/102/1
f 101/105/2 102/106/2 100/104/2
f 103/107/3 104/108/3 102/106/3
f 105/109/4 106/110/4 104/108/4
f 107/111/5 108/112/5 106/110/5
f 109/113/6 110/114/6 108/112/6
f 111/115/7 112/116/7 110/114/7
f 113/117/8 114/118/8 112/116/8
f 115/119/9 116/120/9 114/118/9
f 117/121/10 118/122/10 116/120/10
f 119/123/11 120/124/11 118/122/11
f 121/125/12 122/126/12 120/124/12
f 123/127/13 124/128/13 122/126/13
f 125/129/14 126/130/14 124/128/14
f 127/131/15 128/132/15 126/130/15
f 65/68/16 66/69/16 128/132/16
f 1/1/33 3/5/33 67/71/33
f 2/3/34 66/70/34 68/72/34
f 5/7/33 69/73/33 67/71/33
f 4/6/34 68/72/34 70/74/34
f 5/7/33 7/9/33 71/75/33
f 6/8/36 70/74/36 72/76/36
f 9/11/33 73/77/33 71/75/33
f 10/12/34 8/10/34 72/76/34
f 9/11/37 11/13/37 75/79/37
f 10/12/35 74/78/35 76/80/35
f 13/15/33 77/81/33 75/79/33
f 12/14/34 76/80/34 78/82/34
f 13/15/33 15/17/33 79/83/33
f 14/16/34 78/82/34 80/84/34
f 17/19/33 81/85/33 79/83/33
f 18/20/36 16/18/36 80/84/36
f 17/19/33 19/21/33 83/87/33
f 18/20/34 82/86/34 84/88/34
f 21/23/33 85/89/33 83/87/33
f 22/24/35 20/22/35 84/88/35
f 23/25/33 87/91/33 85/89/33
f 22/24/34 86/90/34 88/92/34
f 25/27/33 89/93/33 87/91/33
f 26/28/34 24/26/34 88/92/34
f 25/27/33 27/29/33 91/95/33
f 26/28/34 90/94/34 92/96/34
f 29/31/33 93/97/33 91/95/33
f 30/32/34 28/30/34 92/96/34
f 31/33/33 95/99/33 93/97/33
f 30/32/34 94/98/34 96/100/34
f 33/35/33 97/101/33 95/99/33
f 34/36/34 32/34/34 96/100/34
f 33/35/33 35/37/33 99/103/33
f 34/36/34 98/102/34 100/104/34
f 37/39/33 101/105/33 99/103/33
f 36/38/34 100/104/34 102/106/34
f 37/39/33 39/41/33 103/107/33
f 38/40/35 102/106/35 104/108/35
f 41/43/33 105/109/33 103/107/33
f 42/44/34 40/42/34 104/108/34
f 41/43/38 43/45/38 107/111/38
f 42/44/36 106/110/36 108/112/36
f 45/47/33 109/113/33 107/111/33
f 44/46/34 108/112/34 110/114/34
f 45/47/33 47/49/33 111/115/33
f 46/48/34 110/114/34 112/116/34
f 49/51/33 113/117/33 111/115/33
f 50/52/35 48/50/35 112/116/35
f 49/51/33 51/53/33 115/119/33
f 50/52/34 114/118/34 116/120/34
f 53/55/33 117/121/33 115/119/33
f 54/56/36 52/54/36 116/120/36
f 55/57/33 119/123/33 117/121/33
f 54/56/34 118/122/34 120/124/34
f 57/59/33 121/125/33 119/123/33
f 58/60/34 56/58/34 120/124/34
f 57/59/33 59/61/33 123/127/33
f 58/60/34 122/126/34 124/128/34
f 61/63/33 125/129/33 123/127/33
f 62/64/34 60/62/34 124/128/34
f 63/65/33 127/131/33 125/129/33
f 62/64/34 126/130/34 128/132/34
f 1/2/33 65/68/33 127/131/33
f 2/4/34 64/66/34 128/132/34
