# Blender 3.3.0
# www.blender.org
mtllib PondIsland_col.mtl
o PondIslandCollision
v 7.039988 -0.381333 2.759710
v 2.064424 -16.477354 3.426474
v -2.530567 -0.467933 -10.513733
v 13.246848 -0.710080 14.122421
v 21.266062 -3.323544 4.565958
v -12.915510 -5.621674 -5.971823
v -14.774541 -2.783037 -1.207110
v -7.389435 -1.661157 16.861069
v 17.315029 0.708186 2.043733
v 5.702071 -0.426653 -1.642543
v 4.549758 -16.450453 3.778418
v -11.002844 -5.286682 -8.394408
v 15.099260 -11.050547 -0.024485
v 13.768149 -12.261908 2.282793
v -4.891536 -3.770511 19.396051
v -8.037680 -4.279919 -10.519713
v -14.104850 -1.688069 3.227603
v -12.951275 -0.895778 7.154808
v -0.238408 -1.886707 -11.983624
v -6.118606 -1.468726 -11.052301
v 19.892420 -3.769375 -1.295183
v 5.435451 -1.406570 18.316410
v 7.663033 -13.264263 -3.653231
v -6.390891 0.961229 -5.875322
v 10.662033 -0.456082 10.869139
v 17.042528 -3.508729 11.869509
v 7.818862 0.202245 -5.882637
v -0.633053 -0.071402 -7.238275
v -1.970139 -15.124725 3.882226
v 7.002667 -14.327176 -0.166708
v -2.283329 -8.113696 16.789110
v 17.763304 -3.753574 -4.544744
v 15.595402 -5.950068 12.332314
v -3.973435 -12.011760 12.409345
v 13.126555 -9.656198 11.844747
v -10.307265 -3.080589 14.462165
v -9.956819 0.180331 -0.586252
v 2.092983 -0.298132 -10.761895
v 15.897161 -10.912408 2.234422
v -9.815690 -0.721792 13.970017
v 15.419731 -6.391734 -5.820341
v 15.032223 -0.449605 11.845012
v -11.909777 -0.475252 6.109758
v -9.163874 -0.125921 -9.014243
v -3.078703 -1.284648 18.593193
v 8.288481 -4.591706 -11.023019
v -4.767639 -4.984541 -11.502218
v -14.662241 -5.186955 1.472547
v -11.890650 -8.084299 -4.836502
v 9.267794 -7.008591 -9.522084
v 16.968090 -9.313890 -0.595491
v 3.960703 -8.233155 16.498837
v 1.943581 -14.985799 -0.502318
v 11.394757 -11.957987 -0.763696
v -1.459368 -0.449240 -2.541078
v 16.068542 0.934057 -1.054747
v 7.720539 -0.554716 15.459804
v 20.194550 -3.569752 7.993683
v -13.186868 -1.419218 -4.523723
v -10.598190 -0.066269 -7.035125
v 11.222094 -0.056287 -8.572222
v 14.155166 -7.783075 -5.784265
v 0.934672 -0.882061 17.690193
v 12.274432 -5.282864 15.139322
v -6.888963 0.132018 -9.671780
v 20.767544 -5.228515 4.418404
v -11.439050 -1.351355 11.951170
v -13.838341 -4.538132 6.729838
v 19.254486 -5.225091 8.608412
v -6.503791 -5.433203 17.732924
v -5.223665 -14.421651 -2.721925
v -5.627547 -13.902830 3.989414
v 13.787624 1.358177 0.977219
v 7.175159 -15.767253 4.291139
v 16.364128 -1.343320 11.749127
v 5.736797 -1.596963 -11.356436
v -11.175718 -0.959828 -7.704051
v -14.326674 -3.838152 -3.951779
v -12.443974 -3.479753 -7.026699
v 6.809910 -0.241398 -9.406612
v 4.533772 -3.776823 -12.217356
v 13.709287 -3.605715 -8.320067
v 18.130842 -0.735577 8.578161
v -4.254863 -0.519454 16.654282
v -7.822710 -3.472182 17.237656
v 1.820312 -16.165462 5.883428
v 6.751504 -15.504662 5.798766
v -0.081592 -11.347672 12.770428
v -4.460369 -0.468861 3.932747
v -1.143906 -1.042307 12.279909
v 13.246114 0.016242 -6.714749
v 14.955901 -0.489153 -6.505943
v -8.732358 -11.032331 8.591237
v -6.196923 -12.656811 -5.057227
v -0.151851 -12.770660 -5.887743
v -7.070039 -8.346537 -8.710629
v -7.463639 -12.473126 -4.104598
v -7.483774 -13.229301 -1.628502
v 5.813073 -11.927699 -5.952515
v -7.775140 -9.447340 12.685576
v 5.034704 -0.817018 17.808851
v 7.538289 -3.357836 18.104568
v 2.609878 -3.634838 19.788603
v 20.008532 -5.348455 7.041542
v 12.921901 -11.113979 10.277973
v 17.571056 -0.631732 -3.358430
v 12.490872 -8.185653 -6.822169
v -0.047774 -3.821500 -12.474608
v -14.131544 -5.685783 -2.924467
v -11.826230 -9.030309 -1.845078
v -10.432444 -10.310428 7.247163
v -8.374963 -11.958925 2.006430
v -10.227577 -0.498751 12.699197
v -13.141782 -3.234994 9.232450
v -15.116680 -3.785595 -0.432463
v -14.929168 -3.809819 2.524958
v -12.993377 -0.307258 0.093764
v 11.742470 -5.741025 -8.976078
v 19.090557 -0.443672 4.041298
v 19.036106 -0.431011 0.246313
v 20.425724 -5.451707 1.440820
v -9.155766 -5.411747 15.198040
v 4.889739 -1.032329 9.336941
v 5.776011 -12.399477 12.304048
v -4.984659 -10.818832 13.471087
v -2.465611 -15.125436 -2.701995
v -4.275457 -15.058384 1.282734
v 11.579961 -13.048356 3.387978
v 3.297961 -5.752528 19.017145
v 0.490386 -6.772021 18.680548
v -11.411774 -5.366673 11.890534
v -11.579936 -8.148335 8.784339
v -9.687646 -6.926888 -8.517146
v 2.725638 -11.256356 -8.872080
v 4.238556 -7.517268 -11.081431
v 20.942396 -3.465839 1.251440
v 15.953332 -9.298949 6.080795
v 12.947334 -2.062707 15.057306
v 10.538538 -6.893721 15.004945
v 10.871091 -9.313440 -6.228989
v -3.945122 -13.956995 -4.472271
v 14.992394 0.380407 5.866129
v 4.746293 -13.086658 11.826831
v -0.640569 -13.774316 8.948139
v -3.384119 -3.336316 19.933884
v 10.673190 -1.940574 -9.933557
v -9.890388 -1.736555 -9.405787
v 14.971264 -1.780597 -7.212805
v -4.301773 -5.604501 18.917376
v 7.009583 -5.780520 17.697451
v -0.640517 -3.425967 20.275883
v 18.578009 -5.457092 -2.594052
v 1.207325 -10.550086 -9.526669
v 1.416939 -6.171957 -11.905684
v -1.057444 -5.757770 19.645386
vn 0.6303 -0.3779 0.6782
vn 0.5063 -0.2949 0.8103
vn 0.4859 -0.5981 0.6372
vn 0.8011 -0.5179 0.3000
vn 0.8903 0.1051 0.4431
vn 0.7452 -0.4532 0.4891
vn -0.3040 -0.5160 0.8008
vn -0.4395 0.0217 0.8980
vn -0.5418 -0.4375 0.7177
vn 0.3033 -0.9105 -0.2811
vn 0.4728 -0.8809 -0.0212
vn 0.3778 -0.9258 -0.0127
vn 0.2437 0.8067 -0.5384
vn -0.0677 0.9967 -0.0449
vn -0.0311 0.9981 0.0525
vn 0.0500 0.9984 -0.0276
vn 0.0612 0.9952 0.0762
vn -0.0878 0.9949 0.0499
vn -0.1400 0.7558 0.6397
vn -0.4805 0.5725 0.6643
vn -0.2467 0.1637 0.9552
vn -0.0625 0.9965 0.0558
vn -0.4397 0.8672 -0.2338
vn -0.5150 0.8570 -0.0199
vn -0.0532 0.9949 0.0859
vn 0.0225 0.8655 -0.5004
vn 0.1494 -0.9869 -0.0613
vn 0.2659 -0.9065 0.3278
vn -0.1438 -0.9407 0.3072
vn -0.2246 -0.8791 0.4204
vn 0.0598 -0.8144 0.5771
vn -0.0266 -0.7903 0.6121
vn 0.5356 0.6467 -0.5431
vn 0.2234 0.9352 -0.2748
vn 0.2763 0.9453 -0.1734
vn -0.4470 -0.8746 0.1878
vn -0.5005 -0.8047 0.3192
vn -0.6863 -0.7059 0.1750
vn -0.0592 -0.5035 0.8620
vn 0.0479 -0.7047 0.7079
vn -0.0896 -0.7451 0.6609
vn -0.4114 -0.1571 -0.8978
vn -0.2420 -0.2557 -0.9360
vn -0.4929 -0.5108 -0.7044
vn -0.9987 -0.0095 -0.0501
vn -0.9317 0.0345 -0.3616
vn -0.8828 -0.4260 -0.1981
vn -0.8917 -0.4484 0.0608
vn -0.7412 -0.6697 -0.0454
vn -0.6545 -0.7543 0.0513
vn -0.9893 0.0185 0.1446
vn -0.9393 -0.2201 0.2631
vn 0.5758 -0.0862 -0.8130
vn 0.6360 -0.4279 -0.6421
vn 0.4800 -0.3476 -0.8054
vn -0.6671 0.0351 0.7441
vn -0.7038 -0.3826 0.5986
vn 0.0019 0.9999 -0.0152
vn 0.5132 -0.7637 0.3916
vn 0.2390 -0.7168 0.6551
vn -0.7116 0.4709 -0.5214
vn -0.7722 0.5571 -0.3053
vn 0.3677 0.8531 0.3702
vn 0.3675 0.7614 0.5340
vn 0.5870 0.7425 0.3227
vn -0.0817 0.9644 0.2514
vn -0.5250 0.7042 0.4780
vn 0.3557 -0.5597 0.7485
vn 0.1548 -0.7019 0.6953
vn 0.0414 -0.8669 -0.4967
vn 0.0554 -0.9462 -0.3187
vn -0.0088 -0.9542 -0.2991
vn -0.3147 -0.9472 0.0620
vn -0.3790 -0.8921 -0.2462
vn 0.7150 -0.0084 0.6991
vn 0.6760 0.5914 -0.4396
vn 0.7093 0.6772 -0.1958
vn 0.6425 0.7598 0.0994
vn 0.9775 0.1814 0.1080
vn -0.7962 -0.3309 -0.5064
vn -0.6463 -0.2485 -0.7215
vn -0.7905 -0.5155 0.3307
vn -0.8556 0.5065 0.1067
vn -0.9071 0.4018 -0.1253
vn -0.8098 0.4270 0.4024
vn -0.8001 0.0458 0.5981
vn -0.9315 0.0549 0.3596
vn -0.3648 0.9113 0.1912
vn -0.6996 0.6905 0.1836
vn -0.8246 -0.3156 0.4694
vn -0.2303 0.3480 -0.9088
vn -0.0432 0.4444 -0.8948
vn -0.0587 -0.0130 -0.9982
vn -0.5714 0.2106 -0.7932
vn -0.3765 0.7536 -0.5389
vn -0.1326 0.8390 -0.5277
vn -0.3206 -0.5866 -0.7437
vn -0.0814 -0.6357 -0.7676
vn 0.1900 -0.4499 -0.8727
vn 0.1434 -0.7680 -0.6242
vn -0.0130 -0.3578 -0.9337
vn 0.1673 0.0096 -0.9859
vn 0.9669 0.1112 -0.2294
vn 0.6838 -0.6547 -0.3222
vn 0.6305 -0.7726 0.0743
vn 0.4654 -0.8186 -0.3367
vn 0.7766 -0.0338 -0.6290
vn 0.7750 -0.4018 -0.4877
vn 0.8776 -0.4703 0.0928
vn 0.6423 -0.7324 0.2258
vn 0.4038 0.0373 0.9141
vn 0.2338 0.5219 0.8203
vn 0.2098 0.0368 0.9770
vn -0.3492 -0.7321 0.5849
vn 0.2990 -0.8499 -0.4340
vn 0.3827 -0.7464 -0.5445
vn 0.2288 -0.8061 -0.5458
vn 0.3549 -0.5341 -0.7673
vn -0.6079 -0.7916 -0.0623
vn -0.5616 -0.7260 -0.3968
vn -0.1599 -0.7708 -0.6166
vn -0.3667 -0.7175 -0.5922
vn -0.2024 -0.8621 0.4645
vn -0.5685 -0.6518 0.5019
vn -0.0099 0.8624 -0.5061
vn 0.3431 0.9383 0.0426
vn -0.1074 0.9920 0.0668
vn -0.0040 0.9898 0.1423
vn 0.0343 0.9985 0.0418
vn 0.0728 0.9973 -0.0018
vn -0.0466 0.9984 0.0311
vn 0.0169 0.1805 0.9834
vn 0.6275 0.5241 0.5758
vn 0.3985 0.2548 -0.8811
vn 0.3447 -0.1631 -0.9244
vn 0.1887 0.4774 -0.8582
vn -0.7994 0.0783 -0.5957
vn 0.6398 0.2315 -0.7329
vn -0.0629 0.9971 0.0430
vn -0.2593 -0.9554 0.1414
vn 0.5171 -0.6385 -0.5700
vn 0.3971 -0.8511 -0.3435
vn 0.3459 -0.4613 0.8170
vn 0.2286 -0.4642 0.8557
vn 0.5286 0.1945 0.8263
vn 0.8723 -0.4499 -0.1914
vn 0.8947 0.0020 -0.4467
vn 0.4475 -0.6691 -0.5934
vn 0.0136 0.9642 0.2647
vn 0.4123 -0.9110 0.0125
vn -0.6971 -0.6123 -0.3731
vn -0.1626 0.9846 0.0640
vn 0.0031 0.9969 0.0791
vn 0.0514 0.8767 0.4782
vn -0.1410 -0.9805 -0.1370
vt 0.488904 0.141922
vt 0.463433 0.518057
vt 0.669161 0.199580
vt 0.272438 0.982414
vt 0.350817 0.118707
vt 0.437748 0.005585
vt 0.178180 0.081704
vt 0.040394 0.527905
vt 0.607072 0.360374
vt 0.017449 0.584360
vt 0.394117 0.348332
vt 0.089252 0.803099
vt 0.468415 0.034387
vt 0.544586 0.144821
vt 0.462050 0.544468
vt 0.036393 0.496439
vt 0.217744 0.190307
vt 0.514127 0.659357
vt 0.241300 0.185026
vt 0.485031 0.652213
vt 0.124466 0.822225
vt 0.031557 0.457661
vt 0.572947 0.371213
vt 0.022481 0.635122
vt 0.524856 0.375073
vt 0.033885 0.676043
vt 0.673140 0.160278
vt 0.025253 0.365228
vt 0.013091 0.432127
vt 0.686320 0.238694
vt 0.142522 0.132446
vt 0.333699 0.215342
vt 0.190690 0.919909
vt 0.547446 0.577260
vt 0.631594 0.259286
vt 0.400787 0.130028
vt 0.253667 0.030058
vt 0.309846 0.983278
vt 0.581938 0.109749
vt 0.624559 0.190619
vt 0.457176 0.475171
vt 0.505400 0.569873
vt 0.182282 0.801153
vt 0.335114 0.484580
vt 0.120181 0.167231
vt 0.278067 0.043214
vt 0.321933 0.960790
vt 0.209903 0.761801
vt 0.358446 0.457344
vt 0.365875 0.644698
vt 0.328020 0.917709
vt 0.315656 0.081557
vt 0.084025 0.755282
vt 0.584132 0.310981
vt 0.654452 0.150698
vt 0.475040 0.664593
vt 0.235901 0.162117
vt 0.432244 0.365082
vt 0.067181 0.759164
vt 0.134498 0.201379
vt 0.377793 0.096217
vt 0.518438 0.351091
vt 0.001963 0.472214
vt 0.675457 0.276239
vt 0.119367 0.852185
vt 0.362254 0.307284
vt 0.078638 0.282103
vt 0.047434 0.421329
vt 0.053723 0.607533
vt 0.070842 0.531833
vt 0.114462 0.280295
vt 0.190777 0.169083
vt 0.235923 0.848262
vt 0.508102 0.512133
vt 0.524084 0.617943
vt 0.585591 0.219814
vt 0.504683 0.037093
vt 0.356804 0.183347
vt 0.207363 0.058627
vt 0.641833 0.337208
vt 0.003589 0.549762
vt 0.654349 0.297714
vt 0.599529 0.060611
vt 0.065986 0.232250
vt 0.568467 0.650092
vt 0.147887 0.219073
vt 0.359105 0.258769
vt 0.285468 0.945183
vt 0.672267 0.245818
vt 0.192036 0.096111
vt 0.461179 0.374955
vt 0.057927 0.733829
vt 0.061514 0.664876
vt 0.237351 0.066957
vt 0.127027 0.793643
vt 0.524979 0.438658
vt 0.449981 0.435304
vt 0.490604 0.068531
vt 0.460846 0.575170
vt 0.243360 0.012654
vt 0.365371 0.076093
vt 0.295458 0.998804
vt 0.041911 0.300061
vt 0.649704 0.110149
vt 0.669671 0.302606
vt 0.001489 0.500219
vt 0.024670 0.552812
vt 0.018453 0.514807
vt 0.628467 0.111134
vt 0.056631 0.318849
vt 0.097864 0.221373
vt 0.202421 0.038806
vt 0.394038 0.046969
vt 0.391633 0.310823
vt 0.101928 0.790261
vt 0.438805 0.519106
vt 0.441307 0.567608
vt 0.222890 0.803803
vt 0.351756 0.501061
vt 0.505862 0.267326
vt 0.418905 0.265802
vt 0.570336 0.045406
vt 0.564619 0.028051
vt 0.086289 0.190374
vt 0.152786 0.664157
vt 0.395122 0.394698
vt 0.553615 0.421831
vt 0.133563 0.415003
vt 0.570513 0.484054
vt 0.594713 0.408191
vt 0.080163 0.459147
vt 0.542597 0.400364
vt 0.119764 0.519084
vt 0.131288 0.546017
vt 0.513411 0.413279
vt 0.156700 0.327597
vt 0.578597 0.554629
vt 0.148701 0.728518
vt 0.366855 0.390277
vt 0.341585 0.218426
vt 0.220607 0.922597
vt 0.180089 0.886673
vt 0.212470 0.079474
vt 0.298224 0.111137
vt 0.398240 0.641510
vt 0.115177 0.141889
vt 0.516772 0.011966
vt 0.589357 0.643545
vt 0.141442 0.240576
vt 0.041917 0.367227
vt 0.046233 0.561251
vt 0.089570 0.560048
vt 0.132702 0.651416
vt 0.431816 0.386717
vt 0.132359 0.585657
vt 0.472423 0.394793
vt 0.449680 0.362618
vt 0.058932 0.696984
vt 0.031047 0.591953
vt 0.040285 0.623368
vt 0.592654 0.348480
vt 0.106722 0.247640
vt 0.171421 0.064033
vt 0.440330 0.021789
vt 0.135097 0.106481
vt 0.480049 0.009360
vt 0.172054 0.119870
vt 0.110500 0.761249
vt 0.430890 0.192230
vt 0.363820 0.565172
vt 0.285736 0.833746
vt 0.188274 0.747058
vt 0.344968 0.441653
vt 0.523169 0.469196
vt 0.487008 0.449627
vt 0.467103 0.623518
vt 0.198922 0.871688
vt 0.186696 0.841941
vt 0.091549 0.720473
vt 0.102276 0.685689
vt 0.057027 0.484226
vt 0.593667 0.515123
vt 0.140110 0.359143
vt 0.096071 0.335361
vt 0.157437 0.107300
vt 0.255512 0.124208
vt 0.435343 0.664052
vt 0.271928 0.968643
vt 0.284418 0.917345
vt 0.153558 0.264983
vt 0.588610 0.615820
vt 0.545684 0.452100
vt 0.433690 0.076911
vt 0.373827 0.551157
vt 0.268929 0.816026
vt 0.394840 0.485952
vt 0.130439 0.840190
vt 0.070337 0.248194
vt 0.011297 0.478683
vt 0.093935 0.196351
vt 0.144013 0.814869
vt 0.233360 0.898433
vt 0.152345 0.862494
vt 0.149482 0.155425
vt 0.121517 0.376345
vt 0.071883 0.357880
vt 0.162532 0.841686
s 1
usemtl Terrain
f 33/47/1 64/88/2 35/51/3
f 104/143/4 58/79/5 69/94/6
f 149/201/7 15/21/8 70/95/9
f 30/42/10 128/176/11 74/99/12
f 61/83/13 27/39/14 73/98/15
f 28/40/16 55/76/17 10/14/18
f 45/65/19 8/12/20 145/197/21
f 37/54/22 60/82/23 117/161/24
f 80/109/25 61/83/13 38/55/26
f 11/15/27 87/117/28 86/116/29
f 144/196/30 143/194/31 88/119/32
f 92/123/33 91/122/34 56/77/35
f 72/97/36 93/126/37 111/154/38
f 145/197/21 15/21/8 155/207/39
f 130/178/40 31/43/41 88/118/32
f 69/94/6 33/46/1 35/52/3
f 16/22/42 47/68/43 133/181/44
f 115/159/45 78/107/46 109/151/47
f 48/69/48 109/151/47 110/152/49
f 48/69/48 112/155/50 111/153/38
f 116/160/51 48/69/48 68/93/52
f 82/111/53 41/60/54 118/162/55
f 70/95/9 85/115/56 122/168/57
f 60/82/23 37/54/22 24/35/58
f 105/145/59 35/50/3 124/170/60
f 61/83/13 91/122/34 92/123/33
f 60/82/23 77/105/61 59/80/62
f 42/61/63 4/5/64 83/113/65
f 84/114/66 40/58/67 45/66/19
f 124/171/60 139/189/68 52/73/69
f 24/35/58 37/54/22 55/76/17
f 95/129/70 53/74/71 126/174/72
f 126/174/72 127/175/73 71/96/74
f 69/94/6 26/37/75 33/46/1
f 106/147/76 56/77/35 120/166/77
f 120/166/77 119/164/78 5/6/79
f 6/8/80 12/16/81 133/181/44
f 68/93/52 48/69/48 132/180/82
f 17/23/83 117/161/24 7/9/84
f 40/59/67 67/92/85 36/53/86
f 36/53/86 67/92/85 114/158/87
f 113/157/88 67/91/85 40/58/67
f 67/91/85 113/157/88 18/25/89
f 132/180/82 48/69/48 111/153/38
f 122/168/57 131/179/90 132/180/82
f 36/53/86 114/158/87 131/179/90
f 131/179/90 68/93/52 132/180/82
f 48/69/48 115/159/45 109/151/47
f 20/29/91 19/28/92 108/150/93
f 147/199/94 16/22/42 12/16/81
f 16/22/42 20/29/91 47/68/43
f 44/64/95 65/89/96 20/30/91
f 96/131/97 47/68/43 153/205/98
f 12/16/81 16/22/42 133/181/44
f 153/205/98 135/184/99 134/183/100
f 154/206/101 81/110/102 135/184/99
f 106/146/76 120/165/77 136/185/103
f 51/72/104 39/57/105 13/17/106
f 32/45/107 152/204/108 41/60/54
f 66/90/109 137/186/110 39/57/105
f 137/186/110 69/94/6 105/144/59
f 102/141/111 22/33/112 103/142/113
f 64/88/2 139/189/68 35/51/3
f 130/178/40 155/207/39 31/43/41
f 31/43/41 149/201/7 125/172/114
f 23/34/115 30/42/10 53/74/71
f 140/190/116 99/136/117 50/71/118
f 99/137/117 53/74/71 95/129/70
f 71/96/74 98/135/119 97/132/120
f 141/192/121 71/96/74 94/127/122
f 96/131/97 97/133/120 133/181/44
f 134/182/100 95/129/70 94/127/122
f 153/205/98 94/128/122 96/131/97
f 95/129/70 141/192/121 94/127/122
f 144/196/30 34/49/123 93/126/37
f 93/125/37 100/138/124 111/153/38
f 3/3/125 28/40/16 38/55/26
f 65/89/96 24/35/58 3/3/125
f 56/77/35 73/98/15 9/13/126
f 80/109/25 28/40/16 27/39/14
f 1/1/127 142/193/128 73/98/15
f 89/120/129 84/114/66 90/121/130
f 1/1/127 89/120/129 123/169/131
f 87/117/28 105/145/59 143/194/31
f 86/116/29 143/194/31 144/196/30
f 74/99/12 105/145/59 87/117/28
f 8/12/20 85/115/56 15/21/8
f 151/203/132 45/65/19 145/197/21
f 75/100/133 26/37/75 58/79/5
f 83/112/65 75/100/133 58/79/5
f 146/198/134 82/111/53 46/67/135
f 38/55/26 76/104/136 19/27/92
f 79/108/137 12/16/81 6/8/80
f 117/161/24 59/80/62 7/9/84
f 77/106/61 147/199/94 79/108/137
f 76/103/136 146/198/134 81/110/102
f 146/198/134 148/200/138 82/111/53
f 142/193/128 42/61/63 9/13/126
f 83/112/65 58/79/5 5/7/79
f 123/169/131 25/36/139 142/193/128
f 24/35/58 55/76/17 28/40/16
f 29/41/140 86/116/29 144/196/30
f 62/85/141 54/75/142 140/191/116
f 30/42/10 74/99/12 11/15/27
f 102/141/111 150/202/143 64/88/2
f 129/177/144 130/178/40 52/73/69
f 138/188/145 22/33/112 102/141/111
f 137/186/110 104/143/4 69/94/6
f 121/167/146 66/90/109 39/57/105
f 32/45/107 106/146/76 21/31/147
f 136/185/103 120/165/77 5/7/79
f 135/184/99 50/71/118 134/183/100
f 118/162/55 107/149/148 50/71/118
f 47/68/43 154/206/101 153/205/98
f 112/155/50 48/69/48 110/152/49
f 67/92/85 18/26/89 114/158/87
f 120/166/77 9/13/126 119/164/78
f 122/168/57 36/53/86 131/179/90
f 53/74/71 29/41/140 126/174/72
f 10/14/18 89/120/129 1/1/127
f 84/114/66 113/157/88 40/58/67
f 26/38/75 138/188/145 64/88/2
f 62/86/141 118/162/55 41/60/54
f 116/160/51 115/159/45 48/69/48
f 104/143/4 5/7/79 58/79/5
f 151/203/132 22/33/112 45/65/19
f 72/97/36 144/196/30 93/126/37
f 77/106/61 44/63/95 147/199/94
f 119/163/78 83/112/65 5/7/79
f 63/87/149 84/114/66 45/66/19
f 74/99/12 128/176/11 105/145/59
f 86/116/29 87/117/28 143/194/31
f 143/194/31 105/145/59 124/170/60
f 1/1/127 123/169/131 142/193/128
f 141/192/121 95/129/70 126/174/72
f 96/130/97 94/127/122 97/132/120
f 99/137/117 23/34/115 53/74/71
f 140/191/116 23/34/115 99/137/117
f 125/172/114 149/201/7 70/95/9
f 64/88/2 138/188/145 102/141/111
f 139/189/68 150/202/143 52/73/69
f 138/188/145 4/4/64 22/33/112
f 54/75/142 14/20/150 128/176/11
f 137/186/110 66/90/109 104/143/4
f 133/181/44 47/68/43 96/131/97
f 16/22/42 147/199/94 20/29/91
f 147/199/94 44/63/95 20/29/91
f 49/70/151 6/8/80 133/181/44
f 113/157/88 43/62/152 18/25/89
f 46/67/135 82/111/53 118/162/55
f 21/31/147 136/185/103 121/167/146
f 124/171/60 35/51/3 139/189/68
f 60/82/23 44/64/95 77/105/61
f 83/113/65 4/5/64 75/101/133
f 45/66/19 40/58/67 8/11/20
f 84/114/66 89/120/129 113/157/88
f 89/120/129 43/62/152 113/157/88
f 123/169/131 57/78/153 25/36/139
f 73/98/15 27/39/14 1/1/127
f 27/39/14 10/14/18 1/1/127
f 144/196/30 88/119/32 34/49/123
f 141/192/121 126/174/72 71/96/74
f 126/174/72 29/41/140 127/175/73
f 129/177/144 102/141/111 103/142/113
f 70/95/9 15/21/8 85/115/56
f 19/27/92 3/3/125 38/55/26
f 129/177/144 155/207/39 130/178/40
f 101/140/154 57/78/153 63/87/149
f 22/32/112 63/87/149 45/66/19
f 22/32/112 101/140/154 63/87/149
f 69/94/6 58/79/5 26/37/75
f 152/204/108 21/31/147 121/167/146
f 152/204/108 121/167/146 51/72/104
f 120/166/77 56/77/35 9/13/126
f 50/71/118 46/67/135 118/162/55
f 116/160/51 18/26/89 17/24/83
f 20/30/91 65/89/96 3/3/125
f 18/25/89 43/62/152 117/161/24
f 17/23/83 18/25/89 117/161/24
f 32/45/107 92/124/33 106/146/76
f 68/93/52 114/158/87 116/160/51
f 100/138/124 122/168/57 132/180/82
f 100/138/124 132/180/82 111/153/38
f 97/133/120 49/70/151 133/181/44
f 49/70/151 109/151/47 6/8/80
f 47/68/43 20/29/91 108/150/93
f 140/190/116 50/71/118 107/149/148
f 153/205/98 154/206/101 135/184/99
f 154/206/101 108/150/93 81/110/102
f 135/184/99 46/67/135 50/71/118
f 21/31/147 106/146/76 136/185/103
f 53/74/71 11/15/27 2/2/155
f 62/86/141 41/60/54 51/72/104
f 62/86/141 51/72/104 13/17/106
f 82/111/53 148/200/138 32/45/107
f 82/111/53 32/45/107 41/60/54
f 105/144/59 69/94/6 35/52/3
f 22/32/112 4/5/64 101/140/154
f 150/202/143 129/177/144 52/73/69
f 52/73/69 130/178/40 88/118/32
f 100/138/124 70/95/9 122/168/57
f 125/172/114 70/95/9 100/138/124
f 155/207/39 149/201/7 31/43/41
f 34/48/123 31/43/41 125/172/114
f 155/207/39 15/21/8 149/201/7
f 151/203/132 145/197/21 155/207/39
f 23/34/115 54/75/142 30/42/10
f 110/152/49 97/133/120 98/134/119
f 134/183/100 50/71/118 99/136/117
f 134/182/100 99/137/117 95/129/70
f 107/148/148 62/85/141 140/191/116
f 140/191/116 54/75/142 23/34/115
f 94/127/122 71/96/74 97/132/120
f 112/156/50 72/97/36 111/154/38
f 110/152/49 98/134/119 112/155/50
f 153/205/98 134/183/100 94/128/122
f 137/187/110 14/20/150 39/56/105
f 98/135/119 127/175/73 112/156/50
f 29/41/140 2/2/155 86/116/29
f 127/175/73 29/41/140 72/97/36
f 72/97/36 29/41/140 144/196/30
f 10/14/18 55/76/17 89/120/129
f 3/3/125 24/35/58 28/40/16
f 65/89/96 60/82/23 24/35/58
f 44/64/95 60/82/23 65/89/96
f 56/77/35 91/122/34 73/98/15
f 9/13/126 73/98/15 142/193/128
f 61/83/13 80/109/25 27/39/14
f 80/109/25 38/55/26 28/40/16
f 142/193/128 25/36/139 42/61/63
f 25/36/139 57/78/153 42/61/63
f 90/121/130 84/114/66 63/87/149
f 123/169/131 89/120/129 90/121/130
f 89/120/129 37/54/22 43/62/152
f 55/76/17 37/54/22 89/120/129
f 88/118/32 143/195/31 52/73/69
f 11/15/27 74/99/12 87/117/28
f 2/2/155 11/15/27 86/116/29
f 81/110/102 19/28/92 76/103/136
f 76/103/136 61/84/13 146/198/134
f 79/108/137 59/81/62 77/106/61
f 81/110/102 146/198/134 46/67/135
f 38/55/26 61/83/13 76/104/136
f 148/200/138 61/84/13 92/124/33
f 6/8/80 78/107/46 79/108/137
f 79/108/137 147/199/94 12/16/81
f 115/159/45 7/10/84 78/107/46
f 117/161/24 60/82/23 59/80/62
f 7/10/84 59/81/62 78/107/46
f 83/113/65 9/13/126 42/61/63
f 138/188/145 75/102/133 4/4/64
f 36/53/86 8/12/20 40/59/67
f 145/197/21 8/12/20 15/21/8
f 100/139/124 34/49/123 125/173/114
f 128/176/11 137/187/110 105/145/59
f 143/195/31 124/171/60 52/73/69
f 27/39/14 28/40/16 10/14/18
f 91/122/34 61/83/13 73/98/15
f 57/78/153 4/5/64 42/61/63
f 71/96/74 127/175/73 98/135/119
f 62/85/141 13/18/106 54/75/142
f 54/75/142 128/176/11 30/42/10
f 64/88/2 150/202/143 139/189/68
f 115/159/45 17/24/83 7/10/84
f 103/142/113 22/33/112 151/203/132
f 32/45/107 21/31/147 152/204/108
f 41/60/54 152/204/108 51/72/104
f 51/72/104 121/167/146 39/57/105
f 106/147/76 92/123/33 56/77/35
f 135/184/99 81/110/102 46/67/135
f 109/151/47 78/107/46 6/8/80
f 110/152/49 109/151/47 49/70/151
f 131/179/90 114/158/87 68/93/52
f 155/207/39 103/142/113 151/203/132
f 117/161/24 43/62/152 37/54/22
f 66/90/109 136/185/103 5/7/79
f 47/68/43 108/150/93 154/206/101
f 33/47/1 26/38/75 64/88/2
f 123/169/131 63/87/149 57/78/153
f 122/168/57 85/115/56 36/53/86
f 13/17/106 39/57/105 14/19/150
f 53/74/71 2/2/155 29/41/140
f 88/119/32 31/44/41 34/49/123
f 62/86/141 107/149/148 118/162/55
f 104/143/4 66/90/109 5/7/79
f 54/75/142 13/18/106 14/20/150
f 129/177/144 150/202/143 102/141/111
f 19/27/92 20/30/91 3/3/125
f 116/160/51 114/158/87 18/26/89
f 32/45/107 148/200/138 92/124/33
f 53/74/71 30/42/10 11/15/27
f 110/152/49 49/70/151 97/133/120
f 112/156/50 127/175/73 72/97/36
f 137/187/110 128/176/11 14/20/150
f 81/110/102 108/150/93 19/28/92
f 79/108/137 78/107/46 59/81/62
f 148/200/138 146/198/134 61/84/13
f 83/113/65 119/164/78 9/13/126
f 138/188/145 26/38/75 75/102/133
f 36/53/86 85/115/56 8/12/20
f 100/139/124 93/126/37 34/49/123
f 57/78/153 101/140/154 4/5/64
f 115/159/45 116/160/51 17/24/83
f 155/207/39 129/177/144 103/142/113
f 66/90/109 121/167/146 136/185/103
f 123/169/131 90/121/130 63/87/149
