# Blender 3.3.0
# www.blender.org
o GateCol
v -4.585876 -1.000000 1.000000
v -4.585876 1.000000 1.000000
v -4.585876 -1.000000 -1.000000
v -4.585876 1.000000 -1.000000
v -2.585876 -1.000000 1.000000
v -2.585876 1.000000 1.000000
v -2.585876 -1.000000 -1.000000
v -2.585876 1.000000 -1.000000
v -4.118888 0.746165 0.538156
v -4.118888 9.574919 0.538156
v -4.118888 0.746165 -0.538156
v -4.118888 9.574919 -0.538156
v -2.529706 0.746165 0.538156
v -2.529706 9.574919 0.538156
v -2.529706 0.746165 -0.538156
v -2.529706 9.574919 -0.538156
v -3.392338 10.833626 0.538156
v -3.392338 10.833626 -0.538156
v -2.520026 10.221748 -0.538156
v -2.520026 10.221748 0.538156
v -1.740569 11.653896 0.538156
v -1.740569 11.653896 -0.538156
v -1.661814 10.591295 -0.538156
v -1.661813 10.591295 0.538156
v 0.000000 11.776882 0.538156
v 0.000000 11.776882 -0.538156
v 0.000000 10.714281 -0.538156
v 0.000000 10.714281 0.538156
v 4.585876 -1.000000 1.000000
v 4.585876 1.000000 1.000000
v 4.585876 -1.000000 -1.000000
v 4.585876 1.000000 -1.000000
v 2.585876 -1.000000 1.000000
v 2.585876 1.000000 1.000000
v 2.585876 -1.000000 -1.000000
v 2.585876 1.000000 -1.000000
v 4.118888 0.746165 0.538156
v 4.118888 9.574919 0.538156
v 4.118888 0.746165 -0.538156
v 4.118888 9.574919 -0.538156
v 2.529706 0.746165 0.538156
v 2.529706 9.574919 0.538156
v 2.529706 0.746165 -0.538156
v 2.529706 9.574919 -0.538156
v 3.392338 10.833626 0.538156
v 3.392338 10.833626 -0.538156
v 2.520026 10.221748 -0.538156
v 2.520026 10.221748 0.538156
v 1.740569 11.653896 0.538156
v 1.740569 11.653896 -0.538156
v 1.661814 10.591295 -0.538156
v 1.661813 10.591295 0.538156
vn -1.0000 -0.0000 -0.0000
vn -0.0000 -0.0000 -1.0000
vn 1.0000 -0.0000 -0.0000
vn -0.0000 -0.0000 1.0000
vn -0.0000 -1.0000 -0.0000
vn -0.0000 1.0000 -0.0000
vn 0.3955 -0.9185 -0.0000
vn 0.9999 -0.0150 -0.0000
vn -0.8661 0.4999 -0.0000
vn -0.0705 0.9975 -0.0000
vn -0.4448 0.8956 -0.0000
vn 0.0738 -0.9973 -0.0000
vn -0.3955 -0.9185 -0.0000
vn -0.9999 -0.0150 -0.0000
vn 0.8661 0.4999 -0.0000
vn 0.0705 0.9975 -0.0000
vn 0.4448 0.8956 -0.0000
vn -0.0738 -0.9973 -0.0000
vt 0.375000 0.000000
vt 0.375000 1.000000
vt 0.125000 0.750000
vt 0.625000 0.000000
vt 0.625000 1.000000
vt 0.875000 0.750000
vt 0.125000 0.500000
vt 0.375000 0.250000
vt 0.625000 0.250000
vt 0.875000 0.500000
vt 0.375000 0.750000
vt 0.625000 0.750000
vt 0.375000 0.500000
vt 0.625000 0.500000
vt 0.375000 0.000000
vt 0.375000 1.000000
vt 0.125000 0.750000
vt 0.625000 0.000000
vt 0.625000 1.000000
vt 0.125000 0.500000
vt 0.375000 0.250000
vt 0.625000 0.250000
vt 0.375000 0.750000
vt 0.625000 0.750000
vt 0.375000 0.500000
vt 0.625000 0.500000
vt 0.625000 1.000000
vt 0.625000 0.000000
vt 0.625000 0.250000
vt 0.625000 0.500000
vt 0.625000 0.750000
vt 0.625000 0.000000
vt 0.625000 1.000000
vt 0.625000 0.250000
vt 0.625000 0.500000
vt 0.625000 0.750000
vt 0.625000 0.000000
vt 0.625000 1.000000
vt 0.625000 0.250000
vt 0.625000 0.500000
vt 0.625000 0.750000
vt 0.375000 0.000000
vt 0.375000 1.000000
vt 0.125000 0.750000
vt 0.625000 0.000000
vt 0.625000 1.000000
vt 0.875000 0.750000
vt 0.125000 0.500000
vt 0.375000 0.250000
vt 0.625000 0.250000
vt 0.875000 0.500000
vt 0.375000 0.750000
vt 0.625000 0.750000
vt 0.375000 0.500000
vt 0.625000 0.500000
vt 0.375000 0.000000
vt 0.375000 1.000000
vt 0.125000 0.750000
vt 0.625000 0.000000
vt 0.625000 1.000000
vt 0.125000 0.500000
vt 0.375000 0.250000
vt 0.625000 0.250000
vt 0.375000 0.750000
vt 0.625000 0.750000
vt 0.375000 0.500000
vt 0.625000 0.500000
vt 0.625000 1.000000
vt 0.625000 0.000000
vt 0.625000 0.250000
vt 0.625000 0.500000
vt 0.625000 0.750000
vt 0.625000 0.000000
vt 0.625000 1.000000
vt 0.625000 0.250000
vt 0.625000 0.500000
vt 0.625000 0.750000
s 0
f 2/4/1 3/8/1 1/1/1
f 4/9/2 7/13/2 3/8/2
f 8/14/3 5/11/3 7/13/3
f 6/12/4 1/2/4 5/11/4
f 7/13/5 1/3/5 3/7/5
f 4/10/6 6/12/6 8/14/6
f 10/18/1 11/21/1 9/15/1
f 12/22/2 15/25/2 11/21/2
f 16/26/3 13/23/3 15/25/3
f 14/24/4 9/16/4 13/23/4
f 15/25/5 9/17/5 11/20/5
f 12/22/2 19/30/2 16/26/2
f 20/31/7 23/35/7 24/36/7
f 16/26/8 20/31/8 14/24/8
f 10/18/9 18/29/9 12/22/9
f 10/19/4 20/31/4 17/27/4
f 21/32/10 26/39/10 22/34/10
f 17/28/11 22/34/11 18/29/11
f 20/31/4 21/33/4 17/27/4
f 19/30/2 22/34/2 23/35/2
f 21/33/4 28/41/4 25/38/4
f 22/34/2 27/40/2 23/35/2
f 24/36/12 27/40/12 28/41/12
f 31/49/3 30/45/3 29/42/3
f 35/54/2 32/50/2 31/49/2
f 33/52/1 36/55/1 35/54/1
f 29/43/4 34/53/4 33/52/4
f 29/44/5 35/54/5 31/48/5
f 34/53/6 32/51/6 36/55/6
f 39/62/3 38/59/3 37/56/3
f 43/66/2 40/63/2 39/62/2
f 41/64/1 44/67/1 43/66/1
f 37/57/4 42/65/4 41/64/4
f 37/58/5 43/66/5 39/61/5
f 47/71/2 40/63/2 44/67/2
f 48/72/13 51/76/13 47/71/13
f 48/72/14 44/67/14 42/65/14
f 46/70/15 38/59/15 40/63/15
f 38/60/4 48/72/4 42/65/4
f 26/39/16 49/73/16 50/75/16
f 50/75/17 45/69/17 46/70/17
f 49/74/4 48/72/4 45/68/4
f 47/71/2 50/75/2 46/70/2
f 49/74/4 28/41/4 52/77/4
f 27/40/2 50/75/2 51/76/2
f 52/77/18 27/40/18 51/76/18
f 2/4/1 4/9/1 3/8/1
f 4/9/2 8/14/2 7/13/2
f 8/14/3 6/12/3 5/11/3
f 6/12/4 2/5/4 1/2/4
f 7/13/5 5/11/5 1/3/5
f 4/10/6 2/6/6 6/12/6
f 10/18/1 12/22/1 11/21/1
f 12/22/2 16/26/2 15/25/2
f 16/26/3 14/24/3 13/23/3
f 14/24/4 10/19/4 9/16/4
f 15/25/5 13/23/5 9/17/5
f 12/22/2 18/29/2 19/30/2
f 20/31/7 19/30/7 23/35/7
f 16/26/8 19/30/8 20/31/8
f 10/18/9 17/28/9 18/29/9
f 10/19/4 14/24/4 20/31/4
f 21/32/10 25/37/10 26/39/10
f 17/28/11 21/32/11 22/34/11
f 20/31/4 24/36/4 21/33/4
f 19/30/2 18/29/2 22/34/2
f 21/33/4 24/36/4 28/41/4
f 22/34/2 26/39/2 27/40/2
f 24/36/12 23/35/12 27/40/12
f 31/49/3 32/50/3 30/45/3
f 35/54/2 36/55/2 32/50/2
f 33/52/1 34/53/1 36/55/1
f 29/43/4 30/46/4 34/53/4
f 29/44/5 33/52/5 35/54/5
f 34/53/6 30/47/6 32/51/6
f 39/62/3 40/63/3 38/59/3
f 43/66/2 44/67/2 40/63/2
f 41/64/1 42/65/1 44/67/1
f 37/57/4 38/60/4 42/65/4
f 37/58/5 41/64/5 43/66/5
f 47/71/2 46/70/2 40/63/2
f 48/72/13 52/77/13 51/76/13
f 48/72/14 47/71/14 44/67/14
f 46/70/15 45/69/15 38/59/15
f 38/60/4 45/68/4 48/72/4
f 26/39/16 25/37/16 49/73/16
f 50/75/17 49/73/17 45/69/17
f 49/74/4 52/77/4 48/72/4
f 47/71/2 51/76/2 50/75/2
f 49/74/4 25/38/4 28/41/4
f 27/40/2 26/39/2 50/75/2
f 52/77/18 28/41/18 27/40/18
