# Blender 3.3.0
# www.blender.org
o GatePortal
v -2.614883 10.072633 -0.000000
v -2.234629 10.420673 -0.000000
v -1.257067 10.684128 -0.000000
v 0.000000 10.751590 -0.000000
v -2.614883 -0.078561 -0.000000
v 0.000000 -0.078561 0.000000
v 2.614883 10.072633 -0.000000
v 2.234629 10.420673 -0.000000
v 1.257067 10.684128 -0.000000
v 2.614883 -0.078561 -0.000000
vn -0.0000 -0.0000 1.0000
vt 0.000000 0.000000
vt 0.000000 0.000000
vt 0.000000 0.000000
vt 0.000000 0.000000
vt 0.000000 0.000000
vt 0.000000 0.000000
vt 0.000000 0.000000
vt 0.000000 0.000000
vt 0.000000 0.000000
vt 0.000000 0.000000
s 0
f 5/5/1 4/4/1 2/2/1
f 8/8/1 4/4/1 10/10/1
f 2/2/1 1/1/1 5/5/1
f 5/5/1 6/6/1 4/4/1
f 4/4/1 3/3/1 2/2/1
f 10/10/1 7/7/1 8/8/1
f 8/8/1 9/9/1 4/4/1
f 4/4/1 6/6/1 10/10/1
