# Blender 3.3.0
# www.blender.org
o Cactus03_Col
v -0.517447 -0.154980 0.517447
v -0.143758 0.420915 0.143758
v -0.517447 -0.154980 -0.517447
v -0.143758 0.420915 -0.143758
v 0.517447 -0.154980 0.517447
v 0.143758 0.420915 0.143758
v 0.517447 -0.154980 -0.517447
v 0.143758 0.420915 -0.143758
v -0.381229 0.132968 0.381229
v -0.381229 0.132968 -0.381229
v 0.381229 0.132968 -0.381229
v 0.381229 0.132968 0.381229
vn -0.7715 0.6362 -0.0000
vn -0.0000 0.6362 -0.7715
vn 0.7715 0.6362 -0.0000
vn -0.0000 0.6362 0.7715
vn -0.0000 -1.0000 -0.0000
vn -0.0000 1.0000 -0.0000
vn -0.0000 0.4276 0.9040
vn 0.9040 0.4276 -0.0000
vn -0.0000 0.4276 -0.9040
vn -0.9040 0.4276 -0.0000
vt 0.375000 0.000000
vt 0.125000 0.750000
vt 0.375000 1.000000
vt 0.625000 0.000000
vt 0.625000 1.000000
vt 0.875000 0.750000
vt 0.125000 0.500000
vt 0.375000 0.250000
vt 0.625000 0.250000
vt 0.875000 0.500000
vt 0.375000 0.750000
vt 0.625000 0.750000
vt 0.375000 0.500000
vt 0.625000 0.500000
vt 0.500000 1.000000
vt 0.500000 0.000000
vt 0.500000 0.250000
vt 0.500000 0.500000
vt 0.500000 0.750000
s 0
f 2/4/1 10/17/1 9/16/1
f 4/9/2 11/18/2 10/17/2
f 8/14/3 12/19/3 11/18/3
f 6/12/4 9/15/4 12/19/4
f 7/13/5 1/2/5 3/7/5
f 4/10/6 6/12/6 8/14/6
f 12/19/7 1/3/7 5/11/7
f 11/18/8 5/11/8 7/13/8
f 10/17/9 7/13/9 3/8/9
f 9/16/10 3/8/10 1/1/10
f 2/4/1 4/9/1 10/17/1
f 4/9/2 8/14/2 11/18/2
f 8/14/3 6/12/3 12/19/3
f 6/12/4 2/5/4 9/15/4
f 7/13/5 5/11/5 1/2/5
f 4/10/6 2/6/6 6/12/6
f 12/19/7 9/15/7 1/3/7
f 11/18/8 12/19/8 5/11/8
f 10/17/9 11/18/9 7/13/9
f 9/16/10 10/17/10 3/8/10
