# Blender 3.3.0
# www.blender.org
o Cactus01_Col
v -0.173395 -0.139120 0.173395
v -0.173395 1.523192 0.173395
v -0.173395 -0.139120 -0.173395
v -0.173395 1.523192 -0.173395
v 0.173395 -0.139120 0.173395
v 0.173395 1.523192 0.173395
v 0.173395 -0.139120 -0.173395
v 0.173395 1.523192 -0.173395
v -0.138020 0.853992 0.003029
v -0.502745 0.952322 0.216003
v -0.138092 1.008284 0.003080
v -0.382613 1.144186 0.155835
v -0.048248 0.853992 0.128516
v -0.403925 0.940244 0.415159
v -0.048319 1.008284 0.128567
v -0.265678 1.132107 0.336875
v -0.676021 1.535674 0.273795
v -0.431635 1.465039 0.146500
v -0.562660 1.526262 0.553419
v -0.248474 1.455628 0.386276
v 0.132180 1.048647 0.350677
v 0.132180 1.318410 0.350677
v -0.038759 1.048647 0.141986
v -0.038759 1.318410 0.141986
v 0.340872 1.048647 0.179738
v 0.340872 1.318410 0.179738
v 0.169933 1.048647 -0.028953
v 0.169933 1.318410 -0.028953
v 0.255844 1.098827 -0.427376
v 0.255844 1.368591 -0.427376
v 0.171016 1.048647 -0.055980
v 0.171016 1.318410 -0.055980
v -0.009000 1.098827 -0.478660
v -0.009000 1.368591 -0.478660
v -0.093827 1.048647 -0.107264
v -0.093827 1.318410 -0.107264
vn -1.0000 -0.0000 -0.0000
vn -0.0000 -0.0000 -1.0000
vn 1.0000 -0.0000 -0.0000
vn -0.0000 -0.0000 1.0000
vn -0.0000 -1.0000 -0.0000
vn -0.0000 1.0000 -0.0000
vn -0.5042 0.0001 -0.8636
vn 0.3473 0.9042 -0.2485
vn 0.6919 0.0001 0.7220
vn -0.1852 -0.9737 0.1325
vn 0.1714 0.9809 -0.0924
vn 0.8406 0.0378 -0.5404
vn 0.5440 -0.0502 0.8376
vn -0.4821 -0.0990 -0.8705
vn -0.8880 -0.2984 0.3499
vn -0.7736 -0.0000 0.6337
vn 0.7736 -0.0000 -0.6337
vn 0.6337 -0.0000 0.7736
vn 0.9749 -0.0000 0.2227
vn -0.9749 -0.0000 -0.2227
vn 0.1901 -0.0000 -0.9818
vn 0.0248 -0.9914 -0.1283
vn -0.0248 0.9914 0.1283
vn -0.5093 0.0494 -0.8592
vn 0.3591 0.9176 -0.1707
vn 0.6061 -0.1157 0.7869
vn -0.2036 -0.9782 0.0417
vn 0.2448 0.9673 -0.0667
vn 0.7924 0.1036 -0.6012
vn 0.4357 -0.1585 0.8860
vn -0.4079 -0.0308 -0.9125
vn -0.8544 -0.3268 0.4041
vt 0.375000 0.000000
vt 0.375000 1.000000
vt 0.125000 0.750000
vt 0.625000 0.000000
vt 0.625000 1.000000
vt 0.875000 0.750000
vt 0.125000 0.500000
vt 0.375000 0.250000
vt 0.625000 0.250000
vt 0.875000 0.500000
vt 0.375000 0.750000
vt 0.625000 0.750000
vt 0.375000 0.500000
vt 0.625000 0.500000
vt 0.375000 0.000000
vt 0.375000 1.000000
vt 0.625000 0.000000
vt 0.625000 1.000000
vt 0.375000 0.250000
vt 0.625000 0.250000
vt 0.375000 0.750000
vt 0.625000 0.750000
vt 0.375000 0.500000
vt 0.625000 0.500000
vt 0.625000 1.000000
vt 0.875000 0.750000
vt 0.625000 0.000000
vt 0.875000 0.500000
vt 0.625000 0.250000
vt 0.625000 0.750000
vt 0.625000 0.500000
vt 0.375000 0.000000
vt 0.375000 1.000000
vt 0.125000 0.750000
vt 0.625000 0.000000
vt 0.625000 1.000000
vt 0.875000 0.750000
vt 0.125000 0.500000
vt 0.375000 0.250000
vt 0.625000 0.250000
vt 0.875000 0.500000
vt 0.375000 0.750000
vt 0.625000 0.750000
vt 0.375000 0.500000
vt 0.625000 0.500000
vt 0.125000 0.750000
vt 0.375000 0.000000
vt 0.375000 1.000000
vt 0.625000 0.000000
vt 0.625000 1.000000
vt 0.875000 0.750000
vt 0.375000 0.250000
vt 0.125000 0.500000
vt 0.625000 0.250000
vt 0.875000 0.500000
vt 0.375000 0.750000
vt 0.625000 0.750000
vt 0.375000 0.500000
vt 0.625000 0.500000
s 0
f 2/4/1 3/8/1 1/1/1
f 4/9/2 7/13/2 3/8/2
f 8/14/3 5/11/3 7/13/3
f 6/12/4 1/2/4 5/11/4
f 7/13/5 1/3/5 3/7/5
f 4/10/6 6/12/6 8/14/6
f 10/17/7 11/19/7 9/15/7
f 12/20/8 15/23/8 11/19/8
f 16/24/9 13/21/9 15/23/9
f 13/21/10 10/18/10 9/16/10
f 18/28/11 19/30/11 20/31/11
f 12/20/12 20/31/12 16/24/12
f 16/24/13 19/30/13 14/22/13
f 12/20/14 17/27/14 18/29/14
f 10/18/15 19/30/15 17/25/15
f 22/35/16 23/39/16 21/32/16
f 28/45/17 25/42/17 27/44/17
f 26/43/18 21/33/18 25/42/18
f 27/44/5 21/34/5 23/38/5
f 24/41/6 26/43/6 28/45/6
f 29/47/19 32/54/19 31/52/19
f 36/59/20 33/56/20 35/58/20
f 34/57/21 29/48/21 33/56/21
f 31/53/22 33/56/22 29/46/22
f 32/55/23 34/57/23 36/59/23
f 2/4/1 4/9/1 3/8/1
f 4/9/2 8/14/2 7/13/2
f 8/14/3 6/12/3 5/11/3
f 6/12/4 2/5/4 1/2/4
f 7/13/5 5/11/5 1/3/5
f 4/10/6 2/6/6 6/12/6
f 10/17/24 12/20/24 11/19/24
f 12/20/25 16/24/25 15/23/25
f 16/24/26 14/22/26 13/21/26
f 13/21/27 14/22/27 10/18/27
f 18/28/28 17/26/28 19/30/28
f 12/20/29 18/29/29 20/31/29
f 16/24/30 20/31/30 19/30/30
f 12/20/31 10/17/31 17/27/31
f 10/18/32 14/22/32 19/30/32
f 22/35/16 24/40/16 23/39/16
f 28/45/17 26/43/17 25/42/17
f 26/43/18 22/36/18 21/33/18
f 27/44/5 25/42/5 21/34/5
f 24/41/6 22/37/6 26/43/6
f 29/47/19 30/49/19 32/54/19
f 36/59/20 34/57/20 33/56/20
f 34/57/21 30/50/21 29/48/21
f 31/53/22 35/58/22 33/56/22
f 32/55/23 30/51/23 34/57/23
