# Blender 3.3.0
# www.blender.org
o Cactus03
v -0.128876 -0.075979 0.130938
v -0.202921 0.056767 0.202894
v -0.128876 -0.075979 -0.130938
v -0.202921 0.056767 -0.202894
v 0.133000 -0.075979 0.130938
v 0.202868 0.056767 0.202894
v 0.133000 -0.075979 -0.130938
v 0.202868 0.056767 -0.202894
v -0.201949 0.269254 0.193570
v -0.201949 0.269254 -0.193570
v 0.185191 0.269254 0.193570
v 0.185191 0.269254 -0.193570
v -0.108017 0.379735 0.097549
v -0.108017 0.379735 -0.097549
v 0.087082 0.379735 0.097549
v 0.087082 0.379735 -0.097549
v -0.177978 -0.075979 0.000000
v -0.279006 0.056767 0.000000
v 0.002062 -0.075979 -0.180040
v -0.000027 0.056767 -0.278980
v 0.182101 -0.075979 0.000000
v 0.278953 0.056767 -0.000000
v 0.002062 -0.075979 0.180040
v -0.000027 0.056767 0.278980
v -0.274538 0.269254 -0.000000
v -0.008379 0.269254 -0.266159
v 0.257780 0.269254 0.000000
v -0.008379 0.269254 0.266159
v 0.207327 0.162541 -0.211530
v 0.207327 0.162541 0.211530
v -0.215733 0.162541 0.211530
v -0.215733 0.162541 -0.211530
v -0.122952 0.385985 -0.000000
v -0.010467 0.385985 -0.112484
v 0.102017 0.385985 0.000000
v -0.010467 0.385985 0.112484
v -0.170843 -0.019417 0.172643
v -0.170843 -0.019417 -0.172643
v 0.174444 -0.019417 -0.172643
v 0.174444 -0.019417 0.172643
v -0.159035 0.344488 0.148829
v -0.159035 0.344488 -0.148829
v 0.138622 0.344488 0.148829
v 0.138622 0.344488 -0.148829
v -0.235584 -0.019417 0.000000
v 0.001801 -0.019417 -0.237385
v 0.239185 -0.019417 0.000000
v -0.004203 0.162541 0.290854
v -0.004203 0.162541 -0.290854
v -0.010467 0.399102 0.000000
v -0.213600 0.345105 -0.000000
v -0.010206 0.345105 0.203394
v -0.010206 0.345105 -0.203394
v 0.286651 0.162541 0.000000
v 0.001801 -0.019417 0.237385
v -0.295057 0.162541 0.000000
v 0.193187 0.345105 0.000000
vn -0.4882 -0.7228 0.4890
vn -0.8033 -0.5956 -0.0000
vn -0.7006 -0.7135 -0.0000
vn -0.5639 -0.6003 0.5671
vn -0.9487 -0.3161 -0.0000
vn -0.5639 -0.6003 -0.5671
vn -0.4882 -0.7228 -0.4890
vn 0.0026 -0.5867 -0.8098
vn 0.0007 -0.7119 -0.7022
vn 0.0032 -0.2892 -0.9573
vn 0.6818 -0.2749 -0.6779
vn 0.5738 -0.5877 -0.5705
vn 0.4906 -0.7207 -0.4898
vn 0.8163 -0.5776 -0.0000
vn 0.7039 -0.7103 -0.0000
vn 0.9650 -0.2621 -0.0000
vn 0.5738 -0.5877 0.5705
vn 0.4906 -0.7207 0.4898
vn -0.6696 -0.3127 0.6737
vn -0.0004 0.0557 0.9984
vn -0.7069 0.0310 0.7066
vn 0.0032 -0.2892 0.9573
vn 0.7043 0.0824 0.7051
vn 0.6316 0.4429 0.6363
vn -0.0038 0.4231 0.9061
vn -0.6472 0.4104 0.6425
vn 0.7043 0.0824 -0.7051
vn -0.6696 -0.3127 -0.6737
vn -0.0004 0.0557 -0.9984
vn -0.7069 0.0310 -0.7066
vn -0.0038 0.4231 -0.9061
vn 0.6316 0.4429 -0.6363
vn 0.2369 0.9421 -0.2373
vn -0.0000 1.0000 -0.0000
vn 0.2774 0.9607 -0.0000
vn -0.2381 0.9417 -0.2377
vn -0.0001 0.9606 -0.2780
vn -0.2381 0.9417 0.2377
vn -0.0001 0.9606 0.2780
vn 0.2369 0.9421 0.2373
vn -0.9166 0.3998 -0.0000
vn -0.4624 0.7584 -0.4594
vn -0.6472 0.4104 -0.6425
vn -0.4624 0.7584 0.4594
vn -0.6476 0.7620 -0.0000
vn -0.2785 0.9604 -0.0000
vn 0.4528 0.7664 0.4557
vn -0.0023 0.7675 0.6410
vn 0.4528 0.7664 -0.4557
vn -0.0023 0.7675 -0.6410
vn 0.6818 -0.2749 0.6779
vn 0.9957 0.0923 -0.0000
vn 0.8950 0.4461 -0.0000
vn 0.0026 -0.5867 0.8098
vn 0.0007 -0.7119 0.7022
vn -0.9998 0.0190 -0.0000
vn 0.6345 0.7729 -0.0000
vt 0.565246 0.347053
vt 0.565246 0.416819
vt 0.398368 0.347053
vt 0.398368 0.416819
vt 0.732123 0.347053
vt 0.732124 0.416819
vt 0.231490 0.347053
vt 0.899001 0.347053
vt 0.231490 0.416292
vt 0.899001 0.416292
vt 0.565246 0.492560
vt 0.398368 0.492560
vt 0.732123 0.492560
vt 0.231490 0.488693
vt 0.899001 0.488693
vt 0.565246 0.584299
vt 0.565246 0.749973
vt 0.398368 0.584299
vt 0.732123 0.584299
vt 0.732123 0.749973
vt 0.231490 0.584299
vt 0.899001 0.584299
vt 0.481807 0.347053
vt 0.481807 0.416819
vt 0.314929 0.347053
vt 0.314929 0.416775
vt 0.815562 0.347053
vt 0.815562 0.416775
vt 0.648685 0.347053
vt 0.648685 0.416819
vt 0.481807 0.492560
vt 0.314929 0.492238
vt 0.815562 0.492238
vt 0.648685 0.492560
vt 0.231490 0.452492
vt 0.899001 0.452492
vt 0.732123 0.453042
vt 0.565246 0.453042
vt 0.398368 0.453042
vt 0.565246 0.667136
vt 0.481807 0.584299
vt 0.648685 0.749973
vt 0.314929 0.584299
vt 0.732124 0.667136
vt 0.815562 0.584299
vt 0.648685 0.594031
vt 0.565246 0.381739
vt 0.398368 0.381739
vt 0.231490 0.381673
vt 0.899001 0.381673
vt 0.732124 0.381739
vt 0.565246 0.537223
vt 0.398368 0.536979
vt 0.732123 0.537223
vt 0.231490 0.536496
vt 0.899001 0.536496
vt 0.481807 0.381739
vt 0.314929 0.381728
vt 0.815562 0.381728
vt 0.648685 0.453042
vt 0.314929 0.452950
vt 0.648685 0.668109
vt 0.481807 0.536979
vt 0.648685 0.537953
vt 0.314929 0.536899
vt 0.815562 0.452950
vt 0.648685 0.381739
vt 0.481807 0.453042
vt 0.815562 0.536899
s 1
f 1/1/1 45/57/2 17/23/3
f 37/47/4 18/24/5 45/57/2
f 18/24/5 38/48/6 45/57/2
f 45/57/2 3/3/7 17/23/3
f 3/3/7 46/58/8 19/25/9
f 38/48/6 20/26/10 46/58/8
f 46/58/8 8/9/11 39/49/12
f 46/58/8 7/7/13 19/25/9
f 7/8/13 47/59/14 21/27/15
f 39/50/12 22/28/16 47/59/14
f 22/28/16 40/51/17 47/59/14
f 47/59/14 5/5/18 21/27/15
f 2/2/19 48/60/20 31/38/21
f 24/30/22 30/37/23 48/60/20
f 48/60/20 11/13/24 28/34/25
f 31/38/21 28/34/25 9/11/26
f 20/26/10 29/35/27 8/9/11
f 4/4/28 49/61/29 20/26/10
f 32/39/30 26/32/31 49/61/29
f 49/61/29 12/14/32 29/35/27
f 16/20/33 50/62/34 35/44/35
f 14/17/36 50/62/34 34/42/37
f 50/62/34 13/16/38 36/46/39
f 50/62/34 15/19/40 35/44/35
f 25/31/41 42/53/42 10/12/43
f 25/31/41 41/52/44 51/63/45
f 51/63/45 13/16/38 33/41/46
f 51/63/45 14/18/36 42/53/42
f 28/34/25 41/52/44 9/11/26
f 28/34/25 43/54/47 52/64/48
f 52/64/48 15/19/40 36/46/39
f 52/64/48 13/16/38 41/52/44
f 26/32/31 44/55/49 12/14/32
f 26/32/31 42/53/42 53/65/50
f 53/65/50 14/18/36 34/43/37
f 53/65/50 16/21/33 44/55/49
f 6/6/51 54/66/52 30/37/23
f 8/10/11 54/66/52 22/28/16
f 29/36/27 27/33/53 54/66/52
f 30/37/23 27/33/53 11/13/24
f 5/5/18 55/67/54 23/29/55
f 6/6/51 55/67/54 40/51/17
f 24/30/22 37/47/4 55/67/54
f 55/67/54 1/1/1 23/29/55
f 18/24/5 32/39/30 4/4/28
f 18/24/5 31/38/21 56/68/56
f 56/68/56 9/11/26 25/31/41
f 56/68/56 10/12/43 32/39/30
f 27/33/53 43/54/47 11/13/24
f 27/33/53 44/56/49 57/69/57
f 57/69/57 16/22/33 35/45/35
f 57/69/57 15/19/40 43/54/47
f 1/1/1 37/47/4 45/57/2
f 37/47/4 2/2/19 18/24/5
f 18/24/5 4/4/28 38/48/6
f 45/57/2 38/48/6 3/3/7
f 3/3/7 38/48/6 46/58/8
f 38/48/6 4/4/28 20/26/10
f 46/58/8 20/26/10 8/9/11
f 46/58/8 39/49/12 7/7/13
f 7/8/13 39/50/12 47/59/14
f 39/50/12 8/10/11 22/28/16
f 22/28/16 6/6/51 40/51/17
f 47/59/14 40/51/17 5/5/18
f 2/2/19 24/30/22 48/60/20
f 24/30/22 6/6/51 30/37/23
f 48/60/20 30/37/23 11/13/24
f 31/38/21 48/60/20 28/34/25
f 20/26/10 49/61/29 29/35/27
f 4/4/28 32/39/30 49/61/29
f 32/39/30 10/12/43 26/32/31
f 49/61/29 26/32/31 12/14/32
f 16/20/33 34/42/37 50/62/34
f 14/17/36 33/40/46 50/62/34
f 50/62/34 33/40/46 13/16/38
f 50/62/34 36/46/39 15/19/40
f 25/31/41 51/63/45 42/53/42
f 25/31/41 9/11/26 41/52/44
f 51/63/45 41/52/44 13/16/38
f 51/63/45 33/41/46 14/18/36
f 28/34/25 52/64/48 41/52/44
f 28/34/25 11/13/24 43/54/47
f 52/64/48 43/54/47 15/19/40
f 52/64/48 36/46/39 13/16/38
f 26/32/31 53/65/50 44/55/49
f 26/32/31 10/12/43 42/53/42
f 53/65/50 42/53/42 14/18/36
f 53/65/50 34/43/37 16/21/33
f 6/6/51 22/28/16 54/66/52
f 8/10/11 29/36/27 54/66/52
f 29/36/27 12/15/32 27/33/53
f 30/37/23 54/66/52 27/33/53
f 5/5/18 40/51/17 55/67/54
f 6/6/51 24/30/22 55/67/54
f 24/30/22 2/2/19 37/47/4
f 55/67/54 37/47/4 1/1/1
f 18/24/5 56/68/56 32/39/30
f 18/24/5 2/2/19 31/38/21
f 56/68/56 31/38/21 9/11/26
f 56/68/56 25/31/41 10/12/43
f 27/33/53 57/69/57 43/54/47
f 27/33/53 12/15/32 44/56/49
f 57/69/57 44/56/49 16/22/33
f 57/69/57 35/45/35 15/19/40
