# Blender 3.3.0
# www.blender.org
o CactusFlower
v -0.000000 0.469459 -0.194288
v -0.137383 0.469459 -0.137383
v -0.194288 0.469459 -0.000000
v -0.137383 0.469459 0.137383
v -0.000000 0.469459 0.194288
v 0.137383 0.469459 0.137383
v 0.194288 0.469459 -0.000000
v 0.137383 0.469459 -0.137383
v -0.041727 0.407977 -0.041727
v -0.000000 0.407977 -0.059011
v -0.059011 0.407977 -0.000000
v -0.041727 0.407977 0.041727
v -0.000000 0.407977 0.059011
v 0.041727 0.407977 0.041727
v 0.059011 0.407977 -0.000000
v 0.041727 0.407977 -0.041727
v -0.096248 0.453204 -0.096248
v -0.000000 0.453204 -0.136115
v -0.136115 0.453204 -0.000000
v -0.096248 0.453204 0.096248
v -0.000000 0.453204 0.136115
v 0.096248 0.453204 0.096248
v 0.136115 0.453204 -0.000000
v 0.096248 0.453204 -0.096248
v 0.000000 0.400901 -0.000000
v -0.000000 0.389022 -0.196602
v -0.139019 0.389022 -0.139019
v -0.196602 0.389022 -0.000000
v -0.139019 0.389022 0.139019
v -0.000000 0.389022 0.196602
v 0.139019 0.389022 0.139019
v 0.196602 0.389022 -0.000000
v 0.139019 0.389022 -0.139019
v -0.042224 0.399258 -0.042224
v -0.000000 0.399258 -0.059714
v -0.059714 0.399258 -0.000000
v -0.042224 0.399258 0.042224
v -0.000000 0.399258 0.059714
v 0.042224 0.399258 0.042224
v 0.059714 0.399258 -0.000000
v 0.042224 0.399258 -0.042224
v -0.097394 0.406858 -0.097394
v -0.000000 0.406858 -0.137736
v -0.137736 0.406858 -0.000000
v -0.097394 0.406858 0.097394
v -0.000000 0.406858 0.137736
v 0.097394 0.406858 0.097394
v 0.137736 0.406858 -0.000000
v 0.097394 0.406858 -0.097394
v 0.000000 0.383158 -0.000000
v -0.000000 0.412555 -0.070116
v -0.049579 0.412555 -0.049579
v -0.070116 0.412555 -0.000000
v -0.049579 0.412555 0.049579
v -0.000000 0.412555 0.070116
v 0.049579 0.412555 0.049579
v 0.070116 0.412555 -0.000000
v 0.049579 0.412555 -0.049579
v -0.000000 0.501512 -0.127824
v -0.090386 0.501512 -0.090386
v -0.127824 0.501512 0.000000
v -0.090386 0.501512 0.090386
v -0.000000 0.501512 0.127824
v 0.090386 0.501512 0.090386
v 0.127824 0.501512 0.000000
v 0.090386 0.501512 -0.090386
v -0.027453 0.407212 -0.027453
v -0.000000 0.407212 -0.038824
v -0.038824 0.407212 0.000000
v -0.027453 0.407212 0.027453
v -0.000000 0.407212 0.038824
v 0.027453 0.407212 0.027453
v 0.038824 0.407212 0.000000
v 0.027453 0.407212 -0.027453
v -0.063322 0.476895 -0.063322
v -0.000000 0.476895 -0.089551
v -0.089551 0.476895 0.000000
v -0.063322 0.476895 0.063322
v -0.000000 0.476895 0.089551
v 0.063322 0.476895 0.063322
v 0.089551 0.476895 0.000000
v 0.063322 0.476895 -0.063322
v 0.000000 0.407212 0.000000
vn -0.0000 1.0000 -0.0000
vn -0.3634 0.9316 -0.0000
vn -0.2570 0.9316 0.2570
vn -0.0000 0.9631 0.2691
vn 0.2567 0.9318 0.2567
vn -0.0000 0.9318 0.3630
vn 0.1903 0.9631 0.1903
vn 0.3630 0.9318 -0.0000
vn 0.2691 0.9631 -0.0000
vn 0.2567 0.9318 -0.2567
vn 0.1903 0.9631 -0.1903
vn -0.0000 0.9318 -0.3630
vn -0.0000 0.9631 -0.2691
vn -0.2567 0.9318 -0.2567
vn -0.1903 0.9631 -0.1903
vn -0.3630 0.9318 -0.0000
vn -0.2691 0.9631 -0.0000
vn -0.2567 0.9318 0.2567
vn -0.1903 0.9631 0.1903
vn 0.2570 0.9316 0.2570
vn -0.0000 0.9316 0.3634
vn 0.3634 0.9316 -0.0000
vn 0.2570 0.9316 -0.2570
vn -0.0000 0.9316 -0.3634
vn -0.2570 0.9316 -0.2570
vn -0.6023 0.7983 -0.0000
vn -0.4259 0.7983 0.4259
vn -0.0000 0.9771 -0.2130
vn -0.2050 0.9570 -0.2050
vn -0.1506 0.9771 -0.1506
vn -0.2130 0.9771 -0.0000
vn -0.2050 0.9570 0.2050
vn -0.1506 0.9771 0.1506
vn -0.0000 0.9771 0.2130
vn 0.2050 0.9570 0.2050
vn 0.1506 0.9771 0.1506
vn 0.2130 0.9771 -0.0000
vn 0.2050 0.9570 -0.2050
vn 0.1506 0.9771 -0.1506
vn 0.2061 0.9566 0.2061
vn -0.0000 0.9566 0.2915
vn 0.2915 0.9566 -0.0000
vn 0.2061 0.9566 -0.2061
vn -0.0000 0.9566 -0.2915
vn -0.2061 0.9566 -0.2061
vn -0.2915 0.9566 -0.0000
vn -0.2061 0.9566 0.2061
vn -0.0000 0.7983 -0.6023
vn -0.4259 0.7983 -0.4259
vn -0.0000 0.7983 0.6023
vn 0.6023 0.7983 -0.0000
vn 0.4259 0.7983 0.4259
vn 0.4259 0.7983 -0.4259
vn -0.5342 0.8454 -0.0000
vn -0.3777 0.8454 0.3777
vn -0.0000 0.8411 0.5410
vn 0.4673 0.7505 0.4673
vn -0.0000 0.7505 0.6608
vn 0.3825 0.8411 0.3825
vn 0.6608 0.7505 -0.0000
vn 0.5410 0.8411 -0.0000
vn 0.4673 0.7505 -0.4673
vn 0.3825 0.8411 -0.3825
vn -0.0000 0.7505 -0.6608
vn -0.0000 0.8411 -0.5410
vn -0.4673 0.7505 -0.4673
vn -0.3825 0.8411 -0.3825
vn -0.6608 0.7505 -0.0000
vn -0.5410 0.8411 -0.0000
vn -0.4673 0.7505 0.4673
vn -0.3825 0.8411 0.3825
vn 0.3777 0.8454 0.3777
vn -0.0000 0.8454 0.5342
vn 0.5342 0.8454 -0.0000
vn 0.3777 0.8454 -0.3777
vn -0.0000 0.8454 -0.5342
vn -0.3777 0.8454 -0.3777
vn -0.0000 0.9570 -0.2900
vn -0.2900 0.9570 -0.0000
vn -0.0000 0.9570 0.2900
vn 0.2900 0.9570 -0.0000
vt 0.708347 1.002994
vt 0.291653 1.002994
vt -0.002994 0.708347
vt -0.002994 0.291653
vt 0.291653 -0.002994
vt 0.708347 -0.002994
vt 1.002994 0.291653
vt 1.002994 0.708347
vt 0.436719 0.652773
vt 0.563281 0.652773
vt 0.347227 0.563281
vt 0.347226 0.436719
vt 0.436719 0.347227
vt 0.563281 0.347227
vt 0.652773 0.436719
vt 0.652773 0.563281
vt 0.354036 0.852389
vt 0.645964 0.852388
vt 0.147611 0.645964
vt 0.147611 0.354036
vt 0.354036 0.147611
vt 0.645964 0.147612
vt 0.852388 0.354036
vt 0.852388 0.645964
vt 0.500000 0.500000
vt 0.710828 1.008984
vt 0.289172 1.008984
vt -0.008984 0.710828
vt -0.008984 0.289172
vt 0.289172 -0.008984
vt 0.710828 -0.008984
vt 1.008984 0.289172
vt 1.008984 0.710828
vt 0.435965 0.654593
vt 0.564034 0.654593
vt 0.345407 0.564034
vt 0.345407 0.435966
vt 0.435966 0.345407
vt 0.564034 0.345407
vt 0.654593 0.435966
vt 0.654593 0.564034
vt 0.352298 0.856585
vt 0.647702 0.856585
vt 0.143415 0.647702
vt 0.143415 0.352298
vt 0.352298 0.143415
vt 0.647702 0.143415
vt 0.856584 0.352298
vt 0.856584 0.647702
vt 0.500000 0.500000
vt 0.575189 0.681523
vt 0.424811 0.681524
vt 0.318477 0.575189
vt 0.318477 0.424811
vt 0.424811 0.318477
vt 0.575189 0.318477
vt 0.681523 0.424811
vt 0.681523 0.575190
vt 0.708347 1.002994
vt 0.291653 1.002994
vt -0.002994 0.708347
vt -0.002994 0.291653
vt 0.291653 -0.002994
vt 0.708347 -0.002994
vt 1.002994 0.291653
vt 1.002994 0.708347
vt 0.436719 0.652773
vt 0.563281 0.652773
vt 0.347227 0.563281
vt 0.347226 0.436719
vt 0.436719 0.347227
vt 0.563281 0.347227
vt 0.652773 0.436719
vt 0.652773 0.563281
vt 0.354036 0.852389
vt 0.645964 0.852388
vt 0.147611 0.645964
vt 0.147611 0.354036
vt 0.354036 0.147611
vt 0.645964 0.147612
vt 0.852388 0.354036
vt 0.852388 0.645964
vt 0.500000 0.500000
s 1
f 25/25/1 15/15/2 16/16/3
f 1/1/4 17/17/5 18/18/6
f 2/2/7 19/19/8 17/17/5
f 3/3/9 20/20/10 19/19/8
f 4/4/11 21/21/12 20/20/10
f 5/5/13 22/22/14 21/21/12
f 6/6/15 23/23/16 22/22/14
f 7/7/17 24/24/18 23/23/16
f 8/8/19 18/18/6 24/24/18
f 18/18/6 9/9/20 10/10/21
f 9/9/20 19/19/8 11/11/22
f 19/19/8 12/12/23 11/11/22
f 12/12/23 21/21/12 13/13/24
f 21/21/12 14/14/25 13/13/24
f 14/14/25 23/23/16 15/15/2
f 23/23/16 16/16/3 15/15/2
f 24/24/18 10/10/21 16/16/3
f 25/25/1 13/13/24 14/14/25
f 10/10/21 25/25/1 16/16/3
f 11/11/22 25/25/1 9/9/20
f 14/14/25 15/15/2 25/25/1
f 12/12/23 25/25/1 11/11/22
f 12/12/23 13/13/24 25/25/1
f 9/9/20 25/25/1 10/10/21
f 50/50/1 40/40/26 41/41/27
f 43/43/28 27/27/29 42/42/30
f 27/27/29 44/44/31 42/42/30
f 44/44/31 29/29/32 45/45/33
f 29/29/32 46/46/34 45/45/33
f 46/46/34 31/31/35 47/47/36
f 31/31/35 48/48/37 47/47/36
f 48/48/37 33/33/38 49/49/39
f 33/33/38 43/43/28 49/49/39
f 43/43/28 52/52/40 51/51/41
f 52/52/40 44/44/31 53/53/42
f 44/44/31 54/54/43 53/53/42
f 54/54/43 46/46/34 55/55/44
f 55/55/44 47/47/36 56/56/45
f 56/56/45 48/48/37 57/57/46
f 48/48/37 58/58/47 57/57/46
f 58/58/47 43/43/28 51/51/41
f 50/50/1 38/38/48 39/39/49
f 35/35/50 50/50/1 41/41/27
f 36/36/51 50/50/1 34/34/52
f 39/39/49 40/40/26 50/50/1
f 37/37/53 50/50/1 36/36/51
f 37/37/53 38/38/48 50/50/1
f 34/34/52 50/50/1 35/35/50
f 58/58/47 35/35/50 41/41/27
f 57/57/46 41/41/27 40/40/26
f 56/56/45 40/40/26 39/39/49
f 55/55/44 39/39/49 38/38/48
f 54/54/43 38/38/48 37/37/53
f 53/53/42 37/37/53 36/36/51
f 52/52/40 36/36/51 34/34/52
f 51/51/41 34/34/52 35/35/50
f 83/83/1 73/73/54 74/74/55
f 59/59/56 75/75/57 76/76/58
f 60/60/59 77/77/60 75/75/57
f 61/61/61 78/78/62 77/77/60
f 62/62/63 79/79/64 78/78/62
f 63/63/65 80/80/66 79/79/64
f 64/64/67 81/81/68 80/80/66
f 65/65/69 82/82/70 81/81/68
f 66/66/71 76/76/58 82/82/70
f 76/76/58 67/67/72 68/68/73
f 75/75/57 69/69/74 67/67/72
f 77/77/60 70/70/75 69/69/74
f 78/78/62 71/71/76 70/70/75
f 79/79/64 72/72/77 71/71/76
f 80/80/66 73/73/54 72/72/77
f 81/81/68 74/74/55 73/73/54
f 82/82/70 68/68/73 74/74/55
f 83/83/1 71/71/76 72/72/77
f 68/68/73 83/83/1 74/74/55
f 69/69/74 83/83/1 67/67/72
f 72/72/77 73/73/54 83/83/1
f 70/70/75 83/83/1 69/69/74
f 70/70/75 71/71/76 83/83/1
f 67/67/72 83/83/1 68/68/73
f 1/1/4 2/2/7 17/17/5
f 2/2/7 3/3/9 19/19/8
f 3/3/9 4/4/11 20/20/10
f 4/4/11 5/5/13 21/21/12
f 5/5/13 6/6/15 22/22/14
f 6/6/15 7/7/17 23/23/16
f 7/7/17 8/8/19 24/24/18
f 8/8/19 1/1/4 18/18/6
f 18/18/6 17/17/5 9/9/20
f 9/9/20 17/17/5 19/19/8
f 19/19/8 20/20/10 12/12/23
f 12/12/23 20/20/10 21/21/12
f 21/21/12 22/22/14 14/14/25
f 14/14/25 22/22/14 23/23/16
f 23/23/16 24/24/18 16/16/3
f 24/24/18 18/18/6 10/10/21
f 43/43/28 26/26/78 27/27/29
f 27/27/29 28/28/79 44/44/31
f 44/44/31 28/28/79 29/29/32
f 29/29/32 30/30/80 46/46/34
f 46/46/34 30/30/80 31/31/35
f 31/31/35 32/32/81 48/48/37
f 48/48/37 32/32/81 33/33/38
f 33/33/38 26/26/78 43/43/28
f 43/43/28 42/42/30 52/52/40
f 52/52/40 42/42/30 44/44/31
f 44/44/31 45/45/33 54/54/43
f 54/54/43 45/45/33 46/46/34
f 55/55/44 46/46/34 47/47/36
f 56/56/45 47/47/36 48/48/37
f 48/48/37 49/49/39 58/58/47
f 58/58/47 49/49/39 43/43/28
f 58/58/47 51/51/41 35/35/50
f 57/57/46 58/58/47 41/41/27
f 56/56/45 57/57/46 40/40/26
f 55/55/44 56/56/45 39/39/49
f 54/54/43 55/55/44 38/38/48
f 53/53/42 54/54/43 37/37/53
f 52/52/40 53/53/42 36/36/51
f 51/51/41 52/52/40 34/34/52
f 59/59/56 60/60/59 75/75/57
f 60/60/59 61/61/61 77/77/60
f 61/61/61 62/62/63 78/78/62
f 62/62/63 63/63/65 79/79/64
f 63/63/65 64/64/67 80/80/66
f 64/64/67 65/65/69 81/81/68
f 65/65/69 66/66/71 82/82/70
f 66/66/71 59/59/56 76/76/58
f 76/76/58 75/75/57 67/67/72
f 75/75/57 77/77/60 69/69/74
f 77/77/60 78/78/62 70/70/75
f 78/78/62 79/79/64 71/71/76
f 79/79/64 80/80/66 72/72/77
f 80/80/66 81/81/68 73/73/54
f 81/81/68 82/82/70 74/74/55
f 82/82/70 76/76/58 68/68/73
