# Blender 3.3.0
# www.blender.org
o LHTree.001
v -13.105551 5.318318 6.041929
v -22.965162 18.032944 15.122108
v -15.575913 5.318318 3.508805
v -24.760742 18.032944 14.900281
v -11.046233 7.378745 4.033635
v -22.024879 18.973732 14.205123
v -13.516594 7.378745 1.500510
v -23.820461 18.973732 13.983296
v -29.100990 22.057074 25.056454
v -29.720024 22.049528 24.767624
v -29.034695 22.718050 24.897095
v -29.653728 22.710505 24.608265
v -22.183764 17.504246 14.018940
v -23.742771 17.504246 13.070329
v -22.971590 18.275841 12.318256
v -21.412582 18.275841 13.266868
v -32.284393 18.133394 13.297952
v -32.237686 18.400803 12.927568
v -32.251251 17.992580 13.035139
v -32.204544 18.259987 12.664756
v -19.498669 13.301579 8.311229
v -18.253416 14.547503 7.096830
v -16.759609 14.547503 8.628589
v -18.004866 13.301579 9.842987
v -26.326653 17.921013 14.877634
v -25.346622 17.417824 13.081362
v -24.565205 18.362263 12.079965
v -25.325138 19.085663 13.661594
v -31.205025 18.068169 13.719366
v -30.984009 17.802502 13.065870
v -30.782856 18.304958 12.426345
v -30.963383 18.611132 13.040357
v -28.343452 21.980841 21.664152
v -27.110321 21.991341 22.137506
v -27.505264 20.768646 22.654461
v -28.738396 20.758144 22.181108
v -13.843675 4.872631 -5.444791
v -10.715589 7.126925 -5.790333
v -10.290540 7.126925 -1.942542
v -13.418633 4.872631 -1.597004
v -22.762087 12.905959 -0.574841
v -21.435406 13.862048 -0.721392
v -21.633102 14.706407 0.851949
v -22.583683 13.174069 0.956953
v -30.308458 14.125172 -3.136804
v -30.056520 14.724505 -3.116900
v -30.196411 14.762253 -2.482805
v -30.448351 14.162918 -2.502710
v -23.002102 14.529332 0.450834
v -22.601074 14.521205 -1.429589
v -24.121962 13.246531 -1.281996
v -23.543694 13.403132 0.840496
v -24.426895 18.865868 11.407290
v -24.883118 18.088146 11.705139
v -25.697098 18.759951 11.140802
v -25.616575 18.351730 11.537802
v -16.301754 9.488760 -0.456847
v -16.531584 9.203206 -2.537395
v -18.222977 7.984280 -2.350557
v -17.993155 7.984280 -0.270010
v -20.230854 13.574711 0.802549
v -21.518711 12.379428 -0.466862
v -20.384916 13.196510 -0.592106
v -21.364653 12.379427 0.927791
v -23.923111 14.897139 0.045489
v -25.310453 13.593328 -1.669157
v -23.984629 14.786351 -1.788471
v -24.581068 13.417409 0.551313
v -28.311237 14.514085 -1.723034
v -28.831831 13.680791 -2.719234
v -28.237282 14.480538 -2.742488
v -28.905792 13.714336 -1.699781
v -23.893921 18.612808 10.432100
v -25.253519 18.543642 10.095404
v -24.642622 17.570551 10.710196
v -25.456423 17.906195 10.470583
vn 0.4352 -0.7097 0.5541
vn -0.2321 -0.9587 -0.1644
vn 0.3321 -0.6392 0.6937
vn -0.2901 -0.1355 0.9474
vn -0.6632 -0.7373 -0.1286
vn -0.1089 -0.9800 -0.1663
vn -0.1453 0.6266 -0.7657
vn 0.7356 0.6574 0.1635
vn 0.7577 0.6273 0.1802
vn 0.1659 -0.4750 0.8642
vn -0.9181 -0.3766 -0.1239
vn 0.1009 -0.3766 0.9209
vn -0.5242 0.7021 -0.4819
vn 0.2819 0.7172 0.6373
vn 0.6885 0.6940 0.2105
vn -0.8249 -0.3473 0.4460
vn -0.6977 0.6993 0.1556
vn -0.7653 -0.6384 -0.0824
vn 0.1692 -0.3339 0.9273
vn 0.4697 -0.6517 0.5955
vn 0.7736 0.6090 0.1752
vn -0.1709 0.6163 -0.7688
vn -0.8760 -0.4457 -0.1844
vn -0.6663 0.7455 -0.0181
vn -0.5705 0.0541 -0.8195
vn -0.1077 0.1090 -0.9882
vn -0.1261 0.9895 0.0706
vn -0.7380 -0.0302 0.6742
vn -0.1262 0.5573 -0.8207
vn 0.8173 0.5573 0.1468
vn -0.4975 -0.7237 0.4783
vn -0.0300 0.9911 0.1293
vn -0.1364 -0.2280 0.9641
vn -0.0828 0.9639 -0.2531
vn 0.0770 0.1859 -0.9796
vn 0.0023 -0.9735 -0.2286
vn 0.3977 0.4508 -0.7991
vn 0.5918 0.5609 0.5790
vn 0.3480 0.5703 -0.7441
vn -0.0490 -0.8252 0.5628
vn -0.5355 -0.5539 -0.6376
vn -0.3256 -0.4975 0.8040
vn 0.5994 0.7912 0.1215
vn 0.2279 0.5728 -0.7874
vn -0.5433 0.7587 0.3594
vn -0.2348 0.8124 0.5337
vn -0.8871 -0.3198 0.3328
vn 0.0208 -0.7926 -0.6093
vn -0.3966 -0.6006 0.6943
vn -0.2516 0.6551 -0.7124
vn -0.1155 -0.8938 -0.4333
vn 0.5109 0.4690 -0.7204
vn -0.5599 0.7266 -0.3981
vn 0.5421 0.6429 0.5411
vn 0.8407 0.5239 0.1372
vn -0.5967 -0.6610 0.4550
vn -0.1636 0.9865 0.0062
vn -0.6971 -0.1320 0.7047
vn 0.1678 -0.4490 0.8777
vn 0.2425 -0.8386 0.4878
vn -0.8717 -0.4900 0.0122
vn -0.7609 0.6399 0.1075
vn -0.5920 -0.3881 -0.7063
vn -0.6319 -0.1295 -0.7641
vn 0.0633 0.7226 -0.6884
vn 0.0144 0.8543 -0.5195
vn 0.5463 0.5091 0.6651
vn -0.2128 -0.6264 0.7499
vn 0.3934 0.7938 0.4638
vn -0.7152 -0.4069 -0.5683
vn -0.3643 -0.6069 0.7064
vn -0.0020 -0.8395 -0.5434
vn 0.1990 0.5883 -0.7838
vn -0.0632 0.8751 0.4799
vn -0.3609 -0.4950 0.7904
vn 0.0797 -0.7919 -0.6055
vt 0.506467 0.050301
vt 0.068728 0.051673
vt 0.202311 0.620631
vt 0.383505 0.618659
vt 0.399489 0.025601
vt 0.530069 0.661930
vt 0.731943 0.671522
vt 0.332928 0.640507
vt 0.174707 0.014261
vt 0.242364 0.594003
vt 0.287632 0.005158
vt 0.573827 0.631963
vt 0.292861 0.613993
vt 0.249444 0.992299
vt 0.314715 1.009265
vt 0.336012 0.992214
vt 0.314572 0.987223
vt 0.292673 1.009408
vt 0.270794 0.987994
vt 0.292531 0.987366
vt 0.201913 0.574650
vt 0.384458 0.573267
vt 0.328751 0.575143
vt 0.672554 0.635288
vt 0.294516 0.555596
vt 0.635803 0.611335
vt 0.238731 0.553988
vt 0.596351 0.893192
vt 0.643197 0.895237
vt 0.606246 0.902795
vt 0.610521 0.888624
vt 0.615780 0.901182
vt 0.634374 0.891157
vt 0.620056 0.887011
vt 0.348978 0.337501
vt 0.285705 0.316560
vt 0.222596 0.321812
vt 0.414925 0.350317
vt 0.164353 0.348305
vt 0.529737 0.712911
vt 0.725204 0.721642
vt 0.671641 0.685520
vt 0.632572 0.660601
vt 0.580315 0.680146
vt 0.576846 0.861016
vt 0.665146 0.864702
vt 0.645702 0.852412
vt 0.622500 0.842588
vt 0.602040 0.848808
vt 0.290851 0.888066
vt 0.252895 0.884237
vt 0.213214 0.898345
vt 0.369927 0.897330
vt 0.329968 0.896074
vt 0.249679 0.247755
vt 0.659366 0.240400
vt 0.574299 0.167473
vt 0.465126 0.188819
vt 0.370124 0.248805
vt 0.550568 0.641951
vt 0.376710 0.640968
vt 0.504374 0.621920
vt 0.461232 0.623107
vt 0.900727 0.246248
vt 0.732170 0.254346
vt 0.845667 0.237363
vt 0.422804 0.632436
vt 0.472016 0.905566
vt 0.416275 0.894859
vt 0.493675 0.895099
vt 0.475603 0.885663
vt 0.455700 0.882076
vt 0.435513 0.887362
vt 0.452113 0.901979
vt 0.775514 0.245989
vt 0.457970 0.653706
vt 0.504233 0.661033
vt 0.548512 0.692871
vt 0.366127 0.690483
vt 0.422934 0.659131
vt 0.815638 0.243600
vt 0.776103 0.609216
vt 0.886459 0.603759
vt 0.792668 0.633268
vt 0.857134 0.604570
vt 0.815898 0.604716
vt 0.814623 0.622357
vt 0.833046 0.608807
vt 0.467691 0.405844
vt 0.538797 0.392000
vt 0.328881 0.423641
vt 0.598826 0.424934
vt 0.393618 0.424035
vt 0.464214 0.586616
vt 0.544792 0.599602
vt 0.375352 0.596534
vt 0.503496 0.583816
vt 0.418738 0.590840
vt 0.461912 0.680225
vt 0.535868 0.732969
vt 0.369526 0.733046
vt 0.502704 0.695867
vt 0.420798 0.688189
vt 0.456070 0.816450
vt 0.511843 0.848435
vt 0.399759 0.846910
vt 0.488245 0.826529
vt 0.428194 0.831621
vt 0.896598 0.570012
vt 0.763224 0.576587
vt 0.805690 0.570874
vt 0.856553 0.569612
vt 0.828981 0.573224
s 1
f 2/4/1 14/23/2 13/22/3
f 29/46/4 19/33/5 30/47/6
f 15/25/7 6/10/8 16/27/9
f 6/10/8 13/21/3 16/27/9
f 24/38/10 3/5/11 1/1/12
f 33/50/13 11/19/14 34/51/15
f 10/17/16 11/18/14 12/20/17
f 36/54/18 9/16/19 10/17/16
f 35/52/20 11/19/14 9/14/19
f 36/54/18 12/20/17 33/50/13
f 16/27/9 24/39/10 23/37/21
f 22/36/22 16/27/9 23/37/21
f 21/35/23 15/25/7 22/36/22
f 13/22/3 21/35/23 24/38/10
f 19/32/5 18/31/24 20/34/25
f 30/47/6 20/34/25 31/48/26
f 32/49/27 20/34/25 18/31/24
f 29/45/4 18/31/24 17/28/28
f 3/5/11 22/36/22 7/11/29
f 22/36/22 5/9/30 7/11/29
f 23/37/21 1/2/12 5/9/30
f 4/6/31 28/44/32 25/40/33
f 8/12/34 27/43/35 28/44/32
f 14/24/2 27/43/35 15/26/7
f 4/7/31 26/42/36 14/24/2
f 25/40/33 32/49/27 29/45/4
f 28/44/32 31/48/26 32/49/27
f 26/42/36 31/48/26 27/43/35
f 25/41/33 30/47/6 26/42/36
f 4/8/31 33/50/13 8/13/34
f 2/3/1 34/51/15 35/52/20
f 4/8/31 35/53/20 36/54/18
f 8/13/34 34/51/15 6/10/8
f 42/62/37 61/94/38 63/97/39
f 44/67/40 62/96/41 64/98/42
f 43/63/43 64/98/42 61/94/38
f 62/95/41 42/62/37 63/97/39
f 71/107/44 47/72/45 69/104/46
f 48/73/47 70/106/48 72/108/49
f 47/72/45 72/108/49 69/104/46
f 70/105/48 46/71/50 71/107/44
f 41/60/51 50/77/52 42/62/37
f 74/111/53 53/82/54 73/110/55
f 52/80/56 41/61/51 44/67/40
f 42/62/37 49/76/57 43/63/43
f 53/82/54 56/87/58 54/84/59
f 53/83/54 75/112/60 73/109/55
f 76/113/61 55/86/62 74/111/53
f 54/85/59 76/113/61 75/112/60
f 48/74/47 46/71/50 45/68/63
f 37/56/64 58/90/65 38/57/66
f 57/89/67 40/59/68 39/58/69
f 40/59/68 59/91/70 37/55/64
f 58/90/65 39/58/69 38/57/66
f 59/92/70 63/97/39 58/90/65
f 57/89/67 64/98/42 60/93/71
f 60/93/71 62/96/41 59/91/70
f 63/97/39 57/89/67 58/90/65
f 51/78/72 67/102/73 50/77/52
f 65/99/74 52/80/56 49/76/57
f 68/103/75 51/79/72 52/80/56
f 50/77/52 65/99/74 49/76/57
f 66/100/76 71/107/44 67/102/73
f 69/104/46 68/103/75 65/99/74
f 72/108/49 66/101/76 68/103/75
f 67/102/73 69/104/46 65/99/74
f 75/112/60 52/81/56 44/66/40
f 52/81/56 74/111/53 49/75/57
f 43/64/43 75/112/60 44/66/40
f 74/111/53 43/65/43 49/75/57
f 2/4/1 4/8/31 14/23/2
f 29/46/4 17/29/28 19/33/5
f 15/25/7 8/13/34 6/10/8
f 6/10/8 2/3/1 13/21/3
f 24/38/10 21/35/23 3/5/11
f 33/50/13 12/20/17 11/19/14
f 10/17/16 9/15/19 11/18/14
f 36/54/18 35/53/20 9/16/19
f 35/52/20 34/51/15 11/19/14
f 36/54/18 10/17/16 12/20/17
f 16/27/9 13/21/3 24/39/10
f 22/36/22 15/25/7 16/27/9
f 21/35/23 14/23/2 15/25/7
f 13/22/3 14/23/2 21/35/23
f 19/32/5 17/30/28 18/31/24
f 30/47/6 19/33/5 20/34/25
f 32/49/27 31/48/26 20/34/25
f 29/45/4 32/49/27 18/31/24
f 3/5/11 21/35/23 22/36/22
f 22/36/22 23/37/21 5/9/30
f 23/37/21 24/39/10 1/2/12
f 4/6/31 8/12/34 28/44/32
f 8/12/34 15/26/7 27/43/35
f 14/24/2 26/42/36 27/43/35
f 4/7/31 25/41/33 26/42/36
f 25/40/33 28/44/32 32/49/27
f 28/44/32 27/43/35 31/48/26
f 26/42/36 30/47/6 31/48/26
f 25/41/33 29/46/4 30/47/6
f 4/8/31 36/54/18 33/50/13
f 2/3/1 6/10/8 34/51/15
f 4/8/31 2/4/1 35/53/20
f 8/13/34 33/50/13 34/51/15
f 42/62/37 43/63/43 61/94/38
f 44/67/40 41/61/51 62/96/41
f 43/63/43 44/67/40 64/98/42
f 62/95/41 41/60/51 42/62/37
f 71/107/44 46/71/50 47/72/45
f 48/73/47 45/69/63 70/106/48
f 47/72/45 48/73/47 72/108/49
f 70/105/48 45/70/63 46/71/50
f 41/60/51 51/78/72 50/77/52
f 74/111/53 55/86/62 53/82/54
f 52/80/56 51/79/72 41/61/51
f 42/62/37 50/77/52 49/76/57
f 53/82/54 55/86/62 56/87/58
f 53/83/54 54/85/59 75/112/60
f 76/113/61 56/88/58 55/86/62
f 54/85/59 56/88/58 76/113/61
f 48/74/47 47/72/45 46/71/50
f 37/56/64 59/92/70 58/90/65
f 57/89/67 60/93/71 40/59/68
f 40/59/68 60/93/71 59/91/70
f 58/90/65 57/89/67 39/58/69
f 59/92/70 62/95/41 63/97/39
f 57/89/67 61/94/38 64/98/42
f 60/93/71 64/98/42 62/96/41
f 63/97/39 61/94/38 57/89/67
f 51/78/72 66/100/76 67/102/73
f 65/99/74 68/103/75 52/80/56
f 68/103/75 66/101/76 51/79/72
f 50/77/52 67/102/73 65/99/74
f 66/100/76 70/105/48 71/107/44
f 69/104/46 72/108/49 68/103/75
f 72/108/49 70/106/48 66/101/76
f 67/102/73 71/107/44 69/104/46
f 75/112/60 76/113/61 52/81/56
f 52/81/56 76/113/61 74/111/53
f 43/64/43 73/109/55 75/112/60
f 74/111/53 73/110/55 43/65/43
