# Blender 3.3.0
# www.blender.org
o Cylinder
v 0.000000 -0.309087 -1.000000
v 0.000000 0.309087 -1.000000
v 0.195090 -0.309087 -0.980785
v 0.195090 0.309087 -0.980785
v 0.382683 -0.309087 -0.923880
v 0.382683 0.309087 -0.923880
v 0.555570 -0.309087 -0.831470
v 0.555570 0.309087 -0.831470
v 0.707107 -0.309087 -0.707107
v 0.707107 0.309087 -0.707107
v 0.831470 -0.309087 -0.555570
v 0.831470 0.309087 -0.555570
v 0.923880 -0.309087 -0.382683
v 0.923880 0.309087 -0.382683
v 0.980785 -0.309087 -0.195090
v 0.980785 0.309087 -0.195090
v 1.000000 -0.309087 0.000000
v 1.000000 0.309087 0.000000
v 0.980785 -0.309087 0.195090
v 0.980785 0.309087 0.195090
v 0.923880 -0.309087 0.382683
v 0.923880 0.309087 0.382683
v 0.831470 -0.309087 0.555570
v 0.831470 0.309087 0.555570
v 0.707107 -0.309087 0.707107
v 0.707107 0.309087 0.707107
v 0.555570 -0.309087 0.831470
v 0.555570 0.309087 0.831470
v 0.382683 -0.309087 0.923880
v 0.382683 0.309087 0.923880
v 0.195090 -0.309087 0.980785
v 0.195090 0.309087 0.980785
v 0.000000 -0.309087 1.000000
v 0.000000 0.309087 1.000000
v -0.195090 -0.309087 0.980785
v -0.195090 0.309087 0.980785
v -0.382683 -0.309087 0.923880
v -0.382683 0.309087 0.923880
v -0.555570 -0.309087 0.831470
v -0.555570 0.309087 0.831470
v -0.707107 -0.309087 0.707107
v -0.707107 0.309087 0.707107
v -0.831470 -0.309087 0.555570
v -0.831470 0.309087 0.555570
v -0.923880 -0.309087 0.382683
v -0.923880 0.309087 0.382683
v -0.980785 -0.309087 0.195090
v -0.980785 0.309087 0.195090
v -1.000000 -0.309087 0.000000
v -1.000000 0.309087 0.000000
v -0.980785 -0.309087 -0.195090
v -0.980785 0.309087 -0.195090
v -0.923880 -0.309087 -0.382683
v -0.923880 0.309087 -0.382683
v -0.831470 -0.309087 -0.555570
v -0.831470 0.309087 -0.555570
v -0.707107 -0.309087 -0.707107
v -0.707107 0.309087 -0.707107
v -0.555570 -0.309087 -0.831470
v -0.555570 0.309087 -0.831470
v -0.382683 -0.309087 -0.923880
v -0.382683 0.309087 -0.923880
v -0.195090 -0.309087 -0.980785
v -0.195090 0.309087 -0.980785
v 0.000000 -0.639280 -0.750711
v 0.000000 0.639280 -0.750711
v 0.146457 -0.639280 -0.736287
v 0.146457 0.639280 -0.736287
v 0.287285 -0.639280 -0.693567
v 0.287285 0.639280 -0.693567
v 0.417073 -0.639280 -0.624194
v 0.417073 0.639280 -0.624194
v 0.530833 -0.639280 -0.530833
v 0.530833 0.639280 -0.530833
v 0.624194 -0.639280 -0.417073
v 0.624194 0.639280 -0.417073
v 0.693567 -0.639280 -0.287285
v 0.693567 0.639280 -0.287285
v 0.736287 -0.639280 -0.146457
v 0.736287 0.639280 -0.146457
v 0.750711 -0.639280 0.000000
v 0.750711 0.639280 0.000000
v 0.736287 -0.639280 0.146457
v 0.736287 0.639280 0.146457
v 0.693567 -0.639280 0.287285
v 0.693567 0.639280 0.287285
v 0.624194 -0.639280 0.417073
v 0.624194 0.639280 0.417073
v 0.530833 -0.639280 0.530833
v 0.530833 0.639280 0.530833
v 0.417073 -0.639280 0.624194
v 0.417073 0.639280 0.624194
v 0.287285 -0.639280 0.693567
v 0.287285 0.639280 0.693567
v 0.146457 -0.639280 0.736287
v 0.146457 0.639280 0.736287
v 0.000000 -0.639280 0.750711
v 0.000000 0.639280 0.750711
v -0.146457 -0.639280 0.736287
v -0.146457 0.639280 0.736287
v -0.287285 -0.639280 0.693567
v -0.287285 0.639280 0.693567
v -0.417073 -0.639280 0.624194
v -0.417073 0.639280 0.624194
v -0.530833 -0.639280 0.530833
v -0.530833 0.639280 0.530833
v -0.624194 -0.639280 0.417073
v -0.624194 0.639280 0.417073
v -0.693567 -0.639280 0.287285
v -0.693567 0.639280 0.287285
v -0.736287 -0.639280 0.146457
v -0.736287 0.639280 0.146457
v -0.750711 -0.639280 0.000000
v -0.750711 0.639280 0.000000
v -0.736287 -0.639280 -0.146457
v -0.736287 0.639280 -0.146457
v -0.693567 -0.639280 -0.287285
v -0.693567 0.639280 -0.287285
v -0.624194 -0.639280 -0.417073
v -0.624194 0.639280 -0.417073
v -0.530833 -0.639280 -0.530833
v -0.530833 0.639280 -0.530833
v -0.417073 -0.639280 -0.624194
v -0.417073 0.639280 -0.624194
v -0.287285 -0.639280 -0.693567
v -0.287285 0.639280 -0.693567
v -0.146457 -0.639280 -0.736287
v -0.146457 0.639280 -0.736287
v 0.000000 -0.866575 -0.499544
v 0.000000 0.866575 -0.499544
v 0.097456 -0.866575 -0.489945
v 0.097456 0.866575 -0.489945
v 0.191167 -0.866575 -0.461518
v 0.191167 0.866575 -0.461518
v 0.277532 -0.866575 -0.415355
v 0.277532 0.866575 -0.415355
v 0.353231 -0.866575 -0.353231
v 0.353231 0.866575 -0.353231
v 0.415355 -0.866575 -0.277532
v 0.415355 0.866575 -0.277532
v 0.461518 -0.866575 -0.191167
v 0.461518 0.866575 -0.191167
v 0.489945 -0.866575 -0.097456
v 0.489945 0.866575 -0.097456
v 0.499544 -0.866575 0.000000
v 0.499544 0.866575 0.000000
v 0.489945 -0.866575 0.097456
v 0.489945 0.866575 0.097456
v 0.461518 -0.866575 0.191167
v 0.461518 0.866575 0.191167
v 0.415355 -0.866575 0.277532
v 0.415355 0.866575 0.277532
v 0.353231 -0.866575 0.353231
v 0.353231 0.866575 0.353231
v 0.277532 -0.866575 0.415355
v 0.277532 0.866575 0.415355
v 0.191167 -0.866575 0.461518
v 0.191167 0.866575 0.461518
v 0.097456 -0.866575 0.489945
v 0.097456 0.866575 0.489945
v 0.000000 -0.866575 0.499544
v 0.000000 0.866575 0.499544
v -0.097456 -0.866575 0.489945
v -0.097456 0.866575 0.489945
v -0.191167 -0.866575 0.461518
v -0.191167 0.866575 0.461518
v -0.277532 -0.866575 0.415355
v -0.277532 0.866575 0.415355
v -0.353231 -0.866575 0.353231
v -0.353231 0.866575 0.353231
v -0.415355 -0.866575 0.277532
v -0.415355 0.866575 0.277532
v -0.461518 -0.866575 0.191167
v -0.461518 0.866575 0.191167
v -0.489945 -0.866575 0.097456
v -0.489945 0.866575 0.097456
v -0.499544 -0.866575 0.000000
v -0.499544 0.866575 0.000000
v -0.489945 -0.866575 -0.097456
v -0.489945 0.866575 -0.097456
v -0.461518 -0.866575 -0.191167
v -0.461518 0.866575 -0.191167
v -0.415355 -0.866575 -0.277532
v -0.415355 0.866575 -0.277532
v -0.353231 -0.866575 -0.353231
v -0.353231 0.866575 -0.353231
v -0.277532 -0.866575 -0.415355
v -0.277532 0.866575 -0.415355
v -0.191167 -0.866575 -0.461518
v -0.191167 0.866575 -0.461518
v -0.097456 -0.866575 -0.489945
v -0.097456 0.866575 -0.489945
v 0.000000 -0.964280 -0.286937
v 0.000000 0.964280 -0.286937
v 0.055979 -0.964280 -0.281423
v 0.055979 0.964280 -0.281423
v 0.109806 -0.964280 -0.265095
v 0.109806 0.964280 -0.265095
v 0.159413 -0.964280 -0.238579
v 0.159413 0.964280 -0.238579
v 0.202895 -0.964280 -0.202895
v 0.202895 0.964280 -0.202895
v 0.238579 -0.964280 -0.159413
v 0.238579 0.964280 -0.159413
v 0.265095 -0.964280 -0.109806
v 0.265095 0.964280 -0.109806
v 0.281423 -0.964280 -0.055979
v 0.281423 0.964280 -0.055979
v 0.286937 -0.964280 0.000000
v 0.286937 0.964280 0.000000
v 0.281423 -0.964280 0.055979
v 0.281423 0.964280 0.055979
v 0.265095 -0.964280 0.109806
v 0.265095 0.964280 0.109806
v 0.238579 -0.964280 0.159413
v 0.238579 0.964280 0.159413
v 0.202895 -0.964280 0.202895
v 0.202895 0.964280 0.202895
v 0.159413 -0.964280 0.238579
v 0.159413 0.964280 0.238579
v 0.109806 -0.964280 0.265095
v 0.109806 0.964280 0.265095
v 0.055979 -0.964280 0.281423
v 0.055979 0.964280 0.281423
v 0.000000 -0.964280 0.286937
v 0.000000 0.964280 0.286937
v -0.055979 -0.964280 0.281423
v -0.055979 0.964280 0.281423
v -0.109806 -0.964280 0.265095
v -0.109806 0.964280 0.265095
v -0.159413 -0.964280 0.238579
v -0.159413 0.964280 0.238579
v -0.202895 -0.964280 0.202895
v -0.202895 0.964280 0.202895
v -0.238579 -0.964280 0.159413
v -0.238579 0.964280 0.159413
v -0.265095 -0.964280 0.109806
v -0.265095 0.964280 0.109806
v -0.281423 -0.964280 0.055979
v -0.281423 0.964280 0.055979
v -0.286937 -0.964280 0.000000
v -0.286937 0.964280 0.000000
v -0.281423 -0.964280 -0.055979
v -0.281423 0.964280 -0.055979
v -0.265095 -0.964280 -0.109806
v -0.265095 0.964280 -0.109806
v -0.238579 -0.964280 -0.159413
v -0.238579 0.964280 -0.159413
v -0.202895 -0.964280 -0.202895
v -0.202895 0.964280 -0.202895
v -0.159413 -0.964280 -0.238579
v -0.159413 0.964280 -0.238579
v -0.109806 -0.964280 -0.265095
v -0.109806 0.964280 -0.265095
v -0.055979 -0.964280 -0.281423
v -0.055979 0.964280 -0.281423
vn -0.0000 -0.0000 -1.0000
vn 0.1951 -0.0000 -0.9808
vn 0.3827 -0.0000 -0.9239
vn 0.5556 -0.0000 -0.8315
vn 0.7071 -0.0000 -0.7071
vn 0.8315 -0.0000 -0.5556
vn 0.9239 -0.0000 -0.3827
vn 0.9808 -0.0000 -0.1951
vn 1.0000 -0.0000 -0.0000
vn 0.9808 -0.0000 0.1951
vn 0.9239 -0.0000 0.3827
vn 0.8315 -0.0000 0.5556
vn 0.7071 -0.0000 0.7071
vn 0.5556 -0.0000 0.8315
vn 0.3827 -0.0000 0.9239
vn 0.1951 -0.0000 0.9808
vn -0.0000 -0.0000 1.0000
vn -0.1951 -0.0000 0.9808
vn -0.3827 -0.0000 0.9239
vn -0.5556 -0.0000 0.8315
vn -0.7071 -0.0000 0.7071
vn -0.8315 -0.0000 0.5556
vn -0.9239 -0.0000 0.3827
vn -0.9808 -0.0000 0.1951
vn -1.0000 -0.0000 -0.0000
vn -0.9808 -0.0000 -0.1951
vn -0.9239 -0.0000 -0.3827
vn -0.8315 -0.0000 -0.5556
vn -0.7071 -0.0000 -0.7071
vn -0.5556 -0.0000 -0.8315
vn -0.3827 -0.0000 -0.9239
vn -0.1951 -0.0000 -0.9808
vt 0.437500 0.421357
vt 0.437500 0.519900
vt 0.406250 0.421357
vt 0.406250 0.519900
vt 0.375000 0.421357
vt 0.375000 0.519900
vt 0.343750 0.421357
vt 0.343750 0.519900
vt 0.312500 0.421357
vt 0.312500 0.519900
vt 0.281250 0.421356
vt 0.281250 0.519900
vt 0.250000 0.421356
vt 0.250000 0.519900
vt 0.218750 0.421356
vt 0.218750 0.519900
vt 0.187500 0.421356
vt 0.187500 0.519900
vt 0.156250 0.421356
vt 0.156250 0.519900
vt 0.125000 0.421356
vt 0.125000 0.519900
vt 0.093750 0.421356
vt 0.093750 0.519900
vt 0.062500 0.421356
vt 0.062500 0.519900
vt 0.031250 0.421356
vt 0.031250 0.519900
vt 1.000000 0.421356
vt 0.000000 0.421356
vt -0.000000 0.519900
vt 1.000000 0.519900
vt 0.968750 0.421356
vt 0.968750 0.519900
vt 0.937500 0.421356
vt 0.937500 0.519900
vt 0.906250 0.421356
vt 0.906250 0.519900
vt 0.875000 0.421356
vt 0.875000 0.519900
vt 0.843750 0.421356
vt 0.843750 0.519900
vt 0.812500 0.421356
vt 0.812500 0.519900
vt 0.781250 0.421356
vt 0.781250 0.519900
vt 0.750000 0.421356
vt 0.750000 0.519900
vt 0.718750 0.421356
vt 0.718750 0.519900
vt 0.687500 0.421356
vt 0.687500 0.519900
vt 0.656250 0.421357
vt 0.656250 0.519900
vt 0.625000 0.421357
vt 0.625000 0.519900
vt 0.593750 0.421357
vt 0.593750 0.519900
vt 0.562500 0.421357
vt 0.562500 0.519900
vt 0.531250 0.421357
vt 0.531250 0.519900
vt 0.500000 0.421357
vt 0.500000 0.519900
vt 0.468750 0.421357
vt 0.468750 0.519900
vt 0.437500 0.796184
vt 0.437500 1.000000
vt 0.406250 0.796184
vt 0.406250 1.000000
vt 0.375000 0.796184
vt 0.375000 1.000000
vt 0.343750 0.796184
vt 0.343750 1.000000
vt 0.312500 0.796184
vt 0.312500 1.000000
vt 0.281250 0.796184
vt 0.281250 1.000000
vt 0.250000 0.796184
vt 0.250000 1.000000
vt 0.218750 0.796184
vt 0.218750 1.000000
vt 0.187500 0.796184
vt 0.187500 1.000000
vt 0.156250 0.796184
vt 0.156250 1.000000
vt 0.125000 0.796184
vt 0.125000 1.000000
vt 0.093750 0.796184
vt 0.093750 1.000000
vt 0.062500 0.796184
vt 0.062500 1.000000
vt 0.031250 0.796183
vt 0.031250 1.000000
vt 1.000000 0.796183
vt 0.000000 0.796183
vt 0.000000 1.000000
vt 1.000000 1.000000
vt 0.968750 0.796183
vt 0.968750 1.000000
vt 0.937500 0.796183
vt 0.937500 1.000000
vt 0.906250 0.796183
vt 0.906250 1.000000
vt 0.875000 0.796183
vt 0.875000 1.000000
vt 0.843750 0.796184
vt 0.843750 1.000000
vt 0.812500 0.796184
vt 0.812500 1.000000
vt 0.781250 0.796184
vt 0.781250 1.000000
vt 0.750000 0.796184
vt 0.750000 1.000000
vt 0.718750 0.796184
vt 0.718750 1.000000
vt 0.687500 0.796184
vt 0.687500 1.000000
vt 0.656250 0.796184
vt 0.656250 1.000000
vt 0.625000 0.796184
vt 0.625000 1.000000
vt 0.593750 0.796184
vt 0.593750 1.000000
vt 0.562500 0.796184
vt 0.562500 1.000000
vt 0.531250 0.796184
vt 0.531250 1.000000
vt 0.500000 0.796184
vt 0.500000 1.000000
vt 0.468750 0.796184
vt 0.468750 1.000000
vt 0.437501 0.519901
vt 0.437500 0.796183
vt 0.406251 0.519901
vt 0.406250 0.796183
vt 0.375001 0.519901
vt 0.375000 0.796183
vt 0.343751 0.519901
vt 0.343750 0.796183
vt 0.312501 0.519901
vt 0.312500 0.796183
vt 0.281251 0.519901
vt 0.281250 0.796183
vt 0.250001 0.519901
vt 0.250000 0.796183
vt 0.218751 0.519901
vt 0.218750 0.796183
vt 0.187501 0.519901
vt 0.187500 0.796183
vt 0.156251 0.519901
vt 0.156250 0.796183
vt 0.125002 0.519901
vt 0.125000 0.796183
vt 0.093752 0.519900
vt 0.093750 0.796183
vt 0.062502 0.519900
vt 0.062500 0.796183
vt 0.031252 0.519900
vt 0.031250 0.796183
vt 0.999999 0.519900
vt 0.000002 0.519900
vt 0.000000 0.796183
vt 1.000000 0.796183
vt 0.968749 0.519900
vt 0.968750 0.796183
vt 0.937499 0.519900
vt 0.937500 0.796183
vt 0.906249 0.519900
vt 0.906250 0.796183
vt 0.874999 0.519901
vt 0.875000 0.796183
vt 0.843749 0.519901
vt 0.843750 0.796183
vt 0.812500 0.519901
vt 0.812500 0.796183
vt 0.781250 0.519901
vt 0.781250 0.796183
vt 0.750000 0.519901
vt 0.750000 0.796183
vt 0.718750 0.519901
vt 0.718750 0.796183
vt 0.687500 0.519901
vt 0.687500 0.796183
vt 0.656250 0.519901
vt 0.656250 0.796183
vt 0.625000 0.519901
vt 0.625000 0.796183
vt 0.593750 0.519901
vt 0.593750 0.796183
vt 0.562500 0.519901
vt 0.562500 0.796183
vt 0.531250 0.519901
vt 0.531250 0.796183
vt 0.500001 0.519901
vt 0.500000 0.796183
vt 0.468751 0.519901
vt 0.468750 0.796183
vt 0.437500 0.113923
vt 0.437500 0.421356
vt 0.406250 0.113923
vt 0.406250 0.421356
vt 0.375001 0.113923
vt 0.375000 0.421356
vt 0.343751 0.113923
vt 0.343750 0.421356
vt 0.312501 0.113923
vt 0.312500 0.421356
vt 0.281251 0.113923
vt 0.281250 0.421356
vt 0.250002 0.113923
vt 0.250000 0.421356
vt 0.218752 0.113923
vt 0.218750 0.421356
vt 0.187502 0.113923
vt 0.187500 0.421356
vt 0.156252 0.113923
vt 0.156250 0.421356
vt 0.125003 0.113923
vt 0.125000 0.421356
vt 0.093753 0.113923
vt 0.093750 0.421356
vt 0.062503 0.113923
vt 0.062500 0.421356
vt 0.031253 0.113923
vt 0.031250 0.421356
vt 0.999996 0.113923
vt 0.000004 0.113923
vt 0.000000 0.421356
vt 1.000000 0.421356
vt 0.968747 0.113923
vt 0.968750 0.421356
vt 0.937497 0.113923
vt 0.937500 0.421356
vt 0.906247 0.113923
vt 0.906250 0.421356
vt 0.874997 0.113923
vt 0.875000 0.421356
vt 0.843747 0.113923
vt 0.843750 0.421356
vt 0.812498 0.113923
vt 0.812500 0.421356
vt 0.781248 0.113923
vt 0.781250 0.421356
vt 0.749998 0.113923
vt 0.750000 0.421356
vt 0.718748 0.113923
vt 0.718750 0.421356
vt 0.687498 0.113923
vt 0.687500 0.421356
vt 0.656249 0.113923
vt 0.656249 0.421356
vt 0.624999 0.113923
vt 0.625000 0.421356
vt 0.593749 0.113923
vt 0.593750 0.421356
vt 0.562499 0.113923
vt 0.562500 0.421356
vt 0.531249 0.113923
vt 0.531250 0.421356
vt 0.500000 0.113923
vt 0.500000 0.421356
vt 0.468750 0.113923
vt 0.468750 0.421356
s 1
f 2/2/1 3/3/2 1/1/1
f 4/4/2 5/5/3 3/3/2
f 6/6/3 7/7/4 5/5/3
f 8/8/4 9/9/5 7/7/4
f 10/10/5 11/11/6 9/9/5
f 12/12/6 13/13/7 11/11/6
f 14/14/7 15/15/8 13/13/7
f 16/16/8 17/17/9 15/15/8
f 18/18/9 19/19/10 17/17/9
f 20/20/10 21/21/11 19/19/10
f 22/22/11 23/23/12 21/21/11
f 24/24/12 25/25/13 23/23/12
f 26/26/13 27/27/14 25/25/13
f 28/28/14 29/30/15 27/27/14
f 30/32/15 31/33/16 29/29/15
f 32/34/16 33/35/17 31/33/16
f 34/36/17 35/37/18 33/35/17
f 36/38/18 37/39/19 35/37/18
f 38/40/19 39/41/20 37/39/19
f 40/42/20 41/43/21 39/41/20
f 42/44/21 43/45/22 41/43/21
f 44/46/22 45/47/23 43/45/22
f 46/48/23 47/49/24 45/47/23
f 48/50/24 49/51/25 47/49/24
f 50/52/25 51/53/26 49/51/25
f 52/54/26 53/55/27 51/53/26
f 54/56/27 55/57/28 53/55/27
f 56/58/28 57/59/29 55/57/28
f 58/60/29 59/61/30 57/59/29
f 60/62/30 61/63/31 59/61/30
f 62/64/31 63/65/32 61/63/31
f 64/66/32 1/1/1 63/65/32
f 66/68/1 67/69/2 65/67/1
f 68/70/2 69/71/3 67/69/2
f 70/72/3 71/73/4 69/71/3
f 72/74/4 73/75/5 71/73/4
f 74/76/5 75/77/6 73/75/5
f 76/78/6 77/79/7 75/77/6
f 78/80/7 79/81/8 77/79/7
f 80/82/8 81/83/9 79/81/8
f 82/84/9 83/85/10 81/83/9
f 84/86/10 85/87/11 83/85/10
f 86/88/11 87/89/12 85/87/11
f 88/90/12 89/91/13 87/89/12
f 90/92/13 91/93/14 89/91/13
f 92/94/14 93/96/15 91/93/14
f 94/98/15 95/99/16 93/95/15
f 96/100/16 97/101/17 95/99/16
f 98/102/17 99/103/18 97/101/17
f 100/104/18 101/105/19 99/103/18
f 102/106/19 103/107/20 101/105/19
f 104/108/20 105/109/21 103/107/20
f 106/110/21 107/111/22 105/109/21
f 108/112/22 109/113/23 107/111/22
f 110/114/23 111/115/24 109/113/23
f 112/116/24 113/117/25 111/115/24
f 114/118/25 115/119/26 113/117/25
f 116/120/26 117/121/27 115/119/26
f 118/122/27 119/123/28 117/121/27
f 120/124/28 121/125/29 119/123/28
f 122/126/29 123/127/30 121/125/29
f 124/128/30 125/129/31 123/127/30
f 126/130/31 127/131/32 125/129/31
f 128/132/32 65/67/1 127/131/32
f 130/134/1 131/135/2 129/133/1
f 132/136/2 133/137/3 131/135/2
f 134/138/3 135/139/4 133/137/3
f 136/140/4 137/141/5 135/139/4
f 138/142/5 139/143/6 137/141/5
f 140/144/6 141/145/7 139/143/6
f 142/146/7 143/147/8 141/145/7
f 144/148/8 145/149/9 143/147/8
f 146/150/9 147/151/10 145/149/9
f 148/152/10 149/153/11 147/151/10
f 150/154/11 151/155/12 149/153/11
f 152/156/12 153/157/13 151/155/12
f 154/158/13 155/159/14 153/157/13
f 156/160/14 157/162/15 155/159/14
f 158/164/15 159/165/16 157/161/15
f 160/166/16 161/167/17 159/165/16
f 162/168/17 163/169/18 161/167/17
f 164/170/18 165/171/19 163/169/18
f 166/172/19 167/173/20 165/171/19
f 168/174/20 169/175/21 167/173/20
f 170/176/21 171/177/22 169/175/21
f 172/178/22 173/179/23 171/177/22
f 174/180/23 175/181/24 173/179/23
f 176/182/24 177/183/25 175/181/24
f 178/184/25 179/185/26 177/183/25
f 180/186/26 181/187/27 179/185/26
f 182/188/27 183/189/28 181/187/27
f 184/190/28 185/191/29 183/189/28
f 186/192/29 187/193/30 185/191/29
f 188/194/30 189/195/31 187/193/30
f 190/196/31 191/197/32 189/195/31
f 192/198/32 129/133/1 191/197/32
f 194/200/1 195/201/2 193/199/1
f 196/202/2 197/203/3 195/201/2
f 198/204/3 199/205/4 197/203/3
f 200/206/4 201/207/5 199/205/4
f 202/208/5 203/209/6 201/207/5
f 204/210/6 205/211/7 203/209/6
f 206/212/7 207/213/8 205/211/7
f 208/214/8 209/215/9 207/213/8
f 210/216/9 211/217/10 209/215/9
f 212/218/10 213/219/11 211/217/10
f 214/220/11 215/221/12 213/219/11
f 216/222/12 217/223/13 215/221/12
f 218/224/13 219/225/14 217/223/13
f 220/226/14 221/228/15 219/225/14
f 222/230/15 223/231/16 221/227/15
f 224/232/16 225/233/17 223/231/16
f 226/234/17 227/235/18 225/233/17
f 228/236/18 229/237/19 227/235/18
f 230/238/19 231/239/20 229/237/19
f 232/240/20 233/241/21 231/239/20
f 234/242/21 235/243/22 233/241/21
f 236/244/22 237/245/23 235/243/22
f 238/246/23 239/247/24 237/245/23
f 240/248/24 241/249/25 239/247/24
f 242/250/25 243/251/26 241/249/25
f 244/252/26 245/253/27 243/251/26
f 246/254/27 247/255/28 245/253/27
f 248/256/28 249/257/29 247/255/28
f 250/258/29 251/259/30 249/257/29
f 252/260/30 253/261/31 251/259/30
f 254/262/31 255/263/32 253/261/31
f 256/264/32 193/199/1 255/263/32
f 2/2/1 4/4/2 3/3/2
f 4/4/2 6/6/3 5/5/3
f 6/6/3 8/8/4 7/7/4
f 8/8/4 10/10/5 9/9/5
f 10/10/5 12/12/6 11/11/6
f 12/12/6 14/14/7 13/13/7
f 14/14/7 16/16/8 15/15/8
f 16/16/8 18/18/9 17/17/9
f 18/18/9 20/20/10 19/19/10
f 20/20/10 22/22/11 21/21/11
f 22/22/11 24/24/12 23/23/12
f 24/24/12 26/26/13 25/25/13
f 26/26/13 28/28/14 27/27/14
f 28/28/14 30/31/15 29/30/15
f 30/32/15 32/34/16 31/33/16
f 32/34/16 34/36/17 33/35/17
f 34/36/17 36/38/18 35/37/18
f 36/38/18 38/40/19 37/39/19
f 38/40/19 40/42/20 39/41/20
f 40/42/20 42/44/21 41/43/21
f 42/44/21 44/46/22 43/45/22
f 44/46/22 46/48/23 45/47/23
f 46/48/23 48/50/24 47/49/24
f 48/50/24 50/52/25 49/51/25
f 50/52/25 52/54/26 51/53/26
f 52/54/26 54/56/27 53/55/27
f 54/56/27 56/58/28 55/57/28
f 56/58/28 58/60/29 57/59/29
f 58/60/29 60/62/30 59/61/30
f 60/62/30 62/64/31 61/63/31
f 62/64/31 64/66/32 63/65/32
f 64/66/32 2/2/1 1/1/1
f 66/68/1 68/70/2 67/69/2
f 68/70/2 70/72/3 69/71/3
f 70/72/3 72/74/4 71/73/4
f 72/74/4 74/76/5 73/75/5
f 74/76/5 76/78/6 75/77/6
f 76/78/6 78/80/7 77/79/7
f 78/80/7 80/82/8 79/81/8
f 80/82/8 82/84/9 81/83/9
f 82/84/9 84/86/10 83/85/10
f 84/86/10 86/88/11 85/87/11
f 86/88/11 88/90/12 87/89/12
f 88/90/12 90/92/13 89/91/13
f 90/92/13 92/94/14 91/93/14
f 92/94/14 94/97/15 93/96/15
f 94/98/15 96/100/16 95/99/16
f 96/100/16 98/102/17 97/101/17
f 98/102/17 100/104/18 99/103/18
f 100/104/18 102/106/19 101/105/19
f 102/106/19 104/108/20 103/107/20
f 104/108/20 106/110/21 105/109/21
f 106/110/21 108/112/22 107/111/22
f 108/112/22 110/114/23 109/113/23
f 110/114/23 112/116/24 111/115/24
f 112/116/24 114/118/25 113/117/25
f 114/118/25 116/120/26 115/119/26
f 116/120/26 118/122/27 117/121/27
f 118/122/27 120/124/28 119/123/28
f 120/124/28 122/126/29 121/125/29
f 122/126/29 124/128/30 123/127/30
f 124/128/30 126/130/31 125/129/31
f 126/130/31 128/132/32 127/131/32
f 128/132/32 66/68/1 65/67/1
f 130/134/1 132/136/2 131/135/2
f 132/136/2 134/138/3 133/137/3
f 134/138/3 136/140/4 135/139/4
f 136/140/4 138/142/5 137/141/5
f 138/142/5 140/144/6 139/143/6
f 140/144/6 142/146/7 141/145/7
f 142/146/7 144/148/8 143/147/8
f 144/148/8 146/150/9 145/149/9
f 146/150/9 148/152/10 147/151/10
f 148/152/10 150/154/11 149/153/11
f 150/154/11 152/156/12 151/155/12
f 152/156/12 154/158/13 153/157/13
f 154/158/13 156/160/14 155/159/14
f 156/160/14 158/163/15 157/162/15
f 158/164/15 160/166/16 159/165/16
f 160/166/16 162/168/17 161/167/17
f 162/168/17 164/170/18 163/169/18
f 164/170/18 166/172/19 165/171/19
f 166/172/19 168/174/20 167/173/20
f 168/174/20 170/176/21 169/175/21
f 170/176/21 172/178/22 171/177/22
f 172/178/22 174/180/23 173/179/23
f 174/180/23 176/182/24 175/181/24
f 176/182/24 178/184/25 177/183/25
f 178/184/25 180/186/26 179/185/26
f 180/186/26 182/188/27 181/187/27
f 182/188/27 184/190/28 183/189/28
f 184/190/28 186/192/29 185/191/29
f 186/192/29 188/194/30 187/193/30
f 188/194/30 190/196/31 189/195/31
f 190/196/31 192/198/32 191/197/32
f 192/198/32 130/134/1 129/133/1
f 194/200/1 196/202/2 195/201/2
f 196/202/2 198/204/3 197/203/3
f 198/204/3 200/206/4 199/205/4
f 200/206/4 202/208/5 201/207/5
f 202/208/5 204/210/6 203/209/6
f 204/210/6 206/212/7 205/211/7
f 206/212/7 208/214/8 207/213/8
f 208/214/8 210/216/9 209/215/9
f 210/216/9 212/218/10 211/217/10
f 212/218/10 214/220/11 213/219/11
f 214/220/11 216/222/12 215/221/12
f 216/222/12 218/224/13 217/223/13
f 218/224/13 220/226/14 219/225/14
f 220/226/14 222/229/15 221/228/15
f 222/230/15 224/232/16 223/231/16
f 224/232/16 226/234/17 225/233/17
f 226/234/17 228/236/18 227/235/18
f 228/236/18 230/238/19 229/237/19
f 230/238/19 232/240/20 231/239/20
f 232/240/20 234/242/21 233/241/21
f 234/242/21 236/244/22 235/243/22
f 236/244/22 238/246/23 237/245/23
f 238/246/23 240/248/24 239/247/24
f 240/248/24 242/250/25 241/249/25
f 242/250/25 244/252/26 243/251/26
f 244/252/26 246/254/27 245/253/27
f 246/254/27 248/256/28 247/255/28
f 248/256/28 250/258/29 249/257/29
f 250/258/29 252/260/30 251/259/30
f 252/260/30 254/262/31 253/261/31
f 254/262/31 256/264/32 255/263/32
f 256/264/32 194/200/1 193/199/1
