# Blender 3.3.0
# www.blender.org
mtllib HugeTree_col02.mtl
o HugeTree_Col02
v 0.295156 38.351479 -13.684700
v -1.264041 40.913647 -2.076490
v -2.375113 33.626122 -0.033340
v -4.210063 38.201077 -0.355542
v 2.254742 38.844738 -3.251855
v 0.136947 34.653172 -3.032873
v 2.305344 34.204159 0.471064
v 3.503406 38.254749 -0.649883
v 3.295140 38.538647 1.512210
v 3.516992 38.802551 -10.447214
v 1.001275 37.338795 -11.506857
v -3.875998 44.337345 -20.110960
v -4.279806 38.997467 1.521435
v -3.062267 39.264954 3.245674
v -2.749282 40.969833 1.931381
v -0.048851 39.109161 -3.955255
v -5.164151 42.892345 -20.213970
v 2.231261 38.121609 -15.223969
v -4.186353 43.319923 -20.785645
v -5.131066 44.095284 -19.294500
v 4.758443 36.942005 -12.716575
v 13.580659 43.110638 -25.496117
v 1.091993 35.304096 -4.346239
v 3.176899 39.515705 -2.115889
v -1.580924 33.360321 -1.903372
v 1.776821 38.923473 -10.664234
v -1.134446 41.298542 1.402719
v -4.023952 39.503693 -1.801758
v -2.856556 41.073318 1.397025
v -3.113945 41.703194 -1.211874
v 2.930024 36.583248 -4.234674
v -0.995508 36.847961 -4.284532
v 4.085935 37.088257 -14.936035
v 2.021138 36.778168 -13.711643
v 2.070070 39.964405 -15.028107
v 1.214097 39.535694 -13.126098
v 5.098952 38.713726 -12.763746
v 4.319746 39.688751 -14.306070
v 3.767220 39.066273 -15.269365
v 14.716705 42.616428 -24.338711
v 14.900829 44.009674 -23.486734
v 13.290071 44.883083 -24.542330
v -1.481500 33.484367 1.910991
v 1.114594 33.162094 2.184638
v 0.501720 32.818626 -2.355525
v 1.969303 33.358910 -1.469448
v 1.590500 41.086040 1.314939
v 1.531379 40.907726 -1.523770
v 0.631041 40.942375 2.666198
v -1.358277 38.236160 3.676772
v 0.228429 38.729485 3.796752
vn 0.9443 -0.3248 -0.0529
vn 0.0770 -0.9746 -0.2103
vn 0.6622 -0.7227 0.1980
vn -0.6925 0.6695 0.2687
vn 0.0574 0.9976 0.0386
vn -0.3845 0.8737 0.2979
vn -0.0026 0.8638 -0.5038
vn 0.1258 0.8759 -0.4659
vn -0.0250 0.8193 -0.5728
vn 0.3609 0.8973 0.2540
vn 0.6555 0.6519 -0.3813
vn -0.2676 0.7855 -0.5580
vn -0.7485 -0.2146 -0.6274
vn -0.0299 -0.6013 -0.7985
vn -0.6160 -0.4162 -0.6688
vn -0.5293 -0.3674 0.7647
vn 0.3965 -0.0844 0.9142
vn -0.1916 -0.3375 0.9216
vn 0.7236 0.1471 -0.6743
vn 0.9813 -0.1725 -0.0857
vn 0.2107 -0.3014 -0.9299
vn 0.7639 -0.4473 -0.4652
vn -0.0276 -0.8306 -0.5563
vn 0.0472 -0.4332 -0.9000
vn -0.3295 0.3457 -0.8786
vn -0.7374 0.6237 0.2593
vn 0.0064 0.0144 -0.9999
vn -0.8250 -0.3433 -0.4489
vn -0.3032 -0.9031 -0.3041
vn -0.6290 0.0901 -0.7721
vn 0.9324 -0.2990 0.2030
vn 0.3743 -0.2993 0.8777
vn 0.8182 -0.0499 0.5727
vn -0.9104 -0.3927 -0.1305
vn -0.9284 -0.3696 0.0385
vn -0.8885 -0.1177 0.4436
vn 0.4418 0.8288 -0.3434
vn -0.0129 0.9901 0.1396
vn 0.5772 0.7770 0.2514
vn -0.3596 0.7919 0.4935
vn -0.8680 -0.3385 0.3632
vn -0.9682 -0.2445 -0.0536
vn -0.7480 -0.0344 0.6628
vn 0.8010 -0.5124 -0.3097
vn 0.2310 0.8953 -0.3808
vn -0.0869 0.9060 -0.4143
vn 0.7098 0.3839 0.5906
vn 0.8672 0.4468 0.2198
vn 0.0316 -0.1454 -0.9889
vn 0.4578 0.7188 0.5232
vn -0.4618 0.8837 0.0758
vt 0.876905 0.506335
vt 0.878525 0.571654
vt 0.845162 0.866190
vt 0.736876 0.491296
vt 0.789066 0.625803
vt 0.903588 0.396312
vt 0.791149 0.575858
vt 0.884999 0.425169
vt 0.697218 0.454483
vt 0.371095 0.649030
vt 0.346420 0.649740
vt 0.823946 0.314389
vt 0.838793 0.307621
vt 0.521977 0.731808
vt 0.887831 0.311848
vt 0.872619 0.362119
vt 0.888026 0.303147
vt 0.330060 0.664943
vt 0.843851 0.295835
vt 0.855587 0.276318
vt 0.682856 0.624562
vt 0.821684 0.447495
vt 0.833312 0.601159
vt 0.830824 0.373194
vt 0.870743 0.483941
vt 0.869077 0.596528
vt 0.789272 0.378712
vt 0.703970 0.435519
vt 0.879512 0.978038
vt 0.765945 0.567290
vt 0.748722 0.569784
vt 0.704760 0.292679
vt 0.740275 0.538504
vt 0.706663 0.320049
vt 0.811074 0.308478
vt 0.731331 0.452049
vt 0.707570 0.420879
vt 0.848401 0.980151
vt 0.899431 0.981182
vt 0.848845 0.527236
vt 0.903149 0.863918
vt 0.698670 0.427167
vt 0.890860 0.977986
vt 0.713121 0.431662
vt 0.863141 0.977549
vt 0.859334 0.381603
vt 0.820596 0.481875
vt 0.805894 0.627251
vt 0.304643 0.748978
vt 0.732671 0.798967
vt 0.849697 0.461330
vt 0.891839 0.323597
vt 0.855891 0.366803
vt 0.758763 0.320181
vt 0.353794 0.662572
vt 0.894138 0.382773
vt 0.853405 0.603409
vt 0.811083 0.374969
vt 0.728524 0.533087
vt 0.866802 0.420812
vt 0.775730 0.482424
vt 0.751057 0.539805
vt 0.700932 0.312900
vt 0.757186 0.507152
vt 0.843730 0.333828
vt 0.865596 0.315551
vt 0.851637 0.384215
vt 0.782814 0.313316
vt 0.760127 0.449970
vt 0.815394 0.627742
vt 0.830289 0.512339
vt 0.726803 0.624549
vt 0.831332 0.865996
vt 0.854448 0.500441
vt 0.771665 0.381392
vt 0.918210 0.867400
vt 0.849426 0.546221
vt 0.887585 0.865538
vt 0.861772 0.570581
vt 0.862525 0.863855
vt 0.807007 0.483791
vt 0.814617 0.576235
vt 0.789291 0.626960
vt 0.829287 0.554536
vt 0.763672 0.625115
vt 0.834358 0.539412
vt 0.750748 0.623172
vt 0.290414 0.740432
vt 0.720089 0.799779
vt 0.802578 0.799796
vt 0.281855 0.754785
vt 0.786085 0.799309
vt 0.296356 0.765748
vt 0.759434 0.798881
vt 0.757914 0.637278
vt 0.904877 0.294044
vt 0.730502 0.649742
vt 0.886564 0.362600
vt 0.522535 0.706156
vt 0.508918 0.720265
vt 0.873855 0.335173
vt 0.701386 0.520493
vt 0.676187 0.590747
vt 0.713436 0.489073
vt 0.383415 0.656628
vt 0.706610 0.535419
vt 0.684584 0.581008
vt 0.731309 0.589350
vt 0.712559 0.597602
s 1
usemtl MossyTreeBark
f 31/66/1 23/52/2 21/46/3
f 15/33/4 27/59/5 29/62/6
f 29/62/6 27/59/5 30/64/7
f 48/104/8 2/4/9 47/102/10
f 48/104/8 5/9/11 2/4/9
f 2/4/9 5/9/11 16/36/12
f 32/67/13 6/16/14 25/56/15
f 43/95/16 51/109/17 50/108/18
f 48/105/8 24/55/19 5/10/11
f 24/55/19 8/18/20 5/11/11
f 45/98/21 25/56/15 6/16/14
f 6/14/14 46/100/22 45/99/21
f 33/71/23 18/40/24 39/86/25
f 20/44/26 19/42/27 17/37/28
f 34/74/29 33/71/23 23/51/2
f 33/71/23 21/47/3 23/51/2
f 25/56/15 28/60/30 32/67/13
f 7/17/31 46/101/22 31/65/1
f 44/96/32 7/17/31 9/20/33
f 8/19/20 31/65/1 5/12/11
f 43/95/16 4/7/34 3/5/35
f 13/30/36 4/7/34 43/95/16
f 35/77/37 38/84/38 39/86/25
f 10/23/39 35/77/37 36/79/40
f 1/1/41 34/74/29 11/25/42
f 11/26/42 36/79/40 1/2/41
f 14/31/43 29/62/6 13/30/36
f 31/66/1 6/15/14 23/52/2
f 31/66/1 21/46/3 10/24/39
f 40/90/44 21/48/3 33/70/23
f 19/43/27 35/78/37 18/41/24
f 12/29/45 35/78/37 19/43/27
f 20/45/26 1/3/41 36/80/40
f 17/38/28 1/3/41 20/45/26
f 42/94/46 37/83/47 41/92/48
f 22/50/49 33/72/23 39/87/25
f 17/38/28 34/73/29 1/3/41
f 11/27/42 23/54/2 32/68/13
f 47/102/10 27/59/5 49/106/50
f 30/64/7 27/59/5 2/4/9
f 32/67/13 23/53/2 6/16/14
f 44/97/32 51/109/17 43/95/16
f 13/30/36 43/95/16 14/31/43
f 14/31/43 43/95/16 50/108/18
f 30/64/7 2/4/9 28/61/30
f 22/49/49 41/91/48 40/88/44
f 42/93/46 41/91/48 22/49/49
f 12/28/45 19/42/27 20/44/26
f 25/56/15 4/8/34 28/60/30
f 8/19/20 7/17/31 31/65/1
f 9/20/33 7/17/31 8/19/20
f 9/21/33 49/107/50 51/109/17
f 36/79/40 26/57/51 10/23/39
f 44/97/32 9/21/33 51/109/17
f 10/22/39 21/47/3 37/81/47
f 35/77/37 10/23/39 38/84/38
f 38/84/38 10/23/39 37/82/47
f 18/40/24 33/71/23 34/74/29
f 11/26/42 26/57/51 36/79/40
f 14/32/43 15/34/4 29/63/6
f 5/13/11 26/58/51 16/35/12
f 31/65/1 46/101/22 6/16/14
f 31/66/1 10/24/39 5/13/11
f 32/68/13 26/58/51 11/27/42
f 40/90/44 37/83/47 21/48/3
f 22/50/49 40/89/44 33/72/23
f 35/78/37 20/45/26 36/80/40
f 35/77/37 39/86/25 18/40/24
f 18/41/24 17/39/28 19/43/27
f 42/94/46 38/85/38 37/83/47
f 38/85/38 42/94/46 39/87/25
f 42/94/46 22/50/49 39/87/25
f 16/36/12 28/61/30 2/4/9
f 11/27/42 34/75/29 23/54/2
f 47/102/10 2/4/9 27/59/5
f 25/56/15 3/6/35 4/8/34
f 9/21/33 47/103/10 49/107/50
f 5/13/11 10/24/39 26/58/51
f 32/68/13 16/35/12 26/58/51
f 40/90/44 41/92/48 37/83/47
f 35/78/37 12/29/45 20/45/26
f 18/41/24 34/76/29 17/39/28
f 16/36/12 32/69/13 28/61/30
