# Blender 3.3.0
# www.blender.org
mtllib HugeTree_col05.mtl
o HugeTree_Col05
v -10.334232 43.529133 -0.809061
v -12.362453 45.461838 -2.577847
v -15.273932 48.447899 -12.931474
v -13.159530 48.876057 -11.391268
v -10.619114 45.934425 2.392868
v -4.023952 39.503693 -1.801758
v -3.113945 41.703194 -1.211874
v -13.594569 45.022362 -0.735205
v -11.583296 47.576809 -1.865141
v -13.349796 47.327183 -0.686722
v -10.726449 47.642712 1.495969
v -10.883574 45.245426 -2.308614
v -10.259407 46.564259 -1.932289
v -8.830874 45.201138 1.060330
v -12.442494 45.962841 2.563825
v -18.438810 60.433422 21.196814
v -19.479530 61.737045 19.857664
v -17.769575 61.381725 20.192173
v -38.572948 53.902344 6.584724
v -20.108156 51.669369 -21.332512
v -19.781864 53.435184 -21.125219
v -8.494441 45.237606 -0.675595
v -2.856556 41.073318 1.397025
v -10.236848 43.404930 0.696677
v -26.711500 47.831646 2.038746
v -22.482244 47.104965 -0.380649
v -24.368776 49.193546 0.058323
v -13.061317 46.980492 -2.929318
v -13.841435 50.225761 -10.940637
v -15.486196 49.524174 -10.551361
v -38.252373 52.816227 8.137676
v -12.796373 47.128181 1.102157
v -14.440928 51.033348 10.528425
v -12.424706 50.045506 9.615406
v -14.234253 50.792099 8.570155
v -15.193401 55.033264 15.747352
v -12.225863 51.960930 9.081961
v -14.296168 52.761604 9.926432
v -13.236096 45.211990 1.083178
v -20.472408 48.448551 1.316143
v -13.281247 46.162003 -1.322112
v -9.904131 44.455933 1.372787
v -9.288572 44.272827 -1.425910
v -39.655212 52.680012 6.601086
v -18.471457 53.091873 -21.707294
v -29.818943 50.438789 1.525017
v -29.045643 50.690193 3.014977
v -39.012173 51.681801 6.998031
v -18.514818 51.708027 -21.963272
v -30.753311 49.064880 1.927436
v -28.916269 49.650887 3.528883
v -19.517839 59.901600 20.677740
v -19.915112 60.461491 19.641895
v -4.210063 38.201077 -0.355542
v -4.279806 38.997467 1.521435
vn 0.1904 0.7240 0.6630
vn -0.1961 0.9383 -0.2849
vn -0.0196 0.6405 -0.7677
vn -0.7034 -0.0930 -0.7046
vn -0.2435 -0.5841 -0.7743
vn -0.4237 -0.8260 -0.3718
vn -0.4908 0.8172 0.3022
vn 0.5806 0.8140 -0.0144
vn -0.4468 -0.6592 0.6049
vn -0.0952 -0.9110 0.4012
vn -0.4038 -0.4890 0.7732
vn 0.3441 0.5226 0.7800
vn 0.0987 -0.2370 0.9665
vn 0.4516 0.6951 -0.5594
vn 0.1540 -0.1095 -0.9820
vn 0.6417 0.6628 -0.3860
vn -0.6164 -0.7695 -0.1669
vn -0.4761 -0.7572 0.4471
vn -0.4011 -0.7857 -0.4709
vn -0.5185 -0.7653 -0.3813
vn -0.4829 0.8756 0.0092
vn 0.1697 0.0275 0.9851
vn 0.6209 0.7408 0.2565
vn 0.8069 0.4541 -0.3777
vn -0.5867 -0.6271 0.5125
vn 0.3841 -0.5657 -0.7297
vn 0.5207 0.5067 0.6871
vn 0.3750 0.0255 0.9267
vn -0.5912 -0.7699 0.2402
vn -0.4578 -0.6264 -0.6309
vn -0.1799 0.4795 -0.8589
vn 0.4143 0.7938 0.4452
vn -0.9602 0.2471 0.1303
vn 0.8941 -0.1786 -0.4108
vn 0.4028 0.9079 0.1155
vn -0.8634 0.3041 0.4026
vn -0.8318 -0.3879 -0.3970
vn -0.2089 -0.9577 -0.1979
vn 0.2672 -0.3944 -0.8792
vn 0.3737 0.6325 -0.6785
vn -0.5896 0.7788 -0.2140
vn -0.9806 0.0790 -0.1794
vn -0.0794 0.1729 0.9817
vn -0.2888 0.9501 -0.1179
vn -0.9863 -0.0579 -0.1542
vn -0.5720 0.5160 -0.6376
vn 0.5527 -0.5954 0.5831
vn 0.7076 -0.3148 0.6327
vn 0.7950 0.5929 -0.1279
vn -0.7359 -0.6271 0.2552
vn 0.5192 -0.4956 0.6963
vn -0.6472 -0.3539 0.6752
vn -0.9906 0.0446 -0.1294
vn -0.2850 -0.3236 -0.9022
vn 0.1818 0.9832 0.0146
vt 0.946260 0.655629
vt 0.543691 0.945580
vt 0.573721 0.928264
vt 0.104686 0.653166
vt 0.176669 0.766920
vt 0.091895 0.783838
vt 0.161764 0.765221
vt 0.540521 0.735456
vt 0.125078 0.539382
vt 0.862353 0.654979
vt 0.864660 0.681948
vt 0.583289 0.443246
vt 0.553390 0.784159
vt 0.558390 0.906561
vt 0.664648 0.441050
vt 0.518008 0.677073
vt 0.139729 0.647991
vt 0.634491 0.443125
vt 0.538689 0.667861
vt 0.537602 0.710901
vt 0.146842 0.540527
vt 0.177284 0.648025
vt 0.569129 0.945837
vt 0.096256 0.649366
vt 0.561610 0.958574
vt 0.499992 0.688763
vt 0.157814 0.644734
vt 0.507651 0.733892
vt 0.943400 0.707472
vt 0.112811 0.540856
vt 0.553714 0.747444
vt 0.191923 0.541603
vt 0.829651 0.215658
vt 0.131505 0.846362
vt 0.165373 0.844701
vt 0.844403 0.224424
vt 0.842198 0.212276
vt 0.148442 0.842013
vt 0.632759 0.767645
vt 0.107804 0.914175
vt 0.837888 0.261254
vt 0.128639 0.912746
vt 0.824573 0.259602
vt 0.494961 0.718139
vt 0.941632 0.687693
vt 0.862464 0.714028
vt 0.945814 0.645025
vt 0.944549 0.735966
vt 0.532127 0.942141
vt 0.514872 0.762732
vt 0.673070 0.554651
vt 0.598422 0.618246
vt 0.656765 0.550100
vt 0.640654 0.585552
vt 0.582059 0.919008
vt 0.520731 0.660339
vt 0.121199 0.654597
vt 0.144625 0.766090
vt 0.120996 0.764729
vt 0.629267 0.769655
vt 0.558560 0.688259
vt 0.567918 0.754865
vt 0.616878 0.442502
vt 0.169671 0.541041
vt 0.192588 0.665863
vt 0.198559 0.644356
vt 0.124509 0.642340
vt 0.176705 0.641512
vt 0.199299 0.750043
vt 0.125720 0.749549
vt 0.141805 0.650515
vt 0.166129 0.670481
vt 0.556092 0.770816
vt 0.595421 0.446313
vt 0.618814 0.535711
vt 0.573886 0.917462
vt 0.532416 0.655094
vt 0.647995 0.441296
vt 0.945535 0.723221
vt 0.517316 0.746605
vt 0.941544 0.666160
vt 0.482410 0.709689
vt 0.546847 0.959047
vt 0.633654 0.770416
vt 0.147977 0.913729
vt 0.827378 0.247399
vt 0.645560 0.659763
vt 0.623179 0.658999
vt 0.652161 0.750649
vt 0.631214 0.773357
vt 0.162198 0.913510
vt 0.839423 0.248909
vt 0.099698 0.910423
vt 0.586506 0.630499
vt 0.660594 0.669089
vt 0.612320 0.656753
vt 0.122652 0.843915
vt 0.190072 0.844816
vt 0.830094 0.229272
vt 0.178058 0.842820
vt 0.837342 0.234281
vt 0.868607 0.758379
vt 0.868905 0.632962
vt 0.864074 0.739246
s 1
usemtl MossyTreeBark
f 40/75/1 10/18/2 27/54/3
f 27/54/3 41/78/4 26/53/5
f 41/78/4 8/15/6 26/53/5
f 10/19/2 32/61/7 11/20/8
f 8/12/6 39/74/9 25/52/10
f 55/104/11 23/46/12 42/79/13
f 7/11/14 43/81/15 22/45/16
f 54/102/17 55/104/11 24/48/18
f 54/103/17 24/47/18 1/1/19
f 8/14/6 41/76/4 2/3/20
f 17/36/21 16/33/22 18/37/23
f 39/73/9 8/13/6 24/50/18
f 13/26/24 11/20/8 22/44/16
f 39/73/9 24/50/18 15/31/25
f 43/83/15 12/23/26 13/25/24
f 42/80/13 14/28/27 11/20/8
f 25/52/10 40/75/1 51/96/28
f 48/90/29 50/94/30 25/52/10
f 26/53/5 50/95/30 46/87/31
f 40/75/1 27/54/3 47/88/32
f 2/3/20 41/76/4 28/55/33
f 28/56/33 41/77/4 10/19/2
f 13/27/24 4/7/34 29/58/35
f 12/22/26 4/7/34 13/27/24
f 30/59/36 20/40/37 3/6/38
f 4/7/34 3/5/38 49/91/39
f 45/85/40 4/7/34 49/91/39
f 20/40/37 30/59/36 21/42/41
f 44/84/42 50/95/30 48/89/29
f 31/60/43 48/90/29 25/52/10
f 46/87/31 50/95/30 44/84/42
f 31/60/43 47/88/32 19/39/44
f 15/31/25 32/62/7 39/73/9
f 32/64/7 15/32/25 35/68/45
f 32/64/7 35/68/45 38/72/46
f 34/67/47 5/9/48 37/71/49
f 4/7/34 12/22/26 3/5/38
f 15/30/25 5/9/48 34/67/47
f 15/32/25 34/66/47 33/65/50
f 36/69/51 33/65/50 34/66/47
f 36/70/51 16/34/22 52/97/52
f 38/72/46 53/100/53 17/35/21
f 33/65/50 52/98/52 53/100/53
f 18/38/23 37/71/49 17/35/21
f 40/75/1 25/52/10 39/74/9
f 39/74/9 32/63/7 40/75/1
f 32/63/7 10/18/2 40/75/1
f 27/54/3 10/18/2 41/78/4
f 7/11/14 14/29/27 23/46/12
f 42/79/13 23/46/12 14/29/27
f 55/104/11 42/79/13 24/48/18
f 43/81/15 7/11/14 6/10/54
f 43/81/15 6/10/54 1/1/19
f 6/10/54 54/103/17 1/1/19
f 16/33/22 17/36/21 52/99/52
f 31/60/43 19/39/44 44/84/42
f 20/41/37 45/86/40 49/92/39
f 2/4/20 30/59/36 3/6/38
f 24/49/18 8/14/6 1/2/19
f 22/44/16 11/20/8 14/28/27
f 11/20/8 13/26/24 9/16/55
f 11/20/8 9/16/55 10/19/2
f 15/31/25 24/50/18 5/8/48
f 5/8/48 24/50/18 42/80/13
f 12/23/26 1/2/19 2/3/20
f 1/2/19 8/14/6 2/3/20
f 22/44/16 43/82/15 13/26/24
f 43/83/15 1/2/19 12/23/26
f 5/8/48 42/80/13 11/20/8
f 50/95/30 26/53/5 25/51/10
f 26/53/5 8/15/6 25/51/10
f 26/53/5 46/87/31 27/54/3
f 47/88/32 51/96/28 40/75/1
f 28/56/33 10/19/2 9/16/55
f 29/58/35 30/59/36 9/17/55
f 28/57/33 9/17/55 30/59/36
f 9/17/55 13/27/24 29/58/35
f 32/64/7 37/71/49 11/21/8
f 29/58/35 21/42/41 30/59/36
f 20/40/37 49/93/39 3/6/38
f 45/85/40 29/58/35 4/7/34
f 29/58/35 45/85/40 21/42/41
f 3/6/38 12/24/26 2/4/20
f 19/39/44 27/54/3 46/87/31
f 19/39/44 46/87/31 44/84/42
f 19/39/44 47/88/32 27/54/3
f 25/52/10 51/96/28 31/60/43
f 31/60/43 51/96/28 47/88/32
f 31/60/43 44/84/42 48/90/29
f 37/71/49 36/70/51 34/67/47
f 37/71/49 5/9/48 11/21/8
f 35/68/45 15/32/25 33/65/50
f 33/65/50 38/72/46 35/68/45
f 33/65/50 36/69/51 52/98/52
f 38/72/46 33/65/50 53/100/53
f 17/35/21 37/71/49 38/72/46
f 16/34/22 36/70/51 18/38/23
f 52/99/52 17/36/21 53/101/53
f 7/11/14 22/45/16 14/29/27
f 20/41/37 21/43/41 45/86/40
f 2/4/20 28/57/33 30/59/36
f 32/64/7 38/72/46 37/71/49
f 37/71/49 18/38/23 36/70/51
