# Blender 3.3.0
# www.blender.org
mtllib HugeTree_col03.mtl
o HugeTree_Col03
v 21.028614 47.939556 9.607157
v 24.406248 54.311680 22.349064
v 23.029942 53.554585 -2.749765
v 20.580997 52.259205 -4.107853
v 25.057119 52.199661 -4.235639
v 20.165792 50.328873 11.086804
v 24.805983 52.165611 21.982687
v 15.340707 51.683159 -16.102551
v 1.531379 40.907726 -1.523770
v 1.590500 41.086040 1.314939
v 12.707895 46.447979 1.928651
v 11.516419 47.439114 2.004898
v 23.869963 54.478832 -5.159816
v 24.648979 53.088844 -5.784371
v 10.775548 52.856480 -19.281479
v 34.818367 61.363209 24.574554
v 21.789474 51.140953 -1.774269
v 32.970619 62.768322 25.395817
v 20.427383 52.836060 -2.977295
v 23.842117 54.912315 21.605015
v 21.612892 53.745655 21.956470
v 22.318401 51.543346 19.780655
v 25.012367 53.715668 22.698696
v 25.238844 54.736500 20.379917
v 22.225021 54.940880 21.230247
v 15.832318 61.407158 28.565739
v 22.605469 53.053802 19.031340
v 26.432491 53.525654 20.521482
v 16.710770 62.637577 27.882597
v 17.548170 62.157673 29.835060
v 11.448868 45.541756 -0.510545
v 21.510489 50.846653 -4.166317
v 13.570152 49.602592 0.031111
v 13.945649 47.177433 0.147295
v 31.228855 58.002602 -9.135420
v 18.008114 46.848034 6.822543
v 17.777163 48.825756 8.068850
v 12.537540 49.073750 1.476015
v 18.232187 47.643974 4.753634
v 19.778637 49.236980 11.773241
v 21.338051 49.612892 9.243690
v 25.659794 52.015575 20.570879
v 23.704849 50.414364 18.719402
v 24.014799 52.644814 17.514200
v 17.161213 60.957211 29.780773
v 23.498989 51.460800 -5.361533
v 22.863819 53.524693 -5.852688
v 21.581568 53.583511 -4.920951
v 20.630743 51.756390 -5.374173
v 19.823086 51.255009 -11.333810
v 16.805040 53.104694 -11.880387
v 16.621952 51.410946 -12.206035
v 18.424120 53.366997 -13.089170
v 10.488760 51.089893 -18.653851
v 10.214134 53.570629 -18.117569
v 9.371859 52.046246 -17.645309
v 42.971752 60.928123 -10.365875
v 38.846729 59.430462 -7.822209
v 43.513783 59.306065 -9.959532
v 34.945591 60.375164 -9.588352
v 33.670490 58.140831 -7.249734
v 10.604977 45.506752 1.273229
v 11.390444 47.722950 -1.452349
v 33.715862 62.396671 26.161291
v 14.031535 48.695419 0.648638
v 10.552186 48.407906 -0.394262
v 13.196826 47.327797 -1.506853
v 37.891022 60.972153 -8.337100
v 32.212219 59.661804 -7.550282
v 35.053173 58.168961 -9.036618
v 22.889030 52.142994 21.899881
v 17.933069 62.694710 28.598740
v 34.197277 61.012386 25.963865
v 33.772339 62.533531 24.081799
v 43.566471 59.304180 -8.353365
v 43.362808 60.596863 -7.925728
v 43.712173 61.218082 -9.010484
v 3.295140 38.538647 1.512210
v 3.503406 38.254749 -0.649883
v 3.176899 39.515705 -2.115889
vn 0.2409 -0.7281 0.6418
vn -0.3468 -0.2312 0.9090
vn 0.2473 0.5626 0.7889
vn -0.9261 -0.3127 -0.2108
vn -0.8315 -0.4939 0.2544
vn -0.3435 -0.7769 0.5277
vn -0.5477 0.8110 -0.2059
vn -0.3438 0.8823 0.3215
vn -0.1266 0.8937 0.4304
vn 0.2521 -0.2259 -0.9409
vn -0.4933 0.6288 -0.6011
vn -0.2557 0.1509 -0.9549
vn 0.5290 -0.7451 -0.4062
vn -0.4526 0.5705 0.6853
vn 0.2894 -0.5403 0.7902
vn 0.4554 -0.4747 0.7532
vn -0.0769 -0.3688 -0.9263
vn 0.5482 -0.7347 -0.3995
vn -0.4736 0.7579 -0.4486
vn 0.1589 -0.6868 -0.7093
vn -0.8047 0.2877 -0.5193
vn -0.4536 0.8911 0.0119
vn -0.5032 0.8637 0.0292
vn 0.6970 0.7160 0.0399
vn 0.6392 -0.6105 0.4677
vn 0.6014 -0.5707 -0.5592
vn 0.2842 0.5053 -0.8148
vn 0.2323 0.5480 0.8036
vn 0.9671 -0.0299 -0.2527
vn 0.3004 0.7427 -0.5985
vn 0.4544 -0.4372 0.7761
vn 0.5854 -0.8075 0.0729
vn -0.0178 0.6758 0.7369
vn 0.6297 -0.0889 -0.7717
vn 0.7097 -0.7043 -0.0123
vn 0.4585 0.7226 -0.5173
vn -0.8506 0.1921 0.4894
vn 0.0456 -0.9085 0.4153
vn -0.6864 0.6373 -0.3503
vn 0.0192 0.7872 -0.6164
vn 0.0217 -0.9805 -0.1954
vn -0.3812 0.0568 -0.9228
vn -0.3005 0.8818 0.3635
vn -0.2518 0.6796 -0.6890
vn 0.1913 -0.9555 -0.2247
vn 0.4153 -0.2490 0.8749
vn -0.0709 0.8809 0.4679
vn 0.0381 -0.2891 0.9565
vn 0.4662 0.3201 0.8248
vn -0.7833 -0.1793 0.5952
vn 0.7201 -0.3701 -0.5869
vn 0.5912 -0.7979 -0.1175
vn 0.6189 0.6766 0.3990
vn -0.0716 -0.9738 0.2157
vn 0.7474 0.4547 -0.4845
vn 0.6559 -0.7432 -0.1324
vn -0.9200 0.2903 0.2632
vn -0.4604 0.8868 -0.0406
vn 0.1605 -0.9463 0.2806
vn -0.9935 -0.0004 0.1139
vn -0.1968 -0.3727 0.9068
vn -0.4358 0.5813 -0.6872
vn 0.4431 0.8922 0.0869
vn 0.3855 0.9179 -0.0943
vn 0.1241 0.4823 0.8672
vn 0.5702 -0.3360 0.7497
vn -0.3530 0.9023 0.2474
vn 0.5964 -0.6966 -0.3988
vn 0.3944 0.6219 -0.6766
vn -0.5617 0.6779 0.4743
vn 0.5278 0.7012 -0.4793
vn -0.9394 -0.2301 0.2543
vn -0.4919 -0.7192 0.4907
vn 0.5754 -0.3973 -0.7149
vn -0.2747 -0.8024 -0.5298
vn -0.0641 0.2987 -0.9522
vn -0.5104 0.8519 -0.1177
vn -0.9687 -0.1709 0.1802
vn 0.6633 -0.7193 -0.2065
vn -0.4594 0.8084 -0.3680
vt 0.709020 0.138947
vt 0.922277 0.075870
vt 0.873442 0.900167
vt 0.212392 0.803648
vt 0.654078 0.151221
vt 0.621739 0.123309
vt 0.683678 0.175394
vt 0.590243 0.196957
vt 0.749006 0.157883
vt 0.912507 0.105888
vt 0.845298 0.897444
vt 0.195752 0.797872
vt 0.727184 0.883362
vt 0.383415 0.656628
vt 0.415576 0.655532
vt 0.686607 0.912666
vt 0.447723 0.809543
vt 0.784803 0.004965
vt 0.703414 0.003463
vt 0.677755 0.898476
vt 0.426598 0.796457
vt 0.765983 0.004457
vt 0.627856 0.171953
vt 0.606879 0.179483
vt 0.291661 0.778949
vt 0.715040 0.942113
vt 0.819981 0.643513
vt 0.919082 0.758787
vt 0.675176 0.121534
vt 0.802528 0.630592
vt 0.879688 0.760082
vt 0.638039 0.118211
vt 0.226966 0.802069
vt 0.927038 0.061673
vt 0.954867 0.116623
vt 0.960231 0.043240
vt 0.263248 0.804289
vt 0.937011 0.143258
vt 0.948879 0.007736
vt 0.772936 0.264406
vt 0.910996 0.088744
vt 0.857499 0.901302
vt 0.903771 0.050651
vt 0.890538 0.899944
vt 0.944196 0.047765
vt 0.243092 0.803682
vt 0.812723 0.262983
vt 0.255891 0.941500
vt 0.934495 0.014761
vt 0.753008 0.262727
vt 0.891560 0.030199
vt 0.916603 0.899778
vt 0.812524 0.249461
vt 0.236320 0.940171
vt 0.796208 0.255504
vt 0.204808 0.941368
vt 0.350605 0.792824
vt 0.706308 0.895232
vt 0.453276 0.785251
vt 0.748052 0.724397
vt 0.691980 0.119664
vt 0.599579 0.120353
vt 0.652138 0.725431
vt 0.721606 0.953210
vt 0.653148 0.007445
vt 0.595978 0.008624
vt 0.709144 0.923779
vt 0.684971 0.010463
vt 0.714634 0.003498
vt 0.617788 0.298460
vt 0.788370 0.089170
vt 0.701922 0.096267
vt 0.759898 0.103014
vt 0.411951 0.791736
vt 0.702484 0.964314
vt 0.749878 0.002373
vt 0.718105 0.069830
vt 0.769845 0.159769
vt 0.722817 0.141063
vt 0.895245 0.007191
vt 0.900769 0.124899
vt 0.704239 0.269853
vt 0.925640 0.899432
vt 0.836864 0.895849
vt 0.786907 0.240658
vt 0.922142 0.137395
vt 0.699485 0.250838
vt 0.914778 0.009986
vt 0.735133 0.259273
vt 0.267090 0.943542
vt 0.799380 0.268861
vt 0.193527 0.938293
vt 0.734251 0.724290
vt 0.693921 0.153500
vt 0.598805 0.155768
vt 0.712498 0.723645
vt 0.617349 0.159784
vt 0.688318 0.728063
vt 0.626950 0.139862
vt 0.612922 0.132476
vt 0.667839 0.731638
vt 0.729344 0.805547
vt 0.652452 0.785984
vt 0.684658 0.829042
vt 0.663415 0.836252
vt 0.712921 0.831488
vt 0.305747 0.788646
vt 0.658217 0.944550
vt 0.734768 0.944583
vt 0.281033 0.789439
vt 0.695084 0.943718
vt 0.294289 0.798749
vt 0.673549 0.944473
vt 0.630659 0.419666
vt 0.658299 0.393443
vt 0.628782 0.427516
vt 0.627809 0.349482
vt 0.588893 0.275360
vt 0.671376 0.317992
vt 0.682881 0.898785
vt 0.437342 0.787805
vt 0.373666 0.796250
vt 0.624737 0.004324
vt 0.815070 0.629848
vt 0.866827 0.759666
vt 0.667984 0.007858
vt 0.712808 0.940337
vt 0.732001 0.004452
vt 0.712636 0.979906
vt 0.393798 0.792626
vt 0.638068 0.013467
vt 0.360387 0.805470
vt 0.608934 0.007780
vt 0.728115 0.904770
vt 0.644635 0.379093
vt 0.640595 0.311735
vt 0.678858 0.344071
vt 0.601077 0.342262
vt 0.934113 0.117830
vt 0.272460 0.805417
vt 0.187626 0.799824
vt 0.798956 0.245317
vt 0.221082 0.938023
vt 0.823334 0.631585
vt 0.928095 0.760708
vt 0.853848 0.757441
vt 0.804042 0.644141
vt 0.898509 0.760039
vt 0.632680 0.433458
vt 0.637122 0.430575
vt 0.638048 0.424716
vt 0.634399 0.423573
vt 0.454753 0.662685
vt 0.330060 0.664943
vt 0.475167 0.667663
vt 0.353794 0.662572
s 1
usemtl MossyTreeBark
f 7/10/1 23/41/2 2/2/3
f 21/35/4 22/38/5 71/139/6
f 66/129/7 38/75/8 33/64/9
f 80/156/10 9/14/11 63/122/12
f 80/156/10 63/122/12 31/57/13
f 9/14/11 10/15/14 66/130/7
f 10/15/14 62/121/15 38/74/8
f 78/153/16 31/59/13 62/121/15
f 14/24/17 46/95/18 13/23/19
f 9/14/11 66/130/7 63/122/12
f 31/57/13 63/122/12 67/132/20
f 10/15/14 38/74/8 66/130/7
f 4/6/21 19/32/22 48/99/23
f 77/152/24 75/150/25 59/116/26
f 77/152/24 59/116/26 57/114/27
f 64/124/28 16/27/29 74/147/30
f 17/29/31 46/94/18 5/7/32
f 19/32/22 3/5/33 13/23/19
f 28/51/34 42/80/35 44/88/36
f 12/20/37 62/120/15 11/16/38
f 44/88/36 27/49/39 24/43/40
f 66/131/7 19/32/22 4/6/21
f 19/32/22 33/65/9 3/5/33
f 67/133/20 63/123/12 32/62/41
f 32/62/41 63/123/12 4/6/21
f 35/70/42 69/136/43 60/117/44
f 5/8/32 70/138/45 61/118/46
f 69/136/43 3/5/33 61/119/46
f 35/70/42 13/23/19 69/136/43
f 68/135/47 58/115/48 76/151/49
f 38/76/8 12/22/37 37/73/50
f 39/77/51 34/69/52 65/128/53
f 36/71/54 37/73/50 11/18/38
f 65/128/53 41/79/55 39/77/51
f 39/77/51 1/1/56 36/72/54
f 36/71/54 40/78/57 37/73/50
f 38/76/8 37/73/50 6/9/58
f 6/9/58 37/73/50 40/78/57
f 22/40/5 36/71/54 43/85/59
f 22/40/5 40/78/57 36/71/54
f 26/48/60 71/140/6 45/90/61
f 26/48/60 25/46/62 21/37/4
f 72/143/63 2/4/3 20/33/64
f 30/56/65 2/4/3 72/143/63
f 26/47/60 45/91/61 30/55/65
f 23/42/2 7/11/1 73/146/66
f 18/31/67 23/42/2 64/125/28
f 24/44/40 18/31/67 74/148/30
f 46/93/18 32/60/41 50/102/68
f 47/96/69 46/93/18 50/102/68
f 51/104/70 48/98/23 53/106/71
f 51/104/70 49/101/72 48/98/23
f 49/101/72 51/104/70 52/105/73
f 53/106/71 50/102/68 8/13/74
f 8/13/74 50/102/68 54/109/75
f 53/106/71 8/13/74 15/26/76
f 55/111/77 53/106/71 15/26/76
f 56/113/78 51/104/70 55/111/77
f 52/105/73 50/103/68 49/101/72
f 57/114/27 68/135/47 77/152/24
f 68/135/47 76/151/49 77/152/24
f 60/117/44 68/135/47 57/114/27
f 61/119/46 70/137/45 58/115/48
f 60/117/44 69/136/43 68/135/47
f 35/70/42 57/114/27 59/116/26
f 10/15/14 78/153/16 62/121/15
f 79/154/79 80/156/10 31/57/13
f 78/153/16 79/155/79 31/59/13
f 13/23/19 46/95/18 47/97/69
f 32/62/41 34/66/52 67/133/20
f 17/29/31 34/68/52 32/61/41
f 12/21/37 38/74/8 62/121/15
f 25/45/62 20/34/64 24/43/40
f 76/151/49 75/150/25 77/152/24
f 56/112/78 15/25/76 54/107/75
f 55/110/77 15/25/76 56/112/78
f 74/147/30 18/30/67 64/124/28
f 16/27/29 64/124/28 73/144/66
f 29/53/80 26/47/60 30/55/65
f 72/142/63 29/53/80 30/55/65
f 13/23/19 48/99/23 19/32/22
f 42/81/35 7/10/1 43/86/59
f 7/10/1 71/139/6 43/86/59
f 43/86/59 71/139/6 22/38/5
f 17/29/31 32/61/41 46/94/18
f 34/67/52 31/58/13 67/134/20
f 34/67/52 11/16/38 31/58/13
f 31/59/13 11/17/38 62/121/15
f 44/88/36 24/43/40 28/51/34
f 24/43/40 27/49/39 25/45/62
f 27/49/39 22/39/5 21/36/4
f 27/49/39 21/36/4 25/45/62
f 17/29/31 33/65/9 65/126/53
f 17/29/31 65/126/53 34/68/52
f 35/70/42 5/8/32 14/24/17
f 19/32/22 66/131/7 33/65/9
f 4/6/21 63/123/12 66/131/7
f 69/136/43 61/119/46 68/135/47
f 75/150/25 58/115/48 70/137/45
f 39/77/51 11/19/38 34/69/52
f 61/119/46 3/5/33 17/29/31
f 17/29/31 5/7/32 61/119/46
f 69/136/43 13/23/19 3/5/33
f 70/138/45 35/70/42 59/116/26
f 14/24/17 5/8/32 46/95/18
f 35/70/42 14/24/17 13/23/19
f 11/18/38 37/73/50 12/22/37
f 27/50/39 40/78/57 22/40/5
f 65/127/53 33/64/9 38/75/8
f 38/76/8 41/79/55 65/128/53
f 41/79/55 38/76/8 6/9/58
f 39/77/51 41/79/55 1/1/56
f 1/1/56 43/87/59 36/72/54
f 44/89/36 41/79/55 6/9/58
f 42/82/35 43/87/59 1/1/56
f 1/1/56 41/79/55 42/82/35
f 25/46/62 72/143/63 20/33/64
f 44/89/36 6/9/58 27/50/39
f 42/82/35 41/79/55 44/89/36
f 26/48/60 21/37/4 71/140/6
f 26/48/60 29/54/80 25/46/62
f 2/4/3 45/92/61 7/12/1
f 74/148/30 28/52/34 24/44/40
f 2/2/3 24/43/40 20/34/64
f 16/28/29 42/83/35 28/52/34
f 18/31/67 2/3/3 23/42/2
f 18/31/67 24/44/40 2/3/3
f 73/145/66 42/83/35 16/28/29
f 7/11/1 42/84/35 73/146/66
f 64/125/28 23/42/2 73/146/66
f 49/100/72 32/62/41 4/6/21
f 48/99/23 49/100/72 4/6/21
f 53/106/71 47/96/69 50/102/68
f 53/106/71 48/98/23 47/96/69
f 54/108/75 50/103/68 52/105/73
f 51/104/70 53/106/71 55/111/77
f 54/108/75 52/105/73 56/113/78
f 56/113/78 52/105/73 51/104/70
f 49/101/72 50/103/68 32/63/41
f 15/26/76 8/13/74 54/109/75
f 75/149/25 70/138/45 59/116/26
f 76/151/49 58/115/48 75/150/25
f 35/70/42 60/117/44 57/114/27
f 58/115/48 68/135/47 61/119/46
f 45/92/61 71/141/6 7/12/1
f 13/23/19 47/97/69 48/99/23
f 17/29/31 3/5/33 33/65/9
f 35/70/42 70/138/45 5/8/32
f 39/77/51 36/72/54 11/19/38
f 27/50/39 6/9/58 40/78/57
f 25/46/62 29/54/80 72/143/63
f 2/4/3 30/56/65 45/92/61
f 74/148/30 16/28/29 28/52/34
