# Blender 3.3.0
# www.blender.org
o LightRoots01
v -0.157651 -0.069458 0.237168
v -0.157651 0.173635 0.237168
v 0.217073 -0.618394 -1.548020
v 0.217073 -0.573667 -1.596045
v 0.085441 -0.069458 0.237168
v 0.085441 0.173635 0.237168
v 0.286138 -0.618394 -1.544450
v 0.286138 -0.573667 -1.592474
v -0.016053 -0.264837 -0.815359
v -0.016053 -0.043241 -0.820132
v 0.251823 -0.247352 -0.777868
v 0.251823 -0.049746 -0.784497
v -0.079562 -0.202972 -0.480778
v 0.207558 0.060136 -0.429447
v -0.079562 0.054558 -0.480778
v 0.207558 -0.175121 -0.429447
v -0.296039 -0.279870 -0.893567
v -0.296039 -0.142064 -0.893567
v -0.343646 -0.275222 -0.776321
v -0.343646 -0.130855 -0.776321
v -0.533833 -0.401384 -1.159831
v -0.533833 -0.364387 -1.159830
v -0.553386 -0.402042 -1.120868
v -0.553386 -0.363729 -1.120868
v 0.125735 -0.223726 -1.164469
v 0.272847 -0.351975 -1.101338
v 0.125735 -0.351975 -1.128781
v 0.272847 -0.223726 -1.137025
v 0.178423 -0.424860 -1.434381
v 0.287428 -0.507746 -1.365060
v 0.178423 -0.507746 -1.379648
v 0.287428 -0.424860 -1.419794
v -0.468522 -0.294097 -1.083213
v -0.502892 -0.292524 -1.014724
v -0.502892 -0.368272 -1.014724
v -0.468522 -0.366699 -1.083213
v -0.093086 -0.129077 -0.132408
v -0.203231 0.052088 0.237168
v 0.197986 -0.516014 -1.540401
v 0.211464 -0.605244 -1.584170
v 0.252932 -0.631641 -1.552738
v 0.252932 -0.578847 -1.611980
v 0.294401 -0.605244 -1.580549
v 0.291455 -0.580415 -1.474386
v 0.153739 0.115013 -0.127801
v 0.131021 0.052088 0.237168
v -0.036105 -0.115038 0.237168
v -0.036105 0.219214 0.237168
v 0.075368 -0.294485 -0.970172
v -0.044100 0.033016 -0.672355
v 0.237169 -0.212189 -0.627995
v 0.263095 -0.129222 -0.959474
v 0.138466 -0.010989 -0.799109
v 0.138466 -0.287325 -0.790218
v 0.292262 -0.148549 -0.776633
v -0.047284 -0.167358 -0.864368
v -0.044100 -0.265902 -0.671750
v 0.237169 0.009454 -0.628824
v -0.093086 0.114838 -0.132408
v 0.153739 -0.126151 -0.127801
v -0.134762 -0.069020 -0.436943
v 0.083042 0.104891 -0.436637
v 0.083042 -0.223226 -0.436637
v 0.252391 -0.057493 -0.428547
v -0.319843 -0.110006 -0.834944
v -0.287112 -0.212453 -0.915550
v -0.319843 -0.303999 -0.834944
v -0.352573 -0.201552 -0.754337
v -0.172540 -0.078046 -0.821982
v -0.217143 -0.043570 -0.655681
v -0.217143 -0.233282 -0.655681
v -0.172540 -0.254791 -0.821585
v -0.546478 -0.363133 -1.144876
v -0.534768 -0.385486 -1.168211
v -0.546478 -0.407838 -1.144876
v -0.558189 -0.385486 -1.121541
v -0.513009 -0.340967 -1.140354
v -0.439089 -0.218392 -0.902475
v -0.439089 -0.324293 -0.902475
v -0.513009 -0.393848 -1.140354
v 0.075368 -0.128584 -0.990154
v 0.263095 -0.292384 -0.939269
v 0.156977 -0.426700 -1.263968
v 0.280753 -0.324391 -1.288812
v 0.300430 -0.287850 -1.114036
v 0.199291 -0.376022 -1.108369
v 0.199291 -0.199679 -1.157438
v 0.098152 -0.287850 -1.151770
v 0.156977 -0.324391 -1.310820
v 0.280753 -0.426700 -1.241960
v 0.197986 -0.580415 -1.482037
v 0.291455 -0.516014 -1.532750
v 0.232926 -0.409319 -1.437350
v 0.232926 -0.523287 -1.362092
v 0.307866 -0.466303 -1.389692
v 0.157985 -0.466303 -1.409750
v -0.395687 -0.221442 -0.991758
v -0.540061 -0.339734 -1.086450
v -0.540061 -0.395081 -1.086450
v -0.395687 -0.323225 -0.991758
v -0.485707 -0.381394 -1.048969
v -0.462077 -0.330398 -1.096054
v -0.509337 -0.330398 -1.001883
v -0.485707 -0.279402 -1.048969
v 0.180680 -0.549123 -1.513772
v 0.255717 -0.624581 -1.607777
v 0.199047 -0.005569 -0.127689
v 0.170751 -0.098354 -0.977758
v 0.031924 -0.172047 -0.129155
v 0.031924 0.160241 -0.129155
v 0.170751 -0.323386 -0.950032
v 0.297299 -0.210803 -0.943998
v -0.193389 -0.028082 -0.740521
v -0.140043 -0.007097 -0.129787
v 0.114545 0.053719 -0.639710
v 0.114545 -0.259968 -0.638626
v 0.280866 -0.101367 -0.625704
v -0.526818 -0.330563 -1.113848
v -0.229203 -0.133756 -0.624546
v -0.193389 -0.277041 -0.740422
v -0.167455 -0.171735 -0.851892
v -0.552498 -0.390942 -1.154376
v -0.545384 -0.367664 -1.076851
v -0.508251 -0.367664 -1.150845
v -0.526818 -0.404764 -1.113848
v 0.303961 -0.375545 -1.261259
v 0.218865 -0.445883 -1.244180
v 0.218865 -0.305208 -1.308600
v 0.041098 -0.212789 -0.989217
v 0.244851 -0.505002 -1.548819
v 0.244851 -0.593244 -1.468356
v 0.309023 -0.549123 -1.503404
v 0.133768 -0.375545 -1.291520
v -0.417388 -0.343230 -0.947116
v -0.387549 -0.272519 -1.008498
v -0.447226 -0.271156 -0.885734
v -0.417388 -0.200446 -0.947116
vn -0.9862 -0.0825 -0.1438
vn -0.6821 -0.6776 0.2749
vn -0.7063 -0.6350 0.3128
vn -0.6549 0.4607 -0.5990
vn -0.9723 -0.1523 -0.1776
vn -0.6017 0.1923 -0.7752
vn -0.7488 -0.4707 -0.4666
vn -0.5900 -0.8055 0.0560
vn 0.0081 -0.9967 0.0810
vn 0.0415 0.2228 -0.9740
vn 0.0596 -0.6772 -0.7334
vn 0.8313 -0.4001 -0.3859
vn 0.6256 -0.7689 0.1322
vn 0.9882 0.0104 0.1531
vn 0.6869 -0.6876 0.2352
vn 0.6868 -0.6882 0.2336
vn 0.7020 0.7111 -0.0388
vn 0.9842 0.0055 0.1771
vn 0.7048 0.7094 0.0065
vn 0.9835 0.0361 0.1775
vn 0.6828 -0.6917 0.2352
vn 0.0938 0.8477 -0.5221
vn 0.6963 0.6607 -0.2805
vn 0.7061 0.6248 -0.3333
vn -0.5064 0.6591 -0.5560
vn 0.0800 0.8878 -0.4532
vn 0.1179 0.9063 -0.4058
vn 0.6939 0.6842 -0.2245
vn 0.0812 -0.9770 0.1971
vn -0.6797 -0.7315 0.0535
vn -0.4697 -0.8241 0.3167
vn 0.0111 -0.9868 0.1614
vn -0.0392 -0.9878 0.1508
vn -0.7483 -0.6630 -0.0226
vn 0.0524 0.9803 -0.1905
vn -0.6714 0.7133 -0.2010
vn 0.0122 0.9862 -0.1651
vn -0.0364 0.9860 -0.1629
vn 0.6604 0.7509 0.0026
vn -0.6996 -0.7019 0.1339
vn -0.0270 -0.9648 0.2614
vn -0.6345 -0.7719 -0.0397
vn 0.6562 -0.6755 0.3364
vn -0.0614 -0.9233 0.3792
vn 0.6609 -0.7022 0.2649
vn 0.0770 -0.9817 0.1743
vn -0.2633 -0.9177 -0.2973
vn 0.9998 0.0047 0.0178
vn 0.9997 0.0021 0.0227
vn 0.9988 0.0058 0.0476
vn 0.6714 -0.7042 0.2308
vn -0.1992 0.9399 -0.2774
vn -0.7058 0.6722 0.2234
vn -0.5599 0.8249 -0.0774
vn -0.2235 0.7507 -0.6217
vn -0.3500 0.9044 -0.2440
vn -0.0554 0.6504 -0.7576
vn -0.4288 0.8666 -0.2553
vn -0.7645 0.5678 0.3053
vn -0.9952 0.0021 -0.0982
vn -0.9839 0.0333 -0.1755
vn -0.9793 0.0033 0.2024
vn 0.6999 0.7016 -0.1339
vn 0.1252 0.9551 -0.2685
vn -0.0527 -0.9798 0.1931
vn 0.1446 -0.9641 0.2228
vn 0.6854 -0.6907 0.2306
vn 0.9950 0.0140 0.0993
vn -0.5010 0.8115 -0.3007
vn -0.8676 0.4919 0.0731
vn -0.8509 0.5087 0.1309
vn 0.1821 0.6894 -0.7011
vn -0.5460 0.7700 -0.3300
vn 0.0800 0.6768 -0.7318
vn -0.7426 0.5292 -0.4105
vn -0.9173 0.3919 -0.0709
vn -0.8037 -0.0256 0.5945
vn -0.4365 -0.6739 0.5960
vn -0.7650 -0.0094 0.6440
vn -0.4405 -0.6507 0.6185
vn 0.0027 -0.9867 0.1623
vn 0.2178 -0.7646 -0.6066
vn 0.1555 -0.9784 0.1364
vn 0.5822 -0.6595 -0.4755
vn -0.4849 -0.0190 -0.8743
vn 0.1840 0.0093 -0.9829
vn 0.5718 0.0156 -0.8202
vn 0.1192 0.6562 -0.7451
vn -0.9975 -0.0489 0.0512
vn -0.3799 -0.8921 -0.2445
vn -0.7149 -0.6808 0.1596
vn -0.8370 -0.1308 -0.5313
vn -0.2142 0.5373 -0.8157
vn -0.0111 -0.0753 -0.9971
vn 0.1807 -0.7265 -0.6629
vn -0.4575 -0.7212 0.5202
vn -0.9219 -0.0404 0.3854
vn -0.5193 -0.7335 0.4386
vn -0.8869 -0.0262 0.4611
vn 0.7485 0.0292 -0.6625
vn 0.7384 -0.6081 -0.2916
vn 0.6528 0.0202 -0.7572
vn 0.6602 -0.6597 -0.3591
vn 0.2107 -0.9730 0.0943
vn 0.3006 -0.9412 0.1541
vn 0.9998 0.0023 0.0213
vn 0.6500 -0.6380 0.4129
vn 0.6545 -0.6150 0.4398
vn 0.7141 0.5643 -0.4142
vn 0.9997 0.0050 0.0240
vn 0.7141 0.5868 -0.3817
vn -0.0752 -0.8656 0.4950
vn -0.7135 -0.6507 0.2599
vn -0.0613 -0.8377 0.5427
vn 0.0982 0.8011 -0.5904
vn 0.0768 0.7674 -0.6366
vn -0.6040 0.5762 -0.5506
vn -0.5789 0.6180 -0.5319
vn -0.8946 -0.0526 -0.4437
vn -0.9624 -0.0532 -0.2664
vn 0.6772 0.2599 -0.6884
vn 0.0476 0.7141 -0.6984
vn 0.7108 0.5188 -0.4750
vn -0.0312 -0.8704 0.4914
vn 0.6676 -0.6407 0.3793
vn 0.9981 -0.0455 -0.0411
vn -0.9810 -0.0612 -0.1841
vn -0.6332 0.5322 -0.5620
vn 0.2603 -0.9542 0.1476
vn 0.7097 -0.6135 -0.3463
vn -0.4639 -0.6887 0.5572
vn 0.1750 0.6768 -0.7150
vn 0.7106 0.0238 -0.7032
vn -0.8436 -0.0185 0.5366
vn -0.8272 0.5227 0.2060
vn -0.4788 0.8311 -0.2830
vn -0.6900 0.6864 -0.2297
vt 0.842828 0.083549
vt 0.425190 0.083549
vt 0.961454 0.083549
vt 0.842828 0.903260
vt 0.961454 0.903260
vt 0.842829 0.989489
vt 0.425190 0.903260
vt 0.693322 0.083549
vt 0.574696 0.083549
vt 0.693322 0.903260
vt 0.693322 0.989489
vt 0.574696 0.903260
vt 0.497763 0.389828
vt 0.842828 0.480599
vt 0.382636 0.389828
vt 0.425190 0.480599
vt 0.961454 0.480599
vt 0.698469 0.497159
vt 0.569550 0.497159
vt 0.842828 0.404473
vt 0.165872 0.389828
vt 0.599401 0.389828
vt 0.569550 0.363674
vt 0.961454 0.404473
vt 0.425190 0.404473
vt 0.280999 0.389828
vt 0.698469 0.363674
vt 0.495515 0.537544
vt 0.384885 0.537544
vt 0.599401 0.537950
vt 0.165872 0.537950
vt 0.278750 0.537545
vt 0.497763 0.730101
vt 0.497764 0.817455
vt 0.382636 0.730101
vt 0.165872 0.730101
vt 0.599401 0.730101
vt 0.599401 0.817455
vt 0.280999 0.730101
vt 0.425190 0.656083
vt 0.961454 0.656083
vt 0.698469 0.648672
vt 0.837682 0.648672
vt 0.569550 0.648672
vt 0.425190 0.787104
vt 0.961454 0.787104
vt 0.698469 0.784626
vt 0.837682 0.784626
vt 0.569550 0.784626
vt 0.384885 0.667100
vt 0.278750 0.667100
vt 0.165872 0.683637
vt 0.599401 0.683637
vt 0.495515 0.667100
vt 0.838539 0.243161
vt 0.902141 0.083549
vt 0.961454 0.845182
vt 0.425190 0.845182
vt 0.902141 0.903260
vt 0.842829 0.946375
vt 0.768075 0.899104
vt 0.768075 0.989489
vt 0.499943 0.903260
vt 0.693322 0.946375
vt 0.634009 0.903260
vt 0.698040 0.844768
vt 0.569978 0.238911
vt 0.634009 0.083549
vt 0.768075 0.083549
vt 0.499943 0.083549
vt 0.838110 0.567760
vt 0.331818 0.389828
vt 0.425190 0.442536
vt 0.698469 0.439506
vt 0.569550 0.569485
vt 0.499300 0.495779
vt 0.768611 0.495779
vt 0.634009 0.497159
vt 0.440200 0.389828
vt 0.902141 0.480599
vt 0.842829 0.442536
vt 0.548582 0.389828
vt 0.569550 0.439506
vt 0.425190 0.244011
vt 0.961454 0.244011
vt 0.698040 0.238911
vt 0.902141 0.404473
vt 0.223435 0.389828
vt 0.499300 0.367074
vt 0.768611 0.367074
vt 0.634009 0.363674
vt 0.331818 0.537545
vt 0.440200 0.537545
vt 0.548301 0.537578
vt 0.223154 0.537578
vt 0.384697 0.463838
vt 0.278938 0.463838
vt 0.165872 0.463889
vt 0.599401 0.463889
vt 0.495703 0.463838
vt 0.331818 0.730102
vt 0.548582 0.817455
vt 0.497764 0.773778
vt 0.440200 0.730102
vt 0.548536 0.735781
vt 0.599401 0.773778
vt 0.223435 0.730102
vt 0.384697 0.704802
vt 0.278750 0.608676
vt 0.599401 0.610794
vt 0.165872 0.610794
vt 0.495703 0.704944
vt 0.425190 0.568341
vt 0.961454 0.568341
vt 0.698469 0.569485
vt 0.837682 0.720357
vt 0.569550 0.720357
vt 0.634009 0.648672
vt 0.768075 0.648672
vt 0.499300 0.649290
vt 0.901498 0.649290
vt 0.425190 0.721593
vt 0.961454 0.721593
vt 0.698469 0.720357
vt 0.838110 0.844768
vt 0.569978 0.844872
vt 0.499300 0.784833
vt 0.768075 0.784626
vt 0.634009 0.784626
vt 0.901498 0.784833
vt 0.384885 0.608676
vt 0.278938 0.704802
vt 0.165872 0.706870
vt 0.599401 0.706870
vt 0.495515 0.608676
vt 0.548301 0.668478
vt 0.440200 0.667100
vt 0.223154 0.668478
vt 0.331818 0.667100
vt 0.901605 0.844924
vt 0.768075 0.945959
vt 0.634009 0.238911
vt 0.499300 0.569294
vt 0.768182 0.239761
vt 0.499407 0.239761
vt 0.768182 0.569140
vt 0.634009 0.569485
vt 0.331818 0.463838
vt 0.901712 0.244011
vt 0.499300 0.440011
vt 0.768718 0.440011
vt 0.634009 0.439506
vt 0.331818 0.704802
vt 0.223201 0.463847
vt 0.548348 0.463847
vt 0.440200 0.463838
vt 0.548582 0.774346
vt 0.223201 0.705147
vt 0.440200 0.704802
vt 0.548348 0.705715
vt 0.634009 0.720357
vt 0.768075 0.720357
vt 0.499300 0.720563
vt 0.901605 0.567569
vt 0.499407 0.844924
vt 0.768075 0.844457
vt 0.634009 0.844872
vt 0.901498 0.720563
vt 0.548301 0.609029
vt 0.440200 0.608676
vt 0.223154 0.609029
vt 0.331818 0.608676
s 1
f 96/130/1 91/125/2 31/48/3
f 96/130/1 39/57/4 105/140/5
f 105/140/5 4/5/6 40/59/7
f 105/140/5 3/4/8 91/125/2
f 40/60/7 41/61/9 3/4/8
f 40/60/7 42/62/10 106/141/11
f 42/62/10 43/64/12 106/141/11
f 41/61/9 43/64/12 7/10/13
f 64/91/14 60/86/15 16/27/16
f 14/23/17 107/142/18 64/91/14
f 45/67/19 46/68/20 107/142/18
f 107/142/18 5/8/21 60/86/15
f 87/120/22 52/75/23 28/44/24
f 87/120/22 81/113/25 108/143/26
f 81/113/25 53/76/27 108/143/26
f 108/143/26 12/19/28 52/75/23
f 63/90/29 37/55/30 13/20/31
f 63/90/29 60/86/15 109/144/32
f 109/144/32 5/8/21 47/69/33
f 37/55/30 47/69/33 1/1/34
f 62/89/35 45/67/19 14/23/17
f 62/89/35 59/84/36 110/145/37
f 59/84/36 48/70/38 110/145/37
f 110/145/37 6/9/39 45/67/19
f 27/43/40 111/146/41 49/71/42
f 26/42/43 111/146/41 86/119/44
f 82/115/45 54/77/46 111/146/41
f 49/71/42 54/77/46 9/14/47
f 85/118/48 82/115/45 26/42/43
f 28/44/24 112/147/49 85/118/48
f 52/75/23 55/78/50 112/147/49
f 112/147/49 11/18/51 82/115/45
f 50/72/52 70/97/53 15/26/54
f 10/15/55 113/148/56 50/72/52
f 69/96/57 65/92/58 113/148/56
f 113/148/56 20/32/59 70/97/53
f 1/1/34 114/149/60 37/55/30
f 38/56/61 59/85/36 114/149/60
f 59/85/36 61/87/62 114/149/60
f 37/55/30 61/87/62 13/20/31
f 53/76/27 58/83/63 12/19/28
f 53/76/27 50/73/52 115/150/64
f 115/150/64 15/25/54 62/89/35
f 115/150/64 14/23/17 58/83/63
f 54/77/46 57/81/65 9/14/47
f 11/18/51 116/151/66 54/77/46
f 116/151/66 16/27/16 63/90/29
f 116/151/66 13/20/31 57/81/65
f 55/78/50 51/74/67 11/18/51
f 12/19/28 117/152/68 55/78/50
f 58/83/63 64/91/14 117/152/68
f 117/152/68 16/27/16 51/74/67
f 104/139/69 98/132/70 34/51/71
f 33/50/72 118/153/73 104/139/69
f 77/108/74 73/101/75 118/153/73
f 118/153/73 24/39/76 98/132/70
f 13/21/31 119/154/77 71/98/78
f 61/88/62 70/97/53 119/154/77
f 119/154/77 20/32/59 68/95/79
f 71/98/78 68/95/79 19/31/80
f 9/13/47 120/155/81 72/100/82
f 57/82/65 71/99/78 120/155/81
f 120/155/81 19/30/80 67/94/83
f 72/100/82 67/94/83 17/28/84
f 56/79/85 69/96/57 10/15/55
f 56/79/85 72/100/82 121/156/86
f 72/100/82 66/93/87 121/156/86
f 121/156/86 18/29/88 69/96/57
f 76/106/89 75/105/90 23/37/91
f 76/106/89 73/102/75 122/157/92
f 122/157/92 22/34/93 74/103/94
f 122/157/92 21/33/95 75/105/90
f 35/52/96 123/158/97 99/133/98
f 103/138/99 98/132/70 123/158/97
f 123/158/97 24/39/76 76/107/89
f 99/133/98 76/107/89 23/36/91
f 102/137/100 77/108/74 33/50/72
f 36/54/101 124/159/102 102/137/100
f 80/112/103 74/104/94 124/159/102
f 124/159/102 22/35/93 77/108/74
f 36/54/101 125/160/104 80/112/103
f 101/136/105 99/134/98 125/160/104
f 125/160/104 23/37/91 75/105/90
f 80/112/103 75/105/90 21/33/95
f 95/129/106 90/124/107 30/47/108
f 32/49/109 126/161/110 95/129/106
f 84/117/111 85/118/48 126/161/110
f 126/161/110 26/42/43 90/124/107
f 31/48/3 127/162/112 83/116/113
f 30/47/108 127/162/112 94/128/114
f 90/124/107 86/119/44 127/162/112
f 83/116/113 86/119/44 27/43/40
f 32/49/109 128/163/115 84/117/111
f 93/127/116 89/122/117 128/163/115
f 128/163/115 25/40/118 87/120/22
f 128/163/115 28/44/24 84/117/111
f 9/14/47 129/164/119 49/71/42
f 56/80/85 81/114/25 129/164/119
f 129/164/119 25/41/118 88/121/120
f 49/71/42 88/121/120 27/43/40
f 8/12/121 130/165/122 92/126/123
f 4/7/6 130/165/122 42/63/10
f 39/58/4 93/127/116 130/165/122
f 92/126/123 93/127/116 32/49/109
f 3/4/8 131/166/124 91/125/2
f 7/10/13 131/166/124 41/61/9
f 44/66/125 94/128/114 131/166/124
f 91/125/2 94/128/114 31/48/3
f 7/10/13 132/167/126 44/66/125
f 8/12/121 132/167/126 43/65/12
f 132/167/126 32/49/109 95/129/106
f 44/66/125 95/129/106 30/47/108
f 27/43/40 133/168/127 83/116/113
f 88/121/120 89/123/117 133/168/127
f 133/168/127 29/46/128 96/130/1
f 83/116/113 96/130/1 31/48/3
f 17/28/84 134/169/129 100/135/130
f 67/94/83 79/110/131 134/169/129
f 134/169/129 35/53/96 101/136/105
f 100/135/130 101/136/105 36/54/101
f 66/93/87 97/131/132 18/29/88
f 17/28/84 135/170/133 66/93/87
f 100/135/130 102/137/100 135/170/133
f 135/170/133 33/50/72 97/131/132
f 19/31/80 136/171/134 79/111/131
f 68/95/79 78/109/135 136/171/134
f 136/171/134 34/51/71 103/138/99
f 79/111/131 103/138/99 35/52/96
f 65/92/58 78/109/135 20/32/59
f 18/29/88 137/172/136 65/92/58
f 97/131/132 104/139/69 137/172/136
f 137/172/136 34/51/71 78/109/135
f 96/130/1 105/140/5 91/125/2
f 96/130/1 29/46/128 39/57/4
f 105/140/5 39/57/4 4/5/6
f 105/140/5 40/59/7 3/4/8
f 40/60/7 106/141/11 41/61/9
f 40/60/7 4/6/6 42/62/10
f 42/62/10 8/11/121 43/64/12
f 41/61/9 106/141/11 43/64/12
f 64/91/14 107/142/18 60/86/15
f 14/23/17 45/67/19 107/142/18
f 45/67/19 6/9/39 46/68/20
f 107/142/18 46/68/20 5/8/21
f 87/120/22 108/143/26 52/75/23
f 87/120/22 25/40/118 81/113/25
f 81/113/25 10/16/55 53/76/27
f 108/143/26 53/76/27 12/19/28
f 63/90/29 109/144/32 37/55/30
f 63/90/29 16/27/16 60/86/15
f 109/144/32 60/86/15 5/8/21
f 37/55/30 109/144/32 47/69/33
f 62/89/35 110/145/37 45/67/19
f 62/89/35 15/25/54 59/84/36
f 59/84/36 2/2/137 48/70/38
f 110/145/37 48/70/38 6/9/39
f 27/43/40 86/119/44 111/146/41
f 26/42/43 82/115/45 111/146/41
f 82/115/45 11/18/51 54/77/46
f 49/71/42 111/146/41 54/77/46
f 85/118/48 112/147/49 82/115/45
f 28/44/24 52/75/23 112/147/49
f 52/75/23 12/19/28 55/78/50
f 112/147/49 55/78/50 11/18/51
f 50/72/52 113/148/56 70/97/53
f 10/15/55 69/96/57 113/148/56
f 69/96/57 18/29/88 65/92/58
f 113/148/56 65/92/58 20/32/59
f 1/1/34 38/56/61 114/149/60
f 38/56/61 2/3/137 59/85/36
f 59/85/36 15/24/54 61/87/62
f 37/55/30 114/149/60 61/87/62
f 53/76/27 115/150/64 58/83/63
f 53/76/27 10/16/55 50/73/52
f 115/150/64 50/73/52 15/25/54
f 115/150/64 62/89/35 14/23/17
f 54/77/46 116/151/66 57/81/65
f 11/18/51 51/74/67 116/151/66
f 116/151/66 51/74/67 16/27/16
f 116/151/66 63/90/29 13/20/31
f 55/78/50 117/152/68 51/74/67
f 12/19/28 58/83/63 117/152/68
f 58/83/63 14/23/17 64/91/14
f 117/152/68 64/91/14 16/27/16
f 104/139/69 118/153/73 98/132/70
f 33/50/72 77/108/74 118/153/73
f 77/108/74 22/35/93 73/101/75
f 118/153/73 73/101/75 24/39/76
f 13/21/31 61/88/62 119/154/77
f 61/88/62 15/26/54 70/97/53
f 119/154/77 70/97/53 20/32/59
f 71/98/78 119/154/77 68/95/79
f 9/13/47 57/82/65 120/155/81
f 57/82/65 13/22/31 71/99/78
f 120/155/81 71/99/78 19/30/80
f 72/100/82 120/155/81 67/94/83
f 56/79/85 121/156/86 69/96/57
f 56/79/85 9/13/47 72/100/82
f 72/100/82 17/28/84 66/93/87
f 121/156/86 66/93/87 18/29/88
f 76/106/89 122/157/92 75/105/90
f 76/106/89 24/38/76 73/102/75
f 122/157/92 73/102/75 22/34/93
f 122/157/92 74/103/94 21/33/95
f 35/52/96 103/138/99 123/158/97
f 103/138/99 34/51/71 98/132/70
f 123/158/97 98/132/70 24/39/76
f 99/133/98 123/158/97 76/107/89
f 102/137/100 124/159/102 77/108/74
f 36/54/101 80/112/103 124/159/102
f 80/112/103 21/33/95 74/104/94
f 124/159/102 74/104/94 22/35/93
f 36/54/101 101/136/105 125/160/104
f 101/136/105 35/53/96 99/134/98
f 125/160/104 99/134/98 23/37/91
f 80/112/103 125/160/104 75/105/90
f 95/129/106 126/161/110 90/124/107
f 32/49/109 84/117/111 126/161/110
f 84/117/111 28/44/24 85/118/48
f 126/161/110 85/118/48 26/42/43
f 31/48/3 94/128/114 127/162/112
f 30/47/108 90/124/107 127/162/112
f 90/124/107 26/42/43 86/119/44
f 83/116/113 127/162/112 86/119/44
f 32/49/109 93/127/116 128/163/115
f 93/127/116 29/45/128 89/122/117
f 128/163/115 89/122/117 25/40/118
f 128/163/115 87/120/22 28/44/24
f 9/14/47 56/80/85 129/164/119
f 56/80/85 10/17/55 81/114/25
f 129/164/119 81/114/25 25/41/118
f 49/71/42 129/164/119 88/121/120
f 8/12/121 42/63/10 130/165/122
f 4/7/6 39/58/4 130/165/122
f 39/58/4 29/45/128 93/127/116
f 92/126/123 130/165/122 93/127/116
f 3/4/8 41/61/9 131/166/124
f 7/10/13 44/66/125 131/166/124
f 44/66/125 30/47/108 94/128/114
f 91/125/2 131/166/124 94/128/114
f 7/10/13 43/65/12 132/167/126
f 8/12/121 92/126/123 132/167/126
f 132/167/126 92/126/123 32/49/109
f 44/66/125 132/167/126 95/129/106
f 27/43/40 88/121/120 133/168/127
f 88/121/120 25/41/118 89/123/117
f 133/168/127 89/123/117 29/46/128
f 83/116/113 133/168/127 96/130/1
f 17/28/84 67/94/83 134/169/129
f 67/94/83 19/30/80 79/110/131
f 134/169/129 79/110/131 35/53/96
f 100/135/130 134/169/129 101/136/105
f 66/93/87 135/170/133 97/131/132
f 17/28/84 100/135/130 135/170/133
f 100/135/130 36/54/101 102/137/100
f 135/170/133 102/137/100 33/50/72
f 19/31/80 68/95/79 136/171/134
f 68/95/79 20/32/59 78/109/135
f 136/171/134 78/109/135 34/51/71
f 79/111/131 136/171/134 103/138/99
f 65/92/58 137/172/136 78/109/135
f 18/29/88 97/131/132 137/172/136
f 97/131/132 33/50/72 104/139/69
f 137/172/136 104/139/69 34/51/71
